<?xml version="1.0" encoding="UTF-8"?>
<svg xmlns="http://www.w3.org/2000/svg" xmlns:xlink="http://www.w3.org/1999/xlink" version="1.1" id="Layer_1" x="0px" y="0px" viewBox="0 0 792.7 107.6" style="enable-background:new 0 0 792.7 107.6;" xml:space="preserve">
<style type="text/css">
	.st0{fill:#000111;}
	.st1{fill:url(#SVGID_1_);}
	.st2{fill:url(#SVGID_2_);}
	.st3{fill:url(#SVGID_3_);}
	.st4{fill:url(#SVGID_4_);}
	.st5{fill:url(#SVGID_5_);}
	.st6{fill:url(#SVGID_6_);}
</style>
<title>logo_1</title>
<g id="Layer_2_1_">
	<g id="Layer_1-2">
		<path class="st0" d="M137.4,73l10.4-11.4c2.9,3,6.8,4.8,10.9,5c1.9,0,3.8-0.6,3.8-2.4s-1.8-2.6-9-5c-6.9-2.3-13.2-6-13.2-14.9    c0-12.7,11.4-17.5,21.4-17.5c7.2,0.1,14.1,2.8,19.4,7.6l-10.7,10.9c-2.2-2.6-5.4-4.2-8.8-4.4c-2.5,0-4.2,0.7-4.2,2.3s1.5,2,5,3.2    c7.3,2.4,17.2,5.6,17.2,16.1c0,12.3-10.7,18.2-21,18.2C150.6,80.7,142.6,77.6,137.4,73z"></path>
		<path class="st0" d="M186.5,28.3h35.1v14.2h-18.9v4.4h17.8v13.3h-17.8V65h20.1v14.3h-36.3V28.3z"></path>
		<path class="st0" d="M224.1,28.3h19.4l8.4,31.5h0.3l8.1-31.5h19.4l-18.4,51h-19L224.1,28.3z"></path>
		<path class="st0" d="M283.2,28.3h35.1v14.2h-18.9v4.4h17.8v13.3h-17.8V65h20.2v14.3h-36.3V28.3z"></path>
		<path class="st0" d="M326.6,28.3h17.1l14.5,25.8h0.3l-0.7-25.9H374v51h-17.5l-14.1-24.4h-0.3l0.7,24.3h-16.3V28.3z"></path>
		<path class="st0" d="M426.9,26.8c7.9,0,15.3,2.7,19.9,7.1l-10.5,12.7c-2-2.6-5.2-4-8.4-3.8c-5.7,0-10.3,4.2-10.3,11    c0,6.6,4.8,10.9,10.3,10.9c3.3,0.1,6.4-1.5,8.4-4.1l10.5,12.6c-4.5,4.5-11.4,7.6-19.9,7.6c-15.4,0-27.7-10.9-27.7-26.9    C399.2,37.4,411.5,26.8,426.9,26.8z"></path>
		<path class="st0" d="M476.8,26.8c16.1,0,28.4,10.3,28.4,26.6s-12.2,27.2-28.4,27.2s-28.3-10.9-28.3-27.2S460.6,26.8,476.8,26.8z     M476.8,64.8c5.8,0,10.1-4.8,10.1-11.4s-4.3-11-10.1-11s-10.1,4.3-10.1,11S470.9,64.9,476.8,64.8L476.8,64.8z"></path>
		<path class="st0" d="M527.5,50.5l0.8,28.8h-16v-51h22.4l9.2,27.4h0.4l8-27.4h23.1v51h-16.6l0.5-28.7l-0.4-0.1l-9.5,28.7h-12.1    l-9.4-28.8L527.5,50.5z"></path>
		<path class="st0" d="M602,62.8v16.4h-17.1v-51h21.9c10.4,0,20.9,4,20.9,17.1c0,12.6-10.3,17.4-20.9,17.4L602,62.8z M602,41.6v8.2    h3.6c2.6,0,5.2-1.2,5.2-4.2c0-3.2-2.6-4-5.2-4L602,41.6z"></path>
		<path class="st0" d="M644,28.3h18.2l19.9,51h-18.6l-2.7-7.5h-16.2l-2.5,7.5h-18.2L644,28.3z M652.9,46.1l-4.2,12.6h8.3L652.9,46.1    z"></path>
		<path class="st0" d="M685.7,28.3h17.1l14.5,25.8h0.3l-0.7-25.9h16.3v51h-17.5l-14.1-24.4h-0.3l0.8,24.3h-16.3V28.3z"></path>
		<path class="st0" d="M772.5,79.3h-17.1V58.4l-19.2-30.1h20.7l8.1,15l7.7-15h20.2l-20.2,30.1V79.3z"></path>
		
			<linearGradient id="SVGID_1_" gradientUnits="userSpaceOnUse" x1="-33.1097" y1="-32.7705" x2="110.6503" y2="110.9895" gradientTransform="matrix(1 0 0 -1 0 107.8898)">
			<stop offset="0" style="stop-color:#95845A"></stop>
			<stop offset="1" style="stop-color:#F1E1AC"></stop>
		</linearGradient>
		<path class="st1" d="M103.3,32.8c-1.3-3.2-3-6.2-4.9-9.1C88.4,8.9,71.7,0,53.8,0C24.1,0,0.1,24.1,0.1,53.8s24.1,53.7,53.8,53.7    s53.7-24.1,53.7-53.8C107.5,46.5,106.1,39.4,103.3,32.8z M88,88c-19.4,18.4-50,17.7-68.5-1.7c-17.8-18.7-17.8-48.1,0-66.8    C38,0.2,68.6-0.6,88,17.9s20.1,49.1,1.7,68.5C89.1,86.9,88.6,87.5,88,88z"></path>
		
			<linearGradient id="SVGID_2_" gradientUnits="userSpaceOnUse" x1="-16.3225" y1="-49.5578" x2="127.4375" y2="94.2122" gradientTransform="matrix(1 0 0 -1 0 107.8898)">
			<stop offset="0" style="stop-color:#95845A"></stop>
			<stop offset="1" style="stop-color:#F1E1AC"></stop>
		</linearGradient>
		<path class="st2" d="M67.7,87.4c18.6-7.7,27.4-29.1,19.6-47.6c-0.4-0.9-0.8-1.8-1.2-2.6l-30,53C60.1,89.8,64,88.9,67.7,87.4z"></path>
		
			<linearGradient id="SVGID_3_" gradientUnits="userSpaceOnUse" x1="-14.1234" y1="-51.7569" x2="129.6367" y2="92.0131" gradientTransform="matrix(1 0 0 -1 0 107.8898)">
			<stop offset="0" style="stop-color:#95845A"></stop>
			<stop offset="1" style="stop-color:#F1E1AC"></stop>
		</linearGradient>
		<path class="st3" d="M91.2,28.2L88,33.8C99,52.7,92.7,76.9,73.8,88c-6,3.5-12.7,5.3-19.6,5.4l-3.1,5.5c0.8,0,1.6,0.1,2.4,0.1h0.6    C78.9,99,99,78.9,99,54.1c0,0,0,0,0,0v-0.6C99,44.5,96.3,35.6,91.2,28.2z"></path>
		
			<linearGradient id="SVGID_4_" gradientUnits="userSpaceOnUse" x1="-42.3075" y1="-23.5727" x2="101.4525" y2="120.1873" gradientTransform="matrix(1 0 0 -1 0 107.8898)">
			<stop offset="0" style="stop-color:#95845A"></stop>
			<stop offset="1" style="stop-color:#F1E1AC"></stop>
		</linearGradient>
		<path class="st4" d="M14.1,53.9c0-6.5,1.5-12.9,4.5-18.6h-6.3C9.9,41,8.6,47.2,8.6,53.5v0.6c0,17.8,10.5,33.9,26.8,41.1l2.9-4.9    C23.7,84,14.2,69.8,14.1,53.9z"></path>
		
			<linearGradient id="SVGID_5_" gradientUnits="userSpaceOnUse" x1="-48.9983" y1="-16.8819" x2="94.7617" y2="126.8781" gradientTransform="matrix(1 0 0 -1 0 107.8898)">
			<stop offset="0" style="stop-color:#95845A"></stop>
			<stop offset="1" style="stop-color:#F1E1AC"></stop>
		</linearGradient>
		<path class="st5" d="M54.1,8.6h-0.6c-12.1,0-23.6,4.8-32,13.4h64.7C77.7,13.4,66.1,8.6,54.1,8.6z"></path>
		
			<linearGradient id="SVGID_6_" gradientUnits="userSpaceOnUse" x1="-39.4075" y1="-26.4727" x2="104.3525" y2="117.2873" gradientTransform="matrix(1 0 0 -1 0 107.8898)">
			<stop offset="0" style="stop-color:#95845A"></stop>
			<stop offset="1" style="stop-color:#F1E1AC"></stop>
		</linearGradient>
		<path class="st6" d="M84.2,33.9l1.8-3.1l3-5.4v-0.1H18.5c-1.7,2.1-3.2,4.4-4.5,6.8h26.3c0.9,0,1.7,0.7,1.7,1.6c0,0,0,0,0,0    c0,0.4-0.2,0.8-0.5,1.2c-0.3,0.3-0.7,0.5-1.2,0.5h-18c-10.2,17.4-4.3,39.7,13,49.9c1.4,0.8,2.9,1.6,4.5,2.2l30.8-53    c0.5-0.7,1.5-0.9,2.3-0.4c0.7,0.5,0.9,1.4,0.5,2.1L43,88.5l-1.7,2.9l-2.9,5c2.9,1,6,1.8,9.1,2.2l0,0l3-5.3l1.8-3.2    C62.9,71.4,73.6,52.6,84.2,33.9z M60,35.9L41,69.4c-0.4,0.8-1.4,1-2.2,0.6l-0.1,0c-0.7-0.5-1-1.4-0.6-2.2l19-33.5    c0.4-0.8,1.4-1,2.2-0.6l0.1,0.1c0.5,0.3,0.8,0.8,0.8,1.4C60.2,35.4,60.1,35.7,60,35.9z"></path>
	</g>
</g>
</svg>
