<?xml version="1.0" encoding="UTF-8"?>
<svg xmlns="http://www.w3.org/2000/svg" id="Layer_2" data-name="Layer 2" viewBox="0 0 648.06 1088.47">
  <defs>
    <style>      .cls-1 {        fill: #faa61c;      }    </style>
  </defs>
  <g id="Layer_1-2" data-name="Layer 1">
    <path class="cls-1" d="M8.08,44.04l181.2,145.38c2.28,1.83,5.65,1.3,7.26-1.15L318.84,2.24c1.95-2.97,6.31-2.99,8.28-.03l124.44,186.12c1.62,2.42,4.97,2.94,7.24,1.11l181.18-145.4c3.25-2.61,8.08-.29,8.08,3.87v295.57c0,2.74-2.22,4.97-4.97,4.97h-79.83c-2.74,0-4.97-2.22-4.97-4.97v-107.32c0-4.16-4.81-6.48-8.07-3.88l-111.13,88.6c-2.29,1.83-5.65,1.28-7.26-1.17l-101.58-155.47c-1.94-2.97-6.28-3.01-8.27-.07l-105.79,155.71c-1.62,2.38-4.91,2.89-7.17,1.12l-113.42-88.85c-3.26-2.55-8.03-.23-8.03,3.91v177.49c0,2.74,2.22,4.97,4.97,4.97h550.55c2.74,0,4.97,2.22,4.97,4.97v131.32c0,1.7-.87,3.3-2.3,4.22-71.96,46.33-150.13,84.71-222.48,130.62-2.78,1.76-10.48,4.37-9.5,7.99l231.79,133.24c1.54.89,2.49,2.53,2.49,4.31v248.32c0,2.74-2.22,4.97-4.97,4.97h-79.83c-2.74,0-4.97-2.22-4.97-4.97v-194.69c0-1.77-.94-3.4-2.47-4.29l-230.21-133.99c-1.54-.9-3.45-.9-5,0l-230.57,133.99c-1.53.89-2.47,2.53-2.47,4.3v194.69c0,2.74-2.22,4.97-4.97,4.97H4.97c-2.74,0-4.97-2.22-4.97-4.97v-500.19c0-2.74,2.22-4.97,4.97-4.97h77.64c2.74,0,4.97,2.22,4.97,4.97v189.99c0,3.84,4.16,6.22,7.47,4.29l445.2-260.05c4.38-2.56,2.56-9.26-2.51-9.26H4.97c-2.74,0-4.97-2.22-4.97-4.97V47.92c0-4.17,4.83-6.48,8.08-3.88Z"></path>
  </g>
</svg>
