<?xml version="1.0" encoding="UTF-8"?>
<svg xmlns="http://www.w3.org/2000/svg" id="Layer_2" data-name="Layer 2" viewBox="0 0 1453.76 1178.59">
  <defs>
    <style>      .cls-1 {        fill: #fff;      }      .cls-2 {        fill: #faa61c;      }    </style>
  </defs>
  <g id="Layer_1-2" data-name="Layer 1">
    <g>
      <path class="cls-2" d="M486.97,33.44l137.59,110.39c1.73,1.39,4.29.99,5.51-.87L722.94,1.7c1.48-2.26,4.79-2.27,6.29-.02l94.49,141.33c1.23,1.84,3.77,2.23,5.5.85l137.58-110.4c2.47-1.98,6.13-.22,6.13,2.94v224.43c0,2.08-1.69,3.77-3.77,3.77h-60.61c-2.08,0-3.77-1.69-3.77-3.77v-81.49c0-3.16-3.65-4.92-6.12-2.95l-84.38,67.27c-1.74,1.39-4.29.98-5.51-.89l-77.13-118.05c-1.47-2.25-4.77-2.28-6.28-.06l-80.33,118.24c-1.23,1.81-3.73,2.2-5.45.85l-86.12-67.47c-2.48-1.94-6.1-.18-6.1,2.97v134.77c0,2.08,1.69,3.77,3.77,3.77h418.04c2.08,0,3.77,1.69,3.77,3.77v99.71c0,1.29-.66,2.51-1.75,3.21-54.64,35.18-113.99,64.32-168.93,99.18-2.11,1.34-7.96,3.32-7.21,6.07l176,101.17c1.17.67,1.89,1.92,1.89,3.27v188.55c0,2.08-1.69,3.77-3.77,3.77h-60.61c-2.08,0-3.77-1.69-3.77-3.77v-147.83c0-1.34-.71-2.58-1.87-3.26l-174.8-101.74c-1.17-.68-2.62-.68-3.79,0l-175.08,101.74c-1.16.68-1.88,1.92-1.88,3.26v147.83c0,2.08-1.69,3.77-3.77,3.77h-58.95c-2.08,0-3.77-1.69-3.77-3.77v-379.8c0-2.08,1.69-3.77,3.77-3.77h58.95c2.08,0,3.77,1.69,3.77,3.77v144.26c0,2.91,3.16,4.73,5.68,3.26l338.05-197.46c3.32-1.94,1.95-7.03-1.9-7.03h-404.55c-2.08,0-3.77-1.69-3.77-3.77V36.39c0-3.17,3.66-4.92,6.13-2.94Z"></path>
      <g>
        <path class="cls-1" d="M71.65,958.5c45.34,0,68.23,28.23,68.23,56.25,0,19.04-10.48,38.07-31.44,48.34l31.66,62.24h-35.93l-27.8-54.75c-1.5.21-2.99.21-4.7.21h-39.57v54.54H0v-166.83h71.65ZM32.08,989.51v50.26h40c23.1,0,34.65-12.41,34.65-25.03s-11.55-25.24-34.65-25.24h-40Z"></path>
        <path class="cls-1" d="M182.23,1072.29c5.99,14.54,21.17,24.17,38.29,24.17,15.83,0,30.37-5.35,40.64-14.97l19.89,23.53c-14.97,13.69-41.49,22.46-60.96,22.46-44.7,0-72.94-29.09-72.94-69.51s29.52-69.51,70.58-69.51,70.16,29.52,70.16,69.51c0,4.71-.43,9.63-1.29,14.33h-104.38ZM181.59,1043.41h71.86c-5.35-14.76-18.39-23.95-35.93-23.95s-30.8,9.2-35.93,23.95Z"></path>
        <path class="cls-1" d="M283.18,990.58h34.01l44.49,96.68,44.7-96.68h34.01l-62.24,134.75h-32.94l-62.03-134.75Z"></path>
        <path class="cls-1" d="M467.76,941.39c10.05,0,18.18,7.91,18.18,17.97s-8.13,18.18-18.18,18.18-18.18-8.13-18.18-18.18,8.13-17.97,18.18-17.97ZM452.37,990.58h31.01v134.75h-31.01v-134.75Z"></path>
        <path class="cls-1" d="M531.29,1072.29c5.99,14.54,21.17,24.17,38.29,24.17,15.83,0,30.37-5.35,40.64-14.97l19.89,23.53c-14.97,13.69-41.49,22.46-60.96,22.46-44.7,0-72.94-29.09-72.94-69.51s29.52-69.51,70.58-69.51,70.16,29.52,70.16,69.51c0,4.71-.43,9.63-1.29,14.33h-104.38ZM530.65,1043.41h71.86c-5.35-14.76-18.39-23.95-35.93-23.95s-30.8,9.2-35.93,23.95Z"></path>
        <path class="cls-1" d="M635.45,990.58h32.94l34.86,94.54,34.86-94.54h34.44l34.87,94.32,35.08-94.32h32.94l-49.84,134.75h-36.36l-33.79-91.76-34.01,91.76h-36.36l-49.62-134.75Z"></path>
        <path class="cls-1" d="M956.91,958.5h32.08v66.3l65.45-66.3h45.13l-67.16,68.02,70.58,98.81h-39.36l-54.11-75.93-20.53,20.53v55.4h-32.08v-166.83Z"></path>
        <path class="cls-1" d="M1131.45,941.39c10.05,0,18.18,7.91,18.18,17.97s-8.13,18.18-18.18,18.18-18.18-8.13-18.18-18.18,8.13-17.97,18.18-17.97ZM1116.05,990.58h31.01v134.75h-31.01v-134.75Z"></path>
        <path class="cls-1" d="M1196.25,1008.76c11.76-13.47,29.3-20.32,48.12-20.32,33.37,0,56.25,26.74,56.25,62.88v74h-31.01v-67.8c0-19.25-8.13-37.86-31.87-37.86s-41.49,17.54-41.49,39.57v66.09h-31.01v-134.75h31.01v18.18Z"></path>
        <path class="cls-1" d="M1327.14,1178.59v-29.95h50.69c26.31,0,43.21-14.54,44.7-38.07-11.55,10.69-26.95,16.9-44.92,16.9-37.64,0-64.59-29.09-64.59-69.51s26.95-69.51,64.81-69.51c17.97,0,33.37,6.2,44.92,16.9v-14.76h31.01v115.28c0,44.92-29.3,72.72-76.14,72.72h-50.48ZM1422.75,1058.17c0-22.89-16.04-38.5-39.36-38.5s-38.28,15.83-38.28,38.5,15.83,38.29,38.28,38.29,39.36-15.4,39.36-38.29Z"></path>
      </g>
    </g>
  </g>
</svg>
