<?xml version="1.0" encoding="UTF-8"?>
<svg xmlns="http://www.w3.org/2000/svg" id="Layer_2" data-name="Layer 2" viewBox="0 0 2320.52 580.46">
  <defs>
    <style>      .cls-1 {        fill: #eca221;      }      .cls-2 {        fill: #fff;      }    </style>
  </defs>
  <g id="Layer_1-2" data-name="Layer 1">
    <g>
      <path class="cls-1" d="M7.09,24.39l92.62,74.31c2.01,1.61,4.96,1.14,6.38-1.01L169.02,1.97c1.72-2.61,5.54-2.62,7.27-.03l64.05,95.8c1.42,2.13,4.36,2.58,6.36.98l92.62-74.33c2.86-2.29,7.09-.26,7.09,3.4v152.73c0,2.41-1.95,4.36-4.36,4.36h-39.26c-2.41,0-4.36-1.95-4.36-4.36v-52.12c0-3.66-4.23-5.69-7.08-3.41l-55.17,43.98c-2.01,1.6-4.97,1.13-6.37-1.03l-51.87-79.39c-1.7-2.61-5.51-2.64-7.26-.07l-54.08,79.61c-1.42,2.09-4.31,2.54-6.3.98l-56.43-44.21c-2.86-2.24-7.05-.2-7.05,3.43v89.67c0,2.41,1.95,4.36,4.36,4.36h290.88c2.41,0,4.36,1.95,4.36,4.36v67.55c0,1.5-.76,2.9-2.02,3.71-38.25,24.54-79.72,44.94-118.14,69.31-1.48.94-5.6,2.34-5.08,4.27l123.04,70.73c1.35.78,2.19,2.22,2.19,3.78v130.04c0,2.41-1.95,4.36-4.36,4.36h-39.26c-2.41,0-4.36-1.95-4.36-4.36v-101.38c0-1.55-.83-2.99-2.17-3.77l-121.35-70.63c-1.36-.79-3.03-.79-4.39,0l-121.55,70.63c-1.34.78-2.17,2.22-2.17,3.77v101.38c0,2.41-1.95,4.36-4.36,4.36H4.36c-2.41,0-4.36-1.95-4.36-4.36v-263.96c0-2.41,1.95-4.36,4.36-4.36h38.09c2.41,0,4.36,1.95,4.36,4.36v96.88c0,3.37,3.66,5.47,6.56,3.77l229.97-134.33c3.84-2.25,2.25-8.13-2.2-8.13H4.36c-2.41,0-4.36-1.95-4.36-4.36V27.79c0-3.66,4.24-5.69,7.09-3.4Z"></path>
      <g>
        <path class="cls-2" d="M532.23,186.38c58.67,0,88.28,36.53,88.28,72.78,0,24.63-13.56,49.26-40.68,62.54l40.96,80.53h-46.49l-35.98-70.85c-1.94.28-3.87.28-6.09.28h-51.2v70.57h-41.51v-215.86h92.71ZM481.03,226.51v65.04h51.75c29.89,0,44.83-16.05,44.83-32.38s-14.94-32.66-44.83-32.66h-51.75Z"></path>
        <path class="cls-2" d="M675.3,333.61c7.75,18.82,27.4,31.27,49.54,31.27,20.48,0,39.3-6.92,52.58-19.37l25.73,30.44c-19.37,17.71-53.69,29.06-78.87,29.06-57.84,0-94.37-37.64-94.37-89.94s38.19-89.94,91.32-89.94,90.77,38.19,90.77,89.94c0,6.09-.56,12.46-1.66,18.54h-135.05ZM674.47,296.25h92.98c-6.92-19.09-23.8-30.99-46.49-30.99s-39.85,11.9-46.49,30.99Z"></path>
        <path class="cls-2" d="M805.92,227.89h44l57.56,125.09,57.84-125.09h44l-80.53,174.35h-42.62l-80.26-174.35Z"></path>
        <path class="cls-2" d="M1044.75,164.24c13.01,0,23.52,10.24,23.52,23.25s-10.52,23.52-23.52,23.52-23.52-10.52-23.52-23.52,10.52-23.25,23.52-23.25ZM1024.83,227.89h40.13v174.35h-40.13v-174.35Z"></path>
        <path class="cls-2" d="M1126.94,333.61c7.75,18.82,27.4,31.27,49.54,31.27,20.48,0,39.3-6.92,52.58-19.37l25.73,30.44c-19.37,17.71-53.69,29.06-78.87,29.06-57.84,0-94.37-37.64-94.37-89.94s38.19-89.94,91.32-89.94,90.77,38.19,90.77,89.94c0,6.09-.56,12.46-1.66,18.54h-135.05ZM1126.11,296.25h92.98c-6.92-19.09-23.8-30.99-46.49-30.99s-39.85,11.9-46.49,30.99Z"></path>
        <path class="cls-2" d="M1261.71,227.89h42.62l45.11,122.32,45.11-122.32h44.56l45.11,122.04,45.39-122.04h42.62l-64.48,174.35h-47.05l-43.73-118.72-44,118.72h-47.05l-64.21-174.35Z"></path>
        <path class="cls-2" d="M1677.65,186.38h41.51v85.79l84.68-85.79h58.39l-86.9,88,91.33,127.85h-50.92l-70.02-98.24-26.57,26.57v71.68h-41.51v-215.86Z"></path>
        <path class="cls-2" d="M1903.48,164.24c13.01,0,23.52,10.24,23.52,23.25s-10.52,23.52-23.52,23.52-23.52-10.52-23.52-23.52,10.52-23.25,23.52-23.25ZM1883.55,227.89h40.13v174.35h-40.13v-174.35Z"></path>
        <path class="cls-2" d="M1987.32,251.41c15.22-17.43,37.91-26.29,62.27-26.29,43.17,0,72.78,34.59,72.78,81.36v95.75h-40.13v-87.73c0-24.91-10.52-48.98-41.24-48.98s-53.69,22.69-53.69,51.2v85.51h-40.13v-174.35h40.13v23.52Z"></path>
        <path class="cls-2" d="M2156.69,471.15v-38.75h65.59c34.04,0,55.9-18.82,57.84-49.26-14.94,13.84-34.87,21.86-58.12,21.86-48.71,0-83.57-37.64-83.57-89.94s34.87-89.94,83.85-89.94c23.25,0,43.17,8.03,58.12,21.86v-19.09h40.13v149.16c0,58.12-37.91,94.09-98.52,94.09h-65.31ZM2280.39,315.34c0-29.61-20.75-49.81-50.92-49.81s-49.54,20.48-49.54,49.81,20.48,49.54,49.54,49.54,50.92-19.92,50.92-49.54Z"></path>
      </g>
      <g>
        <path class="cls-2" d="M488.12,547.23c.81-.9,2.07-1.08,3.06-.36l3.42,2.25c1.26.81,1.53,2.61.45,3.69-5.67,5.85-13.78,9.46-23.14,9.46-18.64,0-32.06-14.14-32.06-32.6s13.42-32.69,32.06-32.69c9.37,0,17.47,3.6,23.14,9.55,1.08,1.08.81,2.88-.45,3.69l-3.42,2.25c-.99.63-2.25.45-3.06-.36-3.87-4.05-9.37-6.66-16.21-6.66-14.68,0-22.88,11.98-22.88,24.23s8.2,24.23,22.88,24.23c6.84,0,12.34-2.61,16.21-6.66Z"></path>
        <path class="cls-2" d="M529,514.54c.99-.09,1.8.63,1.8,1.53v5.85c0,.9-.81,1.62-1.71,1.62-11.98-.63-13.6,9.1-13.6,17.2v18.01c0,1.35-1.08,2.43-2.34,2.43h-3.42c-1.35,0-2.43-1.08-2.43-2.43v-40.8c0-1.35,1.08-2.43,2.43-2.43h3.42c1.26,0,2.34,1.08,2.34,2.43v5.49c2.79-5.58,8.2-8.47,13.51-8.92Z"></path>
        <path class="cls-2" d="M585.38,538.41c0,13.15-10.18,23.96-23.96,23.96s-23.96-10.81-23.96-23.96,10.18-23.96,23.96-23.96,23.96,10.81,23.96,23.96ZM577,538.41c0-9.37-6.57-16.21-15.58-16.21s-15.49,6.84-15.49,16.21,6.48,16.12,15.49,16.12,15.58-6.84,15.58-16.12Z"></path>
        <path class="cls-2" d="M650.13,515.53h3.96c1.35,0,2.34,1.35,1.89,2.7l-13.69,40.8c-.45,1.26-1.62,2.16-3.06,2.16h-3.06c-1.44,0-2.61-.9-3.06-2.25l-9.28-28.82-9.19,28.82c-.45,1.35-1.71,2.25-3.06,2.25h-3.15c-1.35,0-2.61-.9-2.97-2.16l-13.78-40.8c-.45-1.35.54-2.7,1.89-2.7h4.05c1.35,0,2.61.9,3.06,2.25l9.46,31.43,10.18-31.97c.36-.99,1.26-1.71,2.34-1.71h2.43c.99,0,1.98.72,2.25,1.71l10.18,31.97,9.55-31.43c.36-1.35,1.62-2.25,3.06-2.25Z"></path>
        <path class="cls-2" d="M706.59,532.64v26.12c0,1.35-1.08,2.43-2.43,2.43h-3.42c-1.26,0-2.34-1.08-2.34-2.43v-23.77c0-6.39-2.79-12.79-11.35-12.79s-12.07,7.47-12.07,12.79v23.77c0,1.35-1.08,2.43-2.43,2.43h-3.42c-1.35,0-2.34-1.08-2.34-2.43v-40.8c0-1.35.99-2.43,2.34-2.43h3.42c1.35,0,2.43,1.08,2.43,2.43v3.96c2.7-4.05,7.11-7.47,14.05-7.47,10.27,0,17.56,8.47,17.56,18.19Z"></path>
        <path class="cls-2" d="M720,502.74c0-2.61,2.16-4.68,4.68-4.68s4.68,2.07,4.68,4.68-2.07,4.68-4.68,4.68-4.68-2.07-4.68-4.68ZM720.63,558.76v-40.8c0-1.35,1.08-2.43,2.43-2.43h3.33c1.35,0,2.43,1.08,2.43,2.43v40.8c0,1.35-1.08,2.43-2.43,2.43h-3.33c-1.35,0-2.43-1.08-2.43-2.43Z"></path>
        <path class="cls-2" d="M782.59,532.64v26.12c0,1.35-1.08,2.43-2.43,2.43h-3.42c-1.26,0-2.34-1.08-2.34-2.43v-23.77c0-6.39-2.79-12.79-11.35-12.79s-12.07,7.47-12.07,12.79v23.77c0,1.35-1.08,2.43-2.43,2.43h-3.42c-1.35,0-2.34-1.08-2.34-2.43v-40.8c0-1.35.99-2.43,2.34-2.43h3.42c1.35,0,2.43,1.08,2.43,2.43v3.96c2.7-4.05,7.11-7.47,14.05-7.47,10.27,0,17.56,8.47,17.56,18.19Z"></path>
        <path class="cls-2" d="M834.64,515.53h3.33c1.35,0,2.43,1.08,2.43,2.43v38.45c0,12.97-6.93,22.96-23.32,22.96-7.65,0-14.68-2.61-18.91-6.84-1.08-1.08-.81-2.97.54-3.78l2.88-1.71c.9-.54,2.16-.45,2.88.27,2.16,2.25,6.3,4.32,12.61,4.32,10.9,0,15.13-6.93,15.13-16.03v-3.51c-3.15,4.41-8.1,7.83-15.58,7.83-13.33,0-22.69-11.44-22.69-22.78s9.37-22.69,22.69-22.69c7.48,0,12.43,3.42,15.58,7.75v-4.23c0-1.35,1.08-2.43,2.43-2.43ZM832.21,537.15c0-8.38-5.76-14.68-14.23-14.95-8.38-.27-15.67,6.48-15.67,14.95s6.57,14.95,15.13,14.95,14.77-6.3,14.77-14.95Z"></path>
        <path class="cls-2" d="M901.19,523.37h-8.2v19.99c0,6.48.18,10.81,7.2,10.81h1.26c1.17-.09,2.16.81,2.16,1.98v3.33c0,1.08-.81,1.89-1.8,1.98-.81.09-1.71.18-2.61.18-10,0-14.41-5.31-14.41-15.4v-22.87h-5.4c-1.35,0-2.43-1.08-2.43-2.43v-2.97c0-1.35,1.08-2.43,2.43-2.43h5.4v-7.2c0-1.26,1.08-2.34,2.43-2.34h3.33c1.35,0,2.43,1.08,2.43,2.34v7.2h8.2c1.35,0,2.43,1.08,2.43,2.43v2.97c0,1.35-1.08,2.43-2.43,2.43Z"></path>
        <path class="cls-2" d="M956.03,532.64v26.12c0,1.35-1.08,2.43-2.43,2.43h-3.42c-1.26,0-2.34-1.08-2.34-2.43v-23.77c0-6.39-2.79-12.79-11.35-12.79s-12.07,7.47-12.07,12.79v23.77c0,1.35-1.08,2.43-2.43,2.43h-3.42c-1.26,0-2.34-1.08-2.34-2.43v-58.18c0-1.35,1.08-2.43,2.34-2.43h3.42c1.35,0,2.43,1.08,2.43,2.43v21.34c2.7-4.05,7.11-7.47,14.05-7.47,10.27,0,17.56,8.47,17.56,18.19Z"></path>
        <path class="cls-2" d="M1012.58,538.77c0,1.71-1.44,3.15-3.15,3.15h-33.41c1.35,7.48,6.84,12.61,15.85,12.61,4.14,0,8.02-1.44,10.72-3.87.81-.72,1.98-.81,2.88-.18l2.7,1.71c1.35.81,1.53,2.61.54,3.69-4.14,4.14-10,6.39-16.84,6.39-15.13,0-24.5-10.72-24.5-23.87s9.64-23.96,23.05-23.96c11.62,0,22.6,9.19,22.15,24.32ZM1004.03,534.81c-1.08-7.65-5.85-12.61-13.6-12.61s-13.15,5.04-14.41,12.61h28.01Z"></path>
        <path class="cls-2" d="M1098.04,538.41c0,11.89-8.56,23.87-22.78,23.87-7.93,0-13.15-3.24-16.57-7.47v3.96c0,1.35-1.08,2.43-2.43,2.43h-3.33c-1.35,0-2.43-1.08-2.43-2.43v-58.18c0-1.35,1.08-2.43,2.43-2.43h3.33c1.35,0,2.43,1.08,2.43,2.43v21.34c3.42-4.23,8.65-7.47,16.57-7.47,14.23,0,22.78,11.98,22.78,23.96ZM1089.57,538.41c0-9.28-5.67-16.21-15.13-16.21-10,0-15.76,7.11-15.76,16.21s5.76,16.12,15.76,16.12c9.46,0,15.13-6.93,15.13-16.12Z"></path>
        <path class="cls-2" d="M1151.8,538.77c0,1.71-1.44,3.15-3.15,3.15h-33.41c1.35,7.48,6.84,12.61,15.85,12.61,4.14,0,8.02-1.44,10.72-3.87.81-.72,1.98-.81,2.88-.18l2.7,1.71c1.35.81,1.53,2.61.54,3.69-4.14,4.14-10,6.39-16.84,6.39-15.13,0-24.5-10.72-24.5-23.87s9.64-23.96,23.05-23.96c11.62,0,22.6,9.19,22.15,24.32ZM1143.25,534.81c-1.08-7.65-5.85-12.61-13.6-12.61s-13.15,5.04-14.41,12.61h28.01Z"></path>
        <path class="cls-2" d="M1195.48,547.5c0,8.01-5.85,14.77-17.92,14.77-7.83,0-14.5-2.7-17.38-7.74-.72-1.35,0-2.97,1.35-3.42l3.6-1.26c1.08-.36,2.16.09,2.79.99,1.26,1.98,4.05,3.96,9.82,3.96s9.28-2.43,9.28-6.48c0-5.4-7.65-5.31-14.05-6.75-8.46-1.98-12.25-6.12-12.25-12.79,0-8.38,6.93-14.32,16.93-14.32,6.3,0,11.98,2.79,14.5,7.75.72,1.35,0,3.06-1.44,3.42l-3.24.9c-.99.27-2.07-.09-2.61-.99-1.26-1.98-3.87-3.78-8.01-3.78-4.5,0-7.75,2.61-7.75,6.39,0,5.13,6.21,5.49,11.44,6.57,11.17,2.34,14.95,5.85,14.95,12.79Z"></path>
        <path class="cls-2" d="M1224.65,523.37h-8.2v19.99c0,6.48.18,10.81,7.2,10.81h1.26c1.17-.09,2.16.81,2.16,1.98v3.33c0,1.08-.81,1.89-1.8,1.98-.81.09-1.71.18-2.61.18-10,0-14.41-5.31-14.41-15.4v-22.87h-5.4c-1.35,0-2.43-1.08-2.43-2.43v-2.97c0-1.35,1.08-2.43,2.43-2.43h5.4v-7.2c0-1.26,1.08-2.34,2.43-2.34h3.33c1.35,0,2.43,1.08,2.43,2.34v7.2h8.2c1.35,0,2.43,1.08,2.43,2.43v2.97c0,1.35-1.08,2.43-2.43,2.43Z"></path>
        <path class="cls-2" d="M1269.05,530.39h24.14c1.26,0,2.34.99,2.34,2.34v3.24c0,1.35-1.08,2.43-2.34,2.43h-24.14c-1.26,0-2.34-1.08-2.34-2.43v-3.24c0-1.35,1.08-2.34,2.34-2.34Z"></path>
        <path class="cls-2" d="M1379.36,561.19h-4.95c-1.53,0-2.88-.81-3.51-2.16l-11.98-22.24c-.81.09-1.62.09-2.43.09h-10.45v21.88c0,1.35-1.08,2.43-2.34,2.43h-4.23c-1.35,0-2.43-1.08-2.43-2.43v-58.18c0-1.35,1.08-2.43,2.43-2.43h17.02c14.41,0,22.6,8.47,22.6,19.36,0,7.56-3.96,14.05-11.35,17.2l13.33,23.51c.72,1.35-.18,2.97-1.71,2.97ZM1356.49,528.68c8.65,0,13.42-4.41,13.42-11.17s-4.77-11.17-13.42-11.17h-10.45v22.33h10.45Z"></path>
        <path class="cls-2" d="M1433.39,538.77c0,1.71-1.44,3.15-3.15,3.15h-33.41c1.35,7.48,6.84,12.61,15.85,12.61,4.14,0,8.02-1.44,10.72-3.87.81-.72,1.98-.81,2.88-.18l2.7,1.71c1.35.81,1.53,2.61.54,3.69-4.14,4.14-10,6.39-16.84,6.39-15.13,0-24.5-10.72-24.5-23.87s9.64-23.96,23.05-23.96c11.62,0,22.6,9.19,22.15,24.32ZM1424.84,534.81c-1.08-7.65-5.85-12.61-13.6-12.61s-13.15,5.04-14.41,12.61h28.01Z"></path>
        <path class="cls-2" d="M1476.89,515.53h3.96c1.44,0,2.34,1.44,1.89,2.7l-15.94,40.89c-.45,1.26-1.62,2.07-2.97,2.07h-4.95c-1.35,0-2.52-.81-2.97-2.07l-15.85-40.89c-.54-1.26.45-2.7,1.8-2.7h4.05c1.26,0,2.52.81,2.97,2.07l12.52,33.68,12.43-33.68c.54-1.26,1.71-2.07,3.06-2.07Z"></path>
        <path class="cls-2" d="M1493.1,502.74c0-2.61,2.16-4.68,4.68-4.68s4.68,2.07,4.68,4.68-2.07,4.68-4.68,4.68-4.68-2.07-4.68-4.68ZM1493.73,558.76v-40.8c0-1.35,1.08-2.43,2.43-2.43h3.33c1.35,0,2.43,1.08,2.43,2.43v40.8c0,1.35-1.08,2.43-2.43,2.43h-3.33c-1.35,0-2.43-1.08-2.43-2.43Z"></path>
        <path class="cls-2" d="M1558.39,538.77c0,1.71-1.44,3.15-3.15,3.15h-33.41c1.35,7.48,6.84,12.61,15.85,12.61,4.14,0,8.02-1.44,10.72-3.87.81-.72,1.98-.81,2.88-.18l2.7,1.71c1.35.81,1.53,2.61.54,3.69-4.14,4.14-10,6.39-16.84,6.39-15.13,0-24.5-10.72-24.5-23.87s9.64-23.96,23.05-23.96c11.62,0,22.6,9.19,22.15,24.32ZM1549.83,534.81c-1.08-7.65-5.85-12.61-13.6-12.61s-13.15,5.04-14.41,12.61h28.01Z"></path>
        <path class="cls-2" d="M1624.13,515.53h3.96c1.35,0,2.34,1.35,1.89,2.7l-13.69,40.8c-.45,1.26-1.62,2.16-3.06,2.16h-3.06c-1.44,0-2.61-.9-3.06-2.25l-9.28-28.82-9.19,28.82c-.45,1.35-1.71,2.25-3.06,2.25h-3.15c-1.35,0-2.61-.9-2.97-2.16l-13.78-40.8c-.45-1.35.54-2.7,1.89-2.7h4.05c1.35,0,2.61.9,3.06,2.25l9.46,31.43,10.18-31.97c.36-.99,1.26-1.71,2.34-1.71h2.43c.99,0,1.98.72,2.25,1.71l10.18,31.97,9.55-31.43c.36-1.35,1.62-2.25,3.06-2.25Z"></path>
        <path class="cls-2" d="M1640.24,502.74c0-2.61,2.16-4.68,4.68-4.68s4.68,2.07,4.68,4.68-2.07,4.68-4.68,4.68-4.68-2.07-4.68-4.68ZM1640.87,558.76v-40.8c0-1.35,1.08-2.43,2.43-2.43h3.33c1.35,0,2.43,1.08,2.43,2.43v40.8c0,1.35-1.08,2.43-2.43,2.43h-3.33c-1.35,0-2.43-1.08-2.43-2.43Z"></path>
        <path class="cls-2" d="M1702.83,532.64v26.12c0,1.35-1.08,2.43-2.43,2.43h-3.42c-1.26,0-2.34-1.08-2.34-2.43v-23.77c0-6.39-2.79-12.79-11.35-12.79s-12.07,7.47-12.07,12.79v23.77c0,1.35-1.08,2.43-2.43,2.43h-3.42c-1.35,0-2.34-1.08-2.34-2.43v-40.8c0-1.35.99-2.43,2.34-2.43h3.42c1.35,0,2.43,1.08,2.43,2.43v3.96c2.7-4.05,7.11-7.47,14.05-7.47,10.27,0,17.56,8.47,17.56,18.19Z"></path>
        <path class="cls-2" d="M1754.88,515.53h3.33c1.35,0,2.43,1.08,2.43,2.43v38.45c0,12.97-6.93,22.96-23.33,22.96-7.65,0-14.68-2.61-18.91-6.84-1.08-1.08-.81-2.97.54-3.78l2.88-1.71c.9-.54,2.16-.45,2.88.27,2.16,2.25,6.3,4.32,12.61,4.32,10.9,0,15.13-6.93,15.13-16.03v-3.51c-3.15,4.41-8.11,7.83-15.58,7.83-13.33,0-22.69-11.44-22.69-22.78s9.37-22.69,22.69-22.69c7.47,0,12.43,3.42,15.58,7.75v-4.23c0-1.35,1.08-2.43,2.43-2.43ZM1752.45,537.15c0-8.38-5.76-14.68-14.23-14.95-8.38-.27-15.67,6.48-15.67,14.95s6.57,14.95,15.13,14.95,14.77-6.3,14.77-14.95Z"></path>
        <path class="cls-2" d="M1821.42,523.37h-8.2v19.99c0,6.48.18,10.81,7.21,10.81h1.26c1.17-.09,2.16.81,2.16,1.98v3.33c0,1.08-.81,1.89-1.8,1.98-.81.09-1.71.18-2.61.18-10,0-14.41-5.31-14.41-15.4v-22.87h-5.4c-1.35,0-2.43-1.08-2.43-2.43v-2.97c0-1.35,1.08-2.43,2.43-2.43h5.4v-7.2c0-1.26,1.08-2.34,2.43-2.34h3.33c1.35,0,2.43,1.08,2.43,2.34v7.2h8.2c1.35,0,2.43,1.08,2.43,2.43v2.97c0,1.35-1.08,2.43-2.43,2.43Z"></path>
        <path class="cls-2" d="M1876.27,532.64v26.12c0,1.35-1.08,2.43-2.43,2.43h-3.42c-1.26,0-2.34-1.08-2.34-2.43v-23.77c0-6.39-2.79-12.79-11.35-12.79s-12.07,7.47-12.07,12.79v23.77c0,1.35-1.08,2.43-2.43,2.43h-3.42c-1.26,0-2.34-1.08-2.34-2.43v-58.18c0-1.35,1.08-2.43,2.34-2.43h3.42c1.35,0,2.43,1.08,2.43,2.43v21.34c2.7-4.05,7.11-7.47,14.05-7.47,10.27,0,17.56,8.47,17.56,18.19Z"></path>
        <path class="cls-2" d="M1932.82,538.77c0,1.71-1.44,3.15-3.15,3.15h-33.41c1.35,7.48,6.84,12.61,15.85,12.61,4.14,0,8.02-1.44,10.72-3.87.81-.72,1.98-.81,2.88-.18l2.7,1.71c1.35.81,1.53,2.61.54,3.69-4.14,4.14-10,6.39-16.84,6.39-15.13,0-24.5-10.72-24.5-23.87s9.64-23.96,23.05-23.96c11.62,0,22.6,9.19,22.15,24.32ZM1924.26,534.81c-1.08-7.65-5.85-12.61-13.6-12.61s-13.15,5.04-14.41,12.61h28.01Z"></path>
        <path class="cls-2" d="M1992.43,514.54c.99-.09,1.8.63,1.8,1.53v5.85c0,.9-.81,1.62-1.71,1.62-11.98-.63-13.6,9.1-13.6,17.2v18.01c0,1.35-1.08,2.43-2.34,2.43h-3.42c-1.35,0-2.43-1.08-2.43-2.43v-40.8c0-1.35,1.08-2.43,2.43-2.43h3.42c1.26,0,2.34,1.08,2.34,2.43v5.49c2.79-5.58,8.2-8.47,13.51-8.92Z"></path>
        <path class="cls-2" d="M2046.11,538.77c0,1.71-1.44,3.15-3.15,3.15h-33.41c1.35,7.48,6.84,12.61,15.85,12.61,4.14,0,8.02-1.44,10.72-3.87.81-.72,1.98-.81,2.88-.18l2.7,1.71c1.35.81,1.53,2.61.54,3.69-4.14,4.14-10,6.39-16.84,6.39-15.13,0-24.5-10.72-24.5-23.87s9.64-23.96,23.05-23.96c11.62,0,22.6,9.19,22.15,24.32ZM2037.55,534.81c-1.08-7.65-5.85-12.61-13.6-12.61s-13.15,5.04-14.41,12.61h28.01Z"></path>
        <path class="cls-2" d="M2089.78,547.5c0,8.01-5.85,14.77-17.92,14.77-7.83,0-14.5-2.7-17.38-7.74-.72-1.35,0-2.97,1.35-3.42l3.6-1.26c1.08-.36,2.16.09,2.79.99,1.26,1.98,4.05,3.96,9.82,3.96s9.28-2.43,9.28-6.48c0-5.4-7.65-5.31-14.05-6.75-8.47-1.98-12.25-6.12-12.25-12.79,0-8.38,6.93-14.32,16.93-14.32,6.3,0,11.98,2.79,14.5,7.75.72,1.35,0,3.06-1.44,3.42l-3.24.9c-.99.27-2.07-.09-2.61-.99-1.26-1.98-3.87-3.78-8.02-3.78-4.5,0-7.74,2.61-7.74,6.39,0,5.13,6.21,5.49,11.44,6.57,11.17,2.34,14.95,5.85,14.95,12.79Z"></path>
        <path class="cls-2" d="M2118.96,523.37h-8.2v19.99c0,6.48.18,10.81,7.2,10.81h1.26c1.17-.09,2.16.81,2.16,1.98v3.33c0,1.08-.81,1.89-1.8,1.98-.81.09-1.71.18-2.61.18-10,0-14.41-5.31-14.41-15.4v-22.87h-5.4c-1.35,0-2.43-1.08-2.43-2.43v-2.97c0-1.35,1.08-2.43,2.43-2.43h5.4v-7.2c0-1.26,1.08-2.34,2.43-2.34h3.33c1.35,0,2.43,1.08,2.43,2.34v7.2h8.2c1.35,0,2.43,1.08,2.43,2.43v2.97c0,1.35-1.08,2.43-2.43,2.43Z"></path>
      </g>
    </g>
  </g>
</svg>
