<?xml version="1.0" encoding="UTF-8"?>
<svg xmlns="http://www.w3.org/2000/svg" version="1.1" viewBox="0 0 512 512">
  <defs>
    <style>
      .cls-1 {
        fill: #fff;
      }
    </style>
  </defs>
  <!-- Generator: Adobe Illustrator 28.7.1, SVG Export Plug-In . SVG Version: 1.2.0 Build 142)  -->
  <g>
    <g id="Layer_1">
      <g id="EFGGkq.tif">
        <path class="cls-1" d="M21.5,21.5c8.1,0,16.3-.2,24.4-.3,36.6,0,73.1,0,109.7-.1,4.3,0,7,1.4,9.4,4.9,37.8,54.1,75.8,108.1,113.7,162.1,3.5,5,3.4,5,7.6.3,32.7-37.2,65.4-74.4,98.2-111.6,15.3-17.3,30.6-34.6,45.8-52.1,2.3-2.6,4.7-3.7,8.2-3.7,10.6.2,21.3,0,31.9,0,1.4,0,3.3-.7,4,1.1.5,1.4-1.1,2.3-1.9,3.2-23.6,26.9-47.1,53.7-70.7,80.6-32.2,36.6-64.3,73.2-96.6,109.6-3,3.4-3,5.6-.5,9.3,60.9,86.4,121.6,173,182.3,259.5,1.3,1.9,2.4,4,3.6,6h-140.7c-.8-1.4-1.6-2.9-2.5-4.3-40.1-57.1-80.2-114.2-120.4-171.3-3.9-5.6-4-5.6-8.4-.6-22.8,25.9-45.6,51.9-68.5,77.9-28.9,32.8-57.8,65.6-86.7,98.4-13.1,0-26.3,0-39.4,0-.7,0-2.4,1.3-2.5-.9,14.3-16.2,28.6-32.4,42.9-48.6,45.4-51.7,90.8-103.4,136.4-155,2.7-3,2.5-4.9.3-8-27-38.3-53.9-76.7-80.9-115.1C87.3,116.1,54.4,69.3,21.5,22.5v-1ZM431.3,460.5c-.4-2.7-1.7-3.8-2.6-5.1-68.6-96.1-137.2-192.1-205.9-288.2-26.2-36.7-52.4-73.3-78.6-110-1.7-2.3-3.2-4.4-6.6-4.4-18,.1-35.9,0-53.9,0-1.1,0-2.5-.5-3.2.7-.6,1.2.6,2.1,1.2,3.1.4.7,1,1.3,1.5,2,53.5,74.8,106.9,149.6,160.4,224.4,41.3,57.8,82.6,115.5,123.8,173.4,2.1,2.9,4.3,4.2,7.8,4.1,7.8-.2,15.6,0,23.4,0,10.8,0,21.6,0,32.7,0Z"/>
      </g>
    </g>
  </g>
</svg>