<?xml version="1.0" encoding="iso-8859-1"?>
<!-- Generator: Adobe Illustrator 18.0.0, SVG Export Plug-In . SVG Version: 6.00 Build 0)  -->
<!DOCTYPE svg PUBLIC "-//W3C//DTD SVG 1.1//EN" "http://www.w3.org/Graphics/SVG/1.1/DTD/svg11.dtd">
<svg version="1.1" xmlns="http://www.w3.org/2000/svg" xmlns:xlink="http://www.w3.org/1999/xlink" x="0px" y="0px"
	 viewBox="0 0 38.018 38.017" style="enable-background:new 0 0 38.018 38.017;" xml:space="preserve">
<g id="Layer_596">
	<g id="Layer_597">
		<g>
			<path style="fill:#D32F1E;" d="M38.018,19.009c0-2.132-0.356-4.261-1.061-6.274c-0.679-1.941-1.676-3.769-2.939-5.392
				c-1.253-1.61-2.765-3.017-4.46-4.15c-1.719-1.148-3.625-2.014-5.622-2.548c-2.079-0.556-4.251-0.752-6.397-0.588
				c-2.102,0.161-4.174,0.673-6.107,1.514C9.553,2.388,7.811,3.512,6.288,4.884C4.772,6.25,3.476,7.861,2.468,9.637
				c-1.028,1.81-1.754,3.788-2.139,5.833c-0.399,2.122-0.436,4.313-0.107,6.448c0.317,2.064,0.978,4.073,1.95,5.921
				c0.951,1.809,2.195,3.461,3.669,4.877c1.476,1.418,3.179,2.596,5.027,3.474c1.897,0.9,3.941,1.479,6.027,1.71
				c2.143,0.237,4.327,0.112,6.428-0.375c2.02-0.469,3.958-1.273,5.718-2.369c1.732-1.078,3.289-2.436,4.594-4.006
				c1.312-1.579,2.366-3.369,3.108-5.284c0.766-1.978,1.191-4.082,1.264-6.202C38.014,19.446,38.018,19.227,38.018,19.009z"/>
			<path d="M38.018,19.009C38.018,19.008,0,19.008,0,19.008c0,2.122,0.353,4.241,1.05,6.245c0.676,1.943,1.671,3.772,2.932,5.397
				c1.25,1.612,2.76,3.021,4.454,4.157c1.717,1.151,3.62,2.02,5.616,2.557c2.078,0.56,4.249,0.76,6.395,0.599
				c2.104-0.157,4.177-0.666,6.111-1.504c1.88-0.815,3.625-1.936,5.149-3.305c1.519-1.364,2.817-2.973,3.828-4.747
				c1.03-1.808,1.759-3.785,2.147-5.829C37.906,21.402,38.018,20.205,38.018,19.009z"/>
			<g>
				<g>
					<path style="fill:#FFD700;" d="M29.235,17.97c-0.066-0.655-0.193-1.292-0.377-1.905l0.927-0.277
						c-0.221-0.741-0.516-1.45-0.878-2.117l-0.852,0.458c-0.308-0.573-0.67-1.113-1.078-1.613l0.749-0.61
						c-0.484-0.595-1.028-1.138-1.623-1.62l-0.608,0.749c-0.5-0.408-1.041-0.769-1.613-1.079l0.457-0.851
						C23.67,8.744,22.961,8.449,22.22,8.23l-0.275,0.925c-0.625-0.186-1.274-0.313-1.941-0.378l-0.185,1.89
						c2.286,0.216,4.428,1.423,5.832,3.234c1.514,1.954,2.062,4.533,1.528,6.941c-0.388,1.752-1.345,3.356-2.71,4.522
						c0.896,0.667,1.719,1.271,2.35,1.733c0.317-0.306,0.617-0.631,0.896-0.972l-0.748-0.611c0.41-0.5,0.772-1.039,1.082-1.612
						l0.851,0.462c0.362-0.667,0.659-1.377,0.881-2.117l-0.927-0.279c0.185-0.612,0.313-1.248,0.381-1.903l0.962,0.099
						c0.077-0.76,0.08-1.531,0.001-2.292L29.235,17.97z"/>
					<path style="fill:#FFD700;" d="M21.642,26.965c-2.7,0.883-5.735,0.338-7.935-1.469l-1.202,1.471
						c0.493,0.403,1.024,0.761,1.587,1.067l-0.463,0.85c0.668,0.364,1.374,0.663,2.115,0.885l0.28-0.925
						c0.612,0.186,1.248,0.316,1.902,0.385l-0.101,0.96c0.761,0.081,1.53,0.083,2.292,0.009l-0.095-0.963
						c0.654-0.062,1.292-0.189,1.905-0.371l0.275,0.927c0.41-0.121,0.808-0.264,1.196-0.43l-0.509-1.644
						C22.483,27.471,22.062,27.219,21.642,26.965z"/>
				</g>
				<path style="fill:#FFD700;" d="M29.907,30.109c-1.042-0.991-1.91-1.565-1.91-1.565c-0.226,0.297-0.455,0.595-0.696,0.879
					c-0.102,0.119-0.218,0.225-0.316,0.344c-0.111,0.134,0.012,0.191,0.141,0.211c0.649,0.1,1.262,0.359,1.736,0.819
					c0.458,0.445,0.804,0.991,1.19,1.496c0.16,0.209,0.364,0.456,0.639,0.506c0.265,0.049,0.55-0.144,0.646-0.387
					c0.166-0.418-0.179-0.89-0.415-1.207C30.623,30.806,30.268,30.452,29.907,30.109z M28.356,29.597c-0.253,0-0.254-0.394,0-0.394
					C28.61,29.202,28.61,29.597,28.356,29.597z M29.436,30.479c-0.253,0-0.253-0.394,0-0.394
					C29.691,30.085,29.691,30.479,29.436,30.479z M30.361,31.446c-0.254,0-0.253-0.394,0-0.394
					C30.615,31.052,30.616,31.446,30.361,31.446z"/>
				<path style="fill:#FFD700;" d="M21.822,23.983c-1.195-0.91-2.389-1.822-3.535-2.793c-0.548-0.463-1.079-0.944-1.57-1.468
					c-0.455-0.485-0.938-1.009-1.239-1.607c-0.087-0.172-0.194-0.39-0.193-0.588c-0.641,1.206-0.902,2.628-0.308,3.906
					c0.574,1.233,1.691,1.991,2.825,2.66c2.641,1.558,5.259,3.156,7.886,4.735c0.397,0.239,0.794,0.477,1.191,0.716l0.448-0.567
					c-1.246-0.907-2.492-1.812-3.742-2.712c-1.206-0.869-2.427-1.719-3.592-2.643c-0.798-0.633-1.555-1.307-2.303-1.997
					c-0.076-0.076-0.038-0.214,0.065-0.242c0.133-0.035,0.276,0.171,0.359,0.248c0.275,0.254,0.556,0.503,0.839,0.748
					c0.566,0.489,1.146,0.961,1.739,1.417c1.197,0.92,2.435,1.786,3.658,2.669c1.053,0.76,2.104,1.522,3.153,2.287l0.277-0.351
					C25.778,26.953,23.789,25.482,21.822,23.983z"/>
				<polygon style="fill:#FFD700;" points="19.829,14.029 19.009,11.504 18.188,14.029 15.533,14.029 17.681,15.589 16.86,18.115 
					19.009,16.554 21.156,18.115 20.336,15.589 22.485,14.029 				"/>
			</g>
		</g>
	</g>
</g>
<g id="Layer_1">
</g>
</svg>
