<?xml version="1.0" encoding="utf-8"?>
<!-- Generator: Adobe Illustrator 23.0.2, SVG Export Plug-In . SVG Version: 6.00 Build 0)  -->
<svg version="1.1" id="Layer_1" xmlns="http://www.w3.org/2000/svg" xmlns:xlink="http://www.w3.org/1999/xlink" x="0px" y="0px"
	 width="38.018px" height="38.017px" viewBox="0 0 38.018 38.017" style="enable-background:new 0 0 38.018 38.017;"
	 xml:space="preserve">
<style type="text/css">
	.st0{fill:#FF0000;}
	.st1{fill:#00732F;}
	.st2{fill:#FFFFFF;}
</style>
<g id="XMLID_657_">
	<path id="XMLID_662_" class="st0" d="M13.223,0.907V37.11C5.564,34.658,0.004,27.473,0.004,19.008
		C0.004,10.549,5.564,3.359,13.223,0.907z"/>
	<g id="XMLID_658_">
		<path id="XMLID_661_" d="M36.931,25.345c-2.613,7.373-9.662,12.669-17.922,12.669c-2.017,0-3.962-0.316-5.787-0.904V25.345H36.931
			z"/>
		<path id="XMLID_660_" class="st1" d="M36.931,12.676H13.223V0.907c1.825-0.588,3.769-0.904,5.787-0.904
			C27.269,0.003,34.317,5.299,36.931,12.676z"/>
		<path id="XMLID_659_" class="st2" d="M38.014,19.008c0,2.222-0.38,4.354-1.083,6.336H13.223V12.676h23.708
			C37.634,14.655,38.014,16.787,38.014,19.008z"/>
	</g>
</g>
</svg>
