<?xml version="1.0" encoding="UTF-8"?>
<svg xmlns="http://www.w3.org/2000/svg" version="1.1" viewBox="0 0 23 23">
  <defs>
    <style>
      .cls-1 {
        fill: #fff;
        fill-rule: evenodd;
      }
    </style>
  </defs>
  <!-- Generator: Adobe Illustrator 28.7.1, SVG Export Plug-In . SVG Version: 1.2.0 Build 142)  -->
  <g>
    <g id="Layer_1">
      <g id="Layer_1-2" data-name="Layer_1">
        <path class="cls-1" d="M21,5.2l-.6,3.4,2.5,2.4c-.1-2.1-.8-4.1-1.9-5.7h0ZM16.6,10.7l-1.4,4.4,1.7,2.3,4.8-.7c.6-1.1.9-2.2,1.1-3.5l-3.5-3.4s-2.7.9-2.7.9ZM15.5,22.2c1.9-.7,3.6-2,4.9-3.6l-3.4.5-1.5,3.1ZM12.4,6.8l3.7,2.3,2.8-.9.8-4.8c-.9-.9-1.9-1.6-3-2.2l-4.3,2.3v3.2h0ZM9.2,16.2l-1.6,2.2,2.1,4.4c.6.1,1.2.1,1.8.1s1.2,0,1.8-.1l2.1-4.4-1.6-2.2h-4.7.1ZM11.5,8.3l-3.4,2.2,1.3,4h4.3l1.3-4-3.4-2.2h-.1ZM14.5.5c-1-.3-2-.4-3-.4s-2.1,0-3,.4l3,1.6s3-1.6,3-1.6ZM7,9.1l3.7-2.3v-3.2L6.4,1.3c-1.1.6-2.1,1.3-3,2.2l.8,4.8,2.8.9h0ZM7.8,15.1l-1.4-4.4-2.7-.9L.2,13.2c.2,1.2.6,2.4,1.1,3.5l4.8.7s1.7-2.3,1.7-2.3ZM2.6,18.6c1.3,1.6,3,2.8,4.9,3.6l-1.5-3.1-3.4-.5ZM2.5,8.6l-2.5,2.4c.1-2.1.8-4.1,1.9-5.7l.6,3.4h0Z"/>
      </g>
    </g>
  </g>
</svg>