<svg width="25" height="25" viewBox="0 0 25 25" fill="none" xmlns="http://www.w3.org/2000/svg">
<path d="M10 12.1729H14.2657V23.7803H10V12.1729Z" fill="white"/>
<path d="M1.4248 23.0548C1.4248 23.4555 1.74305 23.7803 2.13573 23.7803H8.58153V12.1729H1.4248V23.0548Z" fill="white"/>
<path d="M22.8462 12.1729H15.6895V23.7803H22.1353C22.528 23.7803 22.8462 23.4555 22.8462 23.0548V12.1729Z" fill="white"/>
<path d="M23.5557 6.36856H19.5416C19.7971 5.9295 19.9535 5.42375 19.9535 4.8772C19.9535 3.6439 19.5696 2.78733 18.8135 2.33165C17.3335 1.43898 15.0366 2.5336 13.4371 3.43269L13.3755 3.46669H10.891L10.8294 3.43269C9.2292 2.5336 6.93254 1.43898 5.45291 2.33165C4.69698 2.78733 4.31301 3.6439 4.31301 4.8772C4.31301 5.42375 4.46945 5.9295 4.72494 6.36856H0.710935C0.318254 6.36856 0 6.69332 0 7.09403V9.99589C0 10.3966 0.318254 10.7213 0.710935 10.7213H8.57861V6.36856H7.19636C6.39915 6.36856 5.73728 5.70506 5.73488 4.89156C5.73284 4.19953 5.88151 3.7584 6.17644 3.58081C6.52357 3.36978 7.49036 3.24433 10.0005 4.62819V10.7213H11.4224V8.54495C11.4224 8.14406 11.7404 7.81949 12.1333 7.81949C12.5261 7.81949 12.8442 8.14406 12.8442 8.54495V10.7213H14.2661V4.62819C16.7763 3.24433 17.7422 3.36978 18.0902 3.58081C18.3851 3.7584 18.5338 4.19953 18.5317 4.89156C18.5294 5.70506 17.8674 6.36856 17.0702 6.36856H15.6879V10.7213H23.5557C23.9483 10.7213 24.2666 10.3966 24.2666 9.99589V7.09403C24.2666 6.69332 23.9483 6.36856 23.5557 6.36856Z" fill="white"/>
</svg>
