<?xml version="1.0" encoding="iso-8859-1"?>
<!-- Generator: Adobe Illustrator 18.0.0, SVG Export Plug-In . SVG Version: 6.00 Build 0)  -->
<!DOCTYPE svg PUBLIC "-//W3C//DTD SVG 1.1//EN" "http://www.w3.org/Graphics/SVG/1.1/DTD/svg11.dtd">
<svg version="1.1" xmlns="http://www.w3.org/2000/svg" xmlns:xlink="http://www.w3.org/1999/xlink" x="0px" y="0px"
	 viewBox="0 0 38.017 38.017" style="enable-background:new 0 0 38.017 38.017;" xml:space="preserve">
<g id="Layer_77">
	<g id="Layer_78">
		<g>
			<path style="fill:#C11414;" d="M38.017,19.008c0-2.132-0.356-4.261-1.06-6.274c-0.679-1.941-1.676-3.769-2.939-5.392
				c-1.253-1.609-2.765-3.017-4.46-4.149c-1.719-1.148-3.625-2.014-5.622-2.549c-2.079-0.556-4.251-0.752-6.397-0.588
				c-2.102,0.16-4.174,0.673-6.107,1.514C9.553,2.387,7.81,3.512,6.288,4.883C4.771,6.25,3.476,7.861,2.468,9.636
				c-1.028,1.811-1.753,3.788-2.138,5.834c-0.4,2.122-0.436,4.312-0.107,6.447c0.317,2.065,0.978,4.073,1.95,5.922
				c0.951,1.809,2.195,3.461,3.668,4.877c1.476,1.418,3.179,2.597,5.028,3.474c1.896,0.9,3.941,1.479,6.027,1.711
				c2.143,0.236,4.327,0.111,6.428-0.376c2.02-0.469,3.958-1.272,5.718-2.368c1.732-1.078,3.289-2.437,4.593-4.006
				c1.312-1.579,2.367-3.369,3.108-5.284c0.766-1.977,1.191-4.082,1.264-6.202C38.013,19.446,38.017,19.227,38.017,19.008z"/>
			<polygon style="fill:#FFFFFF;" points="23.305,6.115 14.711,6.115 14.711,14.711 6.115,14.711 6.115,23.304 14.711,23.304 
				14.711,31.9 23.305,31.9 23.305,23.304 31.901,23.304 31.901,14.711 23.305,14.711 			"/>
		</g>
	</g>
</g>
<g id="Layer_1">
</g>
</svg>
