<?xml version="1.0" encoding="iso-8859-1"?>
<!-- Generator: Adobe Illustrator 18.0.0, SVG Export Plug-In . SVG Version: 6.00 Build 0)  -->
<!DOCTYPE svg PUBLIC "-//W3C//DTD SVG 1.1//EN" "http://www.w3.org/Graphics/SVG/1.1/DTD/svg11.dtd">
<svg version="1.1" xmlns="http://www.w3.org/2000/svg" xmlns:xlink="http://www.w3.org/1999/xlink" x="0px" y="0px"
	 viewBox="0 0 38.018 38.017" style="enable-background:new 0 0 38.018 38.017;" xml:space="preserve">
<g id="Layer_476">
	<g id="Layer_477">
		<g>
			<path style="fill:#FFFFFF;" d="M38.018,19.009c0-2.132-0.357-4.261-1.061-6.274c-0.679-1.941-1.676-3.769-2.939-5.392
				c-1.253-1.61-2.765-3.017-4.46-4.15c-1.719-1.148-3.625-2.014-5.622-2.548c-2.079-0.556-4.251-0.752-6.396-0.588
				c-2.103,0.161-4.174,0.673-6.107,1.514C9.553,2.388,7.811,3.512,6.288,4.884C4.772,6.25,3.476,7.861,2.468,9.637
				c-1.028,1.81-1.754,3.788-2.139,5.833c-0.399,2.122-0.435,4.313-0.107,6.448c0.317,2.064,0.979,4.073,1.95,5.921
				c0.951,1.809,2.195,3.462,3.669,4.877c1.476,1.418,3.179,2.596,5.027,3.474c1.896,0.9,3.94,1.479,6.027,1.71
				c2.143,0.237,4.327,0.112,6.428-0.375c2.019-0.469,3.958-1.273,5.718-2.369c1.732-1.078,3.289-2.436,4.594-4.006
				c1.312-1.579,2.366-3.369,3.107-5.284c0.766-1.978,1.191-4.082,1.264-6.202C38.014,19.446,38.018,19.227,38.018,19.009z"/>
			<g>
				<path style="fill:#FFAF0F;" d="M3.935,19.421c0.002,0.001,0.004,0,0.005-0.002C3.935,19.419,3.932,19.419,3.935,19.421z"/>
				<path style="fill:#FFAF0F;" d="M33.347,6.761c-0.215,0.238-0.438,0.583-0.754,0.691c-0.15,0.052-0.316,0.059-0.458,0.135
					c-0.147,0.08-0.272,0.202-0.415,0.291c-0.302,0.187-0.626,0.348-0.944,0.505C30.618,8.46,30.461,8.53,30.29,8.571
					c-0.174,0.042-0.36,0.054-0.528,0.117c-0.148,0.055-0.286,0.134-0.435,0.188C29.146,8.941,28.962,9,28.777,9.056
					c-0.168,0.051-0.336,0.109-0.51,0.136c-0.189,0.028-0.379,0.01-0.566-0.008c-0.166-0.016-0.329-0.05-0.494-0.065
					C27.032,9.102,26.89,9.15,26.735,9.23c-0.135,0.069-0.272,0.136-0.401,0.214c-0.147,0.088-0.252,0.221-0.398,0.304
					c-0.146,0.082-0.304,0.149-0.459,0.213c-0.084,0.035-0.201,0.104-0.295,0.105c-0.048,0.001-0.033-0.043-0.029-0.076
					c0.008-0.07-0.068-0.066-0.119-0.064c-0.174,0.004-0.344,0.058-0.518,0.069c-0.161,0.011-0.301,0.048-0.447,0.117
					c-0.166,0.079-0.316,0.136-0.503,0.135c-0.176-0.001-0.344,0.001-0.517,0.03c-0.184,0.032-0.364,0.076-0.549,0.103
					c-0.727,0.104-1.48,0.127-2.21,0.035c-0.17-0.022-0.34-0.052-0.506-0.096c-0.141-0.037-0.338-0.157-0.485-0.115
					c-0.098,0.028-0.178,0.141-0.286,0.073c-0.048-0.031-0.082-0.082-0.135-0.106c-0.071-0.032-0.164,0.027-0.234,0.043
					c-0.167,0.038-0.3-0.042-0.436-0.128c-0.064-0.04-0.125-0.086-0.204-0.085c-0.088,0.001-0.174,0.034-0.259,0.051
					c-0.364,0.073-0.682-0.01-1.023-0.135C16.65,9.892,16.575,9.855,16.5,9.847c-0.071-0.008-0.146,0.029-0.21,0.058
					c-0.144,0.062-0.283,0.143-0.439,0.167c-0.347,0.052-0.599-0.249-0.932-0.222c-0.15,0.012-0.27,0.014-0.406-0.061
					c-0.166-0.091-0.33-0.188-0.492-0.287c-0.15-0.091-0.3-0.183-0.45-0.273c-0.066-0.039-0.14-0.095-0.219-0.103
					c-0.114-0.013-0.023,0.16,0,0.199c0.082,0.141,0.013,0.311,0.006,0.462c-0.008,0.158,0.046,0.281,0.163,0.386
					c0.05,0.045,0.107,0.082,0.127,0.15c0.023,0.087,0.021,0.187,0.021,0.277c0.001,0.182-0.015,0.362-0.025,0.543
					c-0.012,0.191-0.01,0.382-0.027,0.573c-0.033,0.369-0.164,0.718-0.287,1.064c-0.107,0.306-0.159,0.616-0.428,0.825
					c-0.266,0.205-0.589,0.359-0.894,0.496c-0.149,0.066-0.295,0.1-0.455,0.049c-0.164-0.052-0.276-0.166-0.413-0.265
					c-0.137-0.099-0.3-0.121-0.459-0.161c-0.169-0.043-0.24-0.169-0.374-0.264c-0.239-0.168-0.591-0.094-0.862-0.167
					c-0.136-0.036-0.247-0.138-0.387-0.155c-0.165-0.02-0.274,0.115-0.423,0.154c-0.067,0.017-0.112-0.031-0.175-0.04
					c-0.057-0.007-0.112,0.038-0.15,0.074c-0.042,0.042-0.077,0.089-0.123,0.128c-0.072,0.059-0.149,0.042-0.234,0.058
					c-0.073,0.013-0.143,0.042-0.202,0.086c-0.045,0.033-0.082,0.089-0.142,0.094c-0.114,0.011-0.221-0.238-0.323-0.184
					c-0.043,0.023-0.025,0.115-0.035,0.155c-0.016,0.067-0.054,0.126-0.101,0.176c-0.107,0.115-0.223,0.199-0.307,0.335
					c-0.164,0.265-0.263,0.56-0.397,0.839c-0.287,0.594-0.938,0.948-1.579,1.018c-0.677,0.075-1.284-0.477-1.723-0.926
					c-0.058-0.059-0.134-0.165-0.225-0.17c-0.1-0.006-0.136,0.141-0.159,0.212c-0.076,0.232-0.115,0.506-0.016,0.737
					c0.101,0.233,0.29,0.411,0.423,0.623c0.14,0.224,0.285,0.489,0.282,0.761c-0.002,0.131-0.062,0.202-0.133,0.304
					c-0.06,0.087-0.001,0.162,0.065,0.223c0.159,0.148,0.355,0.419,0.225,0.639c-0.051,0.084-0.157,0.155-0.181,0.252
					c-0.028,0.108,0.165,0.201,0.236,0.249c0.095,0.062,0.181,0.123,0.226,0.231c0.026,0.062,0.091,0.184,0.054,0.251
					c0.141,0.014,0.295,0.072,0.425,0.125c0.152,0.062,0.253,0.167,0.271,0.333c0.019,0.165,0.048,0.281,0.126,0.429
					c0.074,0.14,0.038,0.327,0.083,0.479c0.043,0.144,0.056,0.256,0.013,0.4c-0.045,0.152,0.112,0.108,0.209,0.097
					c0.149-0.017,0.192,0.103,0.252,0.215c0.027,0.052,0.065,0.114,0.125,0.132c0.08,0.025,0.159-0.025,0.239,0.013
					c0.122,0.058,0.215,0.186,0.308,0.281c0.103,0.107,0.241,0.278,0.395,0.307c0.126,0.024,0.261-0.171,0.377-0.059
					c0.039,0.038,0.067,0.091,0.116,0.119c0.075,0.043,0.186,0.038,0.27,0.048C7.5,22.38,7.803,22.55,8.085,22.755
					c0.131,0.095,0.252,0.203,0.405,0.261c0.171,0.065,0.357,0.085,0.534,0.13c0.165,0.042,0.327,0.093,0.486,0.153
					c0.15,0.056,0.321,0.16,0.487,0.113c0.075-0.021,0.14-0.067,0.215-0.089c0.071-0.021,0.143-0.024,0.217-0.028
					c0.065-0.003,0.135-0.013,0.19-0.052c0.062-0.044,0.09-0.122,0.139-0.178c0.101-0.114,0.262-0.07,0.392-0.045
					c0.162,0.032,0.336,0.019,0.481-0.068c0.134-0.08,0.281,0.004,0.425,0.023c0.076,0.01,0.066,0,0.101-0.051
					c0.033-0.047,0.112-0.028,0.157-0.017c0.105,0.026,0.231,0.044,0.328,0.091c0.107,0.052,0.161,0.232,0.291,0.237
					c0.042,0.001,0.074-0.031,0.112-0.042c0.054-0.015,0.027,0.045,0.003,0.063c-0.028,0.02-0.078,0.033-0.077,0.075
					c0.001,0.051,0.057,0.096,0.092,0.126c0.188,0.16,0.389,0.258,0.379,0.541c-0.006,0.149-0.004,0.229,0.117,0.321
					c0.098,0.074,0.09,0.188,0.051,0.287c-0.017,0.041-0.104,0.195-0.012,0.184c0.074-0.008,0.135-0.04,0.212-0.035
					c0.087,0.005,0.182,0.043,0.269,0.024c0.06-0.013,0.106-0.061,0.159-0.089c0.065-0.034,0.138-0.05,0.211-0.048
					c0.178,0.005,0.338,0.11,0.493,0.185c0.04,0.02,0.192,0.111,0.225,0.044c0.05-0.104-0.108-0.277-0.169-0.346
					c-0.2-0.226-0.334-0.474-0.33-0.785c0.003-0.319,0.211-0.55,0.444-0.744c0.251-0.209,0.53-0.385,0.827-0.523
					c0.64-0.296,1.369-0.4,2.066-0.284c0.176,0.029,0.35,0.068,0.525,0.099c0.101,0.018,0.338,0.063,0.374-0.07
					c0.035-0.13,0.134-0.238,0.254-0.299c0.164-0.083,0.325,0.005,0.486,0.049c0.156,0.043,0.294,0.045,0.425-0.058
					c0.134-0.106,0.28-0.12,0.436-0.18c0.15-0.059,0.274-0.166,0.427-0.223c0.168-0.063,0.328-0.131,0.485-0.22
					c0.269-0.152,0.532-0.367,0.851-0.405c0.12-0.014,0.292,0.011,0.39-0.077c0.032-0.028,0.041-0.077,0.079-0.098
					c0.054-0.031,0.131-0.014,0.189-0.024c0.109-0.017,0.168-0.14,0.252-0.204c0.114-0.086,0.145-0.25,0.265-0.323
					c0.119-0.073,0.317-0.034,0.451-0.033c0.155,0.002,0.346,0.032,0.498-0.007c0.137-0.036,0.111-0.247,0.143-0.351
					c0.019-0.061,0.077-0.091,0.117-0.135c0.061-0.066,0.119-0.136,0.189-0.193c0.05-0.042,0.106-0.082,0.109-0.153
					c0.005-0.081-0.025-0.159-0.025-0.24c0-0.088,0.022-0.175,0.028-0.263c0.007-0.099,0.001-0.197-0.004-0.296
					c-0.015-0.333,0.096-0.649,0.312-0.907c0.176-0.21,0.442-0.295,0.705-0.329c0.292-0.038,0.594-0.042,0.888-0.048
					c0.316-0.006,0.643,0.011,0.939,0.133c0.144,0.06,0.273,0.146,0.392,0.248c0.105,0.092,0.238,0.282,0.395,0.276
					c0.136-0.005,0.274-0.149,0.389-0.215c0.147-0.084,0.239-0.204,0.366-0.311c0.118-0.099,0.269-0.151,0.421-0.17
					c0.097-0.013,0.261,0.039,0.343-0.025c0.09-0.072,0.219-0.171,0.335-0.097c0.043,0.027,0.083,0.064,0.131,0.082
					c0.064,0.024,0.139-0.037,0.208-0.036c0.077,0.002,0.148,0.035,0.225,0.04c0.06,0.003,0.116-0.026,0.177-0.027
					c0.071-0.001,0.132,0.061,0.192,0.091c0.085,0.044,0.174,0.077,0.256,0.125c0.066,0.039,0.123,0.086,0.177,0.141
					c0.062,0.063,0.107,0.019,0.183,0.017c0.112-0.003,0.214,0.064,0.323,0.08c0.139,0.019-0.035-0.09-0.074-0.108
					c-0.078-0.035-0.254-0.167-0.26-0.265c-0.003-0.052,0.083-0.062,0.11-0.095c0.028-0.033,0.031-0.074,0.019-0.114
					c-0.033-0.104-0.128-0.185-0.203-0.258c-0.217-0.213-0.334-0.505-0.533-0.733c-0.213-0.243-0.514-0.387-0.761-0.589
					c-0.113-0.092-0.217-0.198-0.287-0.327c-0.073-0.133-0.097-0.287-0.171-0.419c-0.076-0.134-0.218-0.218-0.326-0.326
					c-0.13-0.13-0.219-0.286-0.318-0.439c-0.095-0.147-0.164-0.15-0.327-0.155c-0.08-0.003,0.084-0.088,0.103-0.098
					c0.258-0.132-0.141-0.453-0.145-0.639c-0.004-0.156,0.076-0.308,0.107-0.459c0.037-0.18,0.066-0.357,0.131-0.531
					c0.054-0.146,0.121-0.284,0.217-0.408c0.108-0.139,0.181-0.282,0.261-0.437c0.148-0.286,0.487-0.402,0.788-0.443
					c0.314-0.043,0.616,0.147,0.926,0.067c0.133-0.035,0.27-0.114,0.338-0.238c0.073-0.134,0.069-0.296,0.142-0.434
					c0.158-0.304,0.403-0.595,0.66-0.82c0.558-0.487,1.225-0.85,1.892-1.162c-0.357-0.51-0.738-1.001-1.142-1.473
					C33.414,6.685,33.38,6.723,33.347,6.761z"/>
			</g>
			<g>
				<path style="fill:#374922;" d="M8.652,26.869c0.213,0.449,0.462,0.889,0.78,1.273c0.312,0.376,0.708,0.678,1.135,0.911
					c-0.133-0.556-0.348-1.127-0.691-1.588C9.599,27.094,9.147,26.721,8.652,26.869z"/>
				<path style="fill:#374922;" d="M11.793,31.14c-0.595,0.012-1.403,0.143-1.403,0.143c0.369,0.32,0.837,0.526,1.314,0.617
					c0.247,0.047,0.505,0.071,0.756,0.05c0.198-0.017,0.508-0.058,0.63-0.239C13.114,31.366,12.389,31.128,11.793,31.14z"/>
				<path style="fill:#374922;" d="M14.714,31.293c-0.394-0.128-0.962-0.194-1.291,0.129c0.183,0.346,0.556,0.54,0.929,0.607
					c0.497,0.09,1.024,0.051,1.522-0.009C15.572,31.682,15.142,31.433,14.714,31.293z"/>
				<path style="fill:#374922;" d="M13.766,32.24c-0.071-0.043-0.16-0.068-0.242-0.051c-0.093,0.02-0.067,0.103-0.055,0.171
					c0.025,0.132,0.03,0.289,0.149,0.375c0.114,0.083,0.321,0.093,0.351-0.082C13.995,32.508,13.889,32.315,13.766,32.24z"/>
				<path style="fill:#374922;" d="M14.529,32.842c0.841,0.688,1.999,0.428,2.925,0.071c-0.509-0.248-1.078-0.441-1.643-0.49
					C15.403,32.387,14.767,32.434,14.529,32.842z"/>
				<path style="fill:#374922;" d="M6.736,27.225c-0.595-0.333-1.392-0.321-1.392-0.321c0.025,0.389,0.23,0.762,0.605,0.904
					c0.405,0.154,0.883,0.152,1.311,0.139C7.26,27.948,7.331,27.559,6.736,27.225z"/>
				<path style="fill:#374922;" d="M5.727,24.587c-0.11-0.08-0.23-0.148-0.364-0.176c-0.037-0.008-0.214-0.056-0.22,0.007
					c-0.003,0.276-0.003,0.558,0.062,0.828c0.072,0.297,0.24,0.517,0.454,0.729c0.433,0.426,0.992,0.785,1.603,0.868
					c-0.069-0.425-0.194-0.861-0.45-1.214c-0.139-0.19-0.32-0.352-0.487-0.517C6.137,24.925,5.941,24.743,5.727,24.587z"/>
				<polygon style="fill:#374922;" points="20.107,32.886 19.903,32.61 19.087,32.957 18.271,32.61 18.067,32.886 18.498,33.073 
					17.453,33.877 18.024,34.511 19.087,33.261 20.149,34.511 20.72,33.877 19.675,33.073 				"/>
				<path style="fill:#374922;" d="M8.735,29.36c-0.654-0.1-1.582,0-1.582,0c0.033,0.452,0.536,0.673,0.922,0.749
					c0.292,0.058,0.592,0.075,0.89,0.067c0.296-0.009,0.605-0.029,0.889-0.119C9.854,30.057,9.39,29.46,8.735,29.36z"/>
				<path style="fill:#374922;" d="M10.299,30.432c-0.111-0.068-0.318-0.089-0.271,0.094c0.03,0.117,0.026,0.259,0.127,0.342
					c0.093,0.075,0.268,0.103,0.319-0.035C10.524,30.699,10.412,30.501,10.299,30.432z"/>
				<path style="fill:#374922;" d="M22.573,32.413c-0.846,0-1.854,0.5-1.854,0.5c0.926,0.356,2.083,0.616,2.924-0.071
					C23.644,32.842,23.418,32.413,22.573,32.413z"/>
				<path style="fill:#374922;" d="M28.118,30.394c-0.3-0.13-0.609,0.479-0.3,0.535c0.126,0.022,0.246-0.074,0.282-0.19
					C28.121,30.674,28.202,30.431,28.118,30.394z"/>
				<path style="fill:#374922;" d="M29.438,29.36c-0.654,0.1-1.118,0.697-1.118,0.697c0.278,0.088,0.583,0.109,0.873,0.118
					c0.305,0.009,0.611-0.009,0.911-0.068c0.385-0.075,0.883-0.298,0.917-0.748C31.021,29.36,30.092,29.26,29.438,29.36z"/>
				<path style="fill:#374922;" d="M32.77,24.418c-0.235,0.047-0.426,0.229-0.595,0.387c-0.198,0.186-0.408,0.363-0.597,0.56
					c-0.387,0.407-0.579,0.93-0.668,1.477c0.578-0.079,1.108-0.406,1.528-0.797c0.204-0.189,0.402-0.394,0.491-0.664
					c0.1-0.304,0.104-0.647,0.102-0.963C33.031,24.418,33.066,24.358,32.77,24.418z"/>
				<path style="fill:#374922;" d="M31.437,27.225c-0.595,0.333-0.523,0.723-0.523,0.723c0.428,0.013,0.905,0.015,1.312-0.139
					c0.375-0.142,0.58-0.515,0.604-0.904C32.829,26.905,32.031,26.892,31.437,27.225z"/>
				<path style="fill:#374922;" d="M24.672,32.196c-0.282-0.104-0.671,0.44-0.374,0.584c0.131,0.063,0.312-0.046,0.364-0.171
					c0.031-0.075,0.022-0.158,0.04-0.235C24.717,32.316,24.749,32.224,24.672,32.196z"/>
				<path style="fill:#374922;" d="M25.529,31.28c-0.177,0.066-0.462,0.201-0.446,0.431c0.125,0.184,0.442,0.225,0.645,0.24
					c0.246,0.017,0.499-0.005,0.741-0.051c0.478-0.09,0.945-0.297,1.315-0.617C27.061,31.167,26.235,31.014,25.529,31.28z"/>
				<path style="fill:#374922;" d="M23.572,31.259c-0.81,0.226-1.273,0.761-1.273,0.761c0.488,0.06,1.003,0.096,1.491,0.015
					c0.384-0.064,0.772-0.255,0.96-0.612C24.75,31.423,24.381,31.033,23.572,31.259z"/>
				<path style="fill:#374922;" d="M7.552,28.483c-0.099-0.019-0.34-0.017-0.337,0.133c0.004,0.191,0.271,0.312,0.423,0.356
					c0.115,0.034,0.415,0.079,0.392-0.127C8.005,28.63,7.734,28.519,7.552,28.483z"/>
				<path style="fill:#374922;" d="M25.643,30.736c0.829-0.063,2.142-0.225,2.392-1.202C27.099,29.429,26.139,29.95,25.643,30.736z"
					/>
				<path style="fill:#374922;" d="M27.161,28.747c-0.17,0.017-0.29,0.157-0.343,0.311c-0.042,0.124-0.027,0.294,0.138,0.3
					c0.124,0.004,0.309-0.089,0.312-0.229c0.002-0.1,0.065-0.23,0.047-0.326C27.304,28.743,27.206,28.743,27.161,28.747z"/>
				<path style="fill:#374922;" d="M24.949,29.527c-0.303,0.278-0.537,0.651-0.699,1.027c0.867-0.049,1.863-0.526,2.13-1.414
					C25.881,29.05,25.325,29.182,24.949,29.527z"/>
				<path style="fill:#374922;" d="M23.625,30.264c-0.168-0.027-0.31,0.081-0.394,0.216c-0.071,0.115-0.117,0.311,0.056,0.358
					c0.129,0.036,0.306-0.043,0.353-0.171c0.032-0.089,0.055-0.187,0.076-0.279C23.733,30.315,23.697,30.276,23.625,30.264z"/>
				<path style="fill:#374922;" d="M30.223,27.361c-0.736,0.223-1.232,1.03-1.522,1.692c0.433-0.054,0.841-0.27,1.164-0.556
					c0.164-0.146,0.315-0.311,0.44-0.492c0.12-0.176,0.278-0.437,0.239-0.66C30.443,27.307,30.321,27.331,30.223,27.361z"/>
				<path style="fill:#374922;" d="M30.255,25.33c-0.128,0.196-0.109,0.456-0.109,0.679c0.001,0.277,0.011,0.555,0.003,0.833
					c0.226-0.2,0.387-0.464,0.444-0.76c0.07-0.361,0.021-0.732,0.106-1.094C30.534,25.071,30.357,25.171,30.255,25.33z"/>
				<path style="fill:#374922;" d="M30.498,28.52c-0.168,0.063-0.412,0.203-0.335,0.419c0.057,0.157,0.348,0.045,0.449,0.004
					c0.123-0.05,0.343-0.161,0.354-0.313C30.984,28.399,30.616,28.476,30.498,28.52z"/>
				<path style="fill:#374922;" d="M21.301,31.122c-0.179,0.164-0.336,0.35-0.476,0.547c-0.072,0.102-0.14,0.206-0.203,0.312
					c-0.037,0.062-0.072,0.126-0.107,0.191c-0.021,0.042-0.06,0.086-0.06,0.135c0.951-0.164,2.293-0.578,2.296-1.761
					C22.232,30.477,21.668,30.785,21.301,31.122z"/>
				<path style="fill:#374922;" d="M28.189,27.623c-0.271,0.433-0.464,0.933-0.583,1.43c0.434-0.237,0.85-0.556,1.16-0.941
					c0.303-0.376,0.549-0.808,0.755-1.243C28.961,26.701,28.457,27.196,28.189,27.623z"/>
				<path style="fill:#374922;" d="M7.974,27.368c-0.105-0.035-0.236-0.063-0.345-0.024c-0.036,0.211,0.107,0.458,0.218,0.628
					c0.122,0.183,0.272,0.351,0.435,0.499c0.328,0.299,0.747,0.526,1.192,0.582C9.184,28.393,8.697,27.606,7.974,27.368z"/>
				<path style="fill:#374922;" d="M11.013,28.747c-0.208-0.021-0.151,0.149-0.12,0.289c0.036,0.162,0.11,0.326,0.31,0.324
					c0.171-0.002,0.199-0.166,0.153-0.299C11.304,28.906,11.183,28.764,11.013,28.747z"/>
				<path style="fill:#374922;" d="M8.025,25.805c-0.003-0.18-0.022-0.367-0.135-0.514c-0.106-0.138-0.264-0.226-0.416-0.302
					c0.069,0.293,0.071,0.577,0.081,0.875c0.013,0.386,0.181,0.723,0.469,0.979C8.016,26.497,8.031,26.151,8.025,25.805z"/>
				<path style="fill:#374922;" d="M10.14,29.534c0.25,0.977,1.561,1.139,2.392,1.202C12.035,29.95,11.075,29.429,10.14,29.534z"/>
				<path style="fill:#374922;" d="M14.58,30.261c-0.178,0.01-0.12,0.17-0.08,0.284c0.021,0.062,0.025,0.138,0.069,0.19
					c0.05,0.059,0.128,0.093,0.203,0.105c0.173,0.029,0.272-0.098,0.217-0.262C14.93,30.407,14.772,30.25,14.58,30.261z"/>
				<path style="fill:#374922;" d="M17.497,31.892c-0.426-0.679-1.19-1.462-2.075-1.347c0.002,0.526,0.315,0.996,0.764,1.252
					c0.464,0.265,1.008,0.418,1.533,0.509c0-0.053-0.05-0.113-0.074-0.158C17.599,32.061,17.549,31.975,17.497,31.892z"/>
				<path style="fill:#374922;" d="M13.224,29.527c-0.375-0.345-0.932-0.478-1.431-0.386c0.268,0.887,1.264,1.365,2.13,1.414
					C13.761,30.179,13.526,29.805,13.224,29.527z"/>
			</g>
		</g>
	</g>
</g>
<g id="Layer_1">
</g>
</svg>
