<?xml version="1.0" encoding="iso-8859-1"?>
<!-- Generator: Adobe Illustrator 18.0.0, SVG Export Plug-In . SVG Version: 6.00 Build 0)  -->
<!DOCTYPE svg PUBLIC "-//W3C//DTD SVG 1.1//EN" "http://www.w3.org/Graphics/SVG/1.1/DTD/svg11.dtd">
<svg version="1.1" xmlns="http://www.w3.org/2000/svg" xmlns:xlink="http://www.w3.org/1999/xlink" x="0px" y="0px"
	 viewBox="0 0 38.018 38.017" style="enable-background:new 0 0 38.018 38.017;" xml:space="preserve">
<g id="Layer_458">
	<g id="Layer_459">
		<g>
			<path style="fill:#BC1929;" d="M38.018,19.009c0-2.132-0.356-4.261-1.06-6.274c-0.68-1.941-1.677-3.769-2.939-5.392
				c-1.254-1.61-2.766-3.017-4.461-4.15c-1.719-1.148-3.625-2.014-5.621-2.548c-2.08-0.556-4.252-0.752-6.397-0.588
				c-2.103,0.161-4.174,0.673-6.106,1.514C9.554,2.388,7.811,3.512,6.288,4.884C4.772,6.25,3.476,7.861,2.468,9.637
				c-1.027,1.81-1.754,3.788-2.139,5.833c-0.399,2.122-0.436,4.313-0.107,6.448c0.317,2.064,0.979,4.073,1.951,5.921
				c0.95,1.809,2.194,3.462,3.668,4.877c1.476,1.418,3.18,2.596,5.027,3.474c1.896,0.9,3.941,1.479,6.027,1.71
				c2.143,0.237,4.327,0.112,6.428-0.375c2.02-0.469,3.959-1.273,5.719-2.369c1.732-1.078,3.288-2.436,4.593-4.006
				c1.312-1.579,2.366-3.369,3.108-5.284c0.766-1.978,1.191-4.082,1.264-6.202C38.014,19.446,38.018,19.227,38.018,19.009z"/>
			<path style="fill:#FFFFFF;" d="M38.018,19.009c0-2.534-0.497-4.952-1.397-7.163H1.398c-1.035,2.544-1.502,5.305-1.377,8.048
				c0.098,2.115,0.548,4.211,1.335,6.176c0.763,1.905,1.837,3.682,3.167,5.245c1.321,1.555,2.893,2.896,4.638,3.955
				c1.774,1.077,3.724,1.859,5.751,2.305c2.107,0.463,4.295,0.563,6.436,0.3c2.08-0.255,4.115-0.857,5.998-1.778
				c1.838-0.899,3.527-2.095,4.986-3.529c1.458-1.433,2.684-3.1,3.615-4.92c0.951-1.862,1.59-3.881,1.883-5.952
				C37.954,20.806,38.018,19.907,38.018,19.009z"/>
			<path d="M36.62,26.17H1.398c0.824,2.024,2,3.9,3.459,5.526c1.453,1.62,3.184,2.989,5.096,4.028
				c1.955,1.062,4.096,1.774,6.299,2.094c2.274,0.331,4.608,0.25,6.852-0.244c2.158-0.474,4.229-1.33,6.094-2.515
				c1.834-1.167,3.465-2.649,4.803-4.362C35.075,29.318,35.962,27.79,36.62,26.17z"/>
			<g>
				<g>
					<path style="fill:#C1950A;" d="M20.007,23.732c-0.098-0.031-0.353-0.039-0.363-0.039c-0.029,0-0.051,0.032-0.036,0.059
						c0.015,0.027,0.054,0.024,0.08,0.024c0.097-0.002,0.202,0.002,0.294,0.032C20.028,23.826,20.058,23.748,20.007,23.732z"/>
					<path style="fill:#C1950A;" d="M20.625,23.694c-0.111-0.023-0.228-0.022-0.341-0.007c-0.029,0.004-0.07,0.006-0.072,0.044
						c-0.002,0.026,0.02,0.046,0.045,0.041c0.002,0,0.184-0.035,0.352,0C20.658,23.779,20.677,23.704,20.625,23.694z"/>
					<path style="fill:#C1950A;" d="M21.614,23.463c-0.115,0.006-0.229,0.048-0.336,0.092c-0.092,0.038-0.072,0.117,0.023,0.076
						c0.091-0.04,0.192-0.074,0.291-0.085C21.639,23.539,21.691,23.459,21.614,23.463z"/>
					<path style="fill:#C1950A;" d="M22.16,23.3c-0.153,0.019-0.325,0.108-0.332,0.112c-0.036,0.018-0.021,0.076,0.019,0.076
						c0.042,0,0.093-0.04,0.131-0.055c0.058-0.023,0.113-0.037,0.174-0.047C22.206,23.375,22.228,23.292,22.16,23.3z"/>
				</g>
				<g>
					<path style="fill:#C1950A;" d="M18.374,23.693c-0.016,0-0.452,0.024-0.388,0.098c0.048,0.053,0.172,0.005,0.23-0.006
						c0.053-0.01,0.107-0.01,0.16-0.012C18.427,23.771,18.425,23.694,18.374,23.693z"/>
					<path style="fill:#C1950A;" d="M17.776,23.694c-0.098-0.021-0.201-0.023-0.3-0.013c-0.03,0.003-0.104,0-0.113,0.04
						c-0.006,0.028,0.018,0.056,0.047,0.051c0.168-0.035,0.35,0,0.352,0C17.811,23.782,17.826,23.703,17.776,23.694z"/>
					<path style="fill:#C1950A;" d="M16.784,23.574c-0.089-0.039-0.18-0.072-0.274-0.094c-0.037-0.008-0.09-0.027-0.125-0.003
						c-0.017,0.013-0.036,0.045-0.009,0.06c0.039,0.022,0.108,0.016,0.152,0.028c0.057,0.015,0.112,0.037,0.167,0.059
						c0.026,0.01,0.068,0.04,0.096,0.018C16.814,23.623,16.812,23.587,16.784,23.574z"/>
					<path style="fill:#C1950A;" d="M16.142,23.389c-0.091-0.041-0.186-0.076-0.285-0.088c-0.023-0.003-0.045,0.018-0.045,0.041
						c0.002,0.036,0.045,0.044,0.072,0.049c0.08,0.015,0.155,0.037,0.23,0.073C16.216,23.512,16.235,23.431,16.142,23.389z"/>
				</g>
				<path style="fill:#C1950A;" d="M23.895,23.594c-0.003-0.072-0.298-7.173-0.331-8.042l-0.002-0.065
					c-0.01-0.279-0.087-0.589-0.33-0.756c-0.287-0.196-0.668-0.151-0.979-0.042c-0.335,0.118-0.631,0.318-0.949,0.471
					c-0.332,0.158-0.697,0.251-1.066,0.224c-0.226-0.374-0.288-0.819-0.308-1.249c-0.011-0.239-0.008-0.479-0.016-0.719
					c-0.008-0.204-0.008-0.424-0.109-0.608c-0.097-0.231-0.398-0.312-0.611-0.382c-0.174-0.057-0.488-0.167-0.616,0.028
					c-0.198-0.04-0.456-0.108-0.651-0.026c-0.15,0.063-0.208,0.221-0.213,0.374c-0.002,0.049-0.009,0.184,0.07,0.184
					c0.104,0,0.146-0.122,0.269-0.076c0.194,0.073,0.33,0.262,0.378,0.46c0.051,0.7-0.251,1.466-0.67,2.017
					c-0.365,0.021-0.723-0.07-1.051-0.227c-0.316-0.152-0.612-0.351-0.945-0.469c-0.301-0.106-0.664-0.15-0.949,0.023
					c-0.264,0.161-0.35,0.484-0.359,0.775l-0.002,0.065c-0.033,0.869-0.328,7.97-0.332,8.042l-0.004,0.097l2.623-2.424l-0.131,0.459
					c-0.001,0.002-0.002,0.005-0.002,0.007l-0.423,1.477c-0.146-0.043-0.314-0.158-0.462-0.066c-0.008,0.005-0.014,0.01-0.022,0.016
					c-0.361,0.038-0.5,0.331-0.412,0.665c-0.174,0.014-0.26,0.131-0.356,0.259c-0.05,0.065-0.087,0.092-0.164,0.111
					c-0.07,0.018-0.092,0.117-0.03,0.159c0.001,0,0.055,0.039,0.069,0.098l0.003,0.013c0.022,0.095,0.067,0.28,0.233,0.383
					c-0.02,0.327,0.263,0.425,0.53,0.501c0.348,0.1,0.708,0.161,1.066,0.206c0.731,0.09,1.473,0.103,2.209,0.111
					c0.751,0.008,1.503-0.007,2.251-0.085c0.348-0.036,0.696-0.084,1.04-0.151c0.151-0.03,0.302-0.066,0.447-0.121
					c0.132-0.05,0.296-0.108,0.352-0.25c0.027-0.067,0.033-0.141,0.029-0.212c0.166-0.103,0.211-0.289,0.234-0.383l0.002-0.013
					c0.011-0.039,0.037-0.073,0.068-0.097c0.149-0.1-0.135-0.207-0.184-0.266c-0.104-0.122-0.193-0.248-0.365-0.263
					c0.088-0.334-0.051-0.627-0.412-0.665c-0.008-0.005-0.014-0.011-0.021-0.016c-0.148-0.092-0.316,0.023-0.461,0.066l-0.424-1.477
					c0-0.002-0.001-0.005-0.002-0.007l-0.131-0.459l2.622,2.424L23.895,23.594z M18.929,12.653c0.104,0,0.104,0.162,0,0.162
					C18.823,12.815,18.824,12.653,18.929,12.653z M17.804,15.461c0.121-0.121,0.201-0.281,0.283-0.43
					c0.101-0.188,0.188-0.385,0.254-0.588c0.123-0.379,0.219-0.791,0.157-1.191c0.063-0.052,0.19-0.037,0.263-0.008
					c-0.149-0.322-0.699-0.865-0.961-0.355c-0.043,0.01-0.008-0.186,0-0.211c0.037-0.116,0.143-0.146,0.254-0.153
					c0.314-0.018,0.482,0.29,0.783,0.325c0.109,0.235,0.201-0.016,0.341-0.063c0.161-0.056,0.374-0.065,0.53,0.016
					c0.127,0.161,0.123,0.392,0.127,0.586c0.005,0.284,0.004,0.568,0.022,0.852c0.028,0.457,0.113,0.946,0.4,1.316
					c-0.102-0.017-0.262-0.05-0.406-0.103l-0.004,0.012c-0.211-0.459-0.276-0.944-0.324-1.442l-0.079,0.006
					c0.013,0.282,0.056,0.566,0.116,0.841c0.03,0.142,0.068,0.286,0.125,0.419c0.052,0.121,0.131,0.234,0.154,0.366
					c-0.059,0.011-0.289-0.065-0.532-0.249c-0.011-0.131-0.077-0.96-0.046-1.455l-0.08-0.005c-0.031,0.5,0.035,1.332,0.047,1.466
					l-0.221,0.227l-0.238-0.227c0.238-0.535,0.246-1.462,0.246-1.502h-0.079c0,0.01-0.009,0.973-0.249,1.488
					c-0.027,0.028-0.191,0.187-0.434,0.296l0.053-0.253c0.395-0.381,0.452-1.445,0.454-1.49l-0.08-0.004
					c0,0.011-0.059,1.084-0.433,1.441c-0.002,0.002-0.004,0.003-0.006,0.005c-0.002,0.003-0.005,0.005-0.008,0.008
					c-0.137,0.12-0.382,0.156-0.518,0.167C17.741,15.539,17.771,15.504,17.804,15.461z M17.067,20.421l0.116,0.285
					c0.004,0.012,0.016,0.021,0.028,0.024c0.013,0.002,0.024-0.001,0.036-0.01l0.47-0.452l0.085,0.742
					c0.002,0.016,0.014,0.03,0.029,0.035c0.016,0.003,0.031-0.001,0.043-0.014l0.304-0.385l0.274,0.848l-0.426,0.615l-0.184-0.867
					c-0.007-0.033-0.051-0.042-0.07-0.015l-0.338,0.458l-0.166-0.525c-0.004-0.013-0.016-0.023-0.028-0.026
					c-0.013-0.004-0.027,0-0.038,0.01l-0.475,0.463L17.067,20.421z M20.874,18.332c0.082-0.244,0.145-0.495,0.189-0.748l0.167,3.523
					l0.003,0.011c-0.002,0.002-0.003-0.011-0.003-0.011l-0.235-0.819c0,0-0.027-0.1-0.027-0.101L20.874,18.332z M20.915,20.296
					l-0.131,0.325l-0.473-0.453l0.092-0.796c0.012-0.023,0.023-0.047,0.034-0.07c0.044-0.076,0.087-0.154,0.127-0.232L20.915,20.296
					z M21.015,17.383c-0.093,0.662-0.312,1.305-0.648,1.883c-0.283,0.625-0.837,1.127-1.357,1.555
					c-0.099-0.077-0.193-0.158-0.286-0.241c-0.002-0.001-0.003-0.003-0.005-0.003c-0.104-0.094-0.201-0.189-0.296-0.287
					c-0.002-0.002-0.005-0.004-0.007-0.007c-0.121-0.127-0.236-0.26-0.344-0.396c-0.154-0.236-0.328-0.458-0.467-0.703
					c-0.147-0.259-0.267-0.533-0.364-0.813c-0.194-0.559-0.311-1.159-0.278-1.752c0.188,0.034,0.383,0,0.568-0.032
					c0.207-0.035,0.412-0.084,0.613-0.142c0.303-0.088,0.647-0.184,0.865-0.427c0.217,0.242,0.564,0.338,0.865,0.427
					c0.193,0.057,0.391,0.104,0.589,0.138c0.192,0.034,0.397,0.071,0.593,0.036C21.062,16.723,21.068,17,21.015,17.383z
					 M20.879,23.407c-0.026,0.005-0.052,0.008-0.077,0.012l-0.236-0.373c-0.009-0.013-0.023-0.02-0.039-0.019
					c-0.016,0.003-0.027,0.013-0.033,0.028l-0.127,0.407c-0.135,0.008-0.257,0.01-0.363,0.01l-0.112-0.5l0.141-0.665l0.362,0.522
					c0.018,0.025,0.059,0.021,0.07-0.009l0.205-0.559l0.352,0.539c0.01,0.012,0.022,0.019,0.037,0.018L20.879,23.407z
					 M21.115,22.905l0.301,0.406c-0.126,0.026-0.275,0.054-0.449,0.082L21.115,22.905z M20.714,23.43
					c-0.092,0.012-0.179,0.02-0.262,0.026l0.092-0.295L20.714,23.43z M19.849,22.784l-0.243-1.092l0.363,0.525L19.849,22.784z
					 M19.687,23.394l0.174-0.192l0.061,0.27c-0.176-0.003-0.483-0.081-0.575,0.121c-0.134,0.008-0.244,0.081-0.268,0.22H18.94
					c-0.024-0.138-0.134-0.211-0.268-0.22c-0.091-0.202-0.401-0.124-0.575-0.121l0.061-0.27l0.174,0.192l0.25-0.229l0.325-2.325
					c0.002,0.003,0.005,0.004,0.007,0.006l-0.16,2.299l0.256,0.302l0.256-0.302l-0.16-2.301c0.002-0.002,0.004-0.004,0.007-0.006
					l0.325,2.326L19.687,23.394z M19.319,23.765c0.014,0.08,0.112,0.157,0.168,0.193c-0.07,0.101-0.193,0.13-0.268,0.225
					c-0.062-0.158-0.15-0.474,0.102-0.508C19.316,23.707,19.316,23.738,19.319,23.765z M18.696,23.676
					c0.252,0.034,0.164,0.35,0.102,0.508c-0.074-0.095-0.197-0.124-0.268-0.225C18.632,23.89,18.718,23.807,18.696,23.676z
					 M18.049,22.217l0.364-0.526l-0.244,1.093L18.049,22.217z M18.032,19.966c0.097,0.12,0.197,0.237,0.305,0.35l-0.172,0.219
					c-0.002,0.001-0.004,0.003-0.004,0.005l-0.291,0.366l-0.08-0.706L18.032,19.966z M17.778,20.099l-0.066-0.582
					c0.084,0.131,0.175,0.26,0.271,0.385L17.778,20.099z M18.394,20.374c0.082,0.085,0.168,0.168,0.258,0.249l-0.162,0.725
					l-0.252-0.778L18.394,20.374z M19.365,20.613c0.077-0.071,0.165-0.155,0.255-0.245l0.16,0.202l-0.252,0.777L19.365,20.613z
					 M19.677,20.31c0.104-0.106,0.21-0.221,0.312-0.341l0.239,0.23l-0.08,0.706l-0.291-0.366c0-0.001-0.002-0.003-0.004-0.005
					L19.677,20.31z M20.04,19.908c0.096-0.118,0.186-0.238,0.263-0.359l-0.063,0.551L20.04,19.908z M17.706,20.169l-0.472,0.452
					l-0.132-0.325l0.352-1.226c0.049,0.097,0.101,0.193,0.158,0.287L17.706,20.169z M17.11,18.23
					c0.011,0.034,0.022,0.067,0.032,0.101c0,0.001-0.093,1.855-0.093,1.855c0,0.001-0.027,0.101-0.027,0.101l-0.235,0.819
					l-0.001,0.013c-0.002-0.002,0.001-0.013,0.001-0.013l0.167-3.524C16.992,17.801,17.045,18.018,17.11,18.23z M17.212,21.247
					l0.169,0.538c0.011,0.03,0.052,0.038,0.071,0.012l0.332-0.45l0.18,0.853l-0.361,0.521l-0.207-0.561
					c-0.005-0.014-0.018-0.024-0.032-0.026c-0.015-0.004-0.031,0.007-0.038,0.018l-0.35,0.534l-0.283-0.932L17.212,21.247z
					 M16.649,21.883l0.276,0.908c0.01,0.032,0.053,0.038,0.072,0.01l0.352-0.539l0.205,0.559c0.012,0.029,0.053,0.036,0.071,0.009
					l0.361-0.522l0.141,0.665l-0.112,0.5c-0.107,0-0.229-0.002-0.365-0.01l-0.133-0.425c-0.009-0.033-0.053-0.037-0.072-0.01
					l-0.245,0.389c-0.019-0.003-0.036-0.005-0.056-0.008l-0.184-0.572c-0.01-0.03-0.051-0.037-0.07-0.012l-0.355,0.473
					c-0.107-0.023-0.197-0.045-0.271-0.066L16.649,21.883z M17.564,23.457c-0.087-0.007-0.18-0.016-0.277-0.028l0.18-0.285
					L17.564,23.457z M17.056,23.394c-0.168-0.027-0.311-0.054-0.436-0.079l0.287-0.381L17.056,23.394z M15.71,23.307
					c0.006-0.212,0.314-0.074,0.418-0.035c0.307,0.117,0.65,0.159,0.973,0.209c0.004,0.002,0.006,0.002,0.01,0.002
					c0.354,0.062,0.738,0.097,1.098,0.063c0.105-0.01,0.254-0.045,0.348,0.022c0.149,0.108,0.02,0.269-0.092,0.336
					c-0.075,0.002-0.566,0.017-1.145-0.032c0.025-0.147-0.047-0.299-0.206-0.318c-0.161-0.021-0.286,0.104-0.261,0.265
					c-0.551-0.083-1.025-0.22-1.143-0.255C15.709,23.516,15.708,23.409,15.71,23.307z M17.236,23.879
					c-0.022,0.099-0.115,0.158-0.169,0.24c-0.043-0.119-0.195-0.28-0.129-0.414C17.04,23.493,17.275,23.708,17.236,23.879z
					 M15.392,23.406c0.048-0.079,0.132-0.132,0.248-0.156c-0.033,0.093-0.012,0.226-0.01,0.325
					c-0.104,0.064-0.207,0.076-0.271,0.192C15.336,23.663,15.324,23.517,15.392,23.406z M22.626,23.406
					c0.068,0.112,0.055,0.258,0.033,0.361c-0.064-0.117-0.168-0.128-0.271-0.192c0.002-0.099,0.023-0.231-0.01-0.325
					C22.494,23.274,22.578,23.326,22.626,23.406z M22.341,23.639c0.117,0.076,0.277,0.094,0.277,0.272v0.2L22.665,24
					c0.209-0.01,0.26,0.208,0.41,0.315c-0.017,0.026-0.031,0.058-0.039,0.093l-0.004,0.014c-0.027,0.115-0.072,0.242-0.189,0.292
					c-0.101,0.042-0.032,0.187-0.054,0.265c-0.03,0.108-0.245,0.152-0.336,0.18c-0.177,0.055-0.358,0.098-0.54,0.134
					c-0.719,0.14-1.457,0.163-2.187,0.185c-0.759,0.023-1.519,0.021-2.274-0.032c-0.369-0.025-0.736-0.066-1.102-0.116
					c-0.329-0.045-0.665-0.097-0.968-0.236c-0.057-0.026-0.141-0.054-0.156-0.123c-0.012-0.06,0.012-0.12,0.004-0.179
					c-0.008-0.07-0.076-0.092-0.126-0.129c-0.073-0.055-0.098-0.156-0.118-0.241l-0.003-0.014c-0.009-0.036-0.023-0.067-0.04-0.093
					c0.15-0.107,0.201-0.325,0.411-0.315l0.046,0.111v-0.2c0-0.178,0.16-0.197,0.277-0.272c0.103,0.031,0.611,0.182,1.199,0.266
					c0.045,0.113,0.119,0.209,0.141,0.331l0.026,0.145l0.051-0.139c0.042-0.116,0.151-0.181,0.202-0.29
					c0.383,0.033,0.771,0.048,1.157,0.034c0.039,0.061,0.091,0.117,0.155,0.152c0.063,0.034,0.13,0.077,0.155,0.148l0.031,0.089
					l0.042-0.085c0.006-0.01,0.088-0.177,0.104-0.346h0.134c0.017,0.168,0.1,0.335,0.105,0.346l0.042,0.085l0.032-0.089
					c0.047-0.137,0.232-0.178,0.311-0.301c0.383,0.018,0.773-0.001,1.156-0.034c0.05,0.11,0.16,0.174,0.201,0.29l0.053,0.139
					l0.025-0.145c0.021-0.122,0.095-0.219,0.141-0.331C21.729,23.821,22.239,23.671,22.341,23.639z M20.802,23.696
					c0.059-0.082,0.217-0.093,0.268,0.001c0.077,0.14-0.074,0.299-0.119,0.422C20.87,23.997,20.69,23.861,20.802,23.696z
					 M22.097,23.199c0.242-0.112,0.214,0.241,0.211,0.367c-0.117,0.035-0.592,0.173-1.142,0.255
					c0.001-0.009,0.001-0.019,0.003-0.028c0.004-0.152-0.113-0.256-0.264-0.237c-0.16,0.019-0.231,0.171-0.207,0.318
					c-0.578,0.049-1.069,0.035-1.144,0.032c-0.1-0.061-0.201-0.155-0.136-0.282c0.058-0.112,0.228-0.081,0.329-0.079
					c0.375,0.008,0.744-0.002,1.117-0.055c0.015-0.002,0.031-0.005,0.045-0.007c0.229-0.021,0.461-0.077,0.684-0.128
					C21.763,23.316,21.938,23.272,22.097,23.199z M21.755,23.231c-0.07,0.02-0.154,0.041-0.252,0.062l-0.371-0.5
					c-0.008-0.011-0.022-0.017-0.035-0.016l0.272-0.895L21.755,23.231z M21.041,22.685l-0.349-0.534
					c-0.017-0.027-0.059-0.023-0.07,0.008l-0.207,0.561l-0.361-0.521l0.181-0.853l0.332,0.45c0.018,0.026,0.062,0.019,0.069-0.012
					l0.17-0.538l0.52,0.506L21.041,22.685z M21.29,21.607l-0.475-0.463c-0.01-0.01-0.024-0.014-0.038-0.01
					c-0.013,0.003-0.024,0.013-0.028,0.026l-0.166,0.525l-0.338-0.458c-0.019-0.028-0.064-0.018-0.07,0.015l-0.184,0.867
					l-0.426-0.615l0.274-0.848l0.304,0.385c0.014,0.013,0.027,0.018,0.043,0.014c0.016-0.005,0.027-0.018,0.029-0.035l0.084-0.742
					l0.471,0.452c0.012,0.009,0.023,0.013,0.036,0.01c0.013-0.003,0.023-0.012,0.028-0.024l0.116-0.285L21.29,21.607z
					 M23.279,23.009l-0.16-0.148l-0.333-7.493c-0.176,0.168-0.338,0.315-0.488,0.442l0.276,6.546l-0.23-0.211l-0.264-6.154
					c-0.146,0.117-0.279,0.213-0.396,0.293l0.195,5.432l-0.217-0.2l-0.205-5.088c-0.133,0.078-0.239,0.13-0.323,0.165
					c-0.001-0.02-0.003-0.03-0.003-0.03l-0.006-0.054l-0.05,0.021c-0.155,0.049-0.327,0.017-0.484-0.008
					c-0.198-0.032-0.396-0.071-0.59-0.124c-0.189-0.051-0.378-0.111-0.558-0.191c-0.117-0.052-0.345-0.144-0.399-0.274l-0.035-0.07
					l-0.036,0.069c-0.054,0.128-0.279,0.22-0.394,0.272c-0.184,0.082-0.377,0.143-0.569,0.195c-0.183,0.049-0.368,0.086-0.555,0.118
					c-0.165,0.028-0.349,0.065-0.513,0.013l-0.053-0.024l-0.004,0.057c0,0-0.002,0.01-0.003,0.03
					c-0.084-0.035-0.191-0.087-0.323-0.165l-0.206,5.088l-0.216,0.2l0.195-5.432c-0.117-0.08-0.25-0.176-0.396-0.293l-0.264,6.154
					l-0.23,0.211l0.276-6.546c-0.15-0.127-0.312-0.273-0.488-0.442l-0.334,7.493l-0.158,0.148l0.291-7.754
					c-0.087,0.023-0.254,0.088-0.496,0.267l0.002-0.033c0.01-0.259,0.076-0.551,0.309-0.702c0.273-0.177,0.63-0.121,0.918-0.015
					c0.319,0.117,0.604,0.304,0.908,0.453c0.32,0.156,0.666,0.247,1.023,0.241c-0.06,0.075-0.102,0.115-0.103,0.116l-0.07,0.069h0.1
					c0.016,0,0.359-0.002,0.588-0.137l-0.065,0.309l0.069-0.026c0.258-0.099,0.441-0.257,0.508-0.321l0.29,0.275l0.263-0.272
					c0.131,0.098,0.274,0.184,0.432,0.232c0.055,0.017,0.133,0.044,0.186,0.007c0.058-0.04,0.015-0.123-0.007-0.17
					c0.226,0.074,0.462,0.101,0.473,0.102l0.127,0.015l-0.096-0.085c-0.002-0.001-0.041-0.037-0.096-0.115
					c0.35,0.012,0.695-0.071,1.012-0.22c0.309-0.145,0.596-0.336,0.914-0.459c0.291-0.112,0.649-0.18,0.934-0.013
					c0.248,0.146,0.32,0.447,0.33,0.715l0.002,0.033c-0.242-0.179-0.409-0.244-0.496-0.267L23.279,23.009z"/>
				<path style="fill:#C1950A;" d="M20.938,16.725l-0.034,0.007c-0.332,0.049-0.721-0.076-1.037-0.172
					c-0.16-0.049-0.32-0.101-0.475-0.167c-0.106-0.045-0.294-0.107-0.36-0.207l-0.022-0.026l-0.022,0.026
					c-0.086,0.098-0.241,0.156-0.357,0.205c-0.156,0.067-0.32,0.121-0.483,0.17c-0.335,0.101-0.682,0.17-1.032,0.17l-0.034-0.007
					l-0.001,0.034c0,0.024-0.044,2.41,1.912,3.914l0.018,0.013l0.017-0.013c1.957-1.503,1.913-3.89,1.912-3.914L20.938,16.725z
					 M19.009,20.614c-1.793-1.391-1.87-3.534-1.871-3.821c0.34,0.034,0.68-0.07,1.001-0.168c0.298-0.092,0.628-0.171,0.87-0.379
					c0.232,0.2,0.546,0.279,0.832,0.368c0.334,0.103,0.686,0.216,1.039,0.18C20.879,17.079,20.803,19.222,19.009,20.614z"/>
				<g>
					<path style="fill:#C1950A;" d="M15.765,24.668c-0.068,0-0.068,0.108,0,0.108C15.835,24.776,15.835,24.668,15.765,24.668z"/>
					<path style="fill:#C1950A;" d="M15.952,24.722c-0.069,0-0.069,0.107,0,0.107C16.022,24.829,16.022,24.722,15.952,24.722z"/>
					<path style="fill:#C1950A;" d="M16.241,24.805c-0.069,0-0.069,0.108,0,0.108C16.311,24.913,16.311,24.805,16.241,24.805z"/>
					<path style="fill:#C1950A;" d="M19.628,24.387c-0.07,0-0.07,0.108,0,0.108C19.696,24.494,19.696,24.387,19.628,24.387z"/>
					<path style="fill:#C1950A;" d="M19.645,24.551c-0.069,0-0.069,0.107,0,0.107C19.714,24.658,19.714,24.551,19.645,24.551z"/>
					<path style="fill:#C1950A;" d="M19.841,25.109c-0.068,0-0.068,0.107,0,0.107C19.911,25.217,19.911,25.109,19.841,25.109z"/>
					<path style="fill:#C1950A;" d="M20.005,25.109c-0.068,0-0.068,0.107,0,0.107C20.075,25.217,20.075,25.109,20.005,25.109z"/>
					<path style="fill:#C1950A;" d="M15.759,24.099c-0.07,0-0.07,0.107,0,0.107C15.828,24.207,15.828,24.099,15.759,24.099z"/>
					<path style="fill:#C1950A;" d="M22.239,24.725c-0.082,0-0.082,0.127,0,0.127C22.321,24.853,22.321,24.725,22.239,24.725z"/>
					<path style="fill:#C1950A;" d="M16.415,24.462c0.098,0.164-0.144,0.235-0.234,0.123c-0.055-0.068,0.149-0.278,0.061-0.328
						c-0.031-0.016-0.093,0.042-0.115,0.059c-0.06,0.044-0.029,0.028-0.012,0.08c0.047,0.14-0.178,0.229-0.211,0.094
						c-0.016-0.065,0.035-0.164,0.059-0.223c0.031-0.077,0.062-0.153,0.09-0.232c0.012-0.033,0.047-0.152-0.031-0.123
						c-0.066,0.025-0.1,0.056-0.178,0.049c-0.026-0.044-0.1-0.024-0.1,0.028c0,0.059,0.088,0.072,0.106,0.016
						c0.117-0.025,0.096,0.066,0.068,0.143c-0.015,0.041-0.027,0.122-0.066,0.147c-0.037,0.023-0.085,0.015-0.123,0.039
						c-0.048,0.03-0.166,0.119-0.121,0.188c0.032,0.05,0.127,0.056,0.179,0.068c0.081,0.018,0.159,0.045,0.239,0.069
						c0.107,0.033,0.313,0.131,0.426,0.093c0.074-0.024,0.082-0.15,0.101-0.216c0.007-0.024,0.063-0.18,0.024-0.193
						C16.54,24.333,16.392,24.422,16.415,24.462z M15.782,24.47c-0.049,0-0.049-0.074,0-0.074
						C15.83,24.395,15.829,24.47,15.782,24.47z"/>
					<path style="fill:#C1950A;" d="M17.563,24.3c-0.006,0.021,0.022,0.052,0.029,0.069c0.014,0.032,0.004,0.075,0.001,0.107
						c-0.009,0.082-0.02,0.163-0.027,0.245c-0.008,0.076-0.016,0.152-0.033,0.227c-0.018,0.078-0.089,0.024-0.094-0.031
						c-0.005-0.055-0.015-0.096-0.074-0.108c-0.025-0.005-0.064-0.004-0.072-0.038c-0.004-0.023,0.01-0.051,0.037-0.051
						c0.039,0,0.118-0.005,0.125-0.058c0.009-0.062-0.066-0.09-0.094-0.134c-0.029-0.049-0.049-0.187-0.127-0.182
						c-0.061,0.004-0.097,0.07-0.14,0.104c-0.054,0.043-0.132,0.046-0.167,0.115c-0.026,0.054,0.086,0.079,0.115,0.099
						c0.025,0.019,0.025,0.042,0.006,0.066c-0.049,0.057-0.125,0.038-0.186,0.017c-0.102-0.034-0.031-0.175-0.089-0.243
						c-0.032-0.039-0.093,0.022-0.103,0.054c-0.02,0.059,0.031,0.122,0.029,0.183c-0.004,0.12-0.095,0.168-0.201,0.174
						c-0.049,0.003-0.063,0.028-0.008,0.049c0.059,0.022,0.13,0.01,0.184-0.017c0.05-0.025,0.093-0.064,0.147-0.08
						c0.065-0.018,0.113,0.006,0.174,0.02c0.074,0.018,0.17-0.155,0.207-0.038c0.017,0.061,0.028,0.06,0.09,0.073
						c0.056,0.012,0.035,0.074,0.053,0.114c0.049,0.108,0.202,0.103,0.257,0.006c0.042-0.075,0.037-0.167,0.047-0.25
						c0.015-0.125,0.024-0.253,0.051-0.375c0.007-0.036,0.075-0.19,0-0.186C17.667,24.233,17.573,24.26,17.563,24.3z M17.193,24.638
						c-0.143-0.023,0.056-0.215,0.085-0.026C17.28,24.622,17.237,24.644,17.193,24.638z"/>
					<path style="fill:#C1950A;" d="M17.842,24.242c0.016,0.006-0.105,0.633-0.099,0.686c0.008,0.062,0.078,0.087,0.104,0.021
						c0.041-0.104,0.032-0.249,0.042-0.36c0.005-0.044,0.004-0.093,0.018-0.135c0.01-0.027,0.057-0.06,0.055-0.085
						C17.96,24.324,17.881,24.256,17.842,24.242z"/>
					<path style="fill:#C1950A;" d="M19.409,24.71c-0.127-0.016-0.226,0.091-0.271,0.194c-0.065,0.144-0.084-0.103-0.092-0.123
						c-0.041-0.101-0.375-0.024-0.458-0.028c-0.058-0.002-0.134-0.012-0.144-0.081c-0.007-0.044-0.01-0.099-0.067-0.076
						c-0.048,0.019-0.104,0.05-0.089,0.106c0.013,0.049,0.079,0.162,0.009,0.194c-0.09,0.042-0.12-0.089-0.149-0.148
						c-0.042-0.085-0.102-0.046-0.136,0.034c-0.021,0.048,0.057,0.099,0.068,0.143c0.018,0.069-0.001,0.142-0.056,0.189
						c-0.041,0.035-0.092,0.047-0.145,0.048c-0.023,0-0.11,0.031-0.043,0.049c0.143,0.038,0.272-0.026,0.354-0.14
						c0.065-0.092,0.296-0.029,0.392-0.02c0.046,0.005,0.167,0,0.185,0.053c0.024,0.065,0.035,0.121,0.117,0.133
						c0.053,0.008,0.11-0.009,0.143-0.053c0.025-0.033,0.011-0.082,0.037-0.109c0.051-0.049,0.172-0.019,0.232-0.014
						c0.076,0.007,0.169,0.025,0.172-0.073C19.47,24.941,19.482,24.72,19.409,24.71z M18.907,25.096
						c-0.049-0.001-0.041-0.077-0.041-0.09c-0.002-0.092-0.178-0.073-0.234-0.07c-0.025,0.001-0.258,0.011-0.19-0.066
						c0.035-0.04,0.126-0.02,0.173-0.02c0.095,0,0.201-0.009,0.295,0.012C18.972,24.876,18.978,25.098,18.907,25.096z
						 M19.324,24.944c-0.046-0.001-0.12-0.023-0.04-0.071C19.36,24.827,19.376,24.945,19.324,24.944z"/>
					<path style="fill:#C1950A;" d="M20.06,24.707c0.01,0.052,0.076,0.075,0.07,0.133c-0.008,0.071-0.1,0.094-0.158,0.074
						c-0.098-0.035-0.051-0.374-0.058-0.456c-0.003-0.026-0.015-0.171-0.058-0.158c-0.034,0.01-0.104,0.057-0.115,0.093
						c-0.01,0.027,0.035,0.044,0.045,0.062c0.021,0.037,0.02,0.079,0.025,0.119c0.012,0.063,0.034,0.133-0.027,0.174
						c-0.056,0.036-0.122,0.062-0.148,0.128c-0.014,0.036-0.049,0.146,0.002,0.17c0.076,0.033,0.189-0.019,0.27-0.021
						c0.086-0.003,0.176,0.004,0.262-0.007c0.125-0.016,0.081-0.206,0.064-0.292c-0.005-0.03-0.014-0.118-0.06-0.112
						C20.142,24.618,20.05,24.664,20.06,24.707z M19.812,24.941c-0.069,0.015-0.113-0.035-0.031-0.068
						C19.833,24.852,19.841,24.934,19.812,24.941z"/>
					<path style="fill:#C1950A;" d="M20.408,24.617c-0.026-0.006-0.058,0.092-0.063,0.11c-0.033,0.08,0.043,0.093,0.074,0.157
						c0.031,0.065,0.024,0.151-0.037,0.195c-0.011,0.008-0.127,0.08-0.121,0.09c0.049,0.077,0.248-0.058,0.273-0.113
						c0.04-0.088,0.024-0.196-0.015-0.282C20.498,24.728,20.466,24.63,20.408,24.617z"/>
					<path style="fill:#C1950A;" d="M22.409,24.479c-0.039-0.021-0.105,0.046-0.141,0.059c-0.081,0.031-0.132-0.054-0.15-0.12
						c-0.035-0.13,0.016-0.336-0.12-0.419c-0.046-0.028-0.36-0.073-0.343,0.033c0.027,0.173,0.188,0,0.27,0.067
						c0.092,0.076,0.09,0.235,0.105,0.343c0.006,0.034,0.066,0.165,0.029,0.177c-0.072,0.024-0.115-0.04-0.17-0.069
						c-0.18-0.099-0.148,0.157-0.284,0.13c-0.059-0.011-0.081-0.098-0.121-0.135c-0.043-0.04-0.138-0.019-0.169-0.061
						c-0.035-0.05-0.018-0.128-0.049-0.183c-0.022-0.038-0.051-0.014-0.075,0.008c-0.049,0.042-0.069,0.068-0.03,0.122
						c0.037,0.048,0.047,0.073-0.006,0.111c-0.052,0.037-0.088,0.086-0.105,0.148c-0.014,0.051,0.002,0.117-0.072,0.112
						c-0.048-0.003-0.044-0.074-0.053-0.109c-0.07-0.278-0.458,0.272-0.186,0.252c0.043-0.003,0.186,0.008,0.095,0.08
						c-0.017,0.014-0.167,0.064-0.161,0.084c0.012,0.048,0.121,0.015,0.148,0.007c0.068-0.019,0.117-0.064,0.135-0.134
						c0.021-0.087,0.131-0.097,0.207-0.103c0.088-0.008,0.102,0.014,0.155,0.078c0.048,0.059,0.161,0.073,0.223,0.028
						c0.056-0.041,0.017-0.13,0.064-0.171c0.056-0.048,0.153,0.043,0.214,0.042c0.047-0.001,0.097-0.02,0.129-0.055
						c0.021-0.023,0.024-0.066,0.055-0.081c0.117-0.052,0.254-0.06,0.379-0.088c0.027-0.006,0.105-0.017,0.114-0.051
						C22.505,24.545,22.437,24.494,22.409,24.479z M20.845,24.82c-0.014,0.044-0.109,0.048-0.095-0.007
						C20.769,24.741,20.868,24.742,20.845,24.82z M21.198,24.776c-0.144-0.004,0.056-0.226,0.049-0.057
						C21.247,24.749,21.234,24.777,21.198,24.776z M21.337,24.671c-0.006-0.065,0.068-0.04,0.096-0.013
						c0.057,0.053-0.009,0.107-0.066,0.075C21.345,24.713,21.339,24.702,21.337,24.671z M21.456,24.9
						c-0.051,0-0.051-0.012-0.053-0.018c-0.016-0.073,0.113-0.038,0.106-0.011C21.506,24.884,21.506,24.901,21.456,24.9z
						 M21.829,24.743c-0.07,0-0.07-0.107,0-0.107C21.898,24.636,21.898,24.743,21.829,24.743z"/>
				</g>
			</g>
		</g>
	</g>
</g>
<g id="Layer_1">
</g>
</svg>
