<?xml version="1.0" encoding="utf-8"?>
<!-- Generator: Adobe Illustrator 28.0.0, SVG Export Plug-In . SVG Version: 6.00 Build 0)  -->
<svg version="1.1" xmlns="http://www.w3.org/2000/svg" xmlns:xlink="http://www.w3.org/1999/xlink" x="0px" y="0px"
	 viewBox="0 0 38 38" style="enable-background:new 0 0 38 38;" xml:space="preserve">
<style type="text/css">
	.st0{clip-path:url(#SVGID_00000094592959473196906410000011696048326429015175_);}
	.st1{fill:#003399;}
	.st2{fill:#FFCC00;}
</style>
<g id="Layer_2">
	<g>
		<defs>
			<circle id="SVGID_1_" cx="19" cy="19" r="19"/>
		</defs>
		<clipPath id="SVGID_00000070818114966101015110000003600176736327488409_">
			<use xlink:href="#SVGID_1_"  style="overflow:visible;"/>
		</clipPath>
		<g style="clip-path:url(#SVGID_00000070818114966101015110000003600176736327488409_);">
			<rect x="0" y="0" class="st1" width="38" height="38"/>
			<g>
				<polygon class="st2" points="19,5.4 18.6,6.8 17.1,6.8 18.3,7.6 17.9,9 19,8.1 20.2,9 19.7,7.6 20.9,6.8 19.5,6.8 				"/>
				<polygon class="st2" points="13.1,7 12.7,8.4 11.2,8.4 12.4,9.2 11.9,10.5 13.1,9.7 14.3,10.5 13.8,9.2 15,8.4 13.5,8.4 				"/>
				<polygon class="st2" points="24.9,7 24.5,8.4 23,8.4 24.2,9.2 23.8,10.5 24.9,9.7 26.1,10.5 25.6,9.2 26.8,8.4 25.4,8.4 				"/>
				<polygon class="st2" points="8.8,11.3 8.3,12.7 6.9,12.7 8.1,13.5 7.6,14.9 8.8,14 9.9,14.9 9.5,13.5 10.6,12.7 9.2,12.7 				
					"/>
				<polygon class="st2" points="29.2,11.3 28.8,12.7 27.4,12.7 28.5,13.5 28.1,14.9 29.2,14 30.4,14.9 30,13.5 31.1,12.7 
					29.7,12.7 				"/>
				<polygon class="st2" points="7.2,17.2 6.7,18.6 5.3,18.6 6.5,19.4 6,20.8 7.2,19.9 8.3,20.8 7.9,19.4 9.1,18.6 7.6,18.6 				"/>
				<polygon class="st2" points="30.8,17.2 30.4,18.6 29,18.6 30.1,19.4 29.7,20.8 30.8,19.9 32,20.8 31.5,19.4 32.7,18.6 
					31.3,18.6 				"/>
				<polygon class="st2" points="29.2,23.1 28.8,24.5 27.4,24.5 28.5,25.3 28.1,26.7 29.2,25.8 30.4,26.7 30,25.3 31.1,24.5 
					29.7,24.5 				"/>
				<polygon class="st2" points="8.8,23.1 8.3,24.5 6.9,24.5 8.1,25.3 7.6,26.7 8.8,25.8 9.9,26.7 9.5,25.3 10.6,24.5 9.2,24.5 				
					"/>
				<polygon class="st2" points="13.1,27.5 12.7,28.8 11.2,28.8 12.4,29.7 11.9,31 13.1,30.2 14.3,31 13.8,29.7 15,28.8 13.5,28.8 
									"/>
				<polygon class="st2" points="24.9,27.5 24.5,28.8 23,28.8 24.2,29.7 23.8,31 24.9,30.2 26.1,31 25.6,29.7 26.8,28.8 25.4,28.8 
									"/>
				<polygon class="st2" points="19,29 18.6,30.4 17.1,30.4 18.3,31.2 17.9,32.6 19,31.8 20.2,32.6 19.7,31.2 20.9,30.4 19.5,30.4 
									"/>
			</g>
		</g>
	</g>
</g>
<g id="Layer_1">
	<g id="Layer_485">
		<g id="Layer_486">
			<g>
			</g>
		</g>
	</g>
	<g id="Layer_1_00000091717099494335735320000003333571529367394486_">
	</g>
</g>
</svg>
