<?xml version="1.0" encoding="iso-8859-1"?>
<!-- Generator: Adobe Illustrator 18.0.0, SVG Export Plug-In . SVG Version: 6.00 Build 0)  -->
<!DOCTYPE svg PUBLIC "-//W3C//DTD SVG 1.1//EN" "http://www.w3.org/Graphics/SVG/1.1/DTD/svg11.dtd">
<svg version="1.1" xmlns="http://www.w3.org/2000/svg" xmlns:xlink="http://www.w3.org/1999/xlink" x="0px" y="0px"
	 viewBox="0 0 38.018 38.017" style="enable-background:new 0 0 38.018 38.017;" xml:space="preserve">
<g id="Layer_438">
	<g id="Layer_439">
		<g>
			<path style="fill:#FFF9EC;" d="M38.018,19.009c0-2.132-0.356-4.261-1.06-6.274c-0.679-1.941-1.676-3.769-2.94-5.392
				c-1.253-1.61-2.765-3.017-4.46-4.15c-1.719-1.148-3.625-2.014-5.622-2.548c-2.079-0.556-4.251-0.752-6.396-0.588
				c-2.103,0.161-4.174,0.673-6.107,1.514C9.553,2.388,7.811,3.512,6.288,4.884C4.772,6.25,3.476,7.861,2.468,9.637
				c-1.028,1.81-1.754,3.788-2.139,5.833c-0.399,2.122-0.436,4.313-0.107,6.448c0.317,2.065,0.978,4.073,1.95,5.921
				c0.951,1.809,2.195,3.461,3.669,4.877c1.476,1.418,3.179,2.596,5.027,3.474c1.896,0.9,3.94,1.479,6.027,1.71
				c2.143,0.237,4.327,0.112,6.428-0.375c2.02-0.469,3.958-1.273,5.718-2.369c1.732-1.078,3.289-2.437,4.594-4.006
				c1.312-1.579,2.366-3.369,3.107-5.284c0.766-1.978,1.191-4.082,1.264-6.202C38.014,19.446,38.018,19.227,38.018,19.009z"/>
			<path style="fill:#1A1F75;" d="M0,19.009c0,6.51,3.274,12.255,8.265,15.681V3.327C3.275,6.753,0,12.498,0,19.009z"/>
			<path style="fill:#B7252C;" d="M38.018,19.009c0-6.511-3.274-12.256-8.265-15.682V34.69
				C34.743,31.265,38.018,25.519,38.018,19.009z"/>
		</g>
	</g>
</g>
<g id="Layer_1">
</g>
</svg>
