<?xml version="1.0" encoding="UTF-8"?>
<svg xmlns="http://www.w3.org/2000/svg" xmlns:xlink="http://www.w3.org/1999/xlink" version="1.1" viewBox="0 0 34 34">
  <defs>
    <style>
      .cls-1 {
        fill: url(#linear-gradient-3);
      }

      .cls-1, .cls-2, .cls-3 {
        fill-rule: evenodd;
      }

      .cls-2, .cls-4 {
        fill: #fff;
      }

      .cls-5 {
        fill: url(#linear-gradient-4);
      }

      .cls-6 {
        fill: url(#linear-gradient-2);
      }

      .cls-3 {
        fill: url(#linear-gradient);
      }
    </style>
    <linearGradient id="linear-gradient" x1="20.1" y1="-89.5" x2="19.9" y2="82.6" gradientUnits="userSpaceOnUse">
      <stop offset=".2" stop-color="#d89d3a"/>
      <stop offset=".3" stop-color="#a46b28"/>
      <stop offset=".5" stop-color="#8e5723"/>
      <stop offset=".5" stop-color="#f4f3b8"/>
      <stop offset=".6" stop-color="#f7ed9a"/>
      <stop offset=".7" stop-color="#d5b767"/>
      <stop offset=".8" stop-color="#a76f29"/>
      <stop offset=".8" stop-color="#d0ab5b"/>
      <stop offset="1" stop-color="#e0c77d"/>
    </linearGradient>
    <linearGradient id="linear-gradient-2" x1="6.8" y1="20.4" x2="33.1" y2="20.4" xlink:href="#linear-gradient"/>
    <linearGradient id="linear-gradient-3" x1="29.1" y1="-89.5" x2="28.8" y2="82.7" xlink:href="#linear-gradient"/>
    <linearGradient id="linear-gradient-4" x1="25.8" y1="4.1" x2="32" y2="4.1" xlink:href="#linear-gradient"/>
  </defs>
  <!-- Generator: Adobe Illustrator 28.7.1, SVG Export Plug-In . SVG Version: 1.2.0 Build 142)  -->
  <g>
    <g id="Layer_1">
      <g>
        <path class="cls-3" d="M25,22.4c1.5-.9,1.8-1.5,1.8-1.6l-2.2-12.2c-.5.4-1.1.8-1.9,1.2-1.7.9-4,1.8-6.5,2.4-2.5.7-4.9,1.1-6.8,1.1-.9,0-1.7,0-2.3-.1l4.1,11.7c0,.1.6.5,2.4.5,1.6,0,3.7-.3,5.9-.9,2.2-.6,4.1-1.4,5.5-2.2ZM19.9,26c-2.3.6-4.5.9-6.3.9-.7,0-1.3,0-1.8-.2l.9,2.9s0,0,0,0c0,0,.5.5,2.3.5,1.6,0,3.7-.3,5.8-.9,2.1-.6,4.1-1.3,5.5-2.2,1.5-.9,1.8-1.5,1.7-1.6,0,0,0,0,0,0l-.7-2.9c-.4.3-.9.7-1.5,1-1.5.9-3.6,1.7-5.9,2.3ZM15,7.9c-2.4.6-4.6,1.5-6.2,2.3-1.3.7-1.9,1.2-2.1,1.5.4.1,1.1.3,2.6.3,1.8,0,4.1-.4,6.5-1.1,2.4-.6,4.6-1.5,6.2-2.3,1.3-.7,1.9-1.2,2.1-1.5-.4-.1-1.1-.3-2.6-.3-1.8,0-4.1.4-6.5,1.1ZM21.7,32.9c3.4-.9,6.5-2.3,8.7-3.8,1.9-1.3,2.9-2.7,2.7-3.6-.2-.9-1.8-1.6-4.1-1.8l.4,1.5c.3,1-.5,2.1-2.3,3.2-1.5.9-3.6,1.8-5.9,2.4-2.3.6-4.5.9-6.3.9-2.1,0-3.3-.6-3.6-1.6l-.5-1.5c-1.9,1.3-2.9,2.7-2.6,3.6.3.9,1.8,1.6,4.1,1.8,2.6.2,6-.1,9.4-1.1Z"/>
        <path class="cls-6" d="M22,7c.8,0,1.3,0,1.6.1-.3.3-.8.7-1.8,1.2-1.6.9-3.8,1.7-6.1,2.3-2.3.6-4.6,1-6.4,1.1-.2,0-.3,0-.5,0-.8,0-1.3,0-1.6-.1.3-.3.8-.7,1.8-1.2,1.6-.9,3.8-1.7,6.1-2.3,2.3-.6,4.6-1,6.4-1.1.2,0,.3,0,.5,0M24.4,9l2.2,11.7c0,0-.3.6-1.7,1.4-1.4.8-3.4,1.6-5.5,2.2-2.1.6-4.2.9-5.8.9-1.6,0-2.1-.3-2.2-.4l-4-11.2c.4,0,.8,0,1.3,0s.4,0,.6,0c2,0,4.4-.5,6.9-1.1,2.5-.7,4.8-1.5,6.5-2.5.6-.3,1.2-.7,1.6-1M27.1,23l.6,2.5c0,.1-.3.6-1.6,1.4-1.4.8-3.3,1.6-5.4,2.1-2.1.6-4.1.9-5.6.9h-.1c-1.5,0-2-.3-2.1-.4l-.7-2.5c.4,0,.9,0,1.4,0h0c1.8,0,4-.3,6.3-.9,2.3-.6,4.4-1.5,6-2.4.5-.3.9-.5,1.2-.8M29.4,23.9c2,.2,3.3.8,3.5,1.6.2.8-.8,2.1-2.6,3.4-2.2,1.5-5.2,2.8-8.6,3.8-2.8.7-5.4,1.1-7.8,1.1s-1.1,0-1.6,0c-2.2-.2-3.7-.8-3.9-1.6-.2-.8.6-1.9,2.2-3.1l.3,1.2c.3,1.1,1.6,1.7,3.8,1.7h.2c1.8,0,3.9-.3,6.2-.9,2.3-.6,4.5-1.5,6-2.4,1.9-1.1,2.7-2.3,2.4-3.4l-.3-1.2M22,6.8c-.2,0-.3,0-.5,0-1.8,0-4.1.4-6.5,1.1-2.4.6-4.6,1.5-6.2,2.3-1.3.7-1.9,1.2-2.1,1.5.3.1,1,.3,2.1.3s.3,0,.5,0c1.8,0,4.1-.4,6.5-1.1,2.4-.6,4.6-1.5,6.2-2.3,1.3-.7,1.9-1.2,2.1-1.5-.3-.1-1-.3-2.1-.3h0ZM24.6,8.6c-.5.4-1.1.8-1.9,1.2-1.7.9-4,1.8-6.5,2.4-2.5.7-4.9,1.1-6.8,1.1-.2,0-.4,0-.6,0-.7,0-1.2,0-1.7-.1l4.1,11.7c0,.1.6.5,2.4.5,0,0,0,0,0,0,1.6,0,3.7-.3,5.9-.9,2.2-.6,4.1-1.4,5.5-2.2,1.5-.9,1.8-1.5,1.8-1.6l-2.2-12.2h0ZM27.3,22.6c-.4.3-.9.7-1.5,1-1.5.9-3.6,1.7-5.9,2.3-2.3.6-4.5.9-6.2.9s0,0,0,0c-.7,0-1.3,0-1.8-.2l.9,2.9s0,0,0,0c0,0,.5.5,2.3.5,0,0,0,0,.1,0,1.6,0,3.6-.3,5.7-.9,2.1-.6,4.1-1.3,5.5-2.2,1.5-.9,1.8-1.5,1.7-1.6,0,0,0,0,0,0l-.7-2.9h0ZM29,23.6l.4,1.5c.3,1-.5,2.1-2.3,3.2-1.5.9-3.6,1.8-5.9,2.4-2.2.6-4.4.9-6.1.9s-.1,0-.2,0c-2.1,0-3.3-.6-3.6-1.6l-.5-1.5c-1.9,1.3-2.9,2.7-2.6,3.6.3.9,1.8,1.6,4.1,1.8.5,0,1,0,1.6,0,2.3,0,5.1-.4,7.8-1.1,3.4-.9,6.5-2.3,8.7-3.8,1.9-1.3,2.9-2.7,2.7-3.6-.2-.9-1.8-1.6-4.1-1.8h0Z"/>
      </g>
      <g>
        <polygon class="cls-1" points="28.3 .8 29.9 2.3 32 2.3 31.1 4.2 31.8 6.2 29.7 5.9 28 7.3 27.6 5.1 25.8 3.9 27.7 2.9 28.3 .8"/>
        <path class="cls-5" d="M28.4,1.3l1.3,1.2h0c0,0,.1,0,.1,0h1.7c0,0-.8,1.5-.8,1.5h0c0,0,0,.2,0,.2l.6,1.6-1.7-.2h-.1s0,0,0,0l-1.4,1.1-.3-1.7h0c0-.1,0-.2,0-.2l-1.5-1,1.5-.8h0s0-.2,0-.2l.5-1.7M28.3.8l-.6,2.1-1.9,1,1.8,1.2.4,2.1,1.7-1.3,2.1.3-.7-2,1-1.9h-2.2c0,0-1.6-1.4-1.6-1.4h0Z"/>
      </g>
      <path class="cls-2" d="M3.4,21.1l1.6,1.5h2.2c0,0-1,1.9-1,1.9l.7,2-2.1-.3-1.7,1.3-.4-2.1-1.8-1.2,1.9-1,.6-2.1Z"/>
      <path class="cls-4" d="M8.4,6.5c.3.4.5.9.5,1.5h1.7c0-.6,0-1.1-.3-1.6-.2-.5-.4-1-.7-1.4-1.3-1.6-3.5-1.6-4.8,0l1.2,1.5c.6-.8,1.8-.8,2.4,0Z"/>
    </g>
  </g>
</svg>