<?xml version="1.0" encoding="iso-8859-1"?>
<!-- Generator: Adobe Illustrator 18.0.0, SVG Export Plug-In . SVG Version: 6.00 Build 0)  -->
<!DOCTYPE svg PUBLIC "-//W3C//DTD SVG 1.1//EN" "http://www.w3.org/Graphics/SVG/1.1/DTD/svg11.dtd">
<svg version="1.1" xmlns="http://www.w3.org/2000/svg" xmlns:xlink="http://www.w3.org/1999/xlink" x="0px" y="0px"
	 viewBox="0 0 38.018 38.017" style="enable-background:new 0 0 38.018 38.017;" xml:space="preserve">
<g id="Layer_548">
	<g id="Layer_549">
		<g>
			<path style="fill:#001F80;" d="M38.018,19.008c0-2.131-0.357-4.261-1.061-6.274c-0.679-1.941-1.676-3.769-2.939-5.392
				c-1.253-1.61-2.765-3.016-4.46-4.15c-1.719-1.148-3.625-2.014-5.622-2.548c-2.079-0.557-4.251-0.753-6.396-0.589
				c-2.103,0.161-4.174,0.673-6.108,1.514C9.553,2.388,7.811,3.512,6.288,4.884c-1.517,1.367-2.812,2.977-3.82,4.753
				c-1.028,1.81-1.754,3.788-2.139,5.833c-0.399,2.122-0.435,4.313-0.107,6.448c0.317,2.064,0.979,4.073,1.95,5.922
				c0.951,1.809,2.195,3.461,3.669,4.877c1.476,1.418,3.179,2.596,5.027,3.474c1.896,0.9,3.94,1.479,6.027,1.71
				c2.143,0.237,4.327,0.112,6.428-0.375c2.02-0.469,3.958-1.272,5.718-2.368c1.732-1.079,3.289-2.437,4.594-4.006
				c1.312-1.579,2.366-3.369,3.107-5.284c0.766-1.978,1.191-4.083,1.264-6.202C38.014,19.447,38.018,19.228,38.018,19.008z"/>
			<path style="fill:#FFFFFF;" d="M33.116,31.748c1.29-1.428,2.367-3.053,3.179-4.825L34.23,25.53h2.639
				c0.988-2.705,1.343-5.628,1.048-8.492c-0.16-1.553-0.512-3.086-1.048-4.553h-2.656l2.078-1.403
				c-0.812-1.77-1.89-3.394-3.18-4.821l-7.297,4.924V1.255c-2.673-1.024-5.569-1.428-8.421-1.188
				c-1.774,0.15-3.526,0.55-5.189,1.188v9.936L4.902,6.269c-1.291,1.428-2.367,3.053-3.18,4.824l2.064,1.393H1.149
				c-0.988,2.705-1.343,5.629-1.048,8.493c0.16,1.553,0.512,3.085,1.048,4.552H3.8l-2.074,1.4c0.813,1.771,1.89,3.396,3.181,4.823
				l7.298-4.924v9.932c2.672,1.025,5.569,1.429,8.421,1.188c1.774-0.149,3.525-0.55,5.189-1.188v-9.938L33.116,31.748z"/>
			<g>
				<path style="fill:#BF2525;" d="M37.517,23.357c0.667-2.849,0.667-5.849,0-8.698h-14.21V0.488c-2.816-0.651-5.78-0.651-8.597,0
					v14.171H0.501c-0.667,2.849-0.667,5.849,0,8.698H14.71v14.172c2.816,0.651,5.78,0.651,8.597,0V23.357H37.517z"/>
				<path style="fill:#BF2525;" d="M8.954,12.486L3.13,8.559C2.799,9.061,2.49,9.58,2.207,10.114l3.519,2.372H8.954z"/>
				<path style="fill:#BF2525;" d="M29.063,25.53l5.826,3.928c0.331-0.502,0.639-1.02,0.921-1.554l-3.521-2.375H29.063z"/>
				<path style="fill:#BF2525;" d="M8.965,25.53l-5.831,3.935c0.333,0.503,0.689,0.99,1.065,1.458l7.992-5.394H8.965z"/>
				<path style="fill:#BF2525;" d="M29.053,12.486l5.83-3.935c-0.332-0.503-0.687-0.99-1.065-1.458l-7.992,5.394H29.053z"/>
			</g>
		</g>
	</g>
</g>
<g id="Layer_1">
</g>
</svg>
