<?xml version="1.0" encoding="iso-8859-1"?>
<!-- Generator: Adobe Illustrator 18.0.0, SVG Export Plug-In . SVG Version: 6.00 Build 0)  -->
<!DOCTYPE svg PUBLIC "-//W3C//DTD SVG 1.1//EN" "http://www.w3.org/Graphics/SVG/1.1/DTD/svg11.dtd">
<svg version="1.1" xmlns="http://www.w3.org/2000/svg" xmlns:xlink="http://www.w3.org/1999/xlink" x="0px" y="0px"
	 viewBox="0 0 38.018 38.017" style="enable-background:new 0 0 38.018 38.017;" xml:space="preserve">
<g id="Layer_425">
	<g id="Layer_426">
		<g>
			<path style="fill:#BA1824;" d="M38.018,19.009c0-2.132-0.357-4.261-1.061-6.274c-0.679-1.941-1.676-3.768-2.939-5.392
				c-1.253-1.61-2.765-3.017-4.46-4.15c-1.719-1.148-3.625-2.014-5.622-2.548c-2.079-0.556-4.251-0.752-6.396-0.588
				c-2.103,0.161-4.174,0.673-6.108,1.514C9.553,2.388,7.811,3.512,6.288,4.884C4.772,6.25,3.476,7.861,2.468,9.637
				c-1.028,1.81-1.754,3.788-2.139,5.833c-0.399,2.122-0.435,4.313-0.107,6.448c0.317,2.065,0.979,4.073,1.95,5.921
				c0.951,1.809,2.195,3.461,3.669,4.877c1.476,1.418,3.179,2.596,5.027,3.474c1.896,0.9,3.94,1.479,6.027,1.71
				c2.143,0.237,4.327,0.112,6.428-0.375c2.02-0.469,3.958-1.273,5.718-2.369c1.732-1.078,3.289-2.437,4.594-4.006
				c1.312-1.579,2.366-3.369,3.107-5.284c0.766-1.978,1.191-4.083,1.264-6.202C38.014,19.446,38.018,19.227,38.018,19.009z"/>
			<path style="fill:#F2D43A;" d="M38.018,19.009c0-2.535-0.498-4.953-1.397-7.163H1.398c-1.035,2.544-1.503,5.306-1.377,8.048
				c0.097,2.115,0.548,4.21,1.335,6.176c0.763,1.905,1.837,3.682,3.166,5.245c1.322,1.555,2.893,2.896,4.639,3.955
				c1.773,1.077,3.724,1.859,5.75,2.305c2.108,0.463,4.295,0.563,6.436,0.3c2.08-0.255,4.115-0.858,5.998-1.778
				c1.838-0.898,3.527-2.095,4.986-3.529c1.458-1.433,2.684-3.1,3.614-4.92c0.951-1.862,1.59-3.881,1.883-5.952
				C37.954,20.806,38.018,19.907,38.018,19.009z"/>
			<path style="fill:#18603E;" d="M36.62,26.17H1.398c0.823,2.024,2,3.9,3.459,5.526c1.453,1.62,3.183,2.989,5.096,4.028
				c1.955,1.062,4.096,1.774,6.298,2.094c2.274,0.331,4.608,0.25,6.853-0.244c2.158-0.474,4.229-1.33,6.093-2.515
				c1.834-1.167,3.466-2.649,4.803-4.362C35.075,29.318,35.961,27.79,36.62,26.17z"/>
			<polygon points="20.788,17.315 19.009,11.838 17.229,17.315 11.47,17.315 16.129,20.7 14.35,26.177 19.009,22.792 23.668,26.177 
				21.888,20.7 26.547,17.315 			"/>
		</g>
	</g>
</g>
<g id="Layer_1">
</g>
</svg>
