<?xml version="1.0" encoding="iso-8859-1"?>
<!-- Generator: Adobe Illustrator 18.0.0, SVG Export Plug-In . SVG Version: 6.00 Build 0)  -->
<!DOCTYPE svg PUBLIC "-//W3C//DTD SVG 1.1//EN" "http://www.w3.org/Graphics/SVG/1.1/DTD/svg11.dtd">
<svg version="1.1" xmlns="http://www.w3.org/2000/svg" xmlns:xlink="http://www.w3.org/1999/xlink" x="0px" y="0px"
	 viewBox="0 0 38.018 38.017" style="enable-background:new 0 0 38.018 38.017;" xml:space="preserve">
<g id="Layer_423">
	<g id="Layer_424">
		<g>
			<g>
				<path style="fill:#FFFFFF;" d="M38.018,19.009c0-2.132-0.356-4.261-1.06-6.274c-0.68-1.941-1.677-3.769-2.939-5.392
					c-1.254-1.61-2.766-3.017-4.461-4.15c-1.719-1.148-3.625-2.014-5.621-2.548c-2.08-0.556-4.252-0.752-6.397-0.588
					c-2.103,0.161-4.174,0.673-6.106,1.514C9.554,2.388,7.811,3.512,6.288,4.884C4.772,6.25,3.476,7.861,2.468,9.637
					c-1.027,1.81-1.754,3.788-2.139,5.833c-0.399,2.122-0.436,4.313-0.107,6.448c0.317,2.065,0.979,4.073,1.951,5.921
					c0.95,1.809,2.194,3.461,3.668,4.877c1.476,1.418,3.18,2.596,5.027,3.474c1.896,0.9,3.941,1.479,6.027,1.71
					c2.143,0.237,4.327,0.112,6.428-0.375c2.02-0.469,3.959-1.273,5.719-2.369c1.732-1.078,3.288-2.437,4.593-4.006
					c1.312-1.579,2.366-3.369,3.108-5.284c0.766-1.978,1.191-4.082,1.264-6.202C38.014,19.446,38.018,19.227,38.018,19.009z"/>
				<path style="fill:#B20810;" d="M35.884,27.764H2.134c1.025,1.972,2.398,3.76,4.037,5.261c1.642,1.506,3.551,2.722,5.611,3.57
					c2.133,0.877,4.422,1.356,6.727,1.415c2.322,0.06,4.651-0.302,6.842-1.077c2.107-0.745,4.076-1.868,5.796-3.296
					c1.708-1.418,3.165-3.136,4.285-5.052C35.589,28.315,35.741,28.041,35.884,27.764z"/>
			</g>
			<g>
				<g>
					<polygon style="fill:#B20810;" points="27.557,15.608 26.54,15.608 26.54,14.743 25.816,14.743 25.816,9.718 26.084,9.718 
						26.084,9.042 26.574,9.042 26.574,7.695 25.717,7.695 25.717,8.404 24.939,8.404 24.939,7.695 23.669,7.695 23.669,8.408 
						22.86,8.408 22.86,7.742 22.154,7.742 22.154,9.038 22.426,9.038 22.426,9.718 22.654,9.718 22.654,14.712 22.51,14.712 
						22.51,15.558 21.464,15.558 21.464,14.761 21.112,14.761 21.112,8.435 21.497,8.435 21.497,7.519 21.937,7.519 21.937,6.45 
						21.189,6.45 21.189,6.994 20.357,6.994 20.357,6.45 19.402,6.45 19.402,6.999 18.572,6.999 18.572,6.45 17.618,6.45 
						17.618,6.994 16.787,6.994 16.787,6.45 16.038,6.45 16.038,7.519 16.478,7.519 16.478,8.435 16.862,8.435 16.862,14.761 
						16.511,14.761 16.511,15.558 15.466,15.558 15.466,14.712 15.319,14.712 15.319,9.718 15.55,9.718 15.55,9.038 15.821,9.038 
						15.821,7.742 15.114,7.742 15.114,8.408 14.306,8.408 14.306,7.695 13.036,7.695 13.036,8.404 12.258,8.404 12.258,7.695 
						11.401,7.695 11.401,9.042 11.891,9.042 11.891,9.718 12.159,9.718 12.159,14.743 11.434,14.743 11.434,15.608 10.418,15.608 
						10.418,14.743 9.832,14.743 9.832,16.314 10.403,16.314 10.403,16.979 10.92,16.979 10.92,24.848 9.832,25.719 9.832,26.614 
						14.421,26.614 14.421,27.049 23.554,27.049 23.554,26.614 28.143,26.614 28.143,25.719 27.054,24.848 27.054,16.979 
						27.571,16.979 27.571,16.314 28.143,16.314 28.143,14.743 27.557,14.743 					"/>
					<g>
						<path d="M27.521,15.572h-0.943v-0.865h-0.726V9.754h0.269V9.078h0.49V7.659h-0.93v0.708h-0.707V7.659h-1.342v0.712h-0.734
							V7.706h-0.779v1.368h0.271v0.681h0.229v4.922h-0.145v0.846H21.5v-0.798h-0.352V8.472h0.386V7.555h0.438V6.413h-0.821v0.544
							h-0.758V6.413h-1.027v0.55h-0.758v-0.55h-1.027v0.544h-0.758V6.413h-0.821v1.142h0.439v0.917h0.385v6.253h-0.351v0.798h-0.975
							v-0.846h-0.145V9.754h0.229V9.074h0.271V7.706h-0.779v0.665h-0.734V7.659h-1.342v0.708h-0.707V7.659h-0.93v1.419h0.49v0.676
							h0.267v4.953h-0.725v0.865h-0.943v-0.865H9.796v1.643h0.572v0.664h0.516v7.816l-1.088,0.871v0.949h4.588v0.436h9.207V26.65
							h4.588v-0.949l-1.088-0.871v-7.816h0.516V16.35h0.572v-1.643h-0.658V15.572z M22.191,9.001V7.779h0.635v0.666h0.879V7.732
							h1.197V8.44h0.852V7.732h0.785v1.274h-0.49c0,0.002-3.586,0.002-3.586,0.002C22.462,9.001,22.191,9.001,22.191,9.001z
							 M22.462,9.682V9.079h3.586v0.602H22.462z M24.265,12.43c-0.474,0-0.859,0.384-0.859,0.857v1.39h-0.715V9.754h3.089v4.953
							h-0.657v-1.42C25.122,12.814,24.737,12.43,24.265,12.43z M24.284,21.309h-0.02c-0.726,0.011-1.31,0.601-1.31,1.331v2.171
							h-0.566v-7.198h0.702v-0.6h3.929v7.797h-1.425v-2.171C25.594,21.911,25.009,21.32,24.284,21.309z M13.71,21.309h-0.019
							c-0.725,0.011-1.31,0.601-1.31,1.331v2.171h-1.425v-7.797h3.929v0.6h0.702v7.198h-0.566v-2.171
							C15.021,21.911,14.437,21.32,13.71,21.309z M13.71,12.43c-0.473,0-0.857,0.384-0.857,0.857v1.42h-0.657V9.754h3.088v4.922
							h-0.715v-1.39C14.568,12.814,14.185,12.43,13.71,12.43z M15.635,25.302h6.705l1.088,0.677h-8.881L15.635,25.302z
							 M18.987,20.394c-1.012,0-1.83,0.82-1.83,1.831v3.004h-1.498v-7.615h6.656v7.615h-1.498v-3.004
							C20.817,21.214,19.999,20.394,18.987,20.394z M14.957,17.541v-0.58h8.06v0.58H14.957z M16.074,7.482V6.486h0.677V7.03h0.902
							V6.486h0.883v0.55h0.902v-0.55h0.882V7.03h0.903V6.486h0.677v0.997H21.46c0,0.001-4.945,0.001-4.945,0.001
							C16.515,7.482,16.074,7.482,16.074,7.482z M16.515,8.399V7.557h4.945v0.843H16.515z M18.987,11.806
							c-0.566,0-1.027,0.46-1.027,1.027v1.892h-1.062V8.472h4.179v6.253h-1.062v-1.892C20.015,12.266,19.555,11.806,18.987,11.806z
							 M15.429,14.749v0.846h1.119v-0.798h1.412v0.853h2.055v-0.853h1.412v0.798h1.119v-0.846h0.824v2.14h-8.766v-2.14H15.429z
							 M11.437,9.006V7.732h0.785V8.44h0.852V7.732h1.196v0.712h0.881V7.779h0.634v1.223h-0.271c0,0.006-3.586,0.006-3.586,0.006
							C11.927,9.006,11.437,9.006,11.437,9.006z M11.927,9.682V9.079h3.586v0.602H11.927z M9.868,16.278V14.78h0.514v0.864h1.088
							V14.78h1.383v0.861h1.68v0.637H9.868z M10.441,16.943V16.35h4.092v0.592H10.441z M10.933,24.885h4.654v0.361l-0.702,0.437
							h-4.95L10.933,24.885z M14.384,25.979v0.598H9.868v-0.822h4.9l-0.361,0.225H14.384z M23.519,26.577v0.435h-9.062v-0.96h9.062
							V26.577z M28.107,26.577h-4.515v-0.598h-0.025l-0.361-0.225h4.9V26.577z M28.04,25.683h-4.952l-0.7-0.437v-0.361h4.654
							L28.04,25.683z M27.534,16.943h-4.092V16.35h4.092V16.943z M27.593,14.78h0.514v1.499h-4.664v-0.637h1.68V14.78h1.383v0.864
							h1.088V14.78z"/>
						<g>
							<rect x="17.778" y="9.332" width="0.501" height="1.941"/>
							<rect x="18.736" y="9.052" width="0.503" height="1.94"/>
							<rect x="19.695" y="9.332" width="0.502" height="1.941"/>
						</g>
					</g>
				</g>
				<g>
					<g>
						<path style="fill:#FFF915;" d="M20.424,30.221h0.497v-0.724h-0.497l-0.822-0.615V27.5c0-0.078-0.009-0.151-0.027-0.22
							c0.185-0.287,0.118-0.677-0.12-0.915c0.368-0.42,0.821-0.791,1.301-1.077v-0.527c-0.305,0.149-0.564,0.373-0.824,0.587
							c-0.277,0.228-0.569,0.437-0.84,0.673c-0.26-0.249-0.571-0.436-0.879-0.62c-0.337-0.203-0.674-0.406-1.014-0.603v0.585
							c0.734,0.271,1.495,0.942,1.495,0.942c-0.191,0.207-0.294,0.557-0.202,0.827c-0.045,0.105-0.069,0.223-0.069,0.348v1.254
							l-0.993,0.743h-0.496v0.724h0.496l1.226,0.918v5.024h-2.164v1.142h0.639V36.7h0.887v0.604h0.639v0.537h-0.639v0.15
							c0.392,0.02,0.786,0.027,1.18,0.023V31.14L20.424,30.221z M19.056,26.62l0.108,0.128h-0.198L19.056,26.62z M19.163,27.046
							l-0.1,0.06l-0.113-0.102C18.958,27.004,19.163,27.046,19.163,27.046z M18.624,27.5c0-0.037,0.003-0.072,0.01-0.105
							c0.205,0.217,0.526,0.273,0.766,0.081v1.256l-0.473-0.354l-0.303,0.227V27.5z M19.351,29.304
							c-0.065,0.155-0.219,0.289-0.396,0.254c-0.17-0.033-0.278-0.196-0.315-0.355l0.287-0.212L19.351,29.304z M18.927,30.727
							l-1.178-0.868l0.713-0.526c0.064,0.223,0.24,0.439,0.482,0.474c0.258,0.037,0.481-0.15,0.58-0.375l0.58,0.427L18.927,30.727z"
							/>
						<path style="fill:#FFF915;" d="M16.491,37.841v0.009c0.211,0.028,0.424,0.053,0.639,0.074v-0.083H16.491z"/>
					</g>
					<g>
						<path d="M20.433,30.265h0.524v-0.812h-0.524l-0.795-0.596V27.5c0-0.073-0.01-0.146-0.024-0.214
							c0.176-0.298,0.113-0.666-0.107-0.922c0.184-0.199,0.385-0.384,0.594-0.557c0.113-0.094,0.23-0.184,0.351-0.27
							c0.098-0.069,0.204-0.169,0.318-0.209l0.02-0.012v-0.62l-0.049,0.025c-0.289,0.142-0.54,0.351-0.787,0.555
							c-0.284,0.234-0.583,0.45-0.861,0.69c-0.255-0.241-0.558-0.423-0.857-0.601c-0.34-0.203-0.678-0.411-1.021-0.607l-0.052-0.028
							v0.687l0.026,0.009c0.63,0.233,1.291,0.771,1.449,0.905c-0.176,0.222-0.27,0.546-0.188,0.822
							c-0.041,0.105-0.063,0.223-0.063,0.348v1.229l-0.968,0.724h-0.523v0.812h0.523l1.201,0.897v4.956h-2.166v1.23h0.711v-0.605
							h0.815v0.605h0.64v0.449h-0.64v0.192c0.024,0.001,0.048,0.002,0.071,0.004v-0.108h0.568v0.127c0.023,0,0.047,0,0.07,0.001
							v-6.242h0.471v6.244c0.023,0,0.047,0,0.07-0.001v-6.85L20.433,30.265z M20.39,25.042c0.113-0.084,0.227-0.158,0.33-0.214
							v0.434c-0.047,0.028-0.172,0.105-0.33,0.219V25.042z M20.101,25.264c0.07-0.056,0.144-0.115,0.219-0.17v0.439
							c-0.07,0.051-0.144,0.107-0.219,0.171V25.264z M19.819,25.492c0.069-0.058,0.139-0.115,0.209-0.17v0.439
							c-0.012,0.01-0.026,0.021-0.039,0.033c-0.062,0.052-0.117,0.103-0.17,0.149V25.492z M19.539,25.706l0.106-0.079
							c0.031-0.023,0.066-0.05,0.104-0.079v0.46c-0.09,0.084-0.159,0.152-0.21,0.205V25.706z M18.62,37.26h-0.568v-0.604h-0.958
							v0.604h-0.567v-1.054h2.094V37.26z M19.649,26.922c0,0.12-0.041,0.237-0.106,0.337c-0.116,0-0.267-0.145-0.334-0.23
							c0.003-0.001,0.003-0.004,0.003-0.007c0.004-0.009,0.008-0.019,0.01-0.029c0.004-0.016,0.008-0.033,0.008-0.05
							c0.039,0.003,0.08,0.006,0.121,0.003c0.035-0.003,0.068-0.006,0.098-0.013c0.092-0.016,0.156-0.049,0.195-0.075
							C19.648,26.878,19.649,26.899,19.649,26.922z M19.054,27.145c-0.002,0.188,0.027,0.332,0.048,0.408
							c-0.09,0.026-0.226-0.034-0.302-0.077c0.003-0.063,0.025-0.234,0.143-0.399l0.011,0.012
							C18.984,27.122,19.018,27.141,19.054,27.145z M19.026,27.044c0.022,0.002,0.041,0.006,0.061,0.011
							C19.065,27.064,19.044,27.058,19.026,27.044z M18.732,27.429c-0.021-0.013-0.041-0.031-0.06-0.05
							c0.024-0.114,0.083-0.211,0.159-0.269C18.764,27.237,18.739,27.356,18.732,27.429z M19.084,27.642
							c0.097,0,0.192-0.034,0.28-0.092v1.103l-0.438-0.329l-0.268,0.2V27.5c0-0.009,0-0.017,0.002-0.024
							C18.782,27.582,18.937,27.642,19.084,27.642z M19.363,27.453c-0.059,0.044-0.123,0.076-0.189,0.091
							c-0.017-0.061-0.054-0.212-0.048-0.413c0.016-0.007,0.028-0.018,0.041-0.032c0.038,0.049,0.079,0.088,0.121,0.118
							c0.06,0.049,0.129,0.09,0.203,0.116C19.454,27.378,19.411,27.418,19.363,27.453z M19.435,27.498
							c0.045-0.037,0.086-0.079,0.121-0.127c0.008,0.042,0.01,0.085,0.01,0.128v1.305l-0.131-0.098V27.498z M19.63,26.766
							c-0.113,0.085-0.264,0.098-0.399,0.089c-0.003-0.017-0.032-0.117-0.028-0.122c0.094-0.089,0.172-0.269,0.207-0.355
							c0.01,0.007,0.015,0.013,0.02,0.017C19.435,26.402,19.579,26.54,19.63,26.766z M19.468,25.763v0.525
							c-0.006,0.006-0.012,0.012-0.017,0.019c-0.057-0.055-0.205-0.199-0.298-0.284C19.212,25.972,19.333,25.87,19.468,25.763z
							 M19.095,26.073c0.068,0.069,0.18,0.176,0.256,0.25c-0.027,0.073-0.104,0.254-0.19,0.341
							c-0.033-0.039-0.091-0.091-0.154-0.146C19.054,26.395,19.081,26.189,19.095,26.073z M19.106,26.72
							c-0.031-0.007-0.061-0.011-0.094-0.011c0.013-0.01,0.026-0.025,0.046-0.038C19.077,26.689,19.093,26.705,19.106,26.72z
							 M18.755,25.805c0.138,0.098,0.228,0.172,0.273,0.212c-0.011,0.109-0.037,0.333-0.082,0.452
							c-0.074-0.06-0.146-0.116-0.191-0.151V25.805z M18.746,26.416c-0.026-0.001-0.053-0.004-0.074-0.004
							c0.011-0.014,0.019-0.024,0.026-0.033C18.714,26.391,18.73,26.403,18.746,26.416z M17.57,25.504
							c-0.11-0.058-0.225-0.111-0.337-0.153v-0.485c0.064,0.039,0.186,0.108,0.337,0.198V25.504z M17.928,25.71
							c-0.093-0.059-0.186-0.117-0.287-0.169v-0.434c0.09,0.052,0.189,0.111,0.287,0.17V25.71z M18.31,25.969
							c-0.092-0.066-0.197-0.14-0.311-0.214v-0.434c0.106,0.063,0.211,0.128,0.311,0.191V25.969z M18.382,26.023v-0.466
							c0.113,0.073,0.217,0.142,0.302,0.199v0.508C18.634,26.221,18.526,26.132,18.382,26.023z M18.615,26.502
							c0.07-0.004,0.216,0,0.288,0.039c0.033,0.027,0.063,0.051,0.092,0.076c-0.04,0.035-0.068,0.065-0.087,0.106
							c-0.109,0.022-0.209,0.081-0.291,0.167c-0.055,0.05-0.082,0.099-0.116,0.147l-0.008-0.08
							C18.493,26.762,18.556,26.606,18.615,26.502z M18.458,27.5c0-0.084,0.012-0.167,0.034-0.241
							c0.053-0.199,0.188-0.368,0.384-0.44c0.025-0.008,0.053-0.015,0.079-0.019c0.067-0.003,0.133-0.003,0.197,0.021
							c0.011,0.046,0.013,0.1,0.002,0.146c-0.002,0.007-0.003,0.014-0.006,0.019c-0.056-0.025-0.124-0.039-0.185-0.024
							c-0.215,0.019-0.347,0.259-0.369,0.45c-0.005,0.028-0.006,0.058-0.006,0.088v1.566c0,0.19,0.082,0.402,0.255,0.497
							c0.2,0.111,0.422-0.01,0.521-0.197l0.111,0.08c-0.125,0.251-0.418,0.407-0.683,0.266c-0.227-0.121-0.335-0.4-0.335-0.646V27.5
							z M18.683,29.224l0.244-0.181l0.377,0.278C19.142,29.631,18.769,29.535,18.683,29.224z M18.57,29.623
							c0.284,0.361,0.771,0.259,0.967-0.131l0.497,0.367l-1.107,0.816l-1.109-0.816l0.627-0.462
							C18.475,29.481,18.518,29.557,18.57,29.623z M19.161,31.683h-0.471v-0.466l0.236,0.176l0.234-0.176V31.683z M18.927,31.291
							l-0.236-0.178l-0.07-0.052l-1.181-0.884h-0.472v-0.636h0.472l0.947-0.709v0.234c0,0.086,0.011,0.169,0.031,0.249l-0.738,0.545
							l1.247,0.919l1.246-0.919l-0.602-0.443l-0.062-0.046l-0.11-0.083l-0.064-0.045l-0.408-0.303l-0.263,0.194
							c-0.003-0.023-0.005-0.046-0.005-0.068v-0.438l0.268-0.201l0.438,0.327l0.07,0.055l0.131,0.097l0.072,0.054l0.767,0.575
							l0.009,0.007h0.472v0.636h-0.472l-1.183,0.886l-0.07,0.052L18.927,31.291z"/>
						<path d="M16.454,37.797v0.048c0.105,0.014,0.211,0.027,0.317,0.04h0.322v0.036c0.024,0.002,0.048,0.004,0.071,0.006v-0.13
							H16.454z"/>
					</g>
				</g>
			</g>
		</g>
	</g>
</g>
<g id="Layer_1">
</g>
</svg>
