<svg width="31" height="28" viewBox="0 0 31 28" fill="none" xmlns="http://www.w3.org/2000/svg">
<path d="M29.5647 12.6534L25.0075 8.09627V2.83198C25.0075 1.88013 24.2362 1.10872 23.2829 1.10872C22.3318 1.10872 21.5605 1.88013 21.5605 2.83198V4.64933L18.1673 1.25604C16.4897 -0.42067 13.5729 -0.417696 11.8991 1.25907L0.504487 12.6534C-0.168162 13.3274 -0.168162 14.418 0.504487 15.0909C1.17744 15.7647 2.27011 15.7647 2.94282 15.0909L14.3363 3.69626C14.7075 3.32703 15.3617 3.32703 15.7309 3.69516L27.1264 15.0909C27.4643 15.4279 27.9048 15.5954 28.3453 15.5954C28.7866 15.5954 29.2279 15.4277 29.5647 15.0909C30.2376 14.418 30.2376 13.3275 29.5647 12.6534Z" fill="white"/>
<path d="M15.6329 6.96742C15.3018 6.63655 14.7658 6.63655 14.4357 6.96742L4.41299 16.9872C4.25475 17.1453 4.16504 17.3613 4.16504 17.5867V24.8947C4.16504 26.6096 5.5555 28 7.27032 28H12.2326V20.3151H17.8349V28H22.7972C24.512 28 25.9024 26.6096 25.9024 24.8948V17.5867C25.9024 17.3613 25.8135 17.1453 25.6545 16.9872L15.6329 6.96742Z" fill="white"/>
</svg>
