<?xml version="1.0" encoding="iso-8859-1"?>
<!-- Generator: Adobe Illustrator 18.0.0, SVG Export Plug-In . SVG Version: 6.00 Build 0)  -->
<!DOCTYPE svg PUBLIC "-//W3C//DTD SVG 1.1//EN" "http://www.w3.org/Graphics/SVG/1.1/DTD/svg11.dtd">
<svg version="1.1" xmlns="http://www.w3.org/2000/svg" xmlns:xlink="http://www.w3.org/1999/xlink" x="0px" y="0px"
	 viewBox="0 0 38.017 38.017" style="enable-background:new 0 0 38.017 38.017;" xml:space="preserve">
<g id="Layer_485">
	<g id="Layer_486">
		<g>
			<g>
				<path style="fill:#0D0D8C;" d="M38.017,19.009c0-2.132-0.356-4.261-1.06-6.274c-0.679-1.941-1.676-3.769-2.939-5.392
					c-1.253-1.61-2.765-3.017-4.46-4.15c-1.719-1.148-3.625-2.014-5.622-2.548c-2.079-0.556-4.251-0.752-6.397-0.588
					c-2.102,0.161-4.174,0.673-6.107,1.514C9.553,2.388,7.81,3.512,6.288,4.884C4.771,6.251,3.476,7.861,2.468,9.637
					c-1.028,1.81-1.753,3.788-2.138,5.833c-0.4,2.122-0.435,4.313-0.107,6.448c0.317,2.064,0.978,4.073,1.95,5.921
					c0.951,1.809,2.195,3.462,3.669,4.877c1.476,1.418,3.179,2.596,5.028,3.474c1.896,0.9,3.94,1.479,6.027,1.71
					c2.143,0.237,4.327,0.112,6.428-0.375c2.02-0.469,3.958-1.273,5.718-2.369c1.733-1.078,3.289-2.436,4.593-4.006
					c1.312-1.579,2.367-3.369,3.108-5.284c0.766-1.978,1.191-4.082,1.264-6.202C38.013,19.446,38.017,19.228,38.017,19.009z"/>
				<path style="fill:#FFFFFF;" d="M38.017,19.009c0-2.535-0.498-4.952-1.397-7.163H1.398c-1.073,2.634-1.535,5.502-1.361,8.34
					c0.125,2.052,0.586,4.081,1.361,5.985H36.62C37.521,23.96,38.017,21.542,38.017,19.009z"/>
				<path style="fill:#DD1212;" d="M19.009,0C11.045,0,4.226,4.898,1.398,11.846H36.62C33.791,4.898,26.973,0,19.009,0z"/>
			</g>
			<g>
				<g>
					<path style="fill:#DD1212;" d="M10.029,21.87c0,2.449,1.155,4.801,3.006,6.386c1.969,1.686,4.644,2.448,7.208,2.104
						c2.477-0.333,4.797-1.684,6.235-3.739c0.969-1.386,1.516-3.058,1.516-4.751v-10.19H10.029V21.87z"/>
					<path style="fill:#FFFFFF;" d="M10.201,21.897c0,2.432,1.161,4.763,3.013,6.319c1.965,1.651,4.629,2.366,7.162,1.989
						c2.356-0.351,4.547-1.664,5.933-3.605c0.974-1.365,1.515-3.024,1.515-4.702V11.846H10.201V21.897z"/>
					<g>
						<rect x="13.907" y="15.705" style="fill:#DD1212;" width="3.4" height="3.564"/>
						<rect x="10.507" y="12.141" style="fill:#DD1212;" width="3.4" height="3.565"/>
						<rect x="20.706" y="15.705" style="fill:#DD1212;" width="3.4" height="3.564"/>
						<rect x="24.106" y="12.141" style="fill:#DD1212;" width="3.4" height="3.565"/>
						<rect x="17.306" y="12.141" style="fill:#DD1212;" width="3.4" height="3.565"/>
						<path style="fill:#DD1212;" d="M24.105,22.834h-3.399v3.564h-3.4v-3.564h-3.4v3.564h-1.944
							c0.531,0.749,1.19,1.409,1.944,1.952v-1.952h3.4v3.42c1.117,0.218,2.284,0.219,3.4-0.001v-3.419h3.4v-3.565h3.336
							c0.04-0.315,0.06-0.635,0.06-0.96V19.27h-3.397V22.834z"/>
						<path style="fill:#DD1212;" d="M10.507,21.877c0,0.324,0.021,0.643,0.06,0.957h3.34v-3.564h-3.4V21.877z"/>
						<path style="fill:#DD1212;" d="M24.106,28.35c0.754-0.544,1.411-1.203,1.941-1.95h-1.941V28.35z"/>
						<rect x="17.306" y="19.27" style="fill:#DD1212;" width="3.4" height="3.565"/>
					</g>
				</g>
				<g>
					<path style="fill:#DD1212;" d="M25.556,5.373l-1.875-2.045l-2.47,1.351l-2.203-1.721l-2.203,1.721l-2.47-1.351l-1.875,2.045
						L9.791,4.43L8.13,6.989l2.156,4.672c2.636-1.15,5.502-1.761,8.376-1.806c2.922-0.045,5.851,0.492,8.56,1.591
						c0.169,0.069,0.337,0.14,0.505,0.213l2.159-4.671l-1.66-2.558L25.556,5.373z"/>
					<path style="fill:#FFFFFF;" d="M25.527,5.485L23.66,3.45l-2.459,1.345l-2.193-1.713l-2.192,1.713L14.357,3.45l-1.866,2.036
						L9.833,4.546l-1.59,2.45l2.091,4.529c2.652-1.143,5.531-1.743,8.417-1.776c2.922-0.033,5.849,0.511,8.555,1.617
						c0.125,0.051,0.25,0.104,0.375,0.157l2.093-4.528l-1.589-2.45L25.527,5.485z"/>
					<g>
						<path style="fill:#008EC6;" d="M25.484,5.663l-1.219,4.576c1.148,0.28,2.26,0.649,3.327,1.099l2.001-4.33l-1.477-2.275
							L25.484,5.663z"/>
						<path style="fill:#008EC6;" d="M19.009,3.277l-2.172,1.698l0.409,4.705c1.176-0.092,2.358-0.092,3.534,0.001l0.411-4.706
							c0,0,0,0-0.005,0.002L19.009,3.277z"/>
						<path style="fill:#008EC6;" d="M12.538,5.665L9.9,4.732L8.423,7.007l0.566,1.227l1.433,3.104
							c1.07-0.452,2.186-0.821,3.338-1.102L12.542,5.66L12.538,5.665z"/>
					</g>
					<g>
						<path style="fill:#0D0D8C;" d="M14.391,3.644L12.542,5.66l1.217,4.576c1.13-0.274,2.295-0.461,3.487-0.556
							c0,0-0.409-4.705-0.413-4.702L14.391,3.644z"/>
						<path style="fill:#0D0D8C;" d="M23.627,3.644l-2.436,1.333l-0.411,4.706c1.192,0.094,2.357,0.282,3.486,0.557l1.219-4.576
							C25.48,5.665,23.627,3.644,23.627,3.644z"/>
					</g>
					<g>
						<path style="fill:#FFFFFF;" d="M24.96,7.636c1.301,0.317,2.561,0.735,3.769,1.245l0.133-0.287
							c-1.225-0.517-2.502-0.941-3.821-1.262L24.96,7.636z"/>
						<path style="fill:#FFFFFF;" d="M24.569,9.103c1.216,0.296,2.392,0.686,3.52,1.163l0.142-0.307
							c-1.146-0.484-2.341-0.88-3.575-1.181L24.569,9.103z"/>
					</g>
					<g>
						<path style="fill:#DD1212;" d="M24.656,8.777c1.234,0.301,2.429,0.697,3.575,1.181l0.498-1.078
							c-1.208-0.51-2.468-0.928-3.77-1.245L24.656,8.777z"/>
						<path style="fill:#DD1212;" d="M28.231,9.959l-0.018,0.038L28.231,9.959z"/>
						<path style="fill:#DD1212;" d="M13.15,7.944l0.308,1.157c1.194-0.29,2.426-0.488,3.687-0.588l-0.104-1.19
							C15.71,7.428,14.41,7.638,13.15,7.944z"/>
						<path style="fill:#DD1212;" d="M12.543,5.665l0.302,1.136c1.326-0.322,2.694-0.542,4.093-0.652l-0.101-1.168
							C15.369,5.096,13.934,5.327,12.543,5.665z"/>
					</g>
				</g>
				<g>
					<path style="fill:#FFFFFF;" d="M11.106,9.412c-0.398,0-0.772-0.162-1.035-0.44c0.269,0.572,0.963,0.849,1.561,0.672
						c0.622-0.184,1.038-0.845,0.866-1.484C12.456,8.857,11.847,9.412,11.106,9.412z"/>
					<polygon style="fill:#F7DB17;" points="11.188,6.229 10.739,6.376 10.38,6.079 10.288,6.523 9.839,6.671 10.197,6.97 
						10.106,7.415 10.555,7.269 10.914,7.566 11.006,7.121 11.456,6.973 11.098,6.675 					"/>
					<path style="fill:#594908;" d="M11.115,6.669l0.09-0.442l0.004-0.02l-0.021,0.006l-0.446,0.145l-0.356-0.295L10.37,6.05
						l-0.004,0.021l-0.091,0.441L9.828,6.659L9.808,6.666l0.017,0.014l0.355,0.296l-0.09,0.441l-0.004,0.02l0.021-0.007l0.446-0.146
						l0.356,0.296l0.016,0.014l0.004-0.021l0.091-0.441l0.446-0.146l0.02-0.007L11.47,6.965L11.115,6.669z M11.09,6.669
						l-0.418,0.137l0.501-0.549L11.09,6.669z M10.745,6.383l0.417-0.135L10.66,6.797L10.745,6.383z M10.729,6.381l-0.084,0.414
						l-0.248-0.689L10.729,6.381z M10.383,6.109l0.248,0.689l-0.333-0.276L10.383,6.109z M10.288,6.533l0.333,0.277l-0.75-0.141
						L10.288,6.533z M9.868,6.684l0.75,0.14L10.2,6.961L9.868,6.684z M10.205,6.975l0.418-0.137l-0.502,0.549L10.205,6.975z
						 M10.55,7.261l-0.417,0.136l0.501-0.549L10.55,7.261z M10.565,7.263l0.084-0.414l0.248,0.69L10.565,7.263z M10.911,7.535
						l-0.248-0.689l0.333,0.277L10.911,7.535z M11.006,7.112l-0.333-0.277l0.75,0.14L11.006,7.112z M10.677,6.82l0.417-0.137
						l0.332,0.276L10.677,6.82z"/>
				</g>
				<g>
					<path style="fill:#594908;" d="M19.693,8.217c0.084,0.028,0.124-0.006,0.124-0.006c-0.085-0.033-0.092-0.205-0.14-0.275
						c0.083-0.002,0.115-0.046,0.115-0.046c-0.034-0.004-0.071-0.014-0.11-0.043c0.055-0.059,0.089-0.13,0.078-0.212
						c-0.006-0.044-0.027-0.151-0.084-0.159c-0.083-0.011-0.151,0.151-0.183,0.207c-0.038-0.017-0.082-0.033-0.128-0.047
						c0.019-0.074,0.058-0.197,0.137-0.325c-0.08,0.019-0.179,0.046-0.188,0.141c-0.011,0.123-0.161,0.102-0.115-0.017
						c0.023-0.061,0.086-0.226-0.034-0.149c-0.032,0.02-0.049,0.019-0.057-0.021c-0.013-0.066-0.048-0.103-0.099-0.148
						c-0.045,0.041-0.077,0.075-0.092,0.134c-0.011,0.045-0.023,0.068-0.067,0.032c-0.129-0.105-0.029,0.145-0.021,0.184
						c0.016,0.084-0.101,0.09-0.125,0.02c-0.015-0.046,0.006-0.08-0.039-0.115c-0.042-0.033-0.097-0.048-0.148-0.06
						c0.079,0.128,0.118,0.251,0.136,0.326c-0.041,0.012-0.08,0.025-0.114,0.04c-0.038-0.065-0.095-0.188-0.173-0.209
						c-0.052-0.014-0.074,0.092-0.083,0.125c-0.025,0.091-0.002,0.177,0.062,0.246c-0.043,0.035-0.083,0.046-0.12,0.05
						c0,0,0.042,0.048,0.135,0.043C18.291,8,18.291,8.176,18.201,8.21c0.07,0.049,0.155-0.003,0.203-0.057
						c-0.019,0.106-0.079,0.191-0.18,0.231c0,0,0.114,0.064,0.212-0.022c-0.004,0.102-0.085,0.153-0.182,0.163
						c0.047,0.1,0.171,0.103,0.261,0.061c-0.009,0.013-0.094,0.124-0.191,0.1c0,0,0.028,0.112,0.297,0.03c0,0,0.007,0.12-0.06,0.166
						c0,0,0.14-0.009,0.228-0.082c0,0,0.028,0.15-0.047,0.202c0,0,0.126-0.036,0.185-0.099c0,0,0.011,0.083,0.08,0.145
						c0.07-0.062,0.081-0.145,0.081-0.145c0.059,0.063,0.185,0.099,0.185,0.099c-0.075-0.052-0.047-0.202-0.047-0.202
						c0.089,0.073,0.227,0.082,0.227,0.082c-0.067-0.046-0.059-0.166-0.059-0.166c0.268,0.082,0.297-0.03,0.297-0.03
						c-0.097,0.024-0.182-0.087-0.191-0.1c0.09,0.043,0.214,0.038,0.261-0.061c-0.097-0.01-0.177-0.06-0.182-0.163
						c0.099,0.086,0.212,0.022,0.212,0.022c-0.101-0.04-0.16-0.125-0.179-0.231C19.613,8.153,19.659,8.206,19.693,8.217z"/>
					<g>
						<path style="fill:#F7DB17;" d="M19.746,8.182c-0.044-0.043-0.056-0.107-0.088-0.158c-0.036-0.057-0.096-0.103-0.148-0.145
							c0.104,0.049,0.218,0.027,0.218,0.027c-0.143-0.037-0.234-0.177-0.377-0.211c-0.002,0.008-0.002,0.013-0.002,0.013
							c-0.111,0.029-0.227,0.023-0.34,0.023c-0.114,0-0.23,0.006-0.341-0.023c0,0-0.001-0.005-0.002-0.014
							c-0.143,0.034-0.234,0.174-0.376,0.211c0,0,0.113,0.022,0.218-0.027c-0.046,0.039-0.099,0.078-0.133,0.128
							c-0.039,0.056-0.053,0.127-0.102,0.175c0,0,0.103-0.012,0.16-0.069c0.027,0.097,0.011,0.154-0.048,0.233
							c0,0,0.114-0.041,0.134-0.096c0,0,0.023,0.242-0.122,0.277c0,0,0.059,0.046,0.155,0.009c0,0,0.002,0.103-0.066,0.14
							c0,0,0.092,0.024,0.174-0.03c0,0,0.035,0.093-0.006,0.172c0.106-0.037,0.146-0.126,0.104-0.231
							c-0.029-0.071,0.053-0.04,0.09-0.035c0.065,0.007,0.126-0.013,0.171-0.059c0.041,0.043,0.094,0.065,0.153,0.059
							c0.037-0.003,0.121-0.038,0.092,0.035C19.22,8.691,19.26,8.78,19.366,8.817c-0.042-0.079-0.007-0.172-0.007-0.172
							c0.082,0.054,0.174,0.03,0.174,0.03c-0.068-0.037-0.066-0.14-0.066-0.14c0.096,0.038,0.155-0.009,0.155-0.009
							c-0.146-0.035-0.123-0.277-0.123-0.277c0.021,0.055,0.134,0.096,0.134,0.096c-0.059-0.079-0.075-0.136-0.048-0.233
							C19.643,8.17,19.746,8.182,19.746,8.182z M18.588,7.843c0,0,0.016,0.046,0.182,0.089c-0.041-0.029-0.093-0.059-0.091-0.115
							c0.028,0.044,0.062,0.046,0.062,0.046c0.016,0.002,0.041,0.014,0.041,0.014c0.007,0.029,0.037,0.06,0.057,0.085
							c0.011,0.012,0.017,0.023,0.019,0.033C18.86,7.998,18.861,8,18.861,8.002c-0.005-0.008-0.014-0.016-0.027-0.024
							c0,0-0.002-0.002-0.006-0.005c-0.076-0.047-0.177-0.036-0.259-0.071C18.607,7.884,18.567,7.877,18.588,7.843z M18.7,8.441
							c-0.023,0-0.023-0.034,0-0.034C18.722,8.407,18.722,8.441,18.7,8.441z M18.796,8.512c-0.023,0-0.023-0.034,0-0.034
							C18.819,8.478,18.819,8.512,18.796,8.512z M18.814,8.398c-0.023,0-0.023-0.035,0-0.035
							C18.837,8.364,18.837,8.398,18.814,8.398z M18.872,8.134c-0.053,0.026-0.125,0.011-0.174-0.018
							c-0.021-0.013-0.109-0.109-0.047-0.117c0.041-0.005,0.105-0.007,0.144,0.009C18.824,8.021,18.939,8.103,18.872,8.134z
							 M19.044,8.465c-0.08,0.044-0.214-0.147-0.116-0.147c0.058,0.01,0.119,0.01,0.177,0C19.212,8.318,19.08,8.447,19.044,8.465z
							 M19.201,8.381c0-0.022,0.035-0.022,0.035,0C19.237,8.403,19.201,8.403,19.201,8.381z M19.237,8.512
							c-0.023,0-0.023-0.034,0-0.034C19.26,8.478,19.26,8.512,19.237,8.512z M19.333,8.441c-0.022,0-0.022-0.034,0-0.034
							C19.356,8.407,19.356,8.441,19.333,8.441z M19.351,8.096c-0.038,0.04-0.163,0.094-0.204,0.027
							c-0.023-0.037,0.047-0.106,0.079-0.115C19.322,7.985,19.467,7.975,19.351,8.096z M19.291,7.944
							c-0.038,0.005-0.066,0.017-0.085,0.029c-0.004,0.004-0.007,0.005-0.007,0.005c-0.013,0.008-0.022,0.017-0.027,0.024
							c0-0.002,0.001-0.004,0.001-0.006c0.014-0.047,0.065-0.07,0.077-0.119c0,0,0.025-0.012,0.042-0.014
							c0,0,0.034-0.003,0.062-0.046c0.001,0.057-0.049,0.086-0.091,0.115c0.166-0.043,0.182-0.089,0.182-0.089
							c0.017,0.028-0.007,0.046,0,0.051c0.006,0.005,0.02,0.008,0.02,0.008C19.427,7.918,19.384,7.929,19.291,7.944z"/>
						<path style="fill:#F7DB17;" d="M18.719,8.023c-0.113-0.003,0.019,0.111,0.072,0.116c0.029,0.003,0.097,0,0.082-0.047
							C18.851,8.027,18.776,8.025,18.719,8.023z M18.783,8.133c-0.068,0-0.068-0.101,0-0.101
							C18.851,8.032,18.851,8.133,18.783,8.133z"/>
						<path style="fill:#F7DB17;" d="M19.486,7.726c0.011,0.008,0.022,0.016,0.032,0.023c0.015-0.036,0.162-0.206,0.155-0.222
							c0.011,0.026-0.028,0.067-0.038,0.089c-0.027,0.058-0.04,0.119-0.046,0.181c0.03,0.021,0.056,0.038,0.075,0.051
							c0.052-0.051,0.088-0.122,0.091-0.196c0.001-0.038-0.022-0.177-0.084-0.158C19.586,7.519,19.527,7.656,19.486,7.726z"/>
						<path style="fill:#F7DB17;" d="M19.173,8.068c-0.068,0.096,0.113,0.065,0.154,0.029C19.436,8.002,19.217,8.006,19.173,8.068z
							 M19.25,8.133c-0.068,0-0.068-0.101,0-0.101C19.318,8.032,19.318,8.133,19.25,8.133z"/>
						<path style="fill:#F7DB17;" d="M19.21,8.602c-0.003-0.02-0.208-0.028-0.237-0.025c-0.013,0.001-0.165,0.015-0.166,0.028
							c-0.005,0.041,0.032,0.091,0.049,0.126c0.003,0.038,0.004,0.087-0.005,0.12c0,0,0.074-0.043,0.098-0.088
							c0,0,0,0.076,0.059,0.14c0.06-0.064,0.06-0.14,0.06-0.14c0.025,0.045,0.098,0.088,0.098,0.088
							c-0.009-0.033-0.008-0.082-0.005-0.121C19.179,8.697,19.215,8.641,19.21,8.602z"/>
						<path style="fill:#F7DB17;" d="M19.321,7.437c-0.017,0.036-0.005,0.093-0.04,0.119c-0.032,0.024-0.107,0.021-0.115-0.028
							c-0.011-0.065,0.08-0.171,0.039-0.228c-0.036,0-0.071,0.077-0.108,0.032c-0.018-0.021,0.002-0.042-0.008-0.064
							c-0.018-0.038-0.05-0.066-0.08-0.094c-0.023,0.022-0.048,0.044-0.063,0.072c-0.013,0.024-0.006,0.078-0.028,0.095
							c-0.036,0.026-0.077-0.055-0.107-0.04c-0.049,0.076,0.127,0.222-0.002,0.264c-0.065,0.021-0.115-0.048-0.108-0.108
							c0.008-0.059-0.086-0.084-0.127-0.097c0.09,0.156,0.119,0.298,0.125,0.337c0.188,0.042,0.433,0.042,0.621,0
							c0.006-0.039,0.034-0.18,0.125-0.337C19.404,7.374,19.34,7.394,19.321,7.437z"/>
						<path style="fill:#F7DB17;" d="M18.33,7.503c-0.095,0.109-0.049,0.257,0.039,0.345c0.019-0.013,0.045-0.03,0.075-0.051
							c-0.006-0.057-0.013-0.118-0.042-0.168c-0.013-0.023-0.055-0.074-0.043-0.103c-0.007,0.016,0.14,0.187,0.155,0.222
							c0.01-0.008,0.021-0.015,0.032-0.023C18.527,7.691,18.387,7.439,18.33,7.503z"/>
					</g>
				</g>
				<g>
					<path style="fill:#594908;" d="M18.744,6.038c0.084,0.028,0.123-0.006,0.123-0.006c-0.085-0.034-0.091-0.205-0.139-0.274
						c0.083-0.002,0.115-0.046,0.115-0.046c-0.034-0.003-0.071-0.014-0.11-0.043c0.055-0.059,0.089-0.13,0.078-0.212
						c-0.006-0.044-0.027-0.152-0.084-0.159c-0.083-0.01-0.151,0.151-0.184,0.208c-0.038-0.017-0.082-0.032-0.128-0.046
						c0.019-0.074,0.059-0.197,0.137-0.325c-0.08,0.019-0.179,0.046-0.187,0.142c-0.011,0.122-0.161,0.102-0.116-0.017
						c0.023-0.061,0.086-0.226-0.034-0.149c-0.032,0.02-0.049,0.019-0.057-0.021c-0.012-0.066-0.048-0.103-0.098-0.148
						c-0.045,0.041-0.077,0.075-0.092,0.134c-0.011,0.045-0.023,0.068-0.067,0.032C17.772,5,17.872,5.25,17.879,5.289
						c0.017,0.084-0.1,0.09-0.124,0.02c-0.016-0.046,0.006-0.08-0.039-0.115c-0.043-0.032-0.097-0.048-0.149-0.06
						c0.079,0.128,0.119,0.251,0.137,0.326c-0.04,0.012-0.08,0.025-0.115,0.04c-0.037-0.064-0.094-0.188-0.173-0.208
						c-0.052-0.014-0.074,0.092-0.083,0.124c-0.025,0.091-0.002,0.176,0.062,0.246c-0.043,0.034-0.083,0.046-0.12,0.05
						c0,0,0.041,0.048,0.135,0.044c-0.069,0.066-0.069,0.242-0.158,0.277c0.069,0.049,0.155-0.003,0.203-0.057
						c-0.019,0.106-0.078,0.191-0.179,0.23c0,0,0.114,0.064,0.212-0.022c-0.004,0.102-0.085,0.153-0.182,0.163
						c0.048,0.101,0.169,0.102,0.261,0.061c-0.009,0.013-0.094,0.124-0.191,0.099c0,0,0.028,0.113,0.297,0.031
						c0,0,0.008,0.12-0.059,0.166c0,0,0.139-0.008,0.228-0.082c0,0,0.028,0.15-0.048,0.203c0,0,0.126-0.036,0.185-0.099
						c0,0,0.01,0.083,0.081,0.145c0.07-0.062,0.081-0.145,0.081-0.145c0.059,0.063,0.184,0.099,0.184,0.099
						c-0.075-0.052-0.047-0.203-0.047-0.203c0.088,0.073,0.227,0.082,0.227,0.082c-0.067-0.046-0.059-0.166-0.059-0.166
						c0.268,0.082,0.296-0.031,0.296-0.031c-0.097,0.024-0.182-0.086-0.191-0.099c0.092,0.041,0.213,0.04,0.261-0.061
						c-0.097-0.01-0.177-0.06-0.182-0.163c0.099,0.086,0.212,0.022,0.212,0.022c-0.101-0.04-0.16-0.124-0.179-0.23
						C18.664,5.975,18.71,6.027,18.744,6.038z"/>
					<g>
						<path style="fill:#F7DB17;" d="M18.224,5.89c-0.068,0.096,0.113,0.065,0.155,0.029C18.487,5.824,18.268,5.828,18.224,5.89z
							 M18.301,5.955c-0.068,0-0.068-0.102,0-0.102C18.369,5.854,18.369,5.955,18.301,5.955z"/>
						<path style="fill:#F7DB17;" d="M18.261,6.423c-0.002-0.021-0.208-0.028-0.236-0.025c-0.013,0.002-0.165,0.015-0.167,0.028
							c-0.004,0.041,0.032,0.092,0.049,0.127c0.003,0.038,0.004,0.087-0.004,0.12c0,0,0.073-0.043,0.098-0.088
							c0,0,0,0.076,0.06,0.14c0.059-0.064,0.059-0.14,0.059-0.14c0.025,0.045,0.099,0.088,0.099,0.088
							c-0.009-0.032-0.008-0.082-0.005-0.121C18.23,6.518,18.266,6.462,18.261,6.423z"/>
						<path style="fill:#F7DB17;" d="M17.77,5.845c-0.113-0.003,0.019,0.111,0.072,0.116c0.028,0.003,0.097,0,0.082-0.047
							C17.902,5.849,17.827,5.847,17.77,5.845z M17.834,5.955c-0.068,0-0.068-0.102,0-0.102C17.902,5.854,17.902,5.955,17.834,5.955
							z"/>
						<path style="fill:#F7DB17;" d="M18.797,6.004c-0.044-0.043-0.056-0.107-0.088-0.158c-0.036-0.058-0.096-0.103-0.148-0.146
							c0.104,0.049,0.219,0.028,0.219,0.028c-0.142-0.037-0.234-0.177-0.377-0.211C18.401,5.525,18.4,5.53,18.4,5.53
							c-0.11,0.03-0.226,0.023-0.34,0.023c-0.114,0-0.231,0.006-0.342-0.023c0,0,0-0.004-0.002-0.013
							c-0.143,0.033-0.234,0.174-0.376,0.211c0,0,0.113,0.021,0.218-0.028c-0.046,0.038-0.099,0.079-0.134,0.128
							c-0.039,0.056-0.053,0.126-0.102,0.175c0,0,0.103-0.012,0.16-0.069c0.026,0.097,0.01,0.154-0.049,0.233
							c0,0,0.114-0.042,0.135-0.096c0,0,0.023,0.242-0.123,0.277c0,0,0.059,0.046,0.155,0.009c0,0,0.002,0.102-0.066,0.139
							c0,0,0.091,0.024,0.174-0.03c0,0,0.035,0.094-0.006,0.172c0.106-0.037,0.146-0.126,0.104-0.23
							c-0.029-0.072,0.052-0.04,0.09-0.036c0.065,0.008,0.125-0.012,0.171-0.059c0.035,0.036,0.079,0.059,0.129,0.06
							c0.021,0.001,0.126-0.035,0.124,0.008c-0.003,0.056-0.038,0.097-0.018,0.156c0.018,0.052,0.066,0.083,0.116,0.101
							c-0.042-0.078-0.007-0.172-0.007-0.172c0.083,0.054,0.174,0.03,0.174,0.03c-0.069-0.037-0.066-0.139-0.066-0.139
							c0.096,0.037,0.155-0.009,0.155-0.009c-0.146-0.035-0.123-0.277-0.123-0.277c0.02,0.054,0.134,0.096,0.134,0.096
							c-0.059-0.079-0.076-0.137-0.048-0.233C18.694,5.992,18.797,6.004,18.797,6.004z M17.639,5.664c0,0,0.016,0.047,0.182,0.089
							c-0.042-0.029-0.093-0.058-0.091-0.115c0.028,0.044,0.062,0.046,0.062,0.046c0.016,0.002,0.041,0.014,0.041,0.014
							c0.012,0.047,0.064,0.071,0.076,0.117c0.002,0.003,0.003,0.005,0.003,0.007c-0.006-0.007-0.014-0.016-0.028-0.024
							c0,0-0.002-0.001-0.006-0.006c-0.077-0.046-0.177-0.036-0.259-0.071C17.658,5.706,17.617,5.698,17.639,5.664z M17.751,6.263
							c-0.023,0-0.023-0.035,0-0.035C17.774,6.229,17.774,6.263,17.751,6.263z M17.847,6.334c-0.023,0-0.023-0.034,0-0.034
							C17.87,6.299,17.869,6.334,17.847,6.334z M17.865,6.22c-0.022,0-0.022-0.035,0-0.035C17.887,6.185,17.888,6.22,17.865,6.22z
							 M17.923,5.956c-0.053,0.025-0.125,0.01-0.174-0.019c-0.021-0.013-0.109-0.109-0.047-0.117
							c0.041-0.005,0.105-0.007,0.145,0.009C17.876,5.842,17.99,5.924,17.923,5.956z M18.095,6.287
							c-0.081,0.044-0.213-0.147-0.115-0.147c0.058,0.01,0.118,0.011,0.176,0C18.263,6.14,18.131,6.268,18.095,6.287z M18.252,6.203
							c0-0.022,0.036-0.022,0.036,0C18.288,6.225,18.252,6.225,18.252,6.203z M18.288,6.334c-0.022,0-0.022-0.034,0-0.034
							C18.311,6.299,18.311,6.334,18.288,6.334z M18.384,6.263c-0.023,0-0.022-0.035,0-0.035
							C18.407,6.229,18.407,6.263,18.384,6.263z M18.403,5.918c-0.038,0.039-0.163,0.094-0.204,0.027
							c-0.023-0.037,0.046-0.106,0.079-0.114C18.372,5.806,18.518,5.796,18.403,5.918z M18.342,5.765
							c-0.038,0.005-0.066,0.017-0.085,0.029C18.252,5.798,18.25,5.8,18.25,5.8c-0.013,0.008-0.021,0.017-0.027,0.024
							c0-0.002,0.001-0.004,0.002-0.006c0.014-0.047,0.065-0.07,0.077-0.118c0,0,0.024-0.012,0.041-0.014
							c0,0,0.034-0.002,0.062-0.046c0.001,0.057-0.05,0.086-0.091,0.115c0.166-0.043,0.182-0.089,0.182-0.089
							c0.021,0.034-0.018,0.042,0.02,0.059C18.478,5.739,18.435,5.751,18.342,5.765z"/>
						<path style="fill:#F7DB17;" d="M18.537,5.547c0.011,0.008,0.021,0.016,0.032,0.023c0.015-0.036,0.162-0.206,0.155-0.222
							c0.011,0.026-0.028,0.068-0.038,0.09c-0.027,0.057-0.041,0.118-0.046,0.181c0.029,0.021,0.056,0.038,0.075,0.051
							c0.051-0.052,0.088-0.122,0.091-0.196c0.001-0.039-0.022-0.177-0.085-0.159C18.637,5.34,18.577,5.478,18.537,5.547z"/>
						<path style="fill:#F7DB17;" d="M18.371,5.258c-0.016,0.036-0.004,0.093-0.039,0.119c-0.033,0.024-0.107,0.021-0.115-0.028
							c-0.011-0.065,0.08-0.171,0.039-0.229c-0.036,0-0.071,0.077-0.107,0.033c-0.017-0.021,0.002-0.042-0.008-0.064
							c-0.018-0.038-0.05-0.066-0.08-0.094c-0.048,0.045-0.077,0.067-0.079,0.133c-0.002,0.055-0.074,0.023-0.097,0.004
							c-0.007-0.009-0.014-0.012-0.022-0.009C17.81,5.2,17.989,5.344,17.859,5.387c-0.065,0.022-0.116-0.048-0.108-0.107
							c0.008-0.059-0.086-0.084-0.127-0.097c0.091,0.157,0.119,0.299,0.125,0.337c0.192,0.039,0.43,0.04,0.621,0
							c0.006-0.039,0.035-0.181,0.125-0.337C18.454,5.195,18.391,5.215,18.371,5.258z"/>
						<path style="fill:#F7DB17;" d="M17.382,5.324c-0.095,0.109-0.049,0.257,0.039,0.346c0.019-0.013,0.045-0.03,0.075-0.051
							c-0.006-0.057-0.013-0.118-0.041-0.168c-0.013-0.023-0.055-0.074-0.043-0.103c-0.007,0.018,0.14,0.187,0.154,0.222
							c0.011-0.008,0.021-0.015,0.032-0.023C17.578,5.513,17.438,5.26,17.382,5.324z"/>
					</g>
				</g>
				<g>
					<path style="fill:#594908;" d="M20.655,6.038c0.084,0.028,0.123-0.006,0.123-0.006c-0.086-0.034-0.092-0.204-0.139-0.274
						c0.083-0.002,0.115-0.046,0.115-0.046c-0.034-0.003-0.071-0.014-0.11-0.043c0.055-0.059,0.089-0.13,0.078-0.212
						c-0.006-0.044-0.027-0.152-0.085-0.159c-0.082-0.01-0.151,0.151-0.183,0.208c-0.038-0.017-0.082-0.032-0.127-0.046
						c0.019-0.074,0.058-0.197,0.137-0.325c-0.079,0.019-0.179,0.046-0.187,0.142c-0.011,0.122-0.161,0.102-0.115-0.017
						c0.023-0.061,0.086-0.227-0.035-0.149c-0.032,0.02-0.049,0.019-0.057-0.021c-0.012-0.066-0.048-0.103-0.098-0.148
						c-0.045,0.041-0.077,0.075-0.092,0.134c-0.011,0.045-0.024,0.068-0.067,0.032C19.682,5,19.783,5.25,19.79,5.289
						c0.017,0.084-0.101,0.09-0.124,0.02c-0.016-0.046,0.006-0.08-0.04-0.115c-0.042-0.032-0.097-0.047-0.148-0.06
						c0.079,0.128,0.118,0.251,0.136,0.326c-0.04,0.012-0.08,0.025-0.114,0.04c-0.037-0.064-0.095-0.188-0.173-0.208
						c-0.052-0.014-0.074,0.092-0.083,0.124c-0.024,0.091-0.002,0.176,0.062,0.246c-0.043,0.034-0.083,0.046-0.12,0.05
						c0,0,0.042,0.048,0.135,0.044c-0.07,0.066-0.069,0.242-0.159,0.277c0.069,0.049,0.155-0.003,0.203-0.057
						c-0.019,0.106-0.079,0.191-0.18,0.23c0,0,0.114,0.064,0.212-0.022c-0.005,0.103-0.085,0.153-0.182,0.163
						c0.048,0.1,0.17,0.102,0.261,0.061c-0.009,0.013-0.094,0.124-0.191,0.099c0,0,0.028,0.113,0.297,0.031
						c0,0,0.008,0.12-0.059,0.166c0,0,0.139-0.008,0.228-0.082c0,0,0.028,0.15-0.048,0.203c0,0,0.127-0.036,0.186-0.099
						c0,0,0.01,0.083,0.08,0.145c0.07-0.062,0.081-0.145,0.081-0.145c0.059,0.063,0.185,0.099,0.185,0.099
						c-0.075-0.052-0.047-0.203-0.047-0.203c0.088,0.073,0.227,0.082,0.227,0.082c-0.067-0.046-0.059-0.166-0.059-0.166
						c0.268,0.082,0.297-0.031,0.297-0.031c-0.098,0.024-0.183-0.086-0.192-0.099c0.091,0.042,0.213,0.039,0.262-0.061
						c-0.097-0.01-0.178-0.06-0.182-0.163c0.098,0.086,0.212,0.022,0.212,0.022c-0.101-0.039-0.161-0.124-0.179-0.23
						C20.575,5.975,20.621,6.027,20.655,6.038z"/>
					<g>
						<path style="fill:#F7DB17;" d="M19.681,5.845c-0.113-0.003,0.019,0.111,0.072,0.116c0.029,0.003,0.097-0.001,0.081-0.047
							C19.812,5.849,19.738,5.847,19.681,5.845z M19.744,5.955c-0.068,0-0.068-0.102,0-0.102
							C19.813,5.854,19.813,5.955,19.744,5.955z"/>
						<path style="fill:#F7DB17;" d="M20.135,5.89c-0.068,0.096,0.114,0.065,0.155,0.029C20.398,5.824,20.179,5.828,20.135,5.89z
							 M20.212,5.955c-0.068,0-0.068-0.102,0-0.102C20.28,5.854,20.28,5.955,20.212,5.955z"/>
						<path style="fill:#F7DB17;" d="M20.707,6.004c-0.043-0.044-0.056-0.107-0.087-0.158c-0.036-0.058-0.096-0.104-0.148-0.146
							c0.104,0.049,0.218,0.028,0.218,0.028c-0.142-0.037-0.234-0.177-0.377-0.211c-0.001,0.009-0.002,0.013-0.002,0.013
							c-0.111,0.029-0.227,0.023-0.34,0.023c-0.114,0-0.23,0.006-0.341-0.023c0,0-0.001-0.004-0.002-0.013
							c-0.143,0.033-0.234,0.174-0.377,0.211c0,0,0.113,0.021,0.218-0.028c-0.046,0.039-0.099,0.079-0.134,0.128
							c-0.039,0.056-0.053,0.127-0.102,0.175c0,0,0.103-0.012,0.16-0.069c0.027,0.097,0.011,0.154-0.048,0.233
							c0,0,0.114-0.042,0.134-0.096c0,0,0.024,0.242-0.122,0.277c0,0,0.06,0.046,0.155,0.009c0,0,0.002,0.102-0.066,0.139
							c0,0,0.092,0.024,0.174-0.03c0,0,0.035,0.094-0.007,0.172c0.106-0.037,0.146-0.126,0.105-0.23
							c-0.029-0.072,0.052-0.04,0.09-0.036c0.064,0.008,0.125-0.012,0.171-0.059c0.034,0.036,0.079,0.059,0.129,0.06
							c0.021,0.001,0.126-0.035,0.123,0.008c-0.003,0.056-0.038,0.097-0.018,0.156c0.017,0.052,0.066,0.083,0.116,0.101
							c-0.042-0.078-0.006-0.172-0.006-0.172c0.082,0.054,0.173,0.03,0.173,0.03c-0.068-0.037-0.066-0.139-0.066-0.139
							c0.096,0.037,0.155-0.009,0.155-0.009c-0.146-0.035-0.122-0.277-0.122-0.277c0.021,0.054,0.134,0.096,0.134,0.096
							c-0.059-0.079-0.075-0.137-0.048-0.233C20.604,5.992,20.707,6.004,20.707,6.004z M19.55,5.664c0,0,0.016,0.047,0.182,0.089
							c-0.041-0.029-0.092-0.058-0.09-0.115c0.027,0.044,0.062,0.046,0.062,0.046c0.016,0.002,0.041,0.014,0.041,0.014
							c0.012,0.048,0.065,0.071,0.076,0.117c0.001,0.003,0.001,0.005,0.001,0.007c-0.005-0.007-0.014-0.016-0.027-0.024
							c0,0-0.003-0.001-0.006-0.006c-0.077-0.046-0.177-0.035-0.259-0.071c0,0,0.014-0.002,0.021-0.008
							C19.557,5.71,19.533,5.692,19.55,5.664z M19.662,6.263c-0.023,0-0.023-0.035,0-0.035C19.684,6.229,19.684,6.263,19.662,6.263z
							 M19.758,6.334c-0.023,0-0.023-0.034,0-0.034C19.781,6.299,19.781,6.334,19.758,6.334z M19.775,6.22
							c-0.023,0-0.022-0.035,0-0.035C19.799,6.185,19.799,6.22,19.775,6.22z M19.834,5.956c-0.053,0.025-0.125,0.011-0.174-0.019
							c-0.021-0.012-0.109-0.109-0.048-0.117c0.041-0.005,0.105-0.008,0.144,0.009C19.786,5.842,19.901,5.924,19.834,5.956z
							 M20.006,6.287C19.924,6.33,19.792,6.14,19.89,6.14c0.058,0.01,0.118,0.011,0.176,0C20.174,6.14,20.041,6.268,20.006,6.287z
							 M20.163,6.203c0-0.022,0.036-0.022,0.036,0C20.199,6.225,20.163,6.225,20.163,6.203z M20.199,6.334
							c-0.022,0-0.022-0.034,0-0.034C20.222,6.299,20.222,6.334,20.199,6.334z M20.295,6.263c-0.023,0-0.023-0.035,0-0.035
							C20.318,6.229,20.318,6.263,20.295,6.263z M20.313,5.918c-0.038,0.04-0.162,0.094-0.204,0.027
							c-0.023-0.037,0.046-0.106,0.079-0.114C20.283,5.807,20.429,5.796,20.313,5.918z M20.253,5.765
							c-0.038,0.005-0.066,0.017-0.086,0.029C20.163,5.798,20.161,5.8,20.161,5.8c-0.013,0.008-0.021,0.017-0.027,0.024
							c0-0.047,0.067-0.079,0.078-0.124c0,0,0.025-0.012,0.041-0.014c0,0,0.034-0.002,0.062-0.046
							c0.002,0.057-0.049,0.086-0.09,0.115c0.166-0.043,0.182-0.089,0.182-0.089c0.021,0.034-0.019,0.043,0.021,0.059
							C20.389,5.739,20.345,5.751,20.253,5.765z"/>
						<path style="fill:#F7DB17;" d="M20.448,5.547c0.011,0.008,0.021,0.016,0.032,0.023c0.015-0.035,0.161-0.206,0.155-0.222
							c0.011,0.026-0.028,0.067-0.038,0.09c-0.027,0.057-0.041,0.119-0.046,0.181c0.029,0.021,0.056,0.038,0.075,0.051
							c0.051-0.052,0.088-0.122,0.091-0.196c0.001-0.039-0.022-0.177-0.085-0.159C20.548,5.34,20.488,5.478,20.448,5.547z"/>
						<path style="fill:#F7DB17;" d="M20.171,6.423c-0.003-0.021-0.208-0.028-0.236-0.025c-0.013,0.002-0.165,0.015-0.166,0.028
							c-0.005,0.041,0.032,0.092,0.049,0.127c0.002,0.038,0.004,0.087-0.005,0.12c0,0,0.073-0.043,0.098-0.088
							c0,0,0,0.076,0.059,0.14c0.059-0.064,0.059-0.14,0.059-0.14c0.026,0.045,0.098,0.088,0.098,0.088
							c-0.009-0.032-0.007-0.082-0.005-0.121C20.141,6.52,20.177,6.461,20.171,6.423z"/>
						<path style="fill:#F7DB17;" d="M20.283,5.258c-0.017,0.036-0.005,0.093-0.04,0.119c-0.032,0.024-0.107,0.021-0.115-0.028
							c-0.011-0.065,0.08-0.172,0.039-0.229c-0.035,0-0.072,0.078-0.108,0.033C20.041,5.133,20.06,5.111,20.05,5.09
							C20.033,5.052,20,5.023,19.97,4.996c-0.024,0.023-0.048,0.047-0.068,0.075c-0.019,0.026,0,0.059-0.02,0.083
							c-0.04,0.045-0.083-0.047-0.111-0.031c-0.054,0.083,0.108,0.179,0.015,0.255c-0.066,0.058-0.117-0.042-0.13-0.09
							c-0.017-0.063-0.062-0.086-0.121-0.105c0.09,0.157,0.119,0.299,0.125,0.337c0.192,0.039,0.429,0.039,0.621,0
							c0.006-0.039,0.035-0.181,0.125-0.337C20.365,5.195,20.302,5.215,20.283,5.258z"/>
						<path style="fill:#F7DB17;" d="M19.293,5.324c-0.095,0.109-0.05,0.257,0.038,0.346c0.019-0.013,0.046-0.03,0.076-0.051
							c-0.006-0.057-0.013-0.118-0.042-0.168c-0.013-0.023-0.055-0.074-0.043-0.103c-0.006,0.017,0.14,0.187,0.155,0.222
							c0.011-0.008,0.021-0.015,0.032-0.023C19.489,5.513,19.348,5.26,19.293,5.324z"/>
					</g>
				</g>
				<g>
					<g>
						<path style="fill:#DD1212;" d="M23.388,8.665c-0.053-0.017-0.234,0.07-0.208,0.14c0.017,0.047,0.152,0.04,0.191,0.04
							c0.061,0,0.15-0.024,0.189-0.074C23.646,8.66,23.425,8.677,23.388,8.665z"/>
						<path style="fill:#DD1212;" d="M22.804,8.521c-0.045-0.004-0.218,0.038-0.203,0.112c0.007,0.036,0.113,0.036,0.14,0.037
							c0.061,0.002,0.164,0.007,0.19-0.064C22.954,8.541,22.845,8.524,22.804,8.521z"/>
						<path style="fill:#DD1212;" d="M22.24,8.548c-0.122-0.041-0.304,0.146-0.105,0.176c0.065,0.01,0.142-0.014,0.185-0.065
							C22.383,8.585,22.28,8.562,22.24,8.548z"/>
						<path style="fill:#DD1212;" d="M21.87,8.292c-0.131-0.038-0.257,0.105-0.067,0.143c0.046,0.009,0.129,0.026,0.158-0.025
							C22.004,8.33,21.926,8.307,21.87,8.292z"/>
					</g>
					<path style="fill:#F7DB17;" d="M24.564,6.931c-0.04,0.034-0.063-0.006-0.102,0.009c-0.019,0.007,0.021,0.053-0.015,0.054
						c-0.018,0.001-0.148-0.029-0.151-0.044c0.016,0.084-0.088,0.033-0.126,0.019c-0.066-0.024-0.084,0.065-0.151,0.052
						c-0.099-0.019-0.153-0.069-0.24-0.108C23.736,6.894,23.7,6.92,23.659,6.93c-0.053,0.012-0.12-0.042-0.166-0.007
						c-0.096,0.072-0.199-0.006-0.293-0.037c-0.051-0.017-0.204-0.084-0.251-0.05c-0.078,0.058-0.085-0.035-0.145-0.062
						c-0.03-0.014-0.06,0-0.085-0.028c-0.026-0.029-0.033-0.072-0.048-0.107c-0.032-0.074-0.11-0.12-0.166-0.175
						c-0.081-0.081-0.101-0.169-0.069-0.278c0.021-0.074,0.132,0.036,0.189,0.025c0.027-0.005,0.23-0.116,0.198-0.139
						c-0.055-0.041-0.174-0.063-0.241-0.075c-0.042-0.007-0.073-0.001-0.112,0.013C22.413,6.029,22.366,6,22.31,5.986
						c-0.097-0.025-0.189-0.021-0.28-0.072c-0.102-0.058-0.2-0.125-0.322-0.081l-0.006,0.003c-0.041,0.069,0.13,0.144,0.172,0.164
						c0.017,0.009,0.057,0.016,0.039,0.037c-0.032,0.039-0.066,0.078-0.1,0.117c-0.046,0.056-0.087,0.12-0.123,0.184
						c-0.024,0.043-0.032,0.055,0.015,0.076c0.063,0.029,0.123,0.068,0.196,0.051c0.039-0.009,0.069-0.036,0.107-0.045
						c0.038-0.009-0.014,0.104-0.014,0.126c0,0.079,0.009,0.158,0.022,0.236c0.004,0.026,0.024,0.073,0.008,0.099
						c-0.017,0.028-0.055,0.043-0.051,0.081c0.008,0.071-0.005,0.085-0.057,0.135c-0.053,0.05-0.037,0.066,0.006,0.11
						c0.046,0.046,0.017,0.107,0.031,0.158c0.006,0.021,0.022,0.035,0.033,0.053c0.019,0.033-0.019,0.056-0.026,0.086
						c-0.016,0.062,0.077,0.023,0.084,0.069c0.013,0.08,0.018,0.162,0.002,0.242c-0.026,0.127-0.042,0.275-0.141,0.367
						c-0.049,0.045-0.161,0.196,0.007,0.162c0.053-0.011,0.068-0.089,0.097-0.129c0.041-0.057,0.032-0.121,0.068-0.179
						c0.014-0.022,0.053-0.141,0.065-0.147c0.04-0.022,0.04-0.023,0.042-0.075c0.003-0.06,0.026-0.037,0.052-0.009
						c0.032,0.035,0.075-0.073,0.092,0.022c0.043,0.238-0.036,0.433-0.13,0.643c-0.012,0.028-0.039,0.069-0.038,0.101
						c0,0.024,0.162,0.044,0.149-0.036c-0.013-0.076,0.068-0.056,0.076-0.126c0.008-0.072-0.017-0.12,0.032-0.184
						c0.04-0.053,0.101-0.104,0.094-0.176c-0.003-0.044,0.108-0.119,0.143-0.132c0.043-0.016,0.067,0.017,0.106,0.023
						c0.029,0.005,0.042-0.023,0.067-0.029c0.038-0.01,0.067,0.035,0.101,0.043c0.036,0.008,0.042-0.043,0.069-0.053
						c-0.035,0.014,0.069,0.077,0.088,0.059c0.001-0.001-0.039,0.054-0.036,0.073c0.005,0.025,0.037,0.031,0.04,0.062
						c0.002,0.028-0.019,0.055-0.03,0.08c-0.05,0.104-0.089,0.175-0.189,0.234c-0.027,0.017-0.17,0.094-0.142,0.14
						c0.034,0.054,0.22-0.008,0.265-0.027c0.044-0.019,0.026-0.083,0.038-0.12c0.018-0.058,0.058-0.111,0.1-0.154
						c0.045-0.044,0.083-0.057,0.145-0.06c0.081-0.005,0.101-0.085,0.156-0.131c0.05-0.041,0.102-0.015,0.157,0.002
						c0.069,0.021,0.066,0.039,0.079,0.106c0.009,0.051,0.095,0.029,0.066,0.083c-0.029,0.056-0.071,0.109-0.11,0.158
						c-0.074,0.092-0.163,0.161-0.243,0.244c-0.096,0.1,0.176,0.057,0.214,0.037c0.1-0.052,0.125-0.236,0.197-0.319
						c0.01-0.012,0.09-0.118,0.098-0.116c0.064,0.016,0.069,0.041,0.104-0.041c0.01-0.023,0.02-0.093,0.053-0.094
						c0.011,0,0.1,0.054,0.086,0.003c-0.014-0.054-0.077-0.085-0.081-0.146c-0.006-0.096,0.097-0.016,0.127-0.023
						c0.018-0.005-0.002-0.066,0.033-0.08c0.042-0.016,0.011-0.048-0.004-0.077c-0.021-0.043,0.021-0.04,0.008-0.081
						c-0.006-0.019-0.016-0.037-0.023-0.056c-0.011-0.027,0.015-0.036,0.015-0.059c0-0.016-0.064-0.093-0.068-0.089
						c0.012-0.009,0.039,0.025,0.058,0.014c0.022-0.013,0.042-0.038,0.057-0.058c0.028-0.036-0.032-0.096-0.043-0.131
						c-0.014-0.042,0.119,0.028,0.107-0.044c-0.01-0.061,0.149,0.008,0.088-0.087c-0.045-0.071,0.054-0.01,0.033-0.07
						c-0.025-0.074-0.011-0.077,0.065-0.072c0.07,0.004,0.014-0.036,0.059-0.07c0.023-0.017,0.07-0.043,0.07-0.076
						C24.632,6.881,24.568,6.928,24.564,6.931z"/>
					<g>
						<path style="fill:#594908;" d="M22.676,7.815c-0.064-0.074-0.098,0.126-0.126,0.139c-0.035,0.016-0.068-0.067-0.099-0.049
							c-0.022,0.013,0.003,0.082,0.007,0.101c0.022,0.112-0.102,0.189-0.104,0.298c0,0.028,0.001,0.056-0.013,0.082
							c-0.016,0.026-0.044,0.039-0.049,0.072c-0.009,0.061-0.049,0.082-0.062,0.134C22.259,8.6,22.3,8.59,22.308,8.554
							c0.012-0.054-0.012-0.059,0.041-0.087c0.037-0.02,0.044-0.062,0.041-0.1c-0.006-0.064-0.003-0.094,0.036-0.145
							c0.029-0.037,0.057-0.075,0.073-0.12c0.017-0.05,0.005-0.08,0.05-0.112c0.031-0.022,0.066-0.058,0.102-0.072
							c0.035-0.014,0.074,0.013,0.107,0.02c0.04-0.047,0.2-0.045,0.219-0.101c0.005-0.015-0.118,0.008-0.127,0.011
							C22.781,7.871,22.728,7.876,22.676,7.815z"/>
						<path style="fill:#594908;" d="M23.354,8.043c-0.033,0.014-0.052,0.042-0.081,0.059c-0.032,0.019-0.07,0.012-0.1,0.034
							c-0.058,0.043-0.079,0.119-0.12,0.175c-0.028,0.038-0.061,0.074-0.061,0.124c-0.001,0.036-0.006,0.064-0.044,0.077
							c-0.056,0.019-0.149-0.007-0.186,0.052c0.056,0.007,0.22-0.007,0.258-0.055c0.018-0.022,0.002-0.068,0.008-0.094
							c0.008-0.041,0.036-0.073,0.06-0.106c0.037-0.049,0.086-0.118,0.154-0.12c0.093-0.002,0.126-0.073,0.186-0.13
							C23.404,8.045,23.375,8.034,23.354,8.043z"/>
						<path style="fill:#594908;" d="M24.363,7.151c-0.026,0.066-0.192,0.107-0.192,0.107c-0.051,0.058-0.083,0.175-0.178,0.149
							c-0.06-0.015-0.106-0.058-0.164-0.075c-0.073-0.021,0.002,0.082,0.017,0.099c0.06,0.063,0.188,0.126,0.146,0.228
							c-0.035,0.086-0.1,0.208-0.036,0.297c0.012,0.017,0.112,0.136,0.055,0.141c-0.039,0.003-0.08-0.022-0.118-0.006
							c-0.039,0.017-0.035,0.13-0.065,0.169c-0.071,0.088-0.093,0.166-0.14,0.264c-0.019,0.04-0.062,0.051-0.101,0.063
							C23.528,8.606,23.5,8.65,23.473,8.702c0.084-0.012,0.127-0.007,0.175-0.084c0.047-0.076,0.075-0.162,0.126-0.235
							c0.009-0.014,0.117-0.142,0.117-0.142c0.045,0.013,0.053,0.072,0.094-0.005c0.022-0.04,0.029-0.148,0.093-0.107
							c0.054,0.035,0.066,0.002,0.039-0.042c-0.023-0.037-0.066-0.08-0.061-0.126c0.007-0.076,0.123,0.003,0.13-0.011
							c0.008-0.017-0.001-0.036,0.003-0.054c0.006-0.028,0.051-0.01,0.049-0.041c-0.001-0.018-0.012-0.034-0.021-0.049
							c-0.026-0.048,0.012-0.036,0.006-0.077c-0.003-0.023-0.018-0.044-0.027-0.065c-0.014-0.031,0.013-0.039,0.013-0.065
							c0-0.015-0.063-0.093-0.069-0.089c0.016-0.012,0.043,0.028,0.069,0.005c0.015-0.014,0.059-0.047,0.054-0.071
							c-0.007-0.041-0.098-0.13-0.016-0.124c0.034,0.003,0.079,0.018,0.071-0.029c-0.008-0.047,0.085-0.015,0.104-0.043
							c0.014-0.02-0.027-0.056-0.031-0.074c-0.005-0.026,0.062,0.009,0.05-0.029C24.387,7.135,24.39,7.085,24.363,7.151z"/>
						<path style="fill:#594908;" d="M22.409,7.637c-0.054-0.058-0.115,0.19-0.173-0.025c-0.011-0.043-0.038-0.104-0.081-0.123
							c-0.084-0.038-0.037,0.113-0.022,0.137c0.073,0.119-0.009,0.25-0.066,0.366c-0.032,0.063-0.052,0.115-0.061,0.185
							c-0.009,0.072-0.098,0.099-0.134,0.163c0.109,0.019,0.093-0.089,0.152-0.15c0.04-0.041,0.016-0.064,0.033-0.114
							c0.02-0.053,0.068-0.092,0.077-0.149c0.009-0.06,0.025-0.014,0.045-0.053c0.015-0.028-0.004-0.068,0.015-0.095
							c0.021-0.031,0.038,0.034,0.057,0.032c0.019-0.001,0.044-0.047,0.064-0.025c0.019,0.021,0.017,0.065,0.02,0.09
							c0.038-0.009,0.095-0.018,0.118-0.054c0.027-0.043-0.048-0.106-0.054-0.148C22.402,7.666,22.417,7.646,22.409,7.637z"/>
						<path style="fill:#594908;" d="M22.227,6.104c-0.073-0.008-0.164-0.07-0.154,0.054c0.007,0.066,0.148,0.036,0.187,0.031
							c0.034-0.003,0.052-0.015,0.043-0.051C22.293,6.098,22.259,6.107,22.227,6.104z M22.151,6.168
							c-0.084,0.001-0.06-0.081,0.005-0.057C22.133,6.12,22.127,6.152,22.151,6.168z M22.266,6.131
							c-0.007,0.034-0.027,0.035-0.07,0.036c0.01-0.014,0.013-0.029,0.003-0.044c0.009,0.002,0.017,0.002,0.027,0.002
							C22.262,6.123,22.271,6.097,22.266,6.131z"/>
						<path style="fill:#594908;" d="M22.172,6.257c-0.028,0.005-0.053,0.053-0.088,0.062c0.018-0.06-0.019-0.023-0.039-0.001
							c-0.028,0.034-0.061,0.077-0.105,0.09c-0.057,0.016-0.075-0.036-0.11-0.065c-0.049-0.041-0.115-0.012-0.073-0.101
							c-0.012,0.028-0.111,0.126-0.088,0.149c0.026,0.027,0.09,0.057,0.125,0.073c0.06,0.03,0.132-0.006,0.188-0.032
							c0.068-0.032,0.021,0.045,0.014,0.08C21.973,6.635,22.079,6.818,22,6.918c-0.032,0.04-0.008,0.09-0.042,0.134
							c-0.011,0.015-0.096,0.095-0.075,0.115c0.072-0.063,0.141-0.148,0.155-0.246c0.015-0.1-0.033-0.202,0.002-0.3
							c0.031-0.085,0.087-0.148,0.133-0.223C22.181,6.385,22.207,6.25,22.172,6.257z"/>
						<path style="fill:#594908;" d="M24.296,6.95c0.016,0.083-0.083,0.033-0.122,0.022c-0.06-0.017-0.076,0.043-0.134,0.052
							c-0.066,0.009-0.14-0.029-0.194-0.064c-0.029-0.019-0.056-0.047-0.092-0.053c-0.044-0.007-0.086,0.03-0.132,0.027
							c-0.028-0.002-0.053-0.018-0.081-0.023c-0.043-0.008-0.081,0.026-0.119,0.039c-0.086,0.029-0.168-0.055-0.248-0.072
							c-0.051-0.011-0.181-0.073-0.225-0.041c-0.083,0.061-0.086-0.046-0.153-0.066c-0.048-0.013-0.072-0.012-0.091-0.062
							c-0.033-0.089-0.091-0.147-0.161-0.21c-0.065-0.059-0.123-0.123-0.124-0.216c0-0.059,0.01-0.16,0.087-0.11
							c0.061,0.039,0.092,0.059,0.163,0.023c0.019-0.009,0.182-0.11,0.152-0.127c-0.071-0.038-0.188-0.062-0.268-0.075
							c-0.043-0.007-0.08,0.019-0.121,0.024c-0.043,0.005-0.082-0.027-0.123-0.034c-0.004,0.007-0.003,0.015,0.003,0.024
							c0.078,0.023,0.156,0.044,0.238,0.043c0.027,0,0.157-0.016,0.174,0.013c0.002,0.004-0.061,0.1-0.068,0.111
							c-0.024,0.036-0.152-0.122-0.219-0.071c-0.122,0.093-0.025,0.247-0.048,0.366c-0.017,0.087-0.021,0.184,0.1,0.147
							c0.081-0.024,0.047,0.14,0.081,0.114c0.093-0.072,0.021,0.096,0.067,0.124c0.024,0.015,0.083-0.035,0.094-0.004
							c0.023,0.058-0.044,0.117-0.033,0.177c0.013,0.069,0.142-0.032,0.17-0.049c0.074-0.043,0.184-0.098,0.273-0.079
							c0.086,0.018,0.042,0.139,0.088,0.191c0.027,0.03,0.057-0.05,0.071-0.059c0.046-0.029,0.097-0.017,0.144,0.003
							c0.126,0.054,0.17,0.042,0.293-0.01c0.112-0.047,0.128,0.071,0.206,0.123c0.093,0.062,0.172,0.076,0.221-0.034
							c0.02-0.045,0.034-0.089,0.087-0.095c0.043-0.005,0.091-0.002,0.1-0.056c-0.003-0.002-0.006-0.002-0.009-0.003
							C24.36,6.966,24.294,6.939,24.296,6.95z"/>
						<path style="fill:#594908;" d="M21.821,5.872c-0.047,0.012-0.078-0.012-0.115-0.038c-0.025,0.04,0.046,0.096,0.071,0.116
							c0.009,0.008,0.145,0.082,0.145,0.078c-0.003,0.005-0.007,0.011-0.01,0.017c0.014-0.001,0.025-0.003,0.03-0.007
							c0.023-0.019,0.012-0.069,0.012-0.069C21.911,5.924,21.833,5.948,21.821,5.872z"/>
					</g>
					<g>
						<g>
							<path style="fill:#DD1212;" d="M23.136,5.648c-0.758-0.209-1.103,0.292-1.103,0.292c0.032,0.045,0.085,0.066,0.138,0.048
								c0.262-0.217,0.581-0.287,0.914-0.244c0.307,0.04,0.67,0.226,0.977,0.103C24.047,5.848,23.862,5.848,23.136,5.648z"/>
							<path style="fill:#AF0820;" d="M23.73,5.828c-0.072,0.043-0.114-0.021-0.114-0.021c-0.061,0.05-0.115-0.023-0.115-0.023
								c-0.089,0.053-0.121-0.035-0.121-0.035c-0.106,0.066-0.128-0.032-0.128-0.032c-0.084,0.065-0.114-0.033-0.114-0.033
								c-0.103,0.099-0.128-0.031-0.128-0.031c-0.07,0.104-0.116-0.008-0.116-0.008c-0.065,0.116-0.134,0.003-0.134,0.003
								c-0.051,0.142-0.143,0.013-0.143,0.013c-0.028,0.143-0.141,0.038-0.141,0.038c-0.004,0.163-0.157,0.062-0.157,0.062
								c0.039,0.173-0.135,0.111-0.135,0.111c0.005,0.046-0.047,0.088-0.089,0.115c0.04,0.014,0.076-0.001,0.076-0.001
								c0.262-0.217,0.581-0.287,0.914-0.244c0.307,0.04,0.67,0.226,0.977,0.103C23.931,5.88,23.73,5.828,23.73,5.828z"/>
						</g>
						<g>
							<path style="fill:#DD1212;" d="M23.188,5.835c-0.333-0.144-0.775-0.182-1.017,0.145c0.014,0.066,0.084,0.079,0.141,0.062
								c0.29-0.275,0.68-0.186,0.987,0.002c0.331,0.203,0.661,0.339,1.058,0.307c-0.212-0.034-0.425-0.08-0.616-0.181
								C23.55,6.068,23.387,5.922,23.188,5.835z"/>
							<path style="fill:#AF0820;" d="M23.751,6.227c-0.126,0.035-0.116-0.055-0.116-0.055c-0.131,0.034-0.112-0.062-0.112-0.062
								c-0.135,0.03-0.105-0.071-0.105-0.071c-0.127,0.037-0.101-0.075-0.101-0.075C23.19,6.014,23.201,5.9,23.201,5.9
								c-0.129,0.058-0.142-0.053-0.142-0.053c-0.106,0.097-0.114-0.041-0.114-0.041C22.867,5.912,22.799,5.8,22.799,5.8
								c-0.048,0.102-0.134-0.012-0.134-0.012c-0.02,0.14-0.12,0.018-0.12,0.018c0.005,0.159-0.128,0.045-0.128,0.045
								c0.029,0.17-0.12,0.065-0.12,0.065c0.039,0.082-0.015,0.116-0.058,0.13c0.036,0.007,0.072-0.004,0.072-0.004
								c0.29-0.275,0.68-0.186,0.987,0.002c0.331,0.203,0.661,0.339,1.058,0.307c-0.342,0.001-0.476-0.079-0.476-0.079
								C23.767,6.3,23.751,6.227,23.751,6.227z"/>
						</g>
					</g>
				</g>
				<g>
					<g>
						<path d="M27.993,8.813c-0.213-0.06-0.428-0.081-0.637-0.157c-0.185-0.068-0.369-0.129-0.569-0.102
							c-0.026,0-0.053-0.002-0.079-0.002c-0.124-0.051-0.253-0.086-0.387-0.108c-0.205-0.125-0.357-0.188-0.447-0.178
							c-0.031-0.025-0.066-0.043-0.101-0.056c-0.006-0.014-0.017-0.028-0.034-0.042l0-0.013c0.077-0.053,0.008-0.091-0.049-0.114
							c-0.068-0.028-0.134-0.097-0.21-0.099c-0.018-0.002-0.023,0.003-0.019,0.017c0,0.011,0,0.022,0,0.034
							c-0.057,0.05-0.152,0.07-0.229,0.062C25.168,8.05,25.229,8.127,25.24,8.14c0.012,0.022,0.032,0.034,0.054,0.04
							C25.32,8.2,25.34,8.223,25.415,8.215c0.016,0.002,0.032,0.003,0.047,0.004c0.004,0.012,0.02,0.023,0.052,0.031
							c0.022,0.048,0.043,0.097,0.102,0.129c0,0.011,0.005,0.021,0.015,0.031c0.01,0.01,0.009,0.018-0.002,0.026
							c-0.046,0.008-0.109,0.014-0.153,0.03c-0.036-0.006-0.073-0.01-0.105,0.01c-0.017-0.001-0.033-0.004-0.046-0.009
							c-0.033-0.016-0.169,0-0.097,0.042c0.004,0.011,0.012,0.022,0.037,0.03c0.033,0.008,0.059,0.023,0.078,0.045
							c0.048,0.022,0.102-0.018,0.157-0.013c0.048,0.007,0.095,0.006,0.142-0.004c0.087,0.021,0.217,0.075,0.307,0.077
							c0.019,0.027,0.039,0.054,0.078,0.064c0.001,0.004,0.001,0.009,0.002,0.013c-0.03,0.002-0.053,0.011-0.072,0.023
							c-0.039-0.002-0.075-0.001-0.087,0.018c-0.017-0.006-0.037-0.009-0.059-0.006c-0.012-0.009-0.027-0.018-0.047-0.027
							c-0.034-0.017-0.064-0.012-0.093,0c-0.017,0.011-0.023,0.025-0.006,0.043c0,0.027,0.065,0.051,0.09,0.055
							c0.08,0.052,0.18,0.041,0.27,0.029c0.047-0.006,0.094-0.013,0.141-0.012c0.05,0.001,0.106,0.037,0.154,0.01
							c0.126-0.101,0.301,0.059,0.436,0.067c-0.059,0.031-0.082,0.085-0.16,0.064c-0.04-0.005-0.081-0.019-0.122-0.014
							c-0.039,0.005-0.067,0.048-0.013,0.06c-0.002,0.012,0.011,0.023,0.054,0.035c0.005,0.007,0.022,0.014,0.048,0.018
							c0.037,0.045,0.193-0.005,0.242-0.016c0.044,0.001,0.088,0.006,0.132,0.004c0.035-0.002,0.054-0.045,0.091-0.034
							c0.122-0.01,0.195,0.062,0.294,0.116c0.077,0.042,0.18,0.042,0.249,0.094c0.04,0.031,0.103,0.127,0.016,0.148
							c-0.024,0.006-0.149,0.015-0.088,0.058c0.009,0.013,0.02,0.021,0.042,0.021c0.012,0.017,0.027,0.031,0.062,0.019
							c0.045-0.009,0.083-0.034,0.126-0.071c0.087-0.016,0.034-0.072,0.003-0.108c-0.038-0.045-0.041-0.108-0.053-0.163
							c0.002-0.041-0.125-0.071-0.152-0.092c-0.046-0.036-0.023-0.094-0.031-0.144c-0.004-0.025-0.059-0.064-0.045-0.089
							c0.047-0.082,0.397,0.165,0.43,0.176c0.049,0.035,0.116,0.09,0.184,0.078c0.087,0.028,0.144,0.026,0.173-0.032
							C28.413,8.991,28.039,8.825,27.993,8.813z"/>
						<path style="fill:#FFFFFF;" d="M26.899,8.867c-0.067-0.123-0.396-0.156-0.49-0.07c0.09-0.004,0.157,0.069,0.244,0.08
							c0.043,0.005,0.158-0.018,0.185,0.027c0.042,0.021,0.09,0.031,0.136,0.027C26.954,8.904,26.927,8.884,26.899,8.867z"/>
					</g>
					<g>
						<polygon style="fill:#F7DB17;" points="27.736,6.523 27.644,6.079 27.285,6.376 26.835,6.229 26.926,6.675 26.568,6.973 
							27.017,7.121 27.109,7.566 27.468,7.269 27.918,7.415 27.827,6.97 28.185,6.671 						"/>
						<path style="fill:#594908;" d="M27.749,6.512l-0.091-0.441L27.654,6.05l-0.016,0.014l-0.356,0.295l-0.446-0.145l-0.021-0.006
							l0.004,0.02l0.09,0.442l-0.355,0.296l-0.016,0.014l0.021,0.007l0.446,0.146l0.091,0.441l0.004,0.021l0.016-0.014l0.356-0.296
							l0.446,0.146l0.021,0.007l-0.003-0.02l-0.091-0.441l0.355-0.296l0.017-0.014l-0.021-0.007L27.749,6.512z M28.152,6.669
							L27.403,6.81l0.333-0.277L28.152,6.669z M27.64,6.109l0.085,0.413l-0.333,0.276L27.64,6.109z M27.626,6.105l-0.248,0.689
							l-0.084-0.414L27.626,6.105z M27.279,6.383l0.085,0.414l-0.502-0.549L27.279,6.383z M26.85,6.257l0.502,0.549l-0.418-0.137
							L26.85,6.257z M26.93,6.684l0.417,0.137l-0.749,0.14L26.93,6.684z M26.601,6.975l0.75-0.14l-0.333,0.277L26.601,6.975z
							 M27.113,7.535l-0.085-0.413l0.333-0.277L27.113,7.535z M27.127,7.54l0.248-0.69l0.085,0.414L27.127,7.54z M27.474,7.261
							l-0.084-0.414l0.502,0.549L27.474,7.261z M27.903,7.387L27.4,6.838l0.418,0.137L27.903,7.387z M27.823,6.961l-0.417-0.137
							l0.749-0.14L27.823,6.961z"/>
					</g>
				</g>
			</g>
		</g>
	</g>
</g>
<g id="Layer_1">
</g>
</svg>
