<svg width="41" height="40" viewBox="0 0 41 40" fill="none" xmlns="http://www.w3.org/2000/svg">
<rect x="0.666656" width="40" height="40" rx="20" fill="#AABCEE"/>
<g clip-path="url(#clip0_6991_2423)">
<path fill-rule="evenodd" clip-rule="evenodd" d="M20.6667 0C9.62468 0 0.666656 8.95802 0.666656 20C0.666656 31.042 9.62468 40 20.6667 40C31.7086 40 40.6667 31.042 40.6667 20C40.6667 8.95802 31.7086 0 20.6667 0ZM3.74358 20C3.74358 10.6574 11.324 3.07692 20.6667 3.07692C30.0093 3.07692 37.5897 10.6574 37.5897 20C37.5897 29.3426 30.0093 36.9231 20.6667 36.9231C11.324 36.9231 3.74358 29.3426 3.74358 20ZM22.2051 7.69231C22.2051 6.84264 21.5163 6.15385 20.6667 6.15385C19.817 6.15385 19.1282 6.84264 19.1282 7.69231V21.5385C19.1282 22.3881 19.817 23.0769 20.6667 23.0769H29.8974C30.7471 23.0769 31.4359 22.3881 31.4359 21.5385C31.4359 20.6888 30.7471 20 29.8974 20H22.2051V7.69231Z" fill="#5578DD"/>
</g>
<defs>
<clipPath id="clip0_6991_2423">
<rect width="40" height="40" fill="white" transform="translate(0.666656)"/>
</clipPath>
</defs>
</svg>
