<?xml version="1.0" encoding="iso-8859-1"?>
<!-- Generator: Adobe Illustrator 18.0.0, SVG Export Plug-In . SVG Version: 6.00 Build 0)  -->
<!DOCTYPE svg PUBLIC "-//W3C//DTD SVG 1.1//EN" "http://www.w3.org/Graphics/SVG/1.1/DTD/svg11.dtd">
<svg version="1.1" xmlns="http://www.w3.org/2000/svg" xmlns:xlink="http://www.w3.org/1999/xlink" x="0px" y="0px"
	 viewBox="0 0 38.017 38.017" style="enable-background:new 0 0 38.017 38.017;" xml:space="preserve">
<g id="Layer_382">
	<g id="Layer_383">
		<g>
			<g>
				<path style="fill:#ED8835;" d="M38.017,19.009c0-2.133-0.356-4.262-1.06-6.275c-0.679-1.942-1.676-3.768-2.939-5.391
					c-1.253-1.61-2.765-3.017-4.461-4.15c-1.719-1.148-3.625-2.014-5.622-2.549c-2.079-0.556-4.251-0.752-6.397-0.588
					c-2.102,0.16-4.174,0.673-6.107,1.514C9.553,2.388,7.81,3.512,6.288,4.884C4.771,6.25,3.476,7.861,2.468,9.636
					c-1.028,1.811-1.753,3.789-2.138,5.834c-0.4,2.122-0.436,4.312-0.107,6.447c0.317,2.064,0.979,4.073,1.95,5.922
					c0.951,1.809,2.195,3.461,3.668,4.877c1.476,1.418,3.179,2.597,5.028,3.475c1.896,0.899,3.94,1.479,6.027,1.71
					c2.143,0.237,4.327,0.112,6.428-0.376c2.02-0.469,3.958-1.272,5.718-2.368c1.732-1.078,3.289-2.436,4.593-4.006
					c1.312-1.579,2.367-3.369,3.108-5.284c0.766-1.978,1.191-4.082,1.264-6.201C38.013,19.447,38.017,19.228,38.017,19.009z"/>
				<path style="fill:#FFFFFF;" d="M38.017,19.009c0-2.535-0.498-4.953-1.397-7.164H1.398c-1.036,2.545-1.503,5.306-1.377,8.049
					c0.097,2.115,0.547,4.21,1.334,6.176c0.763,1.904,1.837,3.682,3.166,5.245c1.322,1.555,2.893,2.896,4.638,3.954
					c1.774,1.077,3.724,1.859,5.751,2.305c2.108,0.463,4.295,0.564,6.436,0.301c2.08-0.255,4.115-0.857,5.998-1.777
					c1.837-0.898,3.527-2.096,4.986-3.529c1.458-1.433,2.684-3.1,3.615-4.92c0.951-1.862,1.59-3.881,1.883-5.951
					C37.954,20.806,38.017,19.908,38.017,19.009z"/>
				<path style="fill:#4D9324;" d="M36.62,26.169H1.397c0.824,2.024,2,3.9,3.459,5.527c1.453,1.619,3.183,2.988,5.096,4.027
					c1.955,1.062,4.096,1.773,6.298,2.094c2.274,0.331,4.608,0.25,6.853-0.243c2.158-0.474,4.229-1.329,6.093-2.515
					c1.834-1.168,3.465-2.649,4.803-4.363C35.075,29.318,35.961,27.79,36.62,26.169z"/>
			</g>
			<g>
				<path style="fill:#00008C;" d="M21.18,19.187l3.083-0.18l-3.083-0.18l-1.121,0.094c-0.003-0.035-0.007-0.068-0.013-0.102
					l1.107-0.199l2.93-0.973l-3.023,0.624l-1.059,0.38c-0.012-0.031-0.024-0.062-0.04-0.094l1.018-0.48l2.579-1.697l-2.759,1.386
					l-0.925,0.642c-0.019-0.027-0.04-0.055-0.062-0.08l0.859-0.729l2.052-2.307l-2.307,2.053l-0.727,0.859
					c-0.025-0.022-0.053-0.043-0.08-0.062l0.641-0.926l1.384-2.759l-1.696,2.579l-0.48,1.017c-0.03-0.015-0.061-0.027-0.094-0.039
					l0.38-1.06l0.623-3.023l-0.971,2.932l-0.2,1.106c-0.033-0.006-0.066-0.011-0.101-0.013l0.093-1.121l-0.18-3.082l-0.181,3.082
					l0.093,1.121c-0.034,0.002-0.067,0.007-0.1,0.013l-0.201-1.106l-0.972-2.932l0.624,3.024l0.38,1.059
					c-0.032,0.012-0.064,0.024-0.093,0.039l-0.48-1.017l-1.697-2.58l1.385,2.76l0.641,0.925c-0.027,0.019-0.055,0.04-0.08,0.062
					L17.6,17.346l-2.307-2.053l2.052,2.307l0.858,0.728c-0.022,0.025-0.043,0.053-0.062,0.08l-0.925-0.641l-2.759-1.386l2.58,1.697
					l1.017,0.479c-0.015,0.031-0.027,0.062-0.039,0.094l-1.059-0.379l-3.024-0.624l2.93,0.972l1.107,0.199
					c-0.006,0.033-0.01,0.066-0.013,0.102l-1.121-0.094l-3.082,0.182l3.082,0.18l1.121-0.094c0.003,0.035,0.007,0.068,0.013,0.1
					l-1.107,0.201l-2.93,0.973l3.024-0.625l1.059-0.379c0.011,0.031,0.024,0.062,0.039,0.094l-1.017,0.479l-2.58,1.697l2.759-1.386
					l0.925-0.641c0.019,0.027,0.039,0.055,0.062,0.08l-0.858,0.727l-2.052,2.309l2.307-2.053l0.727-0.859
					c0.025,0.021,0.053,0.043,0.08,0.061l-0.641,0.925l-1.385,2.76l1.697-2.58l0.48-1.017c0.03,0.015,0.061,0.026,0.093,0.038
					l-0.38,1.059l-0.624,3.025l0.972-2.932l0.2-1.107c0.033,0.006,0.067,0.011,0.101,0.014l-0.093,1.121l0.181,3.083l0.18-3.083
					l-0.094-1.121c0.034-0.003,0.068-0.008,0.101-0.014l0.201,1.107l0.973,2.932l-0.625-3.025l-0.38-1.059
					c0.032-0.012,0.064-0.024,0.093-0.038l0.48,1.017l1.698,2.579l-1.385-2.759l-0.641-0.925c0.027-0.019,0.055-0.04,0.08-0.061
					l0.727,0.858l2.307,2.052l-2.052-2.307l-0.859-0.727c0.023-0.024,0.043-0.052,0.062-0.08l0.925,0.642l2.76,1.385l-2.58-1.697
					l-1.017-0.481c0.015-0.029,0.027-0.06,0.039-0.094l1.059,0.381l3.024,0.623l-2.93-0.971l-1.107-0.201
					c0.006-0.031,0.01-0.066,0.013-0.1L21.18,19.187z"/>
				<path style="fill:#00008C;" d="M20.038,12.978c-2.407-0.408-4.906,0.707-6.208,2.773c-1.345,2.133-1.213,4.992,0.332,6.986
					c1.442,1.859,3.885,2.756,6.184,2.232c1.162-0.264,2.241-0.867,3.07-1.724c0.858-0.888,1.423-2.032,1.622-3.249
					c0.198-1.213,0.032-2.479-0.494-3.593c-0.484-1.025-1.26-1.904-2.209-2.523C21.641,13.429,20.856,13.117,20.038,12.978z
					 M24.357,19.441c-0.379-0.094-0.466,0.522-0.07,0.539c-0.053,0.285-0.127,0.562-0.223,0.83
					c-0.344-0.191-0.588,0.393-0.208,0.503c-0.124,0.26-0.269,0.509-0.431,0.743c-0.284-0.273-0.669,0.232-0.332,0.432
					c-0.185,0.219-0.389,0.422-0.607,0.607c-0.204-0.336-0.706,0.05-0.433,0.332c-0.235,0.162-0.483,0.307-0.744,0.43
					c-0.108-0.379-0.694-0.138-0.503,0.207c-0.267,0.096-0.544,0.17-0.83,0.223c-0.006-0.393-0.635-0.312-0.54,0.07
					c-0.286,0.023-0.574,0.023-0.859-0.002c0.095-0.377-0.521-0.465-0.54-0.07c-0.285-0.053-0.562-0.127-0.829-0.223
					c0.189-0.342-0.386-0.586-0.504-0.209c-0.259-0.123-0.508-0.268-0.742-0.43c0.272-0.284-0.232-0.669-0.433-0.332
					c-0.218-0.186-0.421-0.389-0.605-0.607c0.333-0.205-0.049-0.703-0.333-0.433c-0.163-0.234-0.307-0.483-0.43-0.743
					c0.38-0.109,0.134-0.698-0.208-0.504c-0.095-0.268-0.17-0.545-0.221-0.83c0.394-0.007,0.311-0.637-0.07-0.539
					c-0.023-0.287-0.023-0.574,0-0.859c0.378,0.094,0.466-0.525,0.071-0.541c0.052-0.284,0.126-0.562,0.222-0.829
					c0.347,0.191,0.588-0.4,0.209-0.503c0.123-0.261,0.268-0.509,0.431-0.743c0.283,0.275,0.669-0.231,0.333-0.433
					c0.185-0.218,0.388-0.421,0.607-0.606c0.201,0.335,0.702-0.044,0.432-0.331c0.234-0.163,0.483-0.307,0.743-0.431
					c0.107,0.377,0.69,0.142,0.504-0.208c0.268-0.096,0.544-0.17,0.83-0.222c0.006,0.393,0.636,0.313,0.541-0.069
					c0.285-0.021,0.572-0.022,0.857,0c-0.093,0.381,0.53,0.465,0.541,0.07c0.286,0.053,0.562,0.127,0.83,0.223
					c-0.191,0.348,0.403,0.588,0.503,0.209c0.26,0.123,0.509,0.268,0.744,0.431c-0.277,0.286,0.243,0.673,0.432,0.332
					c0.218,0.186,0.42,0.389,0.606,0.606c-0.335,0.207,0.051,0.707,0.332,0.434c0.163,0.234,0.307,0.483,0.431,0.744
					c-0.377,0.107-0.141,0.69,0.208,0.503c0.096,0.267,0.17,0.544,0.222,0.829c-0.393,0.008-0.312,0.635,0.07,0.541
					C24.38,18.867,24.38,19.154,24.357,19.441z"/>
			</g>
		</g>
	</g>
</g>
<g id="Layer_1">
</g>
</svg>
