<?xml version="1.0" encoding="UTF-8"?>
<svg xmlns="http://www.w3.org/2000/svg" xmlns:xlink="http://www.w3.org/1999/xlink" version="1.1" viewBox="0 0 25 25">
  <defs>
    <style>
      .cls-1 {
        mask: url(#mask);
      }

      .cls-2 {
        fill: #fff;
      }
    </style>
    <mask id="mask" x="0" y="0" width="25" height="25" maskUnits="userSpaceOnUse">
      <g id="mask0_1670_21389">
        <path class="cls-2" d="M25,0H0v25h25V0Z"/>
      </g>
    </mask>
  </defs>
  <!-- Generator: Adobe Illustrator 28.7.1, SVG Export Plug-In . SVG Version: 1.2.0 Build 142)  -->
  <g>
    <g id="Layer_1">
      <g class="cls-1">
        <g>
          <path class="cls-2" d="M12.6,4.3c-1,0-1.8.9-1.8,1.8s.9,1.8,1.8,1.8,1.8-.9,1.8-1.8-.9-1.8-1.8-1.8ZM8.3,9.2v1.2s2.5,0,2.5,2.4v2.4c0,2.4-2.5,2.4-2.5,2.4v1.2h8.6v-1.2s-2.5,0-2.5-2.4v-4.9c0-.6-.6-1.2-1.2-1.2h-4.9Z"/>
          <path class="cls-2" d="M12.6,24.2C5.9,24.2.4,18.8.4,12.1S5.9,0,12.6,0s12.1,5.4,12.1,12.1-5.4,12.1-12.1,12.1ZM12.6,1C6.4,1,1.4,5.9,1.4,12.1s5,11.1,11.1,11.1,11.1-5,11.1-11.1S18.7,1,12.6,1Z"/>
        </g>
      </g>
    </g>
  </g>
</svg>