<?xml version="1.0" encoding="iso-8859-1"?>
<!-- Generator: Adobe Illustrator 18.0.0, SVG Export Plug-In . SVG Version: 6.00 Build 0)  -->
<!DOCTYPE svg PUBLIC "-//W3C//DTD SVG 1.1//EN" "http://www.w3.org/Graphics/SVG/1.1/DTD/svg11.dtd">
<svg version="1.1" xmlns="http://www.w3.org/2000/svg" xmlns:xlink="http://www.w3.org/1999/xlink" x="0px" y="0px"
	 viewBox="0 0 38.017 38.018" style="enable-background:new 0 0 38.017 38.018;" xml:space="preserve">
<g id="Layer_374">
	<g id="Layer_375">
		<g>
			<path style="fill:#2CAF41;" d="M38.017,19.008c0-2.132-0.356-4.261-1.06-6.274c-0.679-1.941-1.676-3.769-2.939-5.392
				c-1.253-1.609-2.765-3.016-4.46-4.149c-1.719-1.148-3.625-2.014-5.622-2.548c-2.079-0.557-4.251-0.753-6.397-0.589
				c-2.102,0.16-4.174,0.673-6.107,1.514C9.553,2.387,7.81,3.512,6.288,4.883C4.771,6.251,3.476,7.861,2.468,9.636
				c-1.028,1.811-1.753,3.788-2.138,5.834c-0.4,2.122-0.435,4.314-0.107,6.447c0.317,2.064,0.978,4.073,1.95,5.922
				c0.951,1.81,2.195,3.462,3.669,4.878c1.476,1.417,3.179,2.596,5.028,3.473c1.896,0.9,3.94,1.479,6.027,1.711
				c2.143,0.237,4.327,0.112,6.428-0.376c2.02-0.469,3.958-1.272,5.718-2.368c1.733-1.078,3.289-2.437,4.593-4.006
				c1.312-1.578,2.367-3.369,3.108-5.283c0.766-1.978,1.191-4.083,1.264-6.202C38.013,19.446,38.017,19.227,38.017,19.008z"/>
			<path style="fill:#FFFFFF;" d="M38.017,19.008c0-2.132-0.356-4.261-1.06-6.274c-0.679-1.941-1.676-3.769-2.939-5.392
				c-1.253-1.609-2.765-3.016-4.46-4.149c-1.719-1.148-3.625-2.014-5.622-2.548c-2.197-0.588-4.498-0.774-6.761-0.558
				c-2.608,0.25-5.156,1.046-7.442,2.327C9.23,2.696,8.74,3.001,8.265,3.327V34.69c2.139,1.469,4.577,2.491,7.125,2.982
				c2.356,0.455,4.799,0.46,7.158,0.016c2.045-0.385,4.023-1.11,5.833-2.138c1.775-1.009,3.386-2.305,4.753-3.821
				c1.372-1.522,2.496-3.265,3.313-5.144c0.841-1.934,1.354-4.005,1.514-6.107C37.998,19.989,38.017,19.499,38.017,19.008z"/>
			<path style="fill:#FF962E;" d="M38.017,19.008c0-6.511-3.274-12.256-8.265-15.682v31.364
				C34.743,31.265,38.017,25.519,38.017,19.008z"/>
		</g>
	</g>
</g>
<g id="Layer_1">
</g>
</svg>
