<?xml version="1.0" encoding="iso-8859-1"?>
<!-- Generator: Adobe Illustrator 18.0.0, SVG Export Plug-In . SVG Version: 6.00 Build 0)  -->
<!DOCTYPE svg PUBLIC "-//W3C//DTD SVG 1.1//EN" "http://www.w3.org/Graphics/SVG/1.1/DTD/svg11.dtd">
<svg version="1.1" xmlns="http://www.w3.org/2000/svg" xmlns:xlink="http://www.w3.org/1999/xlink" x="0px" y="0px"
	 viewBox="0 0 38.017 38.017" style="enable-background:new 0 0 38.017 38.017;" xml:space="preserve">
<g id="Layer_369">
	<g id="Layer_370">
		<g id="Layer_371">
			<g>
				<path style="fill:#042CAA;" d="M38.017,19.009c0-2.133-0.355-4.262-1.06-6.274c-0.679-1.941-1.677-3.769-2.94-5.392
					c-1.253-1.61-2.765-3.017-4.46-4.15c-1.719-1.148-3.625-2.014-5.622-2.548c-2.079-0.557-4.251-0.753-6.397-0.589
					c-2.101,0.161-4.174,0.673-6.106,1.515C9.553,2.388,7.81,3.512,6.288,4.884C4.771,6.25,3.476,7.861,2.468,9.637
					C1.44,11.447,0.714,13.425,0.33,15.47c-0.4,2.122-0.436,4.314-0.108,6.448c0.316,2.065,0.979,4.072,1.95,5.921
					c0.95,1.81,2.194,3.462,3.669,4.878c1.475,1.418,3.179,2.596,5.027,3.474c1.896,0.899,3.94,1.479,6.027,1.71
					c2.142,0.237,4.326,0.112,6.428-0.375c2.019-0.469,3.958-1.273,5.718-2.369c1.732-1.078,3.288-2.437,4.593-4.006
					c1.312-1.578,2.367-3.369,3.108-5.283c0.766-1.979,1.191-4.083,1.264-6.202C38.013,19.447,38.017,19.228,38.017,19.009z"/>
				<path style="fill:#FFFFFF;" d="M38.017,19.009c0-5.716-2.521-10.842-6.514-14.326H6.515c-1.781,1.556-3.271,3.443-4.367,5.541
					c-1.123,2.152-1.825,4.519-2.059,6.937c-0.238,2.474,0.005,4.993,0.727,7.373c0.693,2.283,1.822,4.428,3.306,6.294
					c0.72,0.905,1.523,1.745,2.394,2.505h24.988C35.496,29.848,38.017,24.723,38.017,19.009z"/>
				<path style="fill:#042CAA;" d="M22.505,13.089l-3.5-6.064l-3.5,6.064H8.671l3.417,5.919l-3.417,5.925h6.841l3.499,6.058
					l3.5-6.058h6.835l-3.417-5.919l3.417-5.925H22.505z M19.005,10.252l1.636,2.837H17.37L19.005,10.252z M11.469,14.7h3.108
					l-1.555,2.691L11.469,14.7z M11.462,23.316l1.561-2.697l1.555,2.697H11.462z M19.011,27.763l-1.635-2.83h3.272L19.011,27.763z
					 M21.577,23.316h-5.13l-2.494-4.313l2.488-4.303h5.129l2.495,4.314L21.577,23.316z M26.548,23.316H23.44l1.554-2.691
					L26.548,23.316z M24.994,17.398L23.44,14.7h3.114L24.994,17.398z"/>
			</g>
		</g>
	</g>
</g>
<g id="Layer_1">
</g>
</svg>
