<?xml version="1.0" encoding="iso-8859-1"?>
<!-- Generator: Adobe Illustrator 18.0.0, SVG Export Plug-In . SVG Version: 6.00 Build 0)  -->
<!DOCTYPE svg PUBLIC "-//W3C//DTD SVG 1.1//EN" "http://www.w3.org/Graphics/SVG/1.1/DTD/svg11.dtd">
<svg version="1.1" xmlns="http://www.w3.org/2000/svg" xmlns:xlink="http://www.w3.org/1999/xlink" x="0px" y="0px"
	 viewBox="0 0 38.018 38.018" style="enable-background:new 0 0 38.018 38.018;" xml:space="preserve">
<g id="Layer_355">
	<g id="Layer_356">
		<g>
			<path d="M19.009,0C11.045,0,4.226,4.897,1.397,11.846h35.224C33.792,4.897,26.973,0,19.009,0z"/>
			<path style="fill:#990D0D;" d="M38.018,19.009c0-2.534-0.497-4.952-1.397-7.163H1.397c-1.072,2.635-1.535,5.502-1.361,8.341
				c0.126,2.052,0.586,4.08,1.361,5.984h35.224C37.521,23.96,38.018,21.543,38.018,19.009z"/>
			<path style="fill:#006600;" d="M36.621,26.171H1.397c0.824,2.023,2,3.9,3.459,5.526c1.453,1.62,3.184,2.989,5.096,4.027
				c1.955,1.062,4.097,1.774,6.299,2.095c2.273,0.33,4.607,0.249,6.853-0.243c2.158-0.475,4.228-1.33,6.092-2.516
				c1.835-1.167,3.466-2.649,4.804-4.362C35.076,29.319,35.961,27.792,36.621,26.171z"/>
			<path style="fill:#FFFFFF;" d="M36.145,10.771H1.873c-0.334,0.693-0.627,1.411-0.876,2.148h36.025
				C36.772,12.183,36.479,11.465,36.145,10.771z"/>
			<path style="fill:#FFFFFF;" d="M37.022,25.097H0.996c0.249,0.737,0.543,1.454,0.877,2.148h34.273
				C36.48,26.551,36.773,25.834,37.022,25.097z"/>
			<g>
				<g>
					<path style="fill:#FFFFFF;" d="M24.609,7.638c-0.886,1.429-0.729,2.333-0.729,2.333L11.296,31.696l0.628,0.364l12.583-21.727
						c0.258-0.101,0.487-0.291,0.688-0.478c0.217-0.203,0.408-0.433,0.58-0.674c0.356-0.505,0.634-1.062,0.89-1.623
						c0.261-0.573,0.506-1.154,0.707-1.751c0.198-0.588,0.393-1.207,0.4-1.832C26.845,4.522,25.495,6.205,24.609,7.638z"/>
					<path d="M24.555,7.603c-0.82,1.324-0.76,2.199-0.741,2.354L11.242,31.665L11.21,31.72l0.736,0.427l12.604-21.762
						c0.521-0.218,0.945-0.702,1.267-1.152c0.358-0.503,0.638-1.067,0.901-1.625c0.269-0.565,0.506-1.146,0.703-1.739
						c0.202-0.606,0.405-1.247,0.413-1.892l0.001-0.111l-0.096,0.057C26.8,4.476,25.427,6.193,24.555,7.603z M26.116,8.512
						c-0.776,1.436-1.622,1.76-1.63,1.764l-0.021,0.008l-12.563,21.69l-0.518-0.3l12.551-21.671l0.012-0.02l-0.004-0.022
						c-0.047-0.28,0.02-0.589,0.088-0.86c0.071-0.285,0.177-0.562,0.303-0.827c0.26-0.547,0.604-1.057,0.955-1.548
						c0.354-0.494,0.727-0.978,1.129-1.435c0.386-0.437,0.799-0.877,1.288-1.198C27.639,5.182,26.87,7.113,26.116,8.512z"/>
				</g>
				<g>
					<path style="fill:#FFFFFF;" d="M13.417,7.638c-0.885-1.433-2.235-3.115-3.162-3.661c0.008,0.668,0.226,1.332,0.443,1.957
						c0.21,0.602,0.462,1.188,0.728,1.767c0.236,0.516,0.493,1.026,0.825,1.488c0.163,0.229,0.345,0.444,0.549,0.639
						c0.209,0.198,0.448,0.401,0.72,0.507l12.583,21.727l0.628-0.364L14.147,9.971C14.147,9.971,14.302,9.066,13.417,7.638z"/>
					<path d="M13.471,7.604c-0.872-1.411-2.246-3.129-3.186-3.683L10.19,3.865l0.001,0.111c0.008,0.66,0.217,1.314,0.431,1.933
						c0.209,0.608,0.463,1.199,0.73,1.784c0.238,0.523,0.497,1.039,0.83,1.509c0.326,0.461,0.761,0.96,1.293,1.183l12.572,21.707
						l0.031,0.055l0.737-0.427L14.212,9.958C14.231,9.803,14.292,8.928,13.471,7.604z M26.643,31.674l-0.518,0.3L13.574,10.303
						l-0.012-0.019l-0.021-0.008c-0.241-0.09-0.453-0.273-0.641-0.444c-0.205-0.188-0.388-0.399-0.552-0.623
						c-0.354-0.482-0.627-1.023-0.878-1.564c-0.261-0.564-0.505-1.139-0.71-1.726c-0.204-0.587-0.401-1.202-0.438-1.825
						c0.502,0.329,0.919,0.779,1.312,1.227c0.414,0.472,0.792,0.971,1.155,1.48c0.338,0.474,0.667,0.958,0.916,1.485
						C13.828,8.547,13.93,8.819,14,9.1c0.066,0.27,0.128,0.582,0.085,0.861l-0.004,0.023L26.643,31.674z"/>
				</g>
				<path style="fill:#990D0D;" d="M22.292,9.205c-0.422-0.637-0.88-1.252-1.405-1.808c-0.266-0.28-0.547-0.551-0.853-0.785
					c-0.283-0.218-0.643-0.471-1.015-0.477h-0.01c-0.332,0.005-0.646,0.209-0.906,0.396c-0.28,0.2-0.535,0.436-0.778,0.679
					c-0.492,0.494-0.929,1.04-1.328,1.61c-0.792,1.13-1.46,2.35-1.991,3.623c-1.086,2.598-1.593,5.425-1.286,8.233
					c0.311,2.846,1.363,5.624,2.922,8.02c0.433,0.664,0.902,1.309,1.443,1.89c0.272,0.293,0.562,0.575,0.877,0.821
					c0.291,0.227,0.662,0.495,1.048,0.502h0.01c0.331-0.006,0.646-0.21,0.906-0.396c0.28-0.2,0.535-0.435,0.778-0.679
					c0.492-0.493,0.929-1.039,1.328-1.609c0.791-1.131,1.459-2.351,1.991-3.623c1.086-2.598,1.593-5.425,1.285-8.233
					c-0.31-2.847-1.362-5.625-2.921-8.019C22.355,9.301,22.324,9.253,22.292,9.205z"/>
				<path d="M24.105,12.662c-0.895,2.35-1.497,4.907-1.279,7.432c0.156,1.809,0.635,3.596,1.279,5.288
					c1.075-2.666,1.552-5.589,1.156-8.449C25.059,15.468,24.658,14.033,24.105,12.662z"/>
				<path d="M13.921,12.662c-1.068,2.647-1.546,5.521-1.169,8.362c0.199,1.495,0.606,2.96,1.169,4.357
					c0.516-1.354,0.927-2.753,1.148-4.187c0.224-1.443,0.223-2.893-0.002-4.336C14.844,15.424,14.438,14.019,13.921,12.662z"/>
				<path style="fill:#FFFFFF;" d="M19.282,6.325v11.013c0.359-0.62,0.573-1.344,0.741-2.036c0.175-0.714,0.28-1.443,0.335-2.176
					c0.105-1.418,0.024-2.853-0.265-4.245C19.914,8.016,19.671,7.122,19.282,6.325z"/>
				<path style="fill:#FFFFFF;" d="M19.018,17.458h-0.01c-0.75,0.01-1.044,0.948-1.044,1.564c0,0.615,0.294,1.554,1.044,1.563h0.01
					c0.749-0.01,1.044-0.948,1.044-1.563C20.062,18.406,19.767,17.468,19.018,17.458z"/>
				<path style="fill:#FFFFFF;" d="M19.5,21.153c-0.065-0.151-0.135-0.304-0.218-0.446V31.72c0.323-0.66,0.531-1.388,0.701-2.101
					c0.173-0.723,0.289-1.458,0.354-2.197c0.131-1.494,0.06-3.012-0.267-4.478C19.934,22.332,19.751,21.729,19.5,21.153z"/>
				<path style="fill:#FFFFFF;" d="M17.689,10.623c-0.102,1.155-0.082,2.323,0.084,3.473c0.081,0.567,0.197,1.132,0.357,1.684
					c0.153,0.53,0.337,1.079,0.615,1.559V6.325c-0.323,0.66-0.531,1.388-0.701,2.101C17.871,9.147,17.754,9.883,17.689,10.623z"/>
				<path style="fill:#FFFFFF;" d="M17.689,24.666c-0.108,1.188-0.083,2.39,0.084,3.571c0.083,0.592,0.202,1.179,0.359,1.755
					c0.159,0.585,0.346,1.182,0.612,1.728V20.707c-0.338,0.582-0.543,1.257-0.709,1.906C17.863,23.286,17.752,23.975,17.689,24.666z
					"/>
			</g>
		</g>
	</g>
</g>
<g id="Layer_1">
</g>
</svg>
