<?xml version="1.0" encoding="UTF-8"?>
<svg xmlns="http://www.w3.org/2000/svg" version="1.1" viewBox="0 0 107.1 40">
  <!-- Generator: Adobe Illustrator 28.7.1, SVG Export Plug-In . SVG Version: 1.2.0 Build 142)  -->
  <g>
    <g id="Layer_1">
      <g>
        <path d="M78.1,12c0-1.5-.9-2.4-2.4-2.4h-1.5v4.9h1.5c1.7,0,2.5-1,2.5-2.5Z"/>
        <path d="M20.5,10.8c0-.7-.5-1.1-1.5-1.1h-2v2.3h2c.9,0,1.5-.3,1.5-1.2Z"/>
        <path d="M90.3,13.5c0-.7-.6-1.1-1.5-1.1h-2v2.2h2.1c.7,0,1.5-.2,1.5-1.1Z"/>
        <polygon points="51.8 23.9 50.7 27.2 53.1 27.2 51.9 23.9 51.8 23.9"/>
        <path d="M12.3,23.1h-1.1v6.4h1.1c1.7,0,2.5-.9,2.5-3.4,0-2.2-.7-3.1-2.5-3.1Z"/>
        <path d="M7.6,1C4.1,1,1.2,3.9,1.2,7.4v31.6h98.3c3.6,0,6.4-2.9,6.4-6.4V1H7.6ZM85.7,8.8h3.3c1.5,0,2.2.7,2.2,1.7s-.5,1.3-1.1,1.4c.6.2,1.3.6,1.3,1.6s-1.1,2-2.4,2h-3.4s0-6.7,0-6.7ZM65.1,8.8h5.2v.9h-4.1v1.8h3.7v.9h-3.7v2.1h4.2v.9h-5.3v-6.7ZM51.9,8.6c2,0,2.9,1.1,3.1,2.2h-1.1c-.3-.6-.7-1.3-2-1.3s-2.3,1.1-2.3,2.5.8,2.6,2.3,2.6,1.7-.5,2-1.2h1.1c-.4,1.1-1.2,2.1-3.2,2.1s-3.4-1.6-3.4-3.5c0-1.9,1.3-3.5,3.5-3.5ZM40.9,8.8h5.2v.9h-4.1v1.8h3.7v.9h-3.7v2.1h4.2v.9h-5.3v-6.7h0ZM32.6,8.8h6.1v.9h-2.5v5.7h-1.1v-5.7h-2.5v-.9h0ZM27.4,8.6c2.2,0,3.5,1.6,3.5,3.5s-1.3,3.5-3.5,3.5-3.5-1.5-3.5-3.5,1.4-3.5,3.5-3.5ZM7.9,8.8h3.2c1.6,0,2.5.8,2.5,2s-.9,2.1-2.4,2.1h-2.1v2.6h-1.1v-6.7ZM12.5,32.1h-4.5v-11.5h4.6c3.9,0,5.7,2.2,5.7,5.6,0,3.7-2.1,6-5.8,6ZM17.1,12.8v2.6h-1.1v-6.7h3.2c1.6,0,2.5.8,2.5,2s-.7,1.8-1.8,2l1.8,2.7h-1.3l-1.7-2.6h-1.5ZM33,32.1h-3.2v-7.9c0,0,0,0,0,0l-2.1,7.9h-2.7l-1.9-7.9h-.1l.2,7.9h-3v-11.5h4.8l1.5,7.1h0l1.8-7.1h4.7v11.5h0ZM40.4,32.3c-4.4,0-5.8-2.7-5.8-6s1.9-6,5.9-6,5.2,2.2,5.3,4h-3.5c-.2-.9-.5-1.4-1.9-1.4s-2.2,1.3-2.2,3.4.5,3.4,2.2,3.4,1.8-.7,1.9-1.5h3.5c-.4,2.3-2,4.1-5.5,4.1ZM54.4,32.1l-.7-2.3h-3.6l-.6,2.3h-3.4l3.7-11.5h4.3l4,11.5h-3.6ZM62.5,32h-3.2v-3.1h3.2v3.1ZM62.9,9.7h-2.5v5.7h-1.1v-5.7h-2.5v-.9h6.1v.9h0ZM68.4,29.9c.8,0,1-.3,1.2-1.1h3.2c-.3,1.9-1.5,3.4-4.5,3.4s-4.6-1.9-4.6-4.6,1.9-4.7,4.8-4.7,4.3,2.2,4.4,3.4h-3.3c0-.8-.3-1.1-1.1-1.1s-1.3.5-1.3,2.2c0,1.9.5,2.3,1.3,2.3ZM73,8.8h2.8c2.2,0,3.4,1.4,3.4,3.2s-1.5,3.4-3.4,3.4h-2.8v-6.7h0ZM78.7,32.2c-3.6,0-4.8-2.3-4.8-4.7s1.1-4.5,4.9-4.5,4.8,2.4,4.8,4.5c0,2.5-1.3,4.7-4.9,4.7ZM98.5,32.1h-3.1v-5.5c0-.6-.2-1.2-.9-1.2s-1.1.5-1.1,1.6v5.1h-3.1v-5.6c0-.6-.3-1.1-.9-1.1s-1.1.4-1.1,1.7v5h-3.2v-6.1c0-1.9,0-2.3,0-2.8h3.1c0,.3,0,.7,0,.9.5-.7,1.3-1.1,2.5-1.1s1.9.6,2.2,1.2c.4-.6,1.3-1.2,2.7-1.2s2.9,1,2.9,3.2v5.9h0ZM96.9,12.1c0,0,0,0,0,.2v3.1h-1.1v-3.1c0,0,0-.1,0-.2l-2.8-3.3h1.3l2.1,2.4,2.1-2.4h1.2l-2.8,3.4Z"/>
        <path d="M90.1,10.6c0-.7-.6-.9-1.3-.9h-2v1.8h2c.9,0,1.3-.3,1.3-.9Z"/>
        <path d="M12.5,10.8c0-.7-.5-1.1-1.5-1.1h-2v2.3h2c.9,0,1.5-.3,1.5-1.2Z"/>
        <path d="M27.4,14.7c1.6,0,2.3-1.2,2.3-2.6s-.8-2.6-2.4-2.6-2.3,1.2-2.3,2.5c0,1.4.8,2.6,2.4,2.6Z"/>
        <path d="M78.7,25.7c-.9,0-1.4.6-1.4,1.9s.5,2,1.5,2,1.4-.6,1.4-2c0-1.3-.4-1.9-1.4-1.9Z"/>
      </g>
    </g>
  </g>
</svg>