<?xml version="1.0" encoding="utf-8"?>
<!-- Generator: Adobe Illustrator 27.8.1, SVG Export Plug-In . SVG Version: 6.00 Build 0)  -->
<svg version="1.1" id="Layer_1" xmlns="http://www.w3.org/2000/svg" xmlns:xlink="http://www.w3.org/1999/xlink" x="0px" y="0px"
	 viewBox="0 0 107.097 40" style="enable-background:new 0 0 107.097 40;" xml:space="preserve">
<style type="text/css">
	.st0{fill:#FFFFFF;}
</style>
<g>
	<path class="st0" d="M78.077,12.023c0-1.469-0.913-2.357-2.411-2.365h-1.545v4.883h1.484C77.261,14.54,78.077,13.523,78.077,12.023
		z"/>
	<path class="st0" d="M20.548,10.78c0-0.704-0.466-1.112-1.451-1.112h-1.985v2.263h1.985C19.957,11.931,20.548,11.669,20.548,10.78z
		"/>
	<path class="st0" d="M90.306,13.461c0-0.737-0.567-1.109-1.547-1.109H86.77v2.214h2.051C89.568,14.566,90.306,14.34,90.306,13.461z
		"/>
	<polygon class="st0" points="51.848,23.929 50.683,27.233 53.119,27.233 51.899,23.929 	"/>
	<path class="st0" d="M12.33,23.07h-1.123v6.435h1.088c1.725,0,2.534-0.866,2.534-3.38C14.828,23.95,14.154,23.07,12.33,23.07z"/>
	<path class="st0" d="M7.642,1C4.087,1,1.204,3.883,1.204,7.438V39h98.25c3.556,0,6.438-2.883,6.438-6.438V1H7.642z M85.681,8.769
		h3.324c1.468,0,2.201,0.671,2.201,1.685c0,0.819-0.543,1.259-1.06,1.42c0.613,0.171,1.326,0.617,1.326,1.601
		c0,1.314-1.065,1.958-2.439,1.958h-3.352V8.769z M65.105,8.769h5.241v0.914h-4.138v1.802h3.673V12.4h-3.673v2.119h4.203v0.914
		h-5.306V8.769z M51.873,8.628c1.952,0,2.883,1.06,3.128,2.158h-1.126c-0.252-0.623-0.746-1.26-2.016-1.26
		c-1.462,0-2.322,1.087-2.322,2.547c0,1.443,0.84,2.607,2.331,2.607c1.182,0,1.664-0.498,2.001-1.237h1.112
		c-0.363,1.15-1.221,2.131-3.167,2.131c-2.253,0-3.443-1.572-3.443-3.461C48.372,10.225,49.69,8.628,51.873,8.628z M40.891,8.769
		h5.241v0.914h-4.138v1.802h3.673V12.4h-3.673v2.119H46.2l-0.004,0.914h-5.306V8.769z M32.582,8.769h6.092v0.915h-2.49v5.749h-1.107
		V9.684h-2.494V8.769z M27.409,8.628c2.176,0,3.505,1.611,3.505,3.452c0,1.875-1.264,3.494-3.544,3.494
		c-2.173,0-3.503-1.542-3.503-3.495C23.867,10.234,25.242,8.628,27.409,8.628z M7.917,8.769h3.205c1.631,0,2.451,0.838,2.451,1.993
		c0,1.322-0.916,2.072-2.432,2.072H9.023v2.599H7.917V8.769z M12.452,32.054H7.915V20.505h4.594c3.861,0,5.729,2.186,5.729,5.574
		C18.238,29.782,16.173,32.054,12.452,32.054z M17.111,12.834v2.599h-1.107V8.769h3.205c1.631,0,2.451,0.838,2.451,1.993
		c0,1.12-0.663,1.824-1.786,2.015l1.786,2.657H20.36l-1.747-2.599H17.111z M32.975,32.054h-3.216l0.089-7.934h-0.113l-2.107,7.934
		h-2.7l-1.867-7.932h-0.119l0.154,7.932h-2.997V20.505h4.832l1.52,7.082h0.062l1.773-7.082h4.69V32.054z M40.364,32.27
		c-4.358,0-5.814-2.724-5.814-5.968c0-3.306,1.862-6.003,5.94-6.003c3.923,0,5.228,2.217,5.329,3.995h-3.49
		c-0.185-0.878-0.505-1.4-1.894-1.4c-1.663,0-2.199,1.276-2.199,3.397c0,2.148,0.541,3.383,2.204,3.383
		c1.399,0,1.772-0.668,1.939-1.456h3.502C45.529,30.493,43.895,32.27,40.364,32.27z M54.403,32.054l-0.708-2.339h-3.557l-0.64,2.339
		h-3.433l3.693-11.549h4.282l4,11.549H54.403z M62.453,32.048h-3.219v-3.075h3.219V32.048z M62.887,9.684h-2.49v5.749H59.29V9.684
		h-2.494V8.769h6.092V9.684z M68.44,29.916c0.837,0,1.034-0.325,1.179-1.089h3.236c-0.258,1.931-1.511,3.403-4.522,3.403
		c-3.363,0-4.613-1.865-4.613-4.556c0-3,1.852-4.654,4.779-4.654c3.516,0,4.327,2.159,4.363,3.447h-3.267
		c-0.041-0.76-0.294-1.117-1.112-1.117c-0.929,0-1.311,0.516-1.311,2.234C67.172,29.526,67.623,29.916,68.44,29.916z M73.019,8.769
		h2.805c2.175,0,3.423,1.416,3.423,3.222c0,2.135-1.518,3.442-3.445,3.442h-2.782V8.769z M78.668,32.24
		c-3.575,0-4.783-2.29-4.783-4.675c0-1.952,1.122-4.546,4.904-4.546c3.646,0,4.754,2.4,4.754,4.495
		C83.542,30.013,82.23,32.24,78.668,32.24z M98.492,32.054H95.36v-5.524c0-0.625-0.217-1.19-0.95-1.19
		c-0.783,0-1.097,0.538-1.097,1.577v5.137h-3.137V26.48c0-0.63-0.286-1.129-0.943-1.129c-0.749,0-1.109,0.433-1.109,1.674v5.03
		h-3.155v-6.097c0-1.901-0.011-2.346-0.029-2.751h3.096c0.046,0.286,0.07,0.658,0.081,0.942c0.518-0.68,1.277-1.128,2.496-1.128
		c1.298,0,1.933,0.601,2.241,1.244c0.419-0.609,1.327-1.244,2.711-1.244c1.696,0,2.926,0.999,2.926,3.159V32.054z M96.921,12.143
		c-0.032,0.051-0.043,0.084-0.043,0.163v3.127h-1.106v-3.145c0-0.073-0.023-0.115-0.069-0.179l-2.782-3.34h1.313l2.134,2.445
		l2.135-2.445h1.217L96.921,12.143z"/>
	<path class="st0" d="M90.058,10.567c0-0.703-0.56-0.926-1.283-0.926H86.77v1.844h1.975C89.648,11.484,90.058,11.156,90.058,10.567z
		"/>
	<path class="st0" d="M12.459,10.78c0-0.704-0.466-1.112-1.451-1.112H9.023v2.263h1.985C11.869,11.931,12.459,11.669,12.459,10.78z"
		/>
	<path class="st0" d="M27.418,14.672c1.561,0,2.331-1.213,2.331-2.573c0-1.333-0.8-2.569-2.392-2.569
		c-1.493,0-2.324,1.185-2.324,2.525C25.033,13.447,25.852,14.672,27.418,14.672z"/>
	<path class="st0" d="M78.705,25.704c-0.926,0-1.414,0.568-1.414,1.857c0,1.414,0.469,2.006,1.468,2.006
		c0.928,0,1.39-0.611,1.39-1.999C80.148,26.241,79.721,25.704,78.705,25.704z"/>
</g>
</svg>
