<?xml version="1.0" encoding="iso-8859-1"?>
<!-- Generator: Adobe Illustrator 18.0.0, SVG Export Plug-In . SVG Version: 6.00 Build 0)  -->
<!DOCTYPE svg PUBLIC "-//W3C//DTD SVG 1.1//EN" "http://www.w3.org/Graphics/SVG/1.1/DTD/svg11.dtd">
<svg version="1.1" xmlns="http://www.w3.org/2000/svg" xmlns:xlink="http://www.w3.org/1999/xlink" x="0px" y="0px"
	 viewBox="0 0 38.018 38.017" style="enable-background:new 0 0 38.018 38.017;" xml:space="preserve">
<g id="Layer_315">
	<g id="Layer_316">
		<g>
			<path style="fill:#007A5A;" d="M38.018,19.009c0-2.133-0.356-4.262-1.061-6.274c-0.679-1.941-1.676-3.769-2.939-5.392
				c-1.253-1.61-2.765-3.017-4.46-4.15c-1.719-1.148-3.625-2.014-5.622-2.548c-2.079-0.557-4.251-0.753-6.396-0.589
				c-2.103,0.161-4.174,0.673-6.107,1.515C9.553,2.388,7.811,3.512,6.288,4.884C4.772,6.25,3.476,7.861,2.468,9.637
				c-1.028,1.81-1.754,3.788-2.139,5.833c-0.4,2.122-0.436,4.314-0.108,6.448c0.317,2.064,0.979,4.072,1.95,5.921
				c0.951,1.81,2.195,3.462,3.669,4.878c1.476,1.418,3.179,2.596,5.027,3.474c1.896,0.899,3.94,1.479,6.027,1.71
				c2.142,0.237,4.327,0.112,6.428-0.375c2.02-0.469,3.958-1.273,5.718-2.369c1.732-1.078,3.289-2.437,4.594-4.006
				c1.312-1.578,2.366-3.369,3.107-5.283c0.766-1.979,1.191-4.083,1.264-6.202C38.014,19.447,38.018,19.228,38.018,19.009z"/>
			<g>
				<path style="fill:#FFFFFF;" d="M29.129,20.546c-3.403-2.282-7.375,0.291-7.547,0.405c2.536-2.124,5.479-1.674,5.479-1.674
					l0.798-0.963c-3.551-0.585-6.586,2.013-6.671,2.086c2.761-3.97,0.653-6.855,0.653-6.855l-0.921,0.798
					c1.467,2.379,0.054,5.525-0.037,5.722c1.915-5.07-1.876-7.481-1.876-7.481s-3.79,2.411-1.875,7.481
					c-0.091-0.196-1.505-3.343-0.037-5.722l-0.921-0.798c0,0-2.108,2.885,0.653,6.855c-0.085-0.073-3.119-2.671-6.671-2.086
					l0.798,0.963c0,0,2.943-0.45,5.479,1.674c-0.172-0.114-4.143-2.688-7.547-0.405c0,0,1.188,3.357,6.448,3.95
					c0,0-2.683,0.409-5.589-1.638L8.888,23.35c0.483,0.478,1.118,0.825,1.738,1.092c0.636,0.273,1.309,0.455,1.991,0.557
					c0.691,0.103,1.403,0.146,2.102,0.109c0.697-0.036,1.394-0.172,2.021-0.483c0.416-0.207,0.799-0.474,1.166-0.757
					c0.38-0.293,0.753-0.598,1.102-0.927c0.516,0.486,1.065,0.941,1.66,1.328c0.578,0.378,1.195,0.636,1.878,0.753
					c0.626,0.107,1.275,0.116,1.909,0.082c0.627-0.035,1.251-0.127,1.858-0.286c0.507-0.134,1.002-0.315,1.47-0.551
					c0.477-0.24,0.964-0.538,1.346-0.917l-0.86-0.491c-2.906,2.047-5.588,1.638-5.588,1.638
					C27.942,23.903,29.129,20.546,29.129,20.546z"/>
				<path style="fill:#FFFFFF;" d="M19.337,23.86l-0.328-0.347l-0.328,0.346c-0.016,0.017-1.572,1.635-3.768,1.635h-6.62
					c0.188,0.309,0.389,0.609,0.602,0.899h6.019c1.97,0,3.464-1.067,4.095-1.609c0.631,0.543,2.121,1.609,4.098,1.609h6.019
					c0.213-0.29,0.413-0.591,0.602-0.899h-6.62C20.908,25.494,19.352,23.875,19.337,23.86z"/>
				<path style="fill:#FFFFFF;" d="M9.606,27.28H28.41l0.187-0.218H9.419C9.48,27.135,9.542,27.208,9.606,27.28z"/>
				<path style="fill:#FFFFFF;" d="M11.042,28.672h15.933c0.212-0.176,0.418-0.357,0.617-0.547H10.425
					C10.624,28.315,10.83,28.496,11.042,28.672z"/>
				<path style="fill:#FFFFFF;" d="M13.171,30.09h11.675c0.493-0.26,0.966-0.552,1.417-0.872h-14.51
					C12.204,29.538,12.678,29.83,13.171,30.09z"/>
				<path style="fill:#FFFFFF;" d="M19.008,31.562c1.865,0,3.637-0.407,5.229-1.138H13.78
					C15.372,31.155,17.144,31.562,19.008,31.562z"/>
				<polygon style="fill:#FFD200;" points="19.523,8.671 19.008,7.09 18.494,8.671 16.831,8.671 18.177,9.649 17.663,11.231 
					19.008,10.253 20.354,11.231 19.84,9.649 21.186,8.671 				"/>
				<polygon style="fill:#FFD200;" points="14.241,9.975 13.442,10.534 12.664,9.947 12.949,10.879 12.151,11.439 13.125,11.455 
					13.41,12.388 13.728,11.466 14.702,11.484 13.924,10.896 				"/>
				<polygon style="fill:#FFD200;" points="10.192,15.279 9.922,14.342 9.589,15.258 8.614,15.224 9.382,15.825 9.049,16.741 
					9.858,16.196 10.625,16.796 10.357,15.859 11.165,15.314 				"/>
				<polygon style="fill:#FFD200;" points="25.354,9.947 24.575,10.534 23.776,9.975 24.094,10.896 23.316,11.484 24.29,11.466 
					24.608,12.388 24.893,11.455 25.867,11.439 25.069,10.879 				"/>
				<polygon style="fill:#FFD200;" points="28.43,15.258 28.096,14.342 27.827,15.279 26.853,15.314 27.661,15.859 27.393,16.796 
					28.16,16.196 28.969,16.741 28.636,15.825 29.403,15.224 				"/>
			</g>
		</g>
	</g>
</g>
<g id="Layer_1">
</g>
</svg>
