<?xml version="1.0" encoding="iso-8859-1"?>
<!-- Generator: Adobe Illustrator 18.0.0, SVG Export Plug-In . SVG Version: 6.00 Build 0)  -->
<!DOCTYPE svg PUBLIC "-//W3C//DTD SVG 1.1//EN" "http://www.w3.org/Graphics/SVG/1.1/DTD/svg11.dtd">
<svg version="1.1" xmlns="http://www.w3.org/2000/svg" xmlns:xlink="http://www.w3.org/1999/xlink" x="0px" y="0px"
	 viewBox="0 0 38.017 38.018" style="enable-background:new 0 0 38.017 38.018;" xml:space="preserve">
<g id="Layer_297">
	<g id="Layer_299">
		<g>
			<path style="fill:#FFFFFF;" d="M19.009,0c-2.132,0-4.261,0.356-6.274,1.061C10.793,1.739,8.966,2.736,7.343,4
				C5.733,5.253,4.326,6.765,3.193,8.461c-1.149,1.719-2.014,3.624-2.548,5.621c-0.557,2.079-0.753,4.252-0.589,6.398
				c0.161,2.102,0.673,4.174,1.514,6.106c0.818,1.879,1.942,3.622,3.313,5.144c1.367,1.518,2.977,2.812,4.753,3.821
				c1.81,1.027,3.788,1.753,5.833,2.138c1.284,0.242,2.591,0.35,3.896,0.324V0.005C19.247,0.003,19.128,0,19.009,0z"/>
			<path style="fill:#B70922;" d="M38.017,19.009c0-2.132-0.356-4.261-1.06-6.274c-0.679-1.941-1.677-3.769-2.94-5.392
				c-1.253-1.609-2.765-3.017-4.46-4.149c-1.719-1.149-3.625-2.014-5.622-2.549C22.33,0.216,20.67,0,19.008,0v38.018
				c2.122,0,4.241-0.353,6.246-1.05c1.943-0.675,3.772-1.67,5.397-2.931c1.612-1.251,3.021-2.76,4.157-4.454
				c1.151-1.717,2.02-3.621,2.558-5.617C37.8,22.352,38.017,20.681,38.017,19.009z"/>
		</g>
	</g>
	<g id="Layer_298">
		<g>
			<g>
				<g>
					<path style="fill:#CDCDCD;" d="M12.223,9.204V5.891H9.26v3.313c-0.612,0.011-1.109,0.507-1.12,1.12H4.826v2.963H8.14
						c0.01,0.612,0.507,1.108,1.12,1.119v3.314h2.963v-3.314c0.612-0.011,1.108-0.508,1.119-1.12h3.314v-2.963h-3.313
						C13.332,9.712,12.835,9.215,12.223,9.204z"/>
					<path style="fill:#B70922;" d="M13.445,10.216c-0.06-0.586-0.527-1.054-1.113-1.113V5.999V5.781h-0.217H9.368H9.151v0.218
						v3.103c-0.585,0.061-1.053,0.527-1.113,1.114H4.934H4.717v0.217v2.746v0.217h0.217h3.103c0.06,0.586,0.527,1.053,1.113,1.113
						v3.103v0.217h0.218h2.746h0.217v-0.217v-3.103c0.585-0.061,1.053-0.527,1.113-1.113h3.104h0.217v-0.217v-2.746v-0.217h-0.217
						H13.445z M16.548,13.179h-3.314v0.088c0,0.569-0.462,1.032-1.031,1.032h-0.088v3.313H9.368v-3.314H9.28
						c-0.569,0-1.031-0.462-1.031-1.031v-0.088H4.934v-2.746h3.314v-0.088c0-0.57,0.462-1.032,1.031-1.032h0.089V5.999h2.746v3.313
						h0.088c0.57,0,1.032,0.462,1.032,1.032v0.088h3.314V13.179z"/>
					<path style="fill:#9D887D;" d="M13.288,10.345c0-0.6-0.487-1.086-1.086-1.086h-0.034V5.944H9.314v3.313H9.28
						c-0.598,0-1.086,0.487-1.086,1.087v0.033H4.88v2.854h3.313v0.034c0,0.599,0.487,1.086,1.086,1.086h0.034v3.313h2.854v-3.313
						h0.034c0.599,0,1.085-0.487,1.085-1.086v-0.034h3.314v-2.854h-3.314V10.345z M16.493,10.487v2.637H13.18v0.143
						c0,0.539-0.438,0.977-0.977,0.977H12.06v3.314H9.423v-3.314H9.28c-0.539,0-0.977-0.438-0.977-0.977v-0.143H4.989v-2.637h3.314
						v-0.143c0-0.539,0.438-0.977,0.977-0.977h0.143V6.053h2.637v3.314h0.143c0.539,0,0.977,0.439,0.977,0.977v0.143H16.493z"/>
				</g>
				<g>
					<path style="fill:#9D887D;" d="M12.195,9.4c-0.458,0.459,0.493,1.41,0.952,0.951C13.605,9.894,12.654,8.942,12.195,9.4z
						 M12.659,9.435l0.074,0.073l-0.15,0.347l0.347-0.149l0.075,0.074l-0.61,0.262L12.659,9.435z M13.113,9.887l-0.436,0.437
						l-0.075-0.075l0.436-0.436L13.113,9.887z"/>
					<path style="fill:#9D887D;" d="M8.471,9.535c-0.198,0.197-0.369,0.582-0.134,0.816c0.234,0.235,0.62,0.063,0.817-0.134
						C9.351,10.02,9.522,9.635,9.287,9.4C9.053,9.166,8.668,9.337,8.471,9.535z M8.37,9.887l0.074-0.074l0.347,0.151l-0.15-0.348
						l0.074-0.074l0.262,0.609L8.37,9.887z M9.183,9.944L8.748,9.509l0.075-0.074l0.436,0.434L9.183,9.944z"/>
					<path style="fill:#9D887D;" d="M8.336,13.259c-0.459,0.458,0.493,1.41,0.951,0.951C9.746,13.752,8.795,12.801,8.336,13.259z
						 M8.445,13.799L8.37,13.724l0.435-0.436l0.075,0.075L8.445,13.799z M8.823,14.177l-0.075-0.074l0.151-0.347l-0.348,0.15
						l-0.074-0.075l0.609-0.262L8.823,14.177z"/>
					<path style="fill:#9D887D;" d="M12.329,13.394c-0.191,0.19-0.359,0.554-0.156,0.793c0.224,0.264,0.63,0.099,0.833-0.105
						c0.208-0.208,0.387-0.614,0.114-0.847C12.884,13.034,12.517,13.205,12.329,13.394z M12.659,14.177l-0.436-0.436l0.075-0.074
						l0.435,0.436L12.659,14.177z M13.038,13.798l-0.347-0.15l0.15,0.348l-0.075,0.074l-0.262-0.609l0.608,0.264L13.038,13.798z"/>
				</g>
			</g>
			<g>
				<g>
					<path d="M8.971,12.197l0.003,0.013c0.009,0.037-0.017,0.047-0.046,0.053l-0.116,0.026l-0.016-0.066
						C8.794,12.21,8.793,12.2,8.795,12.193c0.007-0.019,0.021-0.029,0.041-0.031l-0.002-0.01L8.71,12.181l0.003,0.01
						c0.032-0.003,0.054,0.003,0.061,0.037l0.015,0.067l-0.145,0.032l-0.018-0.081c-0.01-0.044,0.001-0.074,0.042-0.096l-0.002-0.01
						l-0.08,0.021l0.062,0.274l0.01-0.002l-0.003-0.013c-0.009-0.037,0.018-0.046,0.046-0.053l0.238-0.054
						c0.03-0.007,0.056-0.009,0.064,0.027l0.003,0.013l0.01-0.003L8.98,12.194L8.971,12.197z"/>
					<path d="M8.763,11.494c-0.252-0.017-0.274,0.354-0.023,0.369C8.997,11.88,9.018,11.511,8.763,11.494z M8.888,11.77
						c-0.066,0.046-0.165,0.042-0.236,0.011c-0.076-0.033-0.106-0.141-0.032-0.193c0.065-0.046,0.165-0.04,0.236-0.011
						C8.931,11.607,8.961,11.718,8.888,11.77z"/>
					<path d="M9.088,11.009c-0.012,0.009-0.033,0.018-0.063,0.025l-0.129,0.033c0.009-0.06-0.02-0.126-0.087-0.129
						c-0.066-0.002-0.097,0.065-0.118,0.118l-0.05,0.128l0.01,0.004l0.005-0.013c0.013-0.034,0.04-0.028,0.068-0.017l0.227,0.088
						c0.027,0.011,0.051,0.024,0.038,0.058l-0.005,0.014l0.01,0.004l0.059-0.151l-0.01-0.004l-0.005,0.014
						c-0.013,0.033-0.039,0.027-0.067,0.017l-0.102-0.04c0.001-0.002,0.002-0.005,0.003-0.008c0.002-0.002,0.003-0.005,0.003-0.007
						c0.002-0.006,0.005-0.013,0.008-0.021l0.211-0.056l0.037-0.094l-0.01-0.004C9.112,10.986,9.101,11,9.088,11.009z M8.858,11.137
						c-0.002,0.005-0.004,0.01-0.006,0.015l-0.146-0.057C8.733,10.947,8.912,10.999,8.858,11.137z"/>
					<path d="M9.823,10.039c-0.001-0.011,0.005-0.02,0.018-0.028l0.006-0.004L9.84,9.998l-0.124,0.078l0.006,0.009
						c0.036-0.023,0.051-0.011,0.071,0.021l0.059,0.093c-0.069,0.13-0.226,0.071-0.285-0.035c-0.075-0.132,0.063-0.296,0.195-0.188
						L9.77,9.97L9.699,9.874L9.69,9.88c0.021,0.037-0.111,0.068-0.13,0.085c-0.072,0.064-0.08,0.175-0.034,0.255
						c0.089,0.152,0.302,0.085,0.375-0.045L9.84,10.076C9.829,10.06,9.823,10.047,9.823,10.039z"/>
					<path d="M10.454,9.994c-0.01-0.005-0.024-0.018-0.04-0.04l-0.204-0.273l-0.01,0.002l-0.053,0.335
						c-0.006,0.036-0.01,0.062-0.044,0.078l0.002,0.01l0.116-0.028l-0.002-0.011c-0.04,0.008-0.054-0.007-0.047-0.046l0.011-0.064
						l0.142-0.035l0.035,0.047c0.022,0.029,0.03,0.055-0.011,0.066l0.003,0.011l0.144-0.037l-0.002-0.01
						C10.477,10.001,10.465,10,10.454,9.994z M10.185,9.934l0.027-0.164l0.099,0.133L10.185,9.934z"/>
					<path d="M10.959,9.958c-0.026,0.026-0.06,0.026-0.095,0.024l-0.027-0.001c-0.013-0.001-0.045,0.002-0.054-0.015
						c-0.002-0.006-0.003-0.017-0.002-0.031l0.012-0.237c0.003-0.047,0.019-0.063,0.066-0.061l0-0.01l-0.171-0.009l0,0.011h0.014
						c0.036,0.002,0.039,0.029,0.037,0.06l-0.012,0.243c-0.002,0.029-0.007,0.057-0.043,0.055L10.67,9.986L10.67,9.997l0.292,0.015
						L11,9.91l-0.01-0.002C10.979,9.932,10.969,9.948,10.959,9.958z"/>
					<path d="M11.46,10.09c-0.033,0.019-0.064,0.009-0.097-0.003l-0.026-0.009c-0.013-0.004-0.043-0.011-0.047-0.028
						c-0.001-0.007,0.002-0.017,0.006-0.031l0.077-0.225c0.015-0.045,0.035-0.056,0.08-0.04l0.003-0.01L11.294,9.69l-0.003,0.01
						l0.014,0.004c0.034,0.012,0.029,0.039,0.02,0.067l-0.079,0.231c-0.009,0.027-0.022,0.052-0.056,0.041l-0.014-0.005l-0.003,0.01
						l0.277,0.095l0.064-0.086l-0.008-0.006C11.488,10.069,11.473,10.082,11.46,10.09z"/>
					<path d="M12.029,10.034l-0.008-0.006l-0.291,0.174c-0.031,0.02-0.055,0.033-0.088,0.017l-0.006,0.009l0.096,0.069l0.006-0.008
						c-0.031-0.026-0.029-0.046,0.005-0.066L11.8,10.19l0.118,0.086l-0.013,0.058c-0.004,0.019-0.009,0.031-0.014,0.037
						c-0.014,0.013-0.029,0.012-0.045-0.004l-0.006,0.009l0.121,0.088l0.006-0.009c-0.029-0.023-0.024-0.054-0.017-0.088
						L12.029,10.034z M11.924,10.254l-0.106-0.076l0.143-0.085L11.924,10.254z"/>
					<path d="M12.535,10.581l0.008,0.011c0.023,0.032,0.003,0.048-0.021,0.065l-0.176,0.128l0.093-0.354l-0.061-0.083l-0.008,0.006
						c0.007,0.009,0.011,0.017,0.012,0.022c0.008,0.023,0.005,0.039,0,0.062l-0.212,0.154c-0.017,0.013-0.03,0.019-0.037,0.019
						c-0.012,0-0.023-0.007-0.032-0.019l-0.008-0.011l-0.008,0.007l0.078,0.106l0.008-0.007l-0.008-0.011
						c-0.023-0.032-0.003-0.048,0.021-0.064l0.188-0.138l-0.099,0.381l0.005,0.008l0.258-0.188c0.017-0.013,0.029-0.019,0.036-0.02
						c0.012,0,0.023,0.007,0.032,0.02l0.008,0.011l0.008-0.006l-0.078-0.106L12.535,10.581z"/>
					<path d="M12.668,10.974l0.003,0.011c0.024-0.007,0.052-0.007,0.07,0.015c0.005,0.006,0.01,0.018,0.016,0.034l0.015,0.043
						l-0.273,0.095c-0.028,0.009-0.053,0.014-0.065-0.021l-0.004-0.013l-0.01,0.004l0.052,0.151l0.01-0.003l-0.004-0.013
						c-0.013-0.037,0.011-0.047,0.039-0.056l0.273-0.095l0.018,0.051c0.008,0.024,0.009,0.047-0.01,0.067
						c-0.005,0.006-0.015,0.012-0.028,0.019l0.003,0.01l0.083-0.032l-0.101-0.292L12.668,10.974z"/>
					<path d="M12.912,11.528l-0.011,0.001l0,0.014c0.002,0.036-0.024,0.042-0.055,0.043l-0.244,0.011
						c-0.029,0.001-0.057-0.002-0.059-0.038l-0.001-0.014h-0.01l0.007,0.162h0.01l-0.001-0.016c-0.001-0.035,0.025-0.04,0.055-0.042
						l0.11-0.004c0,0.005,0,0.011,0,0.016c0,0.006,0.001,0.014,0.002,0.023l-0.171,0.136l0.005,0.101l0.01-0.001
						c0.002-0.045,0.026-0.071,0.06-0.099l0.106-0.082c0.015,0.058,0.068,0.107,0.131,0.082c0.061-0.024,0.062-0.099,0.06-0.155
						L12.912,11.528z M12.878,11.74c-0.065,0.074-0.141-0.012-0.144-0.08c0-0.006,0-0.011,0-0.016l0.157-0.007
						C12.899,11.672,12.904,11.712,12.878,11.74z"/>
					<path d="M12.884,12.187c-0.02,0.024-0.036,0.027-0.063,0.037l-0.18,0.06l-0.087-0.023c-0.021-0.006-0.033-0.011-0.037-0.017
						c-0.008-0.009-0.01-0.021-0.005-0.036l0.003-0.014l-0.01-0.002l-0.042,0.155l0.01,0.002l0.003-0.012
						c0.009-0.035,0.033-0.033,0.064-0.025l0.092,0.024l0.115,0.125c0.018,0.02,0.036,0.039,0.042,0.066
						c0.002,0.011,0.002,0.018,0,0.023l-0.001,0.007l0.01,0.003l0.034-0.128l-0.01-0.002c-0.013,0.045-0.045,0.029-0.07,0.003
						l-0.093-0.101l0.138-0.045c0.028-0.009,0.066-0.012,0.054,0.033l-0.002,0.008l0.01,0.003l0.042-0.156l-0.01-0.003
						C12.888,12.178,12.887,12.184,12.884,12.187z"/>
				</g>
				<path style="fill:#9D887D;" d="M10.741,10.044c-1.097,0-1.958,1.072-1.72,2.144c0.226,1.018,1.363,1.635,2.339,1.268
					c0.782-0.294,1.264-1.146,1.114-1.967C12.325,10.668,11.574,10.044,10.741,10.044z M12.411,12.217
					c-0.271,1.096-1.579,1.651-2.546,1.061c-0.922-0.562-1.128-1.873-0.362-2.656c0.498-0.509,1.288-0.678,1.941-0.385
					C12.187,10.569,12.606,11.426,12.411,12.217z"/>
				<path style="fill:#9D887D;" d="M10.741,9.536c-1.107,0-2.096,0.856-2.248,1.953c-0.154,1.112,0.575,2.223,1.663,2.509
					c1.08,0.285,2.264-0.295,2.684-1.333c0.439-1.085-0.043-2.372-1.093-2.892C11.435,9.618,11.089,9.536,10.741,9.536z
					 M12.684,10.718c0.558,0.993,0.239,2.308-0.707,2.939c-0.991,0.661-2.345,0.401-3.042-0.556
					c-0.663-0.911-0.507-2.199,0.323-2.952c0.835-0.758,2.138-0.739,2.974,0.008C12.413,10.317,12.566,10.508,12.684,10.718z"/>
				<g>
					<path style="fill:#9D887D;" d="M12.181,11.446c-0.122-0.096-0.239-0.209-0.394-0.249c-0.145-0.038-0.185,0.16-0.323,0.176
						c-0.03-0.036-0.135-0.098-0.126-0.152c0.017-0.104-0.062-0.189-0.131-0.256c-0.063-0.059-0.106-0.103-0.002-0.126
						c0.038-0.008,0.066-0.062,0.105-0.051c0.032,0.01,0.054,0.038,0.085,0.049c0.012,0.005,0.047,0.017,0.053-0.004
						c0.009-0.036-0.035-0.029-0.053-0.042c-0.019-0.014-0.007-0.079,0.014-0.061c0.017,0.017,0.012,0.044,0.039,0.045
						c0.121,0.006,0.06-0.126-0.013-0.151c-0.107-0.038-0.247-0.045-0.36-0.058c-0.018-0.044-0.006-0.122-0.006-0.122
						c-0.052,0.042-0.076,0.094-0.121,0.164c0.096-0.302-0.383-0.436-0.458-0.129c-0.039-0.003-0.085,0.037-0.122,0.009
						c-0.027-0.021-0.068-0.028-0.101-0.018c-0.037,0.012-0.053,0.053-0.09,0.063c-0.055,0.018-0.099-0.003-0.133,0.059
						c0.01,0,0.121-0.021,0.117-0.006c-0.011,0.015-0.024,0.025-0.042,0.032c-0.097-0.014-0.242-0.103-0.335-0.037
						c-0.018,0.013-0.199,0.151-0.204,0.141c0.01,0.023,0.082,0.019,0.073,0.05c-0.006,0.019-0.043,0.028-0.059,0.034
						C9.553,10.82,9.422,10.839,9.42,10.9c0.094-0.033,0.12,0.038,0.041,0.09c-0.074,0.05-0.136,0.097-0.157,0.189
						c0.018-0.016,0.092-0.071,0.09-0.013c-0.004,0.077-0.071,0.143-0.109,0.205c0.029-0.032,0.112-0.074,0.136-0.008
						c0.013,0.038-0.061,0.072-0.08,0.095c0.027-0.018,0.07-0.002,0.1,0.002c0.057,0.009,0.109-0.002,0.161-0.027
						c0.046-0.021,0.094-0.037,0.137-0.064c0.047-0.028,0.06-0.088,0.108-0.116c-0.008,0.038-0.007,0.088-0.028,0.122
						c-0.047-0.023-0.067,0.019-0.035,0.052c-0.036,0.068,0.096,0.142,0.151,0.135c0.043,0.036,0.079,0.067,0.079,0.067l0.085,0.075
						c-0.094,0.05-0.202,0.138-0.193,0.256c-0.133,0.004-0.211-0.115-0.334-0.134c-0.114-0.018-0.118,0.151-0.111,0.225
						c0.008,0.101,0.074,0.184-0.011,0.259c-0.047,0.042-0.143,0.111-0.058,0.167c-0.002-0.018,0.004-0.056,0.019-0.067
						c0.024-0.02,0.031,0.102,0.031,0.109c-0.001,0.072-0.007,0.173,0.08,0.196c-0.04-0.053-0.042-0.149,0.028-0.15
						c0.044-0.001-0.014-0.142,0.059-0.04c0.051,0.07,0.035-0.042,0.027-0.072c-0.012-0.049-0.05-0.143-0.003-0.186
						c0.027-0.024,0.107-0.005,0.12-0.046c0.013-0.043-0.104-0.102-0.128-0.122c-0.04-0.033-0.087-0.132,0.009-0.125
						c0.101,0.007,0.186,0.073,0.292,0.078c0.074,0.142,0.222,0.218,0.375,0.242c0.012,0.062,0.02,0.123-0.001,0.184
						c-0.011,0.028-0.048,0.101,0,0.115c0.036,0.011,0.073-0.002,0.109,0.007c0.057,0.013,0.105,0.045,0.156,0.071
						c-0.013,0.017-0.02,0.035-0.016,0.056c-0.091,0.035-0.192,0.017-0.282,0.052c-0.054,0.021-0.097,0.058-0.156,0.063
						c-0.097,0.011-0.195,0.017-0.292,0.027c-0.033,0.004-0.073,0.005-0.104,0.018c-0.013,0.006-0.002,0.02,0.007,0.028
						c0.023,0.023,0.064,0.004,0.091,0.004c0.079,0.001,0.02,0.042,0.031,0.075c0.018,0.055,0.231,0.049,0.277,0.05
						c0.2,0.004,0.4-0.015,0.601-0.016c0.226-0.002,0.453,0.003,0.679,0.004c0.087,0.001,0.175,0,0.263-0.001
						c0.088-0.002,0.045-0.066,0.107-0.093c0.064-0.028,0.046-0.046-0.02-0.061c-0.083-0.019-0.168-0.016-0.234-0.08
						c0.065-0.016,0.127-0.041,0.188-0.068c0.05,0.026,0.099,0.058,0.156,0.066c0.058,0.009,0.121-0.041,0.173-0.001
						c0-0.013-0.033-0.047-0.019-0.059c0.01-0.008,0.03,0.017,0.036,0.023c0.001-0.038-0.037-0.024-0.046-0.052
						c-0.005-0.018,0.035-0.006,0.04-0.004c-0.048-0.079-0.084,0.011-0.128,0.033c-0.048,0.024-0.114-0.016-0.13-0.063
						c0.06-0.064,0.094-0.131,0.179-0.165c0.06-0.024,0.035-0.156,0.109-0.08c0.005-0.036-0.018-0.063-0.054-0.054
						c0.008-0.027,0.034-0.022,0.057-0.009c-0.015-0.037-0.053-0.049-0.086-0.029c0-0.022,0.018-0.029,0.043-0.023
						c-0.066-0.051-0.1,0.023-0.113,0.079c-0.019,0.089-0.062,0.158-0.162,0.162c-0.008-0.068-0.062-0.12-0.1-0.174
						c-0.032-0.045-0.036-0.134,0.042-0.082c0.046,0.029,0.087,0.076,0.149,0.063c0.07-0.015,0.113-0.07,0.144-0.131l0.022,0.016
						c0.034,0.025,0.069,0.039,0.112,0.03c-0.027-0.01-0.051-0.029-0.042-0.057c0.029-0.001,0.069-0.013,0.078-0.045
						c-0.013,0.006-0.099-0.002-0.075-0.018c0.014-0.009,0.019-0.031,0.02-0.036c-0.097,0.115-0.131-0.102-0.173-0.133
						c-0.047-0.034-0.105-0.004-0.151-0.05c-0.012-0.012-0.03-0.045-0.045-0.054c-0.03-0.017-0.05,0.059-0.046,0.075
						c-0.018,0.021-0.027,0.05-0.009,0.072c0,0,0,0,0.004-0.017c0.009-0.032,0.139,0.047,0.152,0.067
						c0.047,0.076-0.149,0.055-0.168,0.006c-0.029,0.048,0.076,0.076,0.104,0.086c0.025,0.01,0.048,0.019,0.064,0.041
						c0.025,0.032,0.008,0.084-0.04,0.069c-0.073-0.023-0.127-0.127-0.212-0.11c-0.125,0.024-0.042,0.185,0.002,0.239
						c-0.035,0.017-0.038,0.034-0.038,0.034s-0.021-0.024-0.059-0.061c-0.009-0.273,0.17-0.481,0.17-0.481
						c-0.085,0.035-0.186,0.127-0.261,0.204c-0.15-0.072-0.235-0.171-0.288-0.327c0.033-0.024,0.122-0.01,0.161-0.011
						c0.073-0.002,0.154,0.006,0.225-0.015c0.04-0.012,0.088-0.036,0.13-0.028c0.049,0.01,0.085,0.025,0.138,0.026l0.2,0.16
						c-0.061,0.121,0.074,0.152,0.165,0.144c-0.029-0.059-0.053-0.133-0.089-0.186c-0.039-0.057-0.112-0.076-0.161-0.122
						c-0.036-0.033-0.059-0.084-0.104-0.106c-0.07-0.034-0.145-0.025-0.215-0.069c0.076-0.08,0.149-0.183,0.18-0.291l0.212,0.062
						l0.134,0.144c0.03,0.062,0.102,0.075,0.16,0.044C12.318,11.499,12.212,11.458,12.181,11.446z M10.664,10.781
						c0.013-0.021,0.052,0.033,0.077,0.011c0.003-0.004,0.008-0.012,0.011-0.019c0.038-0.005,0.073-0.019,0.103-0.039
						c-0.082,0.095-0.125,0.144-0.135,0.233C10.696,10.91,10.628,10.839,10.664,10.781z M10.43,10.61
						c0.018-0.013,0.038-0.024,0.056-0.033c0.006,0.039,0.023,0.076,0.046,0.107c-0.008,0.011-0.017,0.018-0.025,0.024
						c0,0-0.064-0.021-0.171-0.046C10.375,10.655,10.387,10.642,10.43,10.61z M10.231,11.647c-0.071-0.045-0.169-0.106-0.243-0.153
						c0.016-0.07-0.067-0.066-0.066-0.136c0-0.077,0.071-0.127,0.123-0.175c0.104-0.035,0.168-0.118,0.183-0.13
						c0.005-0.003,0.046-0.034,0.046-0.036c0,0.065,0.037,0.123,0.053,0.184c0.013,0.048,0.011,0.098,0.011,0.146
						c0,0.093,0.014,0.185,0.107,0.23C10.376,11.602,10.305,11.62,10.231,11.647z M11.034,12.499
						c-0.063,0.012-0.112,0.062-0.177,0.071c-0.074,0.012-0.151,0.013-0.22,0.047c-0.073-0.027-0.141-0.068-0.203-0.116
						c0.052-0.074,0.104-0.157,0.124-0.247c0.033,0.06,0.035,0.113,0.041,0.179c0.004,0.04,0.032,0.034,0.063,0.025
						c0.123-0.033,0.25-0.019,0.374-0.046c0.038,0.013,0.061,0.038,0.064,0.077C11.073,12.492,11.049,12.496,11.034,12.499z
						 M11.15,12.062c0.015,0.024,0.015,0.085,0.052,0.086c0.061,0.001,0.09-0.006,0.152,0.012c-0.038,0.042-0.063,0.072-0.063,0.072
						c-0.146-0.092-0.325-0.146-0.492-0.076c0.195-0.008,0.193,0.118,0.193,0.118c0.043-0.01,0.162,0.024,0.11,0.083
						c0.044-0.005,0.103,0.015,0.065,0.066c0.032-0.01,0.126-0.023,0.091,0.038c0,0,0.038-0.019,0.104,0.006
						c0.006,0.002,0.012,0.005,0.017,0.009c0.015,0.015,0.009,0.04,0,0.061c-0.052-0.024-0.105-0.045-0.164-0.049
						c-0.051-0.051-0.102-0.13-0.175-0.151c-0.095-0.027-0.215,0.038-0.315,0.029c0.014-0.098,0.052-0.217,0-0.309
						c0.095-0.023,0.206-0.083,0.276-0.149C11.047,11.963,11.132,12.033,11.15,12.062z"/>
					<g>
						<path d="M9.922,11.341c-0.006,0.017-0.008,0.032-0.001,0.044C9.915,11.371,9.916,11.356,9.922,11.341z"/>
						<path d="M11.087,12.624c-0.001,0.002-0.001,0.005,0.001,0.006c0.006,0,0.009,0.002,0.014,0.004
							c-0.003-0.004-0.005-0.007-0.009-0.011C11.091,12.621,11.089,12.622,11.087,12.624z"/>
						<path d="M11.102,12.634c0.007,0.008,0.013,0.017,0.016,0.023C11.12,12.646,11.115,12.638,11.102,12.634z"/>
						<path d="M10.894,12.884c-0.001-0.002-0.002-0.004-0.002-0.006C10.892,12.879,10.891,12.881,10.894,12.884z"/>
						<path d="M11.749,12.959c0.005-0.004,0.011-0.008,0.017-0.012C11.759,12.95,11.754,12.954,11.749,12.959z"/>
						<path d="M9.503,12.67c-0.002-0.021-0.001-0.046,0.002-0.068C9.496,12.623,9.497,12.647,9.503,12.67z"/>
						<path d="M10.339,11.236c-0.003-0.027-0.071-0.225-0.069-0.227c-0.037,0.013-0.051,0.044-0.093,0.054
							c-0.008,0.001-0.083,0.011-0.084,0.018c-0.017,0.044-0.029,0.082-0.068,0.111c-0.003,0.003-0.006,0.005-0.009,0.007
							c-0.044,0.034-0.085,0.084-0.093,0.141c0.023-0.06,0.109-0.139,0.125-0.154c0.086-0.029,0.146-0.092,0.172-0.119
							c0.004-0.004,0.007-0.007,0.01-0.01c0.018-0.013,0.027-0.023,0.035-0.03c0.002-0.003,0.004-0.005,0.006-0.007
							c0.02,0.106,0.061,0.191,0.061,0.303c0,0.095,0.009,0.202,0.104,0.252c0.004-0.001,0.007-0.003,0.011-0.004
							C10.308,11.505,10.354,11.356,10.339,11.236z M10.06,11.172c0.025-0.032,0.037-0.073,0.04-0.085
							c0.014,0,0.065-0.002,0.104-0.017C10.177,11.098,10.127,11.145,10.06,11.172z"/>
						<path d="M11.848,11.978c-0.014-0.001-0.023-0.004-0.035-0.013C11.824,11.977,11.835,11.981,11.848,11.978z"/>
						<path d="M12.184,11.549c0.005,0,0.009-0.001,0.013-0.002C12.17,11.546,12.165,11.547,12.184,11.549z"/>
						<path d="M12.092,11.491c-0.001-0.002-0.134-0.147-0.134-0.147c-0.002-0.002-0.214-0.062-0.214-0.062
							c-0.001,0.01-0.003,0.02-0.005,0.029c0.002-0.007,0.005-0.013,0.007-0.019l0.207,0.059l0.132,0.144
							c0.011,0.024,0.032,0.039,0.057,0.046C12.108,11.525,12.093,11.491,12.092,11.491z"/>
						<path d="M11.693,11.636c0.082,0,0.117,0.041,0.167,0.1c0.059,0.069,0.16,0.098,0.204,0.18
							c-0.021-0.091-0.142-0.119-0.195-0.186c-0.03-0.037-0.056-0.083-0.107-0.095c-0.066-0.015-0.133-0.021-0.192-0.058
							c0.045-0.049,0.089-0.107,0.124-0.168c-0.041,0.065-0.098,0.128-0.135,0.165C11.596,11.606,11.648,11.636,11.693,11.636z"/>
						<path d="M12.183,11.442c-0.086-0.066-0.166-0.14-0.261-0.192c0.095,0.055,0.173,0.13,0.256,0.2
							c0.022,0.008,0.078,0.032,0.089,0.048c0.003,0.004,0.003,0.009,0.001,0.014c-0.006,0.014-0.032,0.029-0.072,0.035
							c0.051-0.003,0.096-0.027,0.078-0.054C12.261,11.473,12.191,11.445,12.183,11.442z"/>
						<path d="M11.094,12.372c0.016,0.022,0.042,0.044,0.068,0.064C11.141,12.415,11.118,12.391,11.094,12.372z"/>
						<path d="M11.975,12.026c-0.031-0.03,0.005-0.103-0.006-0.113l-0.2-0.159c-0.023-0.024-0.082-0.004-0.111-0.014
							c-0.073-0.025-0.161,0.019-0.234,0.024c-0.067,0.003-0.251-0.028-0.309,0.016c-0.023-0.068-0.039-0.138-0.055-0.207
							c-0.004-0.014-0.017-0.027-0.028-0.039c-0.005-0.007-0.011-0.013-0.014-0.017c-0.03-0.064-0.202-0.084-0.266-0.105
							c0.001-0.006,0.003-0.02,0.005-0.043c0.023-0.009,0.065-0.083,0.092-0.147c0.139-0.037,0.272-0.138,0.377-0.232
							c0.03,0.031,0.06,0.063,0.082,0.102c0.028,0.05,0.014,0.09,0.027,0.139c0.016,0.056,0.081,0.112,0.125,0.147
							c0.142-0.006,0.154-0.168,0.274-0.185c0.042,0,0.083,0.011,0.122,0.026c-0.072-0.03-0.149-0.053-0.208,0.015
							c-0.054,0.062-0.095,0.126-0.183,0.137c-0.037-0.044-0.103-0.08-0.122-0.137c-0.012-0.036,0.002-0.074-0.014-0.113
							c-0.021-0.053-0.059-0.096-0.099-0.136c0.059-0.054,0.111-0.108,0.147-0.148c0.024,0.013,0.045,0.03,0.061,0.005
							c0.001-0.002,0.002-0.005,0.004-0.007c0.018-0.035-0.017-0.022-0.035-0.033c0.011-0.012,0.018-0.021,0.021-0.024
							c0.008,0.004,0.018,0.004,0.028,0.002c-0.009,0-0.019-0.003-0.028-0.012c-0.002-0.003-0.003-0.006-0.002-0.011
							c0.002-0.025,0.001-0.035-0.026-0.021l-0.007,0.003c-0.021,0.011-0.016,0.036-0.007,0.052
							c-0.007,0.008-0.015,0.018-0.024,0.028c-0.022-0.015-0.05-0.042-0.079-0.033c-0.028,0.009-0.037,0.037-0.062,0.049
							c-0.023,0.011-0.079-0.005-0.093,0.022c-0.021,0.035,0.061,0.099,0.079,0.118c-0.098,0.088-0.22,0.178-0.347,0.218
							c0.047-0.13,0.043-0.273,0.094-0.402c-0.058,0.129-0.055,0.273-0.105,0.405c-0.033,0.01-0.058,0.01-0.073,0
							c0.002-0.079-0.023-0.153-0.053-0.225c0.009-0.086,0.051-0.134,0.126-0.222l0.009-0.011c0.073-0.087,0.119-0.205,0.203-0.28
							c-0.003,0.023-0.006,0.078,0.007,0.112c0.022,0.048,0.194,0.04,0.237,0.043c0.04,0.003,0.08,0.005,0.119,0.015
							c0.057,0.015,0.125,0.1,0.055,0.146c0.072-0.027,0.037-0.064,0.016-0.117c-0.022-0.05-0.112-0.05-0.157-0.053
							c-0.089-0.006-0.174-0.028-0.263-0.039c-0.015-0.043-0.005-0.117-0.005-0.117c-0.024-0.019-0.104,0.123-0.115,0.138
							c0.064-0.295-0.394-0.401-0.472-0.108c-0.022,0-0.045,0.01-0.066,0.014c-0.066,0.017-0.13-0.065-0.192,0.005
							c-0.054,0.066-0.148,0.014-0.188,0.098c0.018,0.025,0.106-0.029,0.116-0.006c0,0.011-0.037,0.028-0.038,0.029
							c-0.099-0.014-0.238-0.101-0.334-0.038c-0.042,0.027-0.067,0.071-0.114,0.092c-0.018,0.008-0.092,0.03-0.094,0.054
							c0,0.017,0.035,0.022,0.057,0.031c-0.009-0.008-0.022-0.017-0.042-0.028c-0.002-0.001-0.004-0.002-0.005-0.003
							c0.035-0.024,0.078-0.035,0.113-0.059c0.041-0.026,0.065-0.074,0.113-0.091c0.095-0.031,0.199,0.035,0.292,0.049l0.016,0.002
							c0.127,0.018,0.254,0.049,0.376,0.087c-0.028,0.017-0.059,0.016-0.088,0.029c-0.074,0.032-0.158-0.017-0.216,0.057
							c-0.054,0.068-0.15,0.107-0.184,0.19l-0.003,0.006c-0.018,0.038-0.074,0.06-0.1,0.094c-0.036,0.049-0.054,0.106-0.065,0.164
							c-0.039,0.024-0.049,0.066-0.082,0.096c-0.035,0.032-0.081,0.048-0.124,0.066c-0.099,0.043-0.18,0.023-0.283,0.039
							c0.022-0.024,0.067-0.042,0.075-0.077c0.015-0.062-0.097-0.051-0.123-0.029c0.032-0.056,0.088-0.11,0.092-0.178
							c0.003-0.058-0.064-0.019-0.085-0.002l0.016-0.049c0.019-0.062,0.245-0.16,0.188-0.22c-0.022-0.02-0.064-0.01-0.089-0.003
							l0.006-0.022c0.006-0.023,0.039-0.035,0.077-0.045c-0.042,0.008-0.079,0.02-0.086,0.043l-0.008,0.028
							c0.032,0.006,0.147-0.009,0.087,0.053c-0.057,0.059-0.156,0.077-0.183,0.162L9.3,11.178c0.021-0.009,0.059-0.047,0.08-0.033
							c0.044,0.038-0.078,0.188-0.1,0.227c-0.002,0.002-0.001,0.005,0.001,0.006c0.002,0.001,0.004,0.001,0.006-0.001
							c0.026-0.018,0.112-0.085,0.129-0.01c0.008,0.037-0.061,0.067-0.08,0.09c0.072-0.031,0.159,0.027,0.242-0.008
							c0.051-0.022,0.103-0.043,0.152-0.069c0.049-0.027,0.062-0.086,0.107-0.116c-0.006,0.03-0.009,0.061-0.017,0.092
							c-0.001,0.006-0.003,0.011-0.006,0.016c-0.018-0.011-0.035-0.009-0.05,0.006c-0.012,0.017-0.011,0.028,0.012,0.052
							c-0.002,0.004-0.003,0.007-0.005,0.011c-0.026,0.065,0.116,0.131,0.161,0.127c0.042,0.036,0.076,0.066,0.077,0.066l0.08,0.072
							c-0.093,0.041-0.197,0.141-0.19,0.252c-0.13,0.009-0.207-0.116-0.328-0.134c-0.11-0.015-0.119,0.131-0.12,0.206
							c0,0.067,0.069,0.21,0.019,0.259c-0.05,0.048-0.181,0.123-0.083,0.193c0.003,0.001,0.026-0.07,0.028-0.067
							c0.09,0.092-0.048,0.236,0.104,0.307c-0.008-0.017-0.014-0.033-0.018-0.05c0.002,0.017,0.004,0.031,0.008,0.037
							c-0.077-0.033-0.064-0.126-0.065-0.193c0-0.025,0.002-0.092-0.024-0.108c-0.021-0.013-0.035,0.052-0.035,0.062
							c-0.071-0.064,0.037-0.133,0.083-0.17c0.038-0.031,0.038-0.057,0.019-0.102c-0.026-0.058-0.027-0.127-0.025-0.19
							c0.002-0.066,0.014-0.186,0.108-0.176c0.123,0.015,0.204,0.133,0.336,0.133c0.003,0,0.004-0.002,0.003-0.005
							c0-0.114,0.09-0.202,0.188-0.249l0.119,0.105c0.001,0.002,0.217,0.075,0.217,0.075c0.005-0.006-0.103-0.187-0.103-0.187
							c-0.003-0.003-0.038-0.024-0.089-0.057c0.068-0.024,0.137-0.042,0.204-0.066c-0.004-0.002-0.007-0.004-0.011-0.006
							c-0.066,0.025-0.136,0.042-0.203,0.066c-0.07-0.044-0.166-0.104-0.239-0.15c0.011-0.052-0.009-0.073-0.057-0.09
							c-0.008-0.005-0.012-0.011-0.015-0.017c0.009,0.052,0.078,0.031,0.065,0.102c-0.006,0.026-0.015,0.065-0.049,0.07
							c-0.004,0.001-0.009,0.001-0.014,0c-0.005-0.001-0.01-0.002-0.016-0.004c-0.044-0.017-0.157-0.059-0.118-0.126
							c0.006-0.014,0.014-0.023,0.021-0.03c0.003-0.005,0.007-0.01,0.011-0.015c0.002-0.003,0.003-0.005,0.004-0.008
							c0.021-0.038,0.016-0.089,0.028-0.13c0.012-0.058,0.031-0.116,0.069-0.163c0.026-0.031,0.076-0.046,0.093-0.085l0.003-0.006
							c0.031-0.077,0.123-0.104,0.169-0.17c0.061-0.086,0.147-0.033,0.227-0.073c0.007-0.003,0.016-0.005,0.026-0.007
							c0.015-0.004,0.033-0.008,0.051-0.017c0.017-0.008,0.032-0.02,0.043-0.033c0.036-0.047,0.021-0.094,0.038-0.146
							c0.097-0.005,0.175,0.064,0.271,0.048c0.002-0.001,0.005-0.001,0.007-0.001c-0.007,0.021-0.02,0.051-0.041,0.063
							c-0.019,0.015,0.006,0.057-0.001,0.079c-0.002-0.001-0.007-0.003-0.01-0.004c-0.035-0.015-0.036,0.015-0.047,0.04
							c-0.002,0.003-0.003,0.006-0.005,0.009c-0.015,0.029-0.036,0.009-0.055-0.001c-0.012-0.008-0.021-0.008-0.029,0.002
							c-0.038,0.059,0.032,0.135,0.055,0.189c0.003,0.006,0.005,0.011,0.007,0.018c0.066,0.153,0.02,0.27,0.02,0.427
							c0.096,0.043,0.271,0.048,0.308,0.162c0.012,0.07,0.032,0.148,0.058,0.214c0.051,0.148,0.13,0.237,0.266,0.314
							c0.079,0.041,0.089,0.082-0.012,0.054c-0.042-0.014-0.078-0.038-0.122-0.021c-0.029,0.01-0.054,0.023-0.068-0.015
							c-0.038-0.093-0.101-0.137-0.164-0.214c-0.002-0.002-0.004-0.005-0.005-0.007c-0.093-0.11-0.023-0.246-0.189-0.279
							c-0.113-0.023-0.25,0-0.357-0.045c-0.004,0.001-0.008,0.003-0.012,0.005c0.1,0.046,0.237,0.026,0.344,0.044
							c0.041,0.007,0.102,0.016,0.127,0.054c0.044,0.065,0.022,0.159,0.08,0.228c-0.111,0.103-0.263,0.146-0.403,0.188
							c-0.014,0.004-0.035,0.136-0.039,0.157c-0.001,0.073-0.075,0.199-0.124,0.247c-0.001,0.002,0,0.005,0.001,0.006
							c0.062,0.044,0.123,0.086,0.195,0.113c0.003,0.002,0.007,0.003,0.011,0.004c0.035,0.014,0.07,0.026,0.106,0.037
							c0.002,0.001,0.005,0.002,0.007,0.003c0.042,0.014,0.159,0.094,0.135,0.148c-0.039,0.092-0.219-0.02-0.219-0.095
							c-0.009-0.011-0.029-0.015-0.041-0.02c-0.096-0.054-0.184-0.11-0.299-0.105c-0.067,0-0.038-0.062-0.023-0.1
							c0.024-0.062,0.017-0.133,0.001-0.196c-0.143-0.027-0.319-0.099-0.374-0.242c-0.017-0.032-0.149-0.027-0.187-0.044
							c-0.026-0.011-0.215-0.075-0.176,0.023c0.021,0.053,0.29,0.234,0.098,0.227H9.657c-0.101,0-0.014,0.239-0.021,0.291
							c-0.017-0.013-0.04-0.07-0.066-0.065c-0.013,0.002-0.009,0.092-0.027,0.074c-0.021-0.021-0.033,0.008-0.038,0.046
							c0.007-0.019,0.022-0.051,0.031-0.04c0.033,0.032,0.035-0.059,0.037-0.073c0.014,0,0.054,0.083,0.069,0.065
							c0.017-0.022,0-0.07-0.004-0.093c-0.008-0.038-0.059-0.196,0.019-0.196h0.009c0.04,0.004,0.12-0.031,0.078-0.08
							c-0.046-0.054-0.146-0.086-0.169-0.156c-0.028-0.084,0.326,0.027,0.35,0.028c0.069,0.142,0.224,0.218,0.373,0.241
							c0.013,0.062,0.022,0.126-0.001,0.188c-0.017,0.046-0.045,0.112,0.031,0.112c0.091-0.005,0.154,0.035,0.231,0.074
							c-0.011,0.016-0.017,0.033-0.014,0.052c-0.092,0.036-0.199,0.009-0.289,0.055c-0.1,0.051-0.169,0.066-0.283,0.068
							c-0.033,0.001-0.269-0.001-0.268,0.046c0.003,0.085,0.128-0.012,0.151,0.051c0.009,0.021-0.029,0.031-0.021,0.052
							c0.024,0.075,0.228,0.055,0.285,0.054c0.151-0.003,0.303-0.006,0.455-0.007c0.226-0.001,0.452-0.011,0.678-0.007
							c0.099,0.001,0.199-0.002,0.297,0.003c0.075,0.004,0.17,0.025,0.189-0.064c0.001-0.007,0.006-0.01,0.01-0.015
							c-0.011,0.009-0.019,0.02-0.022,0.032c-0.008,0.076-0.263,0.042-0.311,0.039c-0.226-0.015-0.456-0.003-0.683-0.001
							c-0.184,0.001-0.369,0.004-0.553,0.01c-0.06,0.002-0.31,0.032-0.337-0.047c-0.01-0.034,0.054-0.058-0.009-0.075
							c-0.017-0.005-0.105,0.019-0.111-0.003c-0.003-0.008-0.006-0.016-0.009-0.023c0.058-0.057,0.266-0.034,0.338-0.038
							c0.087-0.005,0.139-0.039,0.217-0.07c0.088-0.035,0.189-0.015,0.278-0.05c0.018,0.057,0.115,0.09,0.119,0.091
							c0.03,0.019,0.046,0.047,0.007,0.064l-0.055-0.027c-0.005,0.002-0.102,0.128-0.102,0.128c0.004,0.007,0.211-0.013,0.211-0.013
							c0.003-0.001,0.004-0.003,0.003-0.006l-0.03-0.059c0.11-0.105-0.167-0.145-0.073-0.207c0.015,0.007,0.027,0.011,0.032,0.014
							c0.015,0.08,0.158,0.188,0.23,0.102c0.043-0.052-0.069-0.135-0.106-0.154c-0.003-0.001-0.005-0.002-0.008-0.004
							c0.005,0.001,0.009,0.002,0.013,0.004c0.051,0.024,0.102,0.05,0.152,0.074c-0.002,0.025-0.049,0.106-0.048,0.138
							c-0.002-0.024,0.054-0.104,0.056-0.134c0.001-0.003,0.001-0.006,0.001-0.01c0.003-0.025,0.013-0.056,0.021-0.066
							c0.002-0.002,0.001-0.005,0-0.006c-0.003-0.002-0.005-0.001-0.006,0c-0.008,0.012-0.019,0.042-0.022,0.068
							c-0.044-0.021-0.087-0.043-0.131-0.064c-0.007-0.004-0.014-0.007-0.019-0.009c-0.01-0.001-0.019-0.001-0.028-0.001
							c-0.036-0.018-0.077-0.027-0.115-0.041c0.074-0.034,0.158-0.023,0.234-0.047c0.072-0.022,0.137-0.067,0.213-0.075
							c0.001,0.011,0.001,0.023,0,0.034c-0.002,0.081,0.254,0.049,0.143-0.024l-0.012-0.012c0.052,0.005,0.1,0.024,0.147,0.046
							c0.003,0.002,0.005,0.003,0.008,0.004c0.044,0.022,0.08,0.041,0.08,0.041c-0.012-0.052-0.049-0.102-0.097-0.12
							c-0.031-0.011-0.064-0.019-0.097-0.01c0.021-0.055-0.06-0.046-0.09-0.037c0.021-0.048-0.016-0.064-0.059-0.064
							c-0.001-0.005,0.003-0.013,0.002-0.021c0-0.054-0.085-0.067-0.124-0.061c-0.007-0.087-0.099-0.116-0.172-0.118
							c0.166-0.057,0.335-0.001,0.476,0.091c0.002,0.002,0.003,0.003,0.005,0.004c0.066,0.04,0.141,0.094,0.191,0.153
							c0.033,0.031,0.051,0.052,0.051,0.053c0.008-0.003,0.011-0.017,0.043-0.033c-0.048-0.047-0.079-0.131-0.043-0.194
							c0.049-0.088,0.146-0.005,0.195,0.033c0.072,0.056,0.169-0.004,0.085-0.057c-0.02-0.013-0.17-0.068-0.156-0.101
							c0.009,0.015,0.023,0.022,0.04,0.021c0.036,0,0.071,0.011,0.107,0.016c0.031,0.021,0.041-0.035,0.032-0.054
							c-0.025-0.051-0.103-0.031-0.131-0.079c-0.011-0.021-0.032-0.002-0.035,0.012l-0.003,0.01
							c-0.018-0.022,0.015-0.042,0.015-0.062c-0.008-0.032,0.007-0.045,0.025-0.064c0.02-0.024,0.045,0.026,0.062,0.042
							c0.013,0.012,0.022,0.019,0.03,0.025c-0.012-0.013-0.022-0.029-0.034-0.039c-0.015-0.011-0.025-0.043-0.046-0.045
							c-0.03-0.002-0.058,0.056-0.047,0.079c-0.012,0.021-0.035,0.058-0.006,0.076c0.007-0.003,0.011-0.02,0.011-0.02
							c0.003-0.012,0.17,0.04,0.149,0.106c-0.003,0.01-0.01,0.012-0.019,0.006c-0.038-0.007-0.075-0.017-0.111-0.017
							c-0.024-0.001-0.026-0.024-0.038-0.026c-0.052,0.033,0.073,0.082,0.092,0.091c0.017,0.008,0.04,0.014,0.054,0.025
							c0.029,0.024,0.044,0.095-0.017,0.08c-0.074-0.018-0.114-0.104-0.195-0.111c-0.15-0.015-0.07,0.186-0.026,0.243
							c-0.019,0.011-0.028,0.021-0.032,0.027c-0.008-0.009-0.026-0.028-0.054-0.055c-0.008-0.267,0.168-0.474,0.169-0.476
							c-0.006,0.002-0.012,0.006-0.018,0.009c-0.038,0.051-0.163,0.232-0.16,0.459c-0.043-0.04-0.104-0.093-0.178-0.141
							c-0.002-0.001-0.003-0.002-0.005-0.003c-0.001-0.002-0.003-0.003-0.005-0.004c0.007-0.01,0.029-0.034,0.058-0.066
							c0.018,0.006,0.11,0.037,0.105-0.008c-0.005-0.024-0.007-0.029-0.033-0.039c-0.006-0.002-0.012-0.005-0.02-0.008
							c0.07-0.07,0.16-0.152,0.238-0.19c-0.084,0.034-0.176,0.115-0.246,0.187c-0.145-0.064-0.23-0.173-0.283-0.318
							c0.107,0,0.217-0.01,0.325-0.017c0.039-0.003,0.166-0.057,0.197-0.031c0.023,0.021,0.113,0.021,0.126,0.021l0.196,0.157
							c-0.005,0.011-0.021,0.049-0.01,0.084c-0.008-0.009-0.018-0.017-0.027-0.023c-0.027-0.018-0.048-0.004-0.075-0.002
							c0.092,0.008,0.126,0.048,0.146,0.14c0.005,0.043,0.08,0.03,0.107,0.015c-0.003,0.008-0.007,0.017-0.015,0.023
							c-0.007,0.004-0.006,0.01-0.006,0.012c0.005,0.019,0.039,0.021,0.054,0.02c0.009-0.002,0.016-0.003,0.021-0.005
							c-0.015,0.025-0.043,0.033-0.07,0.034c-0.027,0.02,0.016,0.051,0.028,0.058c-0.035,0.004-0.068-0.009-0.095-0.031
							l-0.021-0.016c-0.028,0.062-0.106,0.154-0.185,0.125c-0.03-0.011-0.139-0.104-0.169-0.072
							c-0.048,0.054,0.035,0.131,0.064,0.172c0.008,0.011,0.043,0.103,0.051,0.106c0.039,0.021,0.154-0.051,0.157-0.094
							c0.003-0.036,0.005-0.164,0.061-0.164c0.022,0.001,0.035,0.005,0.043,0.008c-0.025,0-0.043,0.036-0.026,0.032
							c0.029-0.017,0.056-0.009,0.075,0.017c-0.003-0.001-0.044-0.017-0.049,0.002l-0.003,0.015c0.038-0.001,0.05,0.014,0.053,0.045
							c-0.08-0.064-0.039,0.016-0.063,0.048c-0.003,0.004-0.006,0.009-0.008,0.013c-0.009,0.014-0.014,0.023-0.034,0.027
							l-0.007,0.001c-0.061,0.013-0.141,0.112-0.174,0.163c-0.027,0.018,0.074,0.072,0.09,0.075
							c0.062,0.012,0.101-0.111,0.159-0.052c-0.01-0.002-0.03-0.003-0.033,0.012c0,0.006,0.007,0.012,0.013,0.014
							c0.002,0.001,0.004,0.001,0.007,0.002c0.016,0.002,0.023,0.015,0.027,0.029c-0.006-0.006-0.025-0.024-0.036-0.017
							c-0.022,0.018,0.014,0.032,0.017,0.053c0.005,0.002,0.009,0.004,0.009,0.009c0-0.001,0.003-0.03-0.017-0.04
							c-0.011-0.004-0.012-0.009-0.004-0.015c0.005,0,0.019,0.011,0.03,0.021c0.023-0.017-0.009-0.047-0.026-0.05
							c-0.005,0-0.021-0.006-0.007-0.011c0.01-0.001,0.02,0.001,0.029,0.006c0.005-0.007-0.005-0.03-0.043-0.041
							c-0.042-0.01-0.051,0.046-0.079,0.062c-0.049,0.027-0.11-0.007-0.129-0.055c0.043-0.047,0.102-0.145,0.168-0.158l0.007-0.001
							c0.079-0.017,0.022-0.159,0.104-0.084c0.008-0.042-0.003-0.062-0.045-0.062l0.001-0.008c0.003-0.008,0.048,0.005,0.048,0.009
							c0.031-0.027-0.061-0.048-0.083-0.039c-0.003-0.018,0.031-0.016,0.042-0.013c0.003-0.009-0.008-0.023-0.056-0.026
							c-0.008,0-0.015,0.003-0.021,0.007c0.018-0.024,0.033-0.051,0.038-0.062l0.018,0.014c0.016,0.027,0.087,0.044,0.115,0.03
							c-0.012-0.013-0.054-0.037-0.041-0.056c0.036-0.004,0.064-0.016,0.081-0.048c-0.02-0.006-0.073,0.015-0.079-0.013
							c0.007,0.005,0.022-0.04,0.024-0.044c-0.005-0.005-0.007-0.004-0.008-0.003c0,0.021-0.098,0.032-0.103-0.002
							c-0.002-0.025-0.011-0.052-0.023-0.074c0.044,0.031,0.103,0.025,0.154,0.025c-0.005-0.009-0.011-0.019-0.016-0.028
							c0.003,0.007,0.006,0.015,0.009,0.019C12.078,12.06,12.012,12.063,11.975,12.026z M11.417,10.812c0.01,0,0.022,0,0.024,0.004
							c0.013,0.036-0.044,0.021-0.056,0.013c0.007-0.008,0.013-0.015,0.019-0.022C11.409,10.81,11.413,10.812,11.417,10.812z
							 M11.404,10.794c-0.002-0.001-0.003-0.003-0.004-0.005c0.009-0.01,0.016-0.019,0.021-0.023c0,0.002,0.001,0.004,0.003,0.005
							C11.42,10.774,11.413,10.783,11.404,10.794z M11.399,10.744l0.007-0.003c0.006-0.003,0.011-0.006,0.014-0.007
							c0,0.003-0.001,0.01-0.001,0.018c-0.002,0.002-0.011,0.013-0.025,0.029C11.389,10.77,11.384,10.752,11.399,10.744z
							 M11.394,10.796c0.001,0.002,0.003,0.004,0.004,0.005c-0.006,0.007-0.013,0.015-0.021,0.023
							c-0.002-0.001-0.004-0.003-0.005-0.004C11.38,10.812,11.387,10.804,11.394,10.796z M11.366,10.827
							c0.002,0.001,0.004,0.003,0.006,0.004c-0.036,0.04-0.087,0.094-0.145,0.146c-0.002-0.002-0.003-0.004-0.005-0.005
							C11.278,10.922,11.329,10.868,11.366,10.827z M11.205,10.956c-0.019-0.02-0.101-0.088-0.04-0.106
							c0.041-0.011,0.073-0.004,0.102-0.041c0.028-0.038,0.062-0.003,0.09,0.013c-0.037,0.041-0.087,0.094-0.143,0.144
							C11.212,10.963,11.209,10.959,11.205,10.956z M10.859,11.2c0.131-0.039,0.257-0.133,0.356-0.223
							c0.002,0.002,0.003,0.004,0.005,0.005c-0.102,0.094-0.231,0.189-0.366,0.229C10.855,11.208,10.857,11.204,10.859,11.2z
							 M9.991,11.5c0.11,0.07,0.221,0.14,0.332,0.209l0.102,0.17l-0.203-0.07l-0.116-0.104l-0.007-0.006l-0.083-0.074
							c-0.001,0-0.032-0.027-0.071-0.061C9.972,11.557,9.985,11.524,9.991,11.5z M9.782,11.42c-0.02-0.021-0.017-0.028-0.009-0.038
							c0.012-0.012,0.025-0.013,0.039-0.004C9.801,11.392,9.791,11.405,9.782,11.42z M10.507,10.703
							c-0.01-0.003-0.066-0.019-0.151-0.041c0.046-0.015,0.085-0.056,0.128-0.079c0.007,0.037,0.023,0.071,0.045,0.1
							C10.521,10.691,10.514,10.697,10.507,10.703z M10.533,10.676c-0.021-0.028-0.036-0.061-0.042-0.097
							c0.029-0.016,0.056-0.026,0.069-0.031C10.547,10.594,10.559,10.634,10.533,10.676z M10.563,10.537
							c-0.008,0.003-0.038,0.015-0.074,0.033c-0.002,0.001-0.005,0.003-0.008,0.005c-0.048,0.024-0.09,0.072-0.144,0.082
							c-0.08-0.019-0.144-0.032-0.203-0.041c0.008-0.005,0.037-0.021,0.031-0.034c-0.006-0.022-0.097,0.005-0.112,0.006
							c0.043-0.065,0.12-0.028,0.172-0.08c0.076-0.074,0.117,0.011,0.198-0.011c0.02-0.005,0.041-0.012,0.062-0.014
							c0.016,0,0.03,0.006,0.045,0.012l0.045,0.017C10.57,10.52,10.566,10.527,10.563,10.537z M10.574,10.535
							c0.052-0.151,0.312-0.106,0.277,0.046C10.753,10.598,10.672,10.535,10.574,10.535z M10.775,10.731
							c0.004,0.002,0.033,0.015,0.038,0.008c0.021-0.029-0.018-0.061,0.011-0.087c0.148-0.148-0.147-0.315-0.24-0.16
							c-0.001,0.001-0.002,0.004-0.003,0.006c-0.001,0.001-0.002,0.003-0.003,0.005l-0.045-0.017
							c-0.017-0.006-0.027-0.01-0.037-0.011c0.08-0.296,0.537-0.16,0.448,0.131c-0.022,0.036-0.051,0.076-0.09,0.122
							c-0.028,0.02-0.06,0.033-0.094,0.039C10.762,10.754,10.767,10.742,10.775,10.731z M10.718,10.951
							c-0.019-0.044-0.065-0.087-0.061-0.138c0.006-0.07,0.057,0.013,0.087-0.02c0.004-0.003,0.008-0.01,0.012-0.018
							c0.028-0.003,0.055-0.013,0.08-0.025C10.769,10.829,10.73,10.877,10.718,10.951z M10.778,11.202
							c0.023,0.009,0.046,0.009,0.07,0c-0.001,0.004-0.003,0.008-0.005,0.012c-0.029,0.008-0.052,0.007-0.066-0.001
							C10.778,11.209,10.778,11.206,10.778,11.202z M10.776,11.223c0.021,0.007,0.042,0.007,0.062,0.001
							c-0.025,0.059-0.062,0.123-0.08,0.136C10.764,11.314,10.773,11.269,10.776,11.223z M10.609,12.708
							c-0.083,0.065,0.21,0.118,0.083,0.199c-0.001,0.005,0.027,0.061,0.027,0.061l-0.19,0.018l0.088-0.115l0.053,0.026
							c0.054-0.016,0.033-0.061-0.002-0.081c-0.001-0.001-0.098-0.033-0.114-0.086c-0.003-0.024,0.001-0.04,0.012-0.054
							c0.017,0.009,0.034,0.018,0.052,0.024C10.615,12.703,10.612,12.705,10.609,12.708z M10.881,12.562
							c-0.081,0.025-0.165,0.013-0.243,0.051c-0.071-0.026-0.138-0.065-0.197-0.112c0.049-0.07,0.097-0.15,0.119-0.233
							c0.025,0.052,0.036,0.1,0.033,0.157c-0.007,0.074,0.132,0.033,0.18,0.028c0.087-0.01,0.177-0.016,0.262-0.036
							c0.033,0.015,0.057,0.032,0.061,0.069C11.013,12.494,10.957,12.537,10.881,12.562z M11.391,12.488
							c0.032,0.024,0.053,0.062,0.063,0.081c-0.014-0.008-0.04-0.021-0.069-0.035C11.391,12.52,11.395,12.502,11.391,12.488z
							 M11.29,12.226c-0.142-0.09-0.33-0.149-0.492-0.074c-0.002,0.001-0.003,0.003,0.002,0.009
							c0.046-0.004,0.098,0.002,0.137,0.028c0.034,0.021,0.028,0.061,0.053,0.089c0.043-0.008,0.155,0.02,0.11,0.075
							c0.038,0.009,0.105,0.018,0.064,0.068c0.032-0.011,0.122-0.014,0.091,0.038c0.043-0.007,0.087,0,0.121,0.02
							c0.013,0.013,0.008,0.033,0.001,0.052c-0.05-0.024-0.102-0.044-0.159-0.047c-0.014-0.015-0.035-0.03-0.056-0.047
							c0.017,0.019,0.032,0.034,0.042,0.046l0.009,0.009c0.012,0.012,0.019,0.019,0.019,0.019c0.013,0.009,0.031,0.025,0.028,0.036
							c-0.005,0.028-0.163,0.029-0.156-0.018c0-0.01,0.001-0.023-0.001-0.036c0-0.002,0-0.006-0.001-0.008
							c-0.004-0.03-0.033-0.078-0.07-0.078c-0.024,0.036-0.434,0.032-0.432,0.05c-0.002-0.014-0.002-0.021-0.001-0.032
							c0.006-0.061-0.008-0.118-0.039-0.171c0.002-0.009,0.021-0.082,0.036-0.152c0.015-0.005,0.1-0.032,0.126-0.04
							c0.054,0.097-0.002,0.203-0.002,0.304c0.117,0.015,0.273-0.072,0.372,0.007c-0.003-0.005-0.008-0.009-0.01-0.014
							c-0.027-0.048-0.092-0.027-0.133-0.016c-0.071,0.019-0.146,0.026-0.219,0.019c0.013-0.096,0.05-0.213,0.002-0.303
							c0.09-0.023,0.201-0.082,0.268-0.146c0.056,0.067,0.142,0.115,0.165,0.203c0.003,0.015,0.006,0.026,0.013,0.032
							c0.018,0.021,0.06-0.006,0.078-0.013c0.027-0.013,0.064,0.019,0.089,0.025C11.317,12.193,11.297,12.218,11.29,12.226z
							 M11.907,12.463c-0.004,0.04-0.108,0.088-0.143,0.088c-0.011-0.073-0.173-0.2-0.115-0.266c0.02-0.024,0.099,0.048,0.114,0.059
							c0.052,0.04,0.119,0.026,0.167-0.016c0.004-0.004,0.008-0.008,0.012-0.012C11.917,12.36,11.911,12.415,11.907,12.463z"/>
						<path d="M11.868,12.792c-0.055-0.006-0.113-0.066-0.161-0.066c-0.055,0.034-0.129,0.053-0.188,0.067
							c-0.004,0.001-0.007,0.002-0.01,0.003c-0.082,0.019-0.176,0.043-0.262,0.032c-0.001-0.007-0.002-0.014-0.003-0.021
							c0.005,0,0.013,0.008,0.018,0.013c0.045-0.027-0.017-0.05-0.04-0.058c-0.056-0.017-0.104,0.007-0.155,0.026
							c-0.009-0.003-0.015-0.006-0.023-0.01c0.039-0.047,0.093-0.077,0.075-0.122c-0.007,0.04-0.078,0.111-0.083,0.118
							c-0.001,0.003-0.003,0.005-0.005,0.007c-0.015,0.019-0.025,0.032-0.026,0.033l-0.01,0.014l0.015-0.007
							c0.001,0,0.026-0.012,0.058-0.023c0.058-0.02,0.1-0.034,0.161-0.028c0.022,0.003,0.042,0.013,0.037,0.04
							c-0.027-0.027-0.026-0.004-0.026,0.017c0.001,0.005,0.002,0.011,0.002,0.016v0.009c-0.022-0.023-0.045-0.023-0.045,0.012
							c-0.001,0.009-0.006,0.013-0.01,0.015c-0.001-0.011-0.002-0.034-0.01-0.052c-0.002-0.004-0.004-0.007-0.006-0.01
							c-0.016-0.021-0.055-0.019-0.076-0.009c-0.006,0.002-0.012,0.005-0.018,0.009c-0.064,0.034-0.092,0.057-0.167,0.066
							c-0.008,0.001-0.011,0.001-0.013,0.001c0.023,0.055,0.217-0.084,0.26-0.068c0.004,0.001,0.007,0.004,0.009,0.009
							c0.01,0.015,0.013,0.046,0.013,0.059c0.012,0.004,0.026-0.001,0.027-0.019c0-0.003,0-0.005,0-0.008
							c0.001-0.029,0.03,0.002,0.038,0.011l0.008,0.01l-0.002-0.033c0-0.002,0-0.004-0.001-0.006
							c0.088,0.008,0.183-0.014,0.268-0.034c0.052,0.051,0.1,0.064,0.17,0.07c0.02,0.001,0.134,0.006,0.128,0.042
							c0,0.01-0.025,0.019-0.048,0.032c0.023-0.008,0.054-0.008,0.057-0.031c0-0.005-0.001-0.01-0.005-0.015
							c-0.063-0.076-0.212-0.022-0.292-0.101c0.061-0.016,0.123-0.037,0.179-0.066c0.056,0.03,0.114,0.067,0.18,0.068
							c0.046,0.001,0.089-0.024,0.136-0.019c-0.009-0.005-0.019-0.009-0.029-0.009C11.95,12.769,11.914,12.798,11.868,12.792z
							 M11.021,12.808c0.004-0.006,0.01-0.013,0.017-0.021c0.006,0.003,0.012,0.006,0.016,0.008
							C11.04,12.799,11.029,12.804,11.021,12.808z"/>
						<path d="M12.029,12.786c-0.003-0.001-0.005-0.002-0.009-0.003C12.023,12.785,12.026,12.784,12.029,12.786z"/>
						<path d="M9.51,10.827c0.041-0.009,0.084-0.016,0.113-0.029C9.595,10.809,9.55,10.816,9.51,10.827z"/>
						<path d="M11.481,10.772c-0.008,0.003-0.015,0.005-0.023,0.006C11.467,10.777,11.474,10.775,11.481,10.772z"/>
						<path d="M12.064,11.915c0.01,0.035,0.031,0.083,0.053,0.123C12.101,12.002,12.084,11.952,12.064,11.915z"/>
						<path d="M9.648,10.772c-0.002,0.012-0.011,0.021-0.025,0.026C9.64,10.791,9.651,10.783,9.648,10.772z"/>
						<path d="M12.164,11.546c-0.008-0.001-0.016-0.002-0.023-0.005C12.148,11.545,12.156,11.545,12.164,11.546z"/>
						<path d="M11.739,11.312c-0.011,0.033-0.026,0.066-0.044,0.097C11.715,11.376,11.731,11.343,11.739,11.312z"/>
						<path d="M12.173,11.548c-0.003-0.001-0.006-0.001-0.009-0.002C12.167,11.547,12.17,11.547,12.173,11.548z"/>
						<path d="M11.004,10.718c0.001-0.002,0.001-0.004,0-0.006c-0.002-0.002-0.004-0.002-0.006,0
							c-0.007,0.011-0.012,0.021-0.018,0.03C10.987,10.731,10.995,10.723,11.004,10.718z"/>
						<path d="M10.967,10.764c0.004-0.007,0.009-0.014,0.013-0.022C10.975,10.749,10.971,10.756,10.967,10.764z"/>
						<path d="M9.634,10.753c0.008,0.007,0.013,0.013,0.014,0.019c0-0.002,0.003-0.004,0.003-0.006
							C9.65,10.76,9.643,10.756,9.634,10.753z"/>
						<path d="M10.956,10.787c0.002-0.005,0.003-0.009,0.005-0.014C10.96,10.778,10.958,10.782,10.956,10.787z"/>
						<path d="M10.962,10.773c0.002-0.003,0.003-0.006,0.005-0.01C10.965,10.768,10.963,10.771,10.962,10.773z"/>
						<path d="M11.857,11.218c0.023,0.01,0.044,0.021,0.065,0.032C11.901,11.237,11.879,11.227,11.857,11.218z"/>
					</g>
				</g>
				<g>
					<path d="M10.96,13.749h-0.174V13.64c0-0.058-0.09-0.058-0.09,0v0.109h-0.174c-0.058,0-0.058,0.09,0,0.09h0.174v0.12
						c0,0.058,0.09,0.058,0.09,0v-0.12h0.174C11.018,13.839,11.018,13.749,10.96,13.749z"/>
					<path d="M10.014,13.561c-0.103,0-0.103,0.159,0,0.159C10.117,13.72,10.117,13.561,10.014,13.561z"/>
					<path d="M11.469,13.561c-0.102,0-0.104,0.159,0,0.159C11.571,13.72,11.571,13.561,11.469,13.561z"/>
				</g>
			</g>
		</g>
	</g>
</g>
<g id="Layer_1">
</g>
</svg>
