<?xml version="1.0" encoding="iso-8859-1"?>
<!-- Generator: Adobe Illustrator 18.0.0, SVG Export Plug-In . SVG Version: 6.00 Build 0)  -->
<!DOCTYPE svg PUBLIC "-//W3C//DTD SVG 1.1//EN" "http://www.w3.org/Graphics/SVG/1.1/DTD/svg11.dtd">
<svg version="1.1" xmlns="http://www.w3.org/2000/svg" xmlns:xlink="http://www.w3.org/1999/xlink" x="0px" y="0px"
	 viewBox="0 0 38.018 38.017" style="enable-background:new 0 0 38.018 38.017;" xml:space="preserve">
<g id="Layer_258">
	<g id="Layer_259">
		<g>
			<path style="fill:#06594F;" d="M19.009,0C8.511,0,0,8.51,0,19.008h38.018C38.017,8.51,29.507,0,19.009,0z"/>
			<path style="fill:#FFE200;" d="M38.018,19.009C38.018,19.008,0,19.008,0,19.008c0,2.122,0.352,4.241,1.05,6.245
				c0.675,1.943,1.67,3.773,2.931,5.398c1.251,1.611,2.76,3.021,4.454,4.156c1.717,1.151,3.621,2.019,5.617,2.558
				c2.077,0.56,4.249,0.76,6.395,0.6c2.103-0.157,4.176-0.666,6.111-1.505c1.88-0.814,3.625-1.936,5.149-3.305
				c1.519-1.365,2.816-2.973,3.828-4.747c1.03-1.808,1.759-3.784,2.148-5.829C37.907,21.402,38.018,20.205,38.018,19.009z"/>
			<path style="fill:#FFFFFF;" d="M38.018,19.009c0-3.09-0.738-6.007-2.046-8.585H2.045c-1.241,2.447-1.936,5.158-2.033,7.901
				c-0.098,2.775,0.41,5.563,1.498,8.121c0.116,0.272,0.239,0.542,0.367,0.809H36.14C37.343,24.761,38.018,21.964,38.018,19.009z"/>
			<path d="M38.018,19.009c0-2.6-0.522-5.076-1.467-7.332H1.466c-1.093,2.613-1.583,5.462-1.442,8.29
				c0.102,2.066,0.543,4.112,1.305,6.035H36.69C37.546,23.837,38.018,21.478,38.018,19.009z"/>
			<path style="fill:#AD1F37;" d="M7.509,3.873c-1.847,1.405-3.434,3.148-4.658,5.12c-1.248,2.009-2.114,4.248-2.54,6.573
				c-0.44,2.411-0.413,4.909,0.083,7.31c0.478,2.309,1.393,4.524,2.682,6.501c1.191,1.826,2.697,3.445,4.433,4.766l20.033-15.135
				L7.509,3.873z"/>
			<path style="fill:#FFE200;" d="M3.364,26.141l5.227-3.798l5.227,3.798l-1.996-6.144l5.227-3.797h-6.46L8.59,10.055l-1.996,6.145
				H0.207c-0.002,0.016-0.005,0.032-0.007,0.049l5.16,3.748L3.364,26.141z"/>
			<g>
				<g>
					<path style="fill:#FFFFFF;" d="M12.885,20.08c-0.162-0.524-0.327-1.046-0.496-1.567c-0.042-0.131-0.085-0.261-0.127-0.391
						c-0.036-0.108-0.061-0.233-0.121-0.331c-0.114-0.185-0.335-0.36-0.524-0.459c-0.448-0.232-1.002-0.328-1.502-0.34
						c-0.533-0.014-1.065,0.081-1.567,0.258c-0.658-0.232-1.371-0.317-2.063-0.215c-0.332,0.049-0.682,0.133-0.981,0.289
						c-0.252,0.132-0.52,0.352-0.621,0.626c-0.122,0.326-0.21,0.67-0.315,1.002c-0.118,0.367-0.233,0.734-0.348,1.103
						c-0.17,0.549-0.495,1.229-0.247,1.801c0.025,0.058,0.056,0.111,0.091,0.163c0,0,2.243-0.812,3.687-0.137
						c0.224,0.18,0.504,0.336,0.798,0.336c0.296,0,0.576-0.156,0.801-0.336c1.443-0.675,3.685,0.137,3.685,0.137
						c0.176-0.252,0.205-0.575,0.156-0.871C13.13,20.785,12.994,20.429,12.885,20.08z"/>
					<path d="M12.273,18.058c-0.023-0.074-0.05-0.148-0.071-0.222c-0.054-0.126-0.377-0.406-0.379-0.409
						c-0.197-0.17-0.483-0.253-0.73-0.319c-0.281-0.075-0.573-0.132-0.864-0.149c-0.569-0.034-1.144,0.071-1.681,0.259
						c-0.521-0.183-1.081-0.293-1.637-0.264c-0.28,0.014-0.562,0.067-0.834,0.136c-0.269,0.067-0.587,0.152-0.801,0.338
						c-0.003,0.003-0.326,0.283-0.38,0.409c-0.241,0.739-0.479,1.479-0.709,2.223c-0.188,0.602-0.559,1.386-0.149,1.977l0.013,0.02
						l0.022-0.007c0.583-0.228,1.228-0.338,1.85-0.389c0.608-0.051,1.246-0.015,1.807,0.247c0.25,0.177,0.531,0.355,0.851,0.343
						c0.279-0.012,0.583-0.143,0.781-0.341c0.561-0.259,1.195-0.299,1.803-0.25c0.625,0.05,1.272,0.161,1.859,0.39l0.023,0.007
						l0.013-0.02c0.002-0.006,0.005-0.008,0.008-0.013c0.365-0.531,0.09-1.223-0.092-1.768
						C12.732,19.526,12.51,18.789,12.273,18.058z M8.58,17.272c0.521-0.179,1.076-0.283,1.627-0.254
						c0.273,0.015,0.545,0.066,0.81,0.134c0.255,0.064,0.55,0.145,0.758,0.316c0.059,0.217,0.618,3.082,0.694,3.461
						c-0.699-0.063-1.402-0.093-2.104-0.076c-0.611,0.014-1.256,0.076-1.784,0.41V17.272z M5.326,17.465
						c0.387-0.302,0.96-0.393,1.437-0.437c0.593-0.056,1.194,0.054,1.755,0.244v3.99c-0.519-0.327-1.149-0.394-1.749-0.409
						c-0.714-0.019-1.429,0.011-2.14,0.075C4.705,20.548,5.268,17.662,5.326,17.465z M4.025,21.895
						c-0.161-0.321-0.113-0.69-0.019-1.022c0.115-0.403,0.242-0.804,0.366-1.204c0.122-0.391,0.245-0.78,0.371-1.17
						c0.063-0.192,0.114-0.398,0.197-0.584c0.067-0.148,0.184-0.264,0.302-0.373c-0.129,0.564-0.64,3.189-0.683,3.408
						C4.095,21.26,4.027,21.688,4.025,21.895z M6.347,21.581c-1.036,0-2.05,0.323-2.257,0.392c-0.013-0.142-0.016-0.627,0.513-0.976
						c0.693-0.064,1.391-0.097,2.087-0.083c0.611,0.013,1.254,0.072,1.787,0.399c-0.14,0.053-0.485,0.207-0.738,0.53
						C7.36,21.67,6.893,21.581,6.347,21.581z M8.547,22.188c-0.315,0-0.649-0.232-0.753-0.309c0.28-0.361,0.692-0.503,0.756-0.522
						c0.068,0.022,0.473,0.164,0.753,0.521C9.212,21.947,8.871,22.188,8.547,22.188z M13.007,21.976
						c-0.607-0.207-1.247-0.336-1.888-0.383c-0.594-0.042-1.213-0.001-1.761,0.251c-0.253-0.323-0.599-0.477-0.738-0.53
						c0.521-0.32,1.149-0.385,1.748-0.399c0.71-0.017,1.42,0.016,2.126,0.082C13.028,21.349,13.02,21.841,13.007,21.976z
						 M13.073,21.887c-0.005-0.21-0.078-0.632-0.538-0.94c-0.045-0.237-0.551-2.837-0.675-3.403c0.115,0.108,0.247,0.216,0.3,0.37
						c0.067,0.194,0.129,0.392,0.192,0.588c0.126,0.389,0.249,0.779,0.376,1.168c0.126,0.385,0.252,0.771,0.356,1.162
						C13.178,21.181,13.246,21.547,13.073,21.887z"/>
				</g>
				<path d="M9.781,16.163l0.651-0.515l0.369,0.349l1.56-1.359l0.389-0.011l2.803-2.774c-0.536,0.394-1.072,0.788-1.613,1.177
					c-0.269,0.193-0.541,0.386-0.814,0.575c-0.137,0.096-0.273,0.189-0.411,0.283c-0.099,0.067-0.24,0.181-0.368,0.12
					c0.127-0.091,0.142-0.266,0.009-0.359c-0.161-0.113-0.32,0.054-0.383,0.195l-0.46-0.394l-0.062,0.521l-0.753,0.715h-0.563
					l-0.869,0.763l-0.036,0.17c-0.116-0.132-0.174-0.117-0.174-0.117l-0.541,0.48l-1.326-1.506v-0.364L6.19,13.07
					c-0.478-0.184-0.897,0.28-0.869,0.741H4.265l-2.161,2.996l1.181,1.431l2.385-3.02l0.111-0.759l0.546,0.506l0.389-0.053
					l1.314,1.495L7.871,16.55c-0.05,0.142,0.146,0.29,0.263,0.326c0,0,0.071-0.061,0.174-0.149l0.102,0.113L8.205,17.01
					c-0.24,0.104-0.525-0.343-0.488-0.54l-0.672,0.578l-0.116,0.253l-2.57,2.064v0.559l1.517-1.327l0.189-0.01l0.981-0.758
					l-1.001,1.073l-0.169-0.073l-1.383,1.284H4.247l-0.852,0.836H3.024l-1.587,1.382c0.006,0.144,0.171,0.271,0.256,0.373
					c0.138,0.166,0.286,0.321,0.431,0.481c0.104,0.115,0.207,0.271,0.357,0.33c0.133,0.053,0.274-0.202,0.347-0.285
					c0.614-0.705,1.192-1.444,1.783-2.17l0.147-0.336l0.971-0.869c0.058,0.021,0.204,0.015,0.204,0.015l0.036-0.043
					c-0.099-0.01-0.132-0.088-0.132-0.088l0.19-0.157l0.194,0.194l-0.24,0.289L5.655,20.08l-0.538,0.485l0.199,0.232l0.369,1.104
					L6.22,21.43l-0.313-0.971l0.673-0.715l-0.278-0.341l0.151-0.154c0.477,0.28,0.974,0.54,1.482,0.76
					c0.475,0.205,1.017,0.313,1.53,0.221l0.084-1.054c-0.372-0.045-0.744-0.087-1.115-0.135c-0.271-0.034-0.546-0.083-0.8-0.189
					c-0.163-0.067-0.403-0.184-0.427-0.385c-0.032-0.27,0.306-0.401,0.515-0.446l-0.268-0.356l0.104-0.038l0.361,0.394l0.861-0.758
					l5.259,5.994c0.29-0.007,0.475-0.198,0.441-0.491l-5.217-5.928l0.5-0.44L9.781,16.163z M9.214,16.174l-0.311,0.255l-0.101-0.116
					c0.124-0.099,0.259-0.25,0.413-0.299C9.3,15.986,9.231,16.147,9.214,16.174z"/>
			</g>
		</g>
	</g>
</g>
<g id="Layer_1">
</g>
</svg>
