<?xml version="1.0" encoding="iso-8859-1"?>
<!-- Generator: Adobe Illustrator 18.0.0, SVG Export Plug-In . SVG Version: 6.00 Build 0)  -->
<!DOCTYPE svg PUBLIC "-//W3C//DTD SVG 1.1//EN" "http://www.w3.org/Graphics/SVG/1.1/DTD/svg11.dtd">
<svg version="1.1" xmlns="http://www.w3.org/2000/svg" xmlns:xlink="http://www.w3.org/1999/xlink" x="0px" y="0px"
	 viewBox="0 0 38.018 38.018" style="enable-background:new 0 0 38.018 38.018;" xml:space="preserve">
<g id="Layer_304">
	<g id="Layer_308">
		<path style="fill:#FFFFFF;" d="M38.018,19.01c0-2.133-0.357-4.262-1.061-6.274c-0.679-1.942-1.676-3.769-2.939-5.392
			c-1.253-1.61-2.765-3.017-4.46-4.15c-1.719-1.148-3.625-2.014-5.622-2.548c-2.079-0.557-4.251-0.753-6.396-0.589
			c-2.103,0.161-4.174,0.673-6.108,1.515C9.553,2.389,7.811,3.513,6.288,4.884c-1.517,1.367-2.812,2.978-3.82,4.754
			c-1.028,1.81-1.754,3.788-2.139,5.833c-0.399,2.122-0.435,4.313-0.107,6.448c0.317,2.064,0.979,4.072,1.95,5.921
			c0.951,1.81,2.195,3.462,3.669,4.878c1.476,1.417,3.179,2.596,5.027,3.474c1.896,0.899,3.94,1.479,6.027,1.71
			c2.143,0.237,4.327,0.112,6.428-0.376c2.02-0.468,3.958-1.272,5.718-2.368c1.732-1.078,3.289-2.437,4.594-4.006
			c1.312-1.578,2.366-3.369,3.107-5.283c0.766-1.979,1.191-4.083,1.264-6.202C38.014,19.447,38.018,19.228,38.018,19.01z"/>
	</g>
	<g id="Layer_307">
		<g>
			<path style="fill:#BC000A;" d="M19.009,0.001c-2.601,0-5.079,0.523-7.336,1.468h14.673C24.088,0.523,21.609,0.001,19.009,0.001z"
				/>
			<path style="fill:#BC000A;" d="M31.332,4.537H6.686C5.614,5.451,4.645,6.48,3.798,7.608H34.22
				C33.373,6.48,32.404,5.451,31.332,4.537z"/>
			<path style="fill:#BC000A;" d="M36.098,10.678H1.92c-0.479,0.979-0.875,2.005-1.182,3.07h36.54
				C36.973,12.683,36.576,11.656,36.098,10.678z"/>
			<path style="fill:#BC000A;" d="M38.018,19.01c0-0.742-0.045-1.473-0.127-2.192H0.127c-0.117,1.019-0.152,2.045-0.105,3.069
				h37.975C38.01,19.596,38.018,19.304,38.018,19.01z"/>
			<path style="fill:#BC000A;" d="M37.606,22.956H0.412c0.224,1.059,0.534,2.085,0.926,3.07H36.68
				C37.071,25.041,37.382,24.015,37.606,22.956z"/>
			<path style="fill:#BC000A;" d="M35.122,29.096H2.897c0.692,1.104,1.495,2.134,2.393,3.069h27.438
				C33.626,31.229,34.429,30.2,35.122,29.096z"/>
			<path style="fill:#BC000A;" d="M9.103,35.234c2.261,1.384,4.807,2.282,7.435,2.624c2.704,0.352,5.481,0.121,8.086-0.684
				c1.505-0.465,2.949-1.118,4.292-1.94H9.103z"/>
		</g>
	</g>
	<g id="Layer_306">
		<path style="fill:#010068;" d="M29.388,3.083c-2.19-1.43-4.672-2.399-7.253-2.826c-2.339-0.388-4.75-0.336-7.069,0.153
			c-2.032,0.429-3.99,1.195-5.774,2.259c-1.753,1.045-3.335,2.373-4.67,3.918c-1.341,1.552-2.43,3.319-3.207,5.217
			c-0.803,1.957-1.27,4.046-1.385,6.157c-0.092,1.672,0.036,3.355,0.383,4.995h28.976V3.083z"/>
	</g>
	<g id="Layer_305">
		<g>
			<polygon style="fill:#FFCD00;" points="23.621,11.543 25.921,8.824 22.757,10.461 23.65,7.012 21.511,9.86 20.818,6.366 
				20.125,9.86 17.985,7.012 18.879,10.462 15.715,8.824 18.015,11.543 14.453,11.44 17.707,12.893 14.453,14.346 18.015,14.243 
				15.715,16.962 18.879,15.325 17.985,18.774 20.126,15.926 20.818,19.42 21.511,15.925 23.65,18.774 22.758,15.325 25.921,16.963 
				23.621,14.243 27.183,14.346 23.929,12.893 27.183,11.44 			"/>
			<path style="fill:#FFCD00;" d="M10.441,7.608c1.898-1.597,4.593-2.054,6.909-1.167c-2.085-1.462-4.855-1.822-7.243-0.938
				c-2.285,0.846-4.103,2.765-4.807,5.099c-0.745,2.472-0.225,5.203,1.392,7.216c1.591,1.979,4.072,3.08,6.609,2.933
				c1.45-0.084,2.859-0.572,4.049-1.405c-2.346,0.897-5.102,0.41-6.995-1.242c-1.833-1.6-2.714-4.12-2.248-6.512
				C8.407,10.048,9.238,8.621,10.441,7.608z"/>
		</g>
	</g>
</g>
<g id="Layer_1">
</g>
</svg>
