<?xml version="1.0" encoding="iso-8859-1"?>
<!-- Generator: Adobe Illustrator 18.0.0, SVG Export Plug-In . SVG Version: 6.00 Build 0)  -->
<!DOCTYPE svg PUBLIC "-//W3C//DTD SVG 1.1//EN" "http://www.w3.org/Graphics/SVG/1.1/DTD/svg11.dtd">
<svg version="1.1" xmlns="http://www.w3.org/2000/svg" xmlns:xlink="http://www.w3.org/1999/xlink" x="0px" y="0px"
	 viewBox="0 0 38.017 38.017" style="enable-background:new 0 0 38.017 38.017;" xml:space="preserve">
<g id="Layer_249">
	<g id="Layer_253">
		<path style="fill:#0B843C;" d="M38.017,19.009c0-2.133-0.356-4.262-1.06-6.274c-0.679-1.941-1.676-3.768-2.939-5.392
			c-1.253-1.61-2.765-3.017-4.461-4.15c-1.719-1.148-3.625-2.014-5.622-2.548c-2.079-0.557-4.251-0.753-6.397-0.589
			c-2.102,0.161-4.174,0.673-6.107,1.515C9.553,2.388,7.81,3.512,6.288,4.884C4.771,6.25,3.476,7.861,2.468,9.637
			c-1.028,1.81-1.753,3.788-2.138,5.833c-0.4,2.122-0.435,4.313-0.107,6.448c0.317,2.065,0.978,4.072,1.95,5.921
			c0.951,1.81,2.195,3.462,3.668,4.878c1.476,1.418,3.179,2.596,5.028,3.474c1.896,0.899,3.94,1.479,6.027,1.71
			c2.143,0.237,4.327,0.112,6.428-0.375c2.019-0.469,3.958-1.273,5.718-2.369c1.732-1.078,3.289-2.436,4.593-4.006
			c1.312-1.578,2.367-3.369,3.108-5.283c0.766-1.979,1.191-4.083,1.264-6.202C38.013,19.447,38.017,19.228,38.017,19.009z"/>
	</g>
	<g id="Layer_252">
		<path style="fill:#003283;" d="M19.009,0c-2.132,0-4.261,0.356-6.274,1.06c-1.941,0.679-3.769,1.677-5.392,2.939
			c-1.61,1.254-3.016,2.765-4.15,4.461c-1.148,1.719-2.014,3.625-2.548,5.622c-0.578,2.157-0.767,4.415-0.569,6.64
			c0.218,2.44,0.913,4.832,2.039,7.009c1.025,1.98,2.401,3.777,4.045,5.285l30.725-20.483C34.237,5.223,27.233,0,19.009,0z"/>
	</g>
	<g id="Layer_251">
		<g>
			<g>
				<path style="fill:#FFFFFF;" d="M38.017,19.009c0-0.966-0.073-1.913-0.211-2.84l-28.648,19.1
					c1.174,0.712,2.431,1.302,3.754,1.749l25.06-16.706C38.001,19.881,38.017,19.447,38.017,19.009z"/>
				<path style="fill:#FFFFFF;" d="M33.269,6.441L1.921,27.342c0.521,1.066,1.139,2.078,1.843,3.021L35.354,9.302
					C34.748,8.283,34.049,7.326,33.269,6.441z"/>
			</g>
			<path style="fill:#AA1B37;" d="M34.38,7.827L2.772,28.897c1.935,3.17,4.771,5.728,8.153,7.319l27.072-18.048
				C37.83,14.311,36.513,10.753,34.38,7.827z"/>
		</g>
	</g>
	<g id="Layer_250">
		<g>
			<path style="fill:#FFCF00;" d="M11.307,7.403c-1.238,0-2.426,0.67-3.061,1.733c-0.641,1.074-0.674,2.44-0.074,3.539
				c0.601,1.099,1.749,1.814,3.002,1.861c1.229,0.047,2.409-0.56,3.096-1.577c0.717-1.064,0.797-2.477,0.213-3.617
				c-0.535-1.045-1.593-1.773-2.756-1.914C11.588,7.412,11.447,7.403,11.307,7.403z"/>
			<path style="fill:#FFCF00;" d="M4.153,10.973l3.032,1.102c-0.192-0.719-0.192-1.486,0-2.206L4.153,10.973z"/>
			<path style="fill:#FFCF00;" d="M7.185,9.867c0.197-0.733,0.584-1.388,1.105-1.911L5.105,7.403L7.185,9.867z"/>
			<path style="fill:#FFCF00;" d="M5.111,14.548l3.181-0.561c-0.523-0.521-0.91-1.178-1.106-1.91L5.111,14.548z"/>
			<path style="fill:#FFCF00;" d="M7.731,17.168l2.471-2.074c-0.732-0.197-1.39-0.584-1.91-1.107L7.731,17.168z"/>
			<path style="fill:#FFCF00;" d="M8.291,7.954c0.521-0.521,1.178-0.907,1.91-1.105L7.738,4.77L8.291,7.954z"/>
			<path style="fill:#FFCF00;" d="M10.204,15.094l1.102,3.032l1.104-3.032C11.691,15.286,10.924,15.286,10.204,15.094z"/>
			<path style="fill:#FFCF00;" d="M10.204,6.849c0.719-0.191,1.486-0.191,2.206,0l-1.104-3.032L10.204,6.849z"/>
			<path style="fill:#FFCF00;" d="M12.412,15.094l2.472,2.074l-0.561-3.181C13.803,14.51,13.148,14.897,12.412,15.094z"/>
			<path style="fill:#FFCF00;" d="M14.323,7.954l0.561-3.179l-2.472,2.074C13.148,7.046,13.803,7.433,14.323,7.954z"/>
			<path style="fill:#FFCF00;" d="M14.323,13.988l3.182,0.561l-2.077-2.474C15.23,12.81,14.844,13.467,14.323,13.988z"/>
			<path style="fill:#FFCF00;" d="M15.427,9.869l2.077-2.474l-3.179,0.56C14.846,8.479,15.233,9.136,15.427,9.869z"/>
			<path style="fill:#FFCF00;" d="M15.571,10.97c0,0.382-0.051,0.753-0.144,1.104l3.035-1.102l-3.035-1.104
				C15.52,10.22,15.571,10.589,15.571,10.97z"/>
		</g>
	</g>
</g>
<g id="Layer_1">
</g>
</svg>
