<?xml version="1.0" encoding="iso-8859-1"?>
<!-- Generator: Adobe Illustrator 18.0.0, SVG Export Plug-In . SVG Version: 6.00 Build 0)  -->
<!DOCTYPE svg PUBLIC "-//W3C//DTD SVG 1.1//EN" "http://www.w3.org/Graphics/SVG/1.1/DTD/svg11.dtd">
<svg version="1.1" xmlns="http://www.w3.org/2000/svg" xmlns:xlink="http://www.w3.org/1999/xlink" x="0px" y="0px"
	 viewBox="0 0 38.017 38.017" style="enable-background:new 0 0 38.017 38.017;" xml:space="preserve">
<g id="Layer_236">
	<g id="Layer_237">
		<g>
			<path style="fill:#1A2C75;" d="M38.017,19.009c0-2.133-0.356-4.262-1.06-6.274c-0.679-1.941-1.676-3.768-2.939-5.392
				c-1.253-1.61-2.765-3.017-4.46-4.15c-1.719-1.148-3.625-2.014-5.622-2.548c-2.079-0.557-4.251-0.753-6.397-0.589
				c-2.102,0.161-4.174,0.673-6.107,1.515C9.553,2.388,7.81,3.512,6.288,4.884C4.771,6.25,3.476,7.861,2.468,9.637
				c-1.028,1.81-1.753,3.788-2.138,5.833c-0.4,2.122-0.436,4.313-0.107,6.448c0.317,2.065,0.978,4.072,1.95,5.921
				c0.951,1.81,2.195,3.462,3.668,4.878c1.476,1.418,3.179,2.596,5.028,3.474c1.896,0.899,3.94,1.479,6.027,1.71
				c2.143,0.237,4.327,0.112,6.428-0.375c2.02-0.469,3.958-1.273,5.718-2.369c1.732-1.078,3.289-2.436,4.593-4.006
				c1.312-1.578,2.367-3.369,3.108-5.283c0.766-1.979,1.191-4.083,1.264-6.202C38.013,19.447,38.017,19.228,38.017,19.009z"/>
			<path style="fill:#FFFFFF;" d="M38.017,19.009c0-2.535-0.498-4.953-1.398-7.164H1.398c-1.073,2.635-1.535,5.503-1.361,8.341
				c0.125,2.052,0.586,4.08,1.361,5.984H36.62C37.52,23.96,38.017,21.542,38.017,19.009z"/>
			<path style="fill:#8C1521;" d="M19.009,0C11.045,0,4.227,4.898,1.398,11.845h35.222C33.791,4.898,26.973,0,19.009,0z"/>
		</g>
	</g>
</g>
	<g id="Layer_1">
</g>
</svg>
