<?xml version="1.0" encoding="iso-8859-1"?>
<!-- Generator: Adobe Illustrator 18.0.0, SVG Export Plug-In . SVG Version: 6.00 Build 0)  -->
<!DOCTYPE svg PUBLIC "-//W3C//DTD SVG 1.1//EN" "http://www.w3.org/Graphics/SVG/1.1/DTD/svg11.dtd">
<svg version="1.1" xmlns="http://www.w3.org/2000/svg" xmlns:xlink="http://www.w3.org/1999/xlink" x="0px" y="0px"
	 viewBox="0 0 38.018 38.017" style="enable-background:new 0 0 38.018 38.017;" xml:space="preserve">
<g id="Layer_216">
	<g id="Layer_217">
		<g>
			<path style="fill:#CE2931;" d="M38.018,19.009c0-2.133-0.357-4.262-1.061-6.274c-0.679-1.941-1.676-3.768-2.939-5.392
				c-1.253-1.61-2.765-3.017-4.46-4.15c-1.719-1.148-3.625-2.014-5.622-2.548c-2.079-0.557-4.251-0.753-6.396-0.589
				c-2.103,0.161-4.174,0.673-6.108,1.515C9.553,2.388,7.811,3.512,6.288,4.884C4.772,6.25,3.476,7.861,2.468,9.637
				c-1.028,1.81-1.754,3.788-2.139,5.833c-0.399,2.122-0.435,4.313-0.107,6.448c0.317,2.065,0.979,4.072,1.95,5.921
				c0.951,1.81,2.195,3.462,3.669,4.878c1.476,1.418,3.179,2.596,5.027,3.474c1.896,0.899,3.94,1.479,6.027,1.71
				c2.143,0.237,4.327,0.112,6.428-0.375c2.02-0.469,3.958-1.273,5.718-2.369c1.732-1.078,3.289-2.436,4.594-4.006
				c1.312-1.578,2.366-3.369,3.107-5.283c0.766-1.979,1.191-4.083,1.264-6.202C38.014,19.447,38.018,19.228,38.018,19.009z"/>
			<path style="fill:#FFFFFF;" d="M37.235,24.416c0.827-2.794,1-5.774,0.506-8.646c-0.126-0.732-0.295-1.458-0.506-2.172H13.675
				V0.76C9.136,2.084,5.301,5.056,2.857,8.984v4.615H0.782c-0.827,2.795-1,5.775-0.507,8.646c0.126,0.732,0.296,1.458,0.507,2.171
				h2.075v4.616c2.443,3.929,6.278,6.9,10.817,8.225V24.416H37.235z"/>
			<path style="fill:#1A2866;" d="M37.824,21.715c0.256-1.794,0.256-3.621,0-5.414H10.968V1.781
				C8.945,2.727,7.117,4.017,5.559,5.578v10.724H0.193c-0.256,1.793-0.256,3.62,0,5.414h5.365V32.44
				c1.559,1.56,3.387,2.851,5.409,3.796V21.715H37.824z"/>
		</g>
	</g>
</g>
<g id="Layer_1">
</g>
</svg>
