<?xml version="1.0" encoding="iso-8859-1"?>
<!-- Generator: Adobe Illustrator 18.0.0, SVG Export Plug-In . SVG Version: 6.00 Build 0)  -->
<!DOCTYPE svg PUBLIC "-//W3C//DTD SVG 1.1//EN" "http://www.w3.org/Graphics/SVG/1.1/DTD/svg11.dtd">
<svg version="1.1" xmlns="http://www.w3.org/2000/svg" xmlns:xlink="http://www.w3.org/1999/xlink" x="0px" y="0px"
	 viewBox="0 0 38.018 38.017" style="enable-background:new 0 0 38.018 38.017;" xml:space="preserve">
<g id="Layer_232">
	<g id="Layer_235">
		<path style="fill:#001F80;" d="M38.018,19.009c0-2.133-0.357-4.262-1.061-6.274c-0.679-1.941-1.676-3.768-2.939-5.392
			c-1.253-1.61-2.765-3.017-4.46-4.15c-1.719-1.148-3.625-2.014-5.622-2.548c-2.079-0.557-4.251-0.753-6.396-0.589
			c-2.103,0.161-4.174,0.673-6.107,1.515C9.553,2.388,7.811,3.512,6.288,4.884C4.772,6.25,3.476,7.861,2.468,9.637
			c-1.028,1.81-1.754,3.788-2.139,5.833c-0.399,2.122-0.435,4.313-0.107,6.448c0.317,2.065,0.979,4.072,1.95,5.921
			c0.951,1.81,2.195,3.462,3.669,4.878c1.476,1.418,3.179,2.596,5.027,3.474c1.896,0.899,3.94,1.479,6.027,1.71
			c2.143,0.237,4.327,0.112,6.428-0.375c2.019-0.469,3.958-1.273,5.718-2.369c1.732-1.078,3.289-2.436,4.594-4.006
			c1.312-1.578,2.366-3.369,3.107-5.283c0.766-1.979,1.191-4.083,1.264-6.202C38.014,19.447,38.018,19.228,38.018,19.009z"/>
	</g>
	<g id="Layer_234">
		<g>
			<g>
				<polygon style="fill:#B50922;" points="24.629,17.357 24.242,16.166 23.856,17.357 22.604,17.357 23.616,18.093 23.23,19.283 
					24.242,18.547 25.255,19.283 24.868,18.093 25.881,17.357 				"/>
				<path style="fill:#FFFFFF;" d="M24.715,17.24l-0.473-1.454L23.77,17.24h-1.527l1.236,0.897l-0.473,1.454l1.236-0.898
					l1.236,0.898l-0.472-1.454l1.235-0.897H24.715z M25.031,18.975l-0.789-0.573l-0.789,0.573l0.302-0.928l-0.789-0.572h0.976
					l0.301-0.928l0.301,0.928h0.976l-0.789,0.572L25.031,18.975z"/>
			</g>
			<g>
				<polygon style="fill:#B50922;" points="18.485,23.552 18.099,22.362 17.712,23.552 16.46,23.552 17.473,24.287 17.086,25.478 
					18.099,24.743 19.111,25.478 18.725,24.287 19.737,23.552 				"/>
				<path style="fill:#FFFFFF;" d="M18.571,23.435l-0.473-1.454l-0.472,1.454h-1.528l1.235,0.898l-0.472,1.454l1.236-0.899
					l1.236,0.899l-0.472-1.454l1.235-0.898H18.571z M18.888,25.17l-0.789-0.573L17.31,25.17l0.302-0.928l-0.789-0.572h0.975
					l0.302-0.928l0.301,0.928h0.976l-0.789,0.572L18.888,25.17z"/>
			</g>
			<g>
				<polygon style="fill:#B50922;" points="29.887,22.011 29.549,20.973 29.212,22.011 28.119,22.011 29.003,22.654 28.666,23.692 
					29.549,23.05 30.433,23.692 30.095,22.654 30.979,22.011 				"/>
				<path style="fill:#FFFFFF;" d="M29.972,21.894l-0.423-1.302l-0.423,1.302h-1.368l1.106,0.805l-0.423,1.301l1.107-0.804
					l1.108,0.804l-0.423-1.301l1.107-0.805H29.972z M30.209,23.384l-0.66-0.479l-0.659,0.479l0.252-0.776l-0.66-0.479h0.815
					l0.252-0.775l0.252,0.775h0.815l-0.659,0.479L30.209,23.384z"/>
			</g>
			<g>
				<polygon style="fill:#B50922;" points="24.69,33.276 24.242,31.899 23.795,33.276 22.348,33.276 23.519,34.126 23.071,35.503 
					24.242,34.653 25.413,35.503 24.966,34.126 26.137,33.276 				"/>
				<path style="fill:#FFFFFF;" d="M24.775,33.158l-0.533-1.64l-0.533,1.64h-1.724l1.394,1.014l-0.532,1.64l1.395-1.014l1.394,1.014
					l-0.532-1.64l1.395-1.014H24.775z M25.19,35.195l-0.947-0.688l-0.947,0.688l0.361-1.113l-0.946-0.688h1.171l0.361-1.113
					l0.362,1.113h1.17l-0.947,0.688L25.19,35.195z"/>
			</g>
		</g>
	</g>
	<g id="Layer_233">
		<g>
			<path style="fill:#FFFFFF;" d="M6.295,12.172l10.139,6.836h2.575V17.26l-8.506-5.734h8.506V5.003h-8.515l7.361-4.968
				C7.895,0.632,0.001,8.898,0,19.008h6.295V12.172z"/>
			<g>
				<polygon style="fill:#B50922;" points="7.92,11.526 19.009,19.001 19.009,17.915 9.533,11.526 				"/>
				<path style="fill:#B50922;" d="M7.915,5.003l6.63-4.475c-1.124,0.271-2.208,0.641-3.244,1.1L6.302,5.003H7.915z"/>
				<path style="fill:#B50922;" d="M5.042,19.008v-8.569h13.967V6.09H5.067c-1.99,2.146-3.49,4.752-4.324,7.641v5.277H5.042z"/>
			</g>
		</g>
	</g>
</g>
<g id="Layer_1">
</g>
</svg>
