<?xml version="1.0" encoding="utf-8"?>
<!-- Generator: Adobe Illustrator 23.0.2, SVG Export Plug-In . SVG Version: 6.00 Build 0)  -->
<svg version="1.1" id="Layer_1" xmlns="http://www.w3.org/2000/svg" xmlns:xlink="http://www.w3.org/1999/xlink" x="0px" y="0px"
	 width="38.017px" height="38.018px" viewBox="0 0 38.017 38.018" style="enable-background:new 0 0 38.017 38.018;"
	 xml:space="preserve">
<style type="text/css">
	.st0{fill:#FEFEFE;}
	.st1{fill:#085291;}
	.st2{fill:#D21E34;}
</style>
<g>
	<path class="st0" d="M19.006,0c10.503,0,19.012,8.509,19.012,19.006c0,10.497-8.509,19.012-19.012,19.012
		c-10.497,0-19.006-8.514-19.006-19.012C-0.001,8.509,8.508,0,19.006,0L19.006,0z"/>
	<path class="st1" d="M19.006,38.018V19.006H-0.001C-0.001,29.504,8.508,38.018,19.006,38.018L19.006,38.018z"/>
	<path class="st2" d="M19.006,19.006h19.012C38.018,8.509,29.509,0,19.006,0V19.006z"/>
	<polygon class="st1" points="6.64,10.268 9.462,12.322 8.383,15.64 11.21,13.591 14.032,15.64 12.954,12.322 15.775,10.268 
		12.289,10.268 11.21,6.951 10.126,10.268 	"/>
	<polygon class="st2" points="22.552,24.476 25.379,26.529 24.301,29.847 27.123,27.799 29.95,29.847 28.871,26.529 31.693,24.476 
		28.201,24.476 27.123,21.158 26.044,24.476 	"/>
</g>
</svg>
