<?xml version="1.0" encoding="iso-8859-1"?>
<!-- Generator: Adobe Illustrator 18.0.0, SVG Export Plug-In . SVG Version: 6.00 Build 0)  -->
<!DOCTYPE svg PUBLIC "-//W3C//DTD SVG 1.1//EN" "http://www.w3.org/Graphics/SVG/1.1/DTD/svg11.dtd">
<svg version="1.1" xmlns="http://www.w3.org/2000/svg" xmlns:xlink="http://www.w3.org/1999/xlink" x="0px" y="0px"
	 viewBox="0 0 38.018 38.018" style="enable-background:new 0 0 38.018 38.018;" xml:space="preserve">
<g id="Layer_198">
	<g id="Layer_199">
		<g>
			<path style="fill:#144396;" d="M19.009,0C8.787,0,0.452,8.068,0.02,18.183h37.979C37.567,8.068,29.231,0,19.009,0z"/>
			<path style="fill:#B51226;" d="M38.018,19.01c0-0.277-0.007-0.553-0.019-0.827H0.02c-0.096,2.22,0.192,4.449,0.862,6.567
				c0.622,1.965,1.567,3.824,2.786,5.486c1.205,1.644,2.676,3.094,4.338,4.275c1.682,1.195,3.557,2.115,5.532,2.707
				c2.056,0.617,4.213,0.877,6.356,0.779c2.114-0.098,4.21-0.548,6.176-1.335c1.905-0.763,3.683-1.837,5.246-3.166
				c1.555-1.322,2.895-2.894,3.954-4.638c1.077-1.774,1.859-3.725,2.305-5.752C37.871,21.764,38.018,20.387,38.018,19.01z"/>
			<path style="fill:#FFFFFF;" d="M8.378,3.249c-1.893,1.279-3.552,2.9-4.875,4.762c-1.34,1.886-2.331,4.016-2.907,6.257
				c-0.603,2.352-0.749,4.82-0.435,7.228c0.31,2.371,1.073,4.676,2.238,6.764c1.14,2.041,2.656,3.865,4.451,5.361
				c0.09,0.074,0.181,0.149,0.271,0.221l27.122-15.659L8.378,3.249z"/>
			<path style="fill:#FFD200;" d="M14.871,17.909c-0.005-0.093-0.015-0.184-0.029-0.274l3.627-0.5l-0.362-0.399l-3.303,0.659
				c-0.104-0.524-0.312-1.012-0.597-1.439l2.802-1.87l-0.026-0.538l-2.916,2.21c-0.055-0.074-0.114-0.145-0.174-0.214l3.055-2.67
				l-0.036-0.738L16.173,12.1l-2.666,3.057c-0.069-0.062-0.144-0.121-0.217-0.178l2.209-2.915l-0.538-0.026l-1.869,2.803
				c-0.428-0.288-0.916-0.495-1.441-0.6l0.66-3.301l-0.4-0.361l-0.498,3.623c-0.09-0.014-0.183-0.023-0.275-0.027l0.273-4.049
				l-0.548-0.494l-0.548,0.494l0.274,4.049c-0.093,0.004-0.186,0.014-0.276,0.027l-0.498-3.623l-0.399,0.361l0.659,3.301
				c-0.523,0.104-1.012,0.311-1.44,0.6l-1.869-2.803l-0.538,0.026l2.21,2.915c-0.074,0.057-0.147,0.116-0.217,0.178L5.554,12.1
				l-0.738,0.035L4.78,12.873l3.058,2.667c-0.062,0.069-0.119,0.141-0.177,0.217l-2.917-2.21l-0.026,0.538l2.803,1.87
				c-0.285,0.428-0.493,0.916-0.598,1.439l-3.302-0.659l-0.362,0.399l3.626,0.5c-0.015,0.091-0.023,0.182-0.028,0.274l-4.05-0.274
				l-0.495,0.548l0.495,0.548l4.05-0.273c0.005,0.092,0.014,0.183,0.028,0.273l-3.626,0.5l0.362,0.4l3.302-0.66
				c0.104,0.524,0.312,1.012,0.598,1.441l-2.803,1.869l0.026,0.537l2.917-2.209c0.058,0.076,0.114,0.148,0.177,0.217L4.78,23.492
				l0.035,0.738l0.738,0.036l2.667-3.058c0.069,0.062,0.143,0.122,0.217,0.18l-2.21,2.914l0.538,0.025l1.869-2.803
				c0.429,0.289,0.917,0.496,1.44,0.602l-0.659,3.299l0.399,0.362l0.498-3.624c0.091,0.015,0.184,0.023,0.276,0.029l-0.274,4.047
				l0.548,0.496l0.548-0.496l-0.273-4.047c0.093-0.006,0.186-0.015,0.275-0.029l0.498,3.624l0.4-0.362l-0.66-3.299
				c0.524-0.106,1.013-0.312,1.441-0.602l1.869,2.803l0.538-0.025l-2.209-2.914c0.073-0.058,0.148-0.117,0.217-0.18l2.666,3.058
				l0.738-0.036l0.036-0.738l-3.058-2.666c0.062-0.068,0.119-0.141,0.177-0.217l2.916,2.209l0.026-0.537l-2.802-1.869
				c0.285-0.43,0.492-0.918,0.597-1.441l3.303,0.66l0.362-0.4l-3.627-0.5c0.015-0.091,0.024-0.182,0.029-0.273l4.05,0.273
				l0.495-0.548l-0.495-0.548L14.871,17.909z"/>
			<polygon style="fill:#FFD200;" points="28.687,16.193 27.793,17.423 26.348,16.953 27.241,18.183 26.348,19.412 27.793,18.943 
				28.687,20.173 28.687,18.652 30.132,18.183 28.687,17.713 			"/>
		</g>
	</g>
</g>
<g id="Layer_1">
</g>
</svg>
