<?xml version="1.0" encoding="iso-8859-1"?>
<!-- Generator: Adobe Illustrator 18.0.0, SVG Export Plug-In . SVG Version: 6.00 Build 0)  -->
<!DOCTYPE svg PUBLIC "-//W3C//DTD SVG 1.1//EN" "http://www.w3.org/Graphics/SVG/1.1/DTD/svg11.dtd">
<svg version="1.1" xmlns="http://www.w3.org/2000/svg" xmlns:xlink="http://www.w3.org/1999/xlink" x="0px" y="0px"
	 viewBox="0 0 38.018 38.017" style="enable-background:new 0 0 38.018 38.017;" xml:space="preserve">
<g id="Layer_194">
	<g id="Layer_195">
		<g>
			<path style="fill:#FFFFFF;" d="M38.018,19.009c0-2.133-0.356-4.262-1.061-6.274c-0.679-1.941-1.676-3.769-2.939-5.392
				c-1.253-1.61-2.765-3.017-4.46-4.15c-1.719-1.148-3.625-2.014-5.622-2.548c-2.079-0.557-4.251-0.753-6.397-0.589
				c-2.102,0.161-4.174,0.673-6.107,1.515C9.553,2.388,7.811,3.512,6.288,4.884C4.772,6.25,3.476,7.861,2.468,9.637
				c-1.028,1.81-1.754,3.788-2.139,5.833c-0.399,2.122-0.436,4.314-0.107,6.448c0.317,2.064,0.978,4.072,1.95,5.921
				c0.951,1.809,2.195,3.462,3.669,4.878c1.476,1.418,3.179,2.596,5.027,3.474c1.897,0.899,3.941,1.479,6.027,1.71
				c2.143,0.237,4.327,0.112,6.428-0.375c2.02-0.469,3.958-1.273,5.718-2.369c1.732-1.078,3.289-2.437,4.594-4.006
				c1.312-1.578,2.366-3.369,3.108-5.283c0.766-1.979,1.191-4.083,1.264-6.202C38.014,19.447,38.018,19.228,38.018,19.009z"/>
			<path style="fill:#AF1731;" d="M38.018,19.009C38.018,19.008,0,19.008,0,19.008c0,2.121,0.354,4.24,1.05,6.245
				c0.676,1.942,1.671,3.771,2.932,5.396c1.25,1.612,2.76,3.022,4.454,4.157c1.717,1.151,3.62,2.02,5.616,2.558
				c2.078,0.56,4.249,0.76,6.395,0.599c2.104-0.157,4.177-0.666,6.111-1.504c1.88-0.814,3.625-1.936,5.149-3.306
				c1.519-1.364,2.817-2.973,3.828-4.746c1.03-1.809,1.759-3.785,2.147-5.829C37.906,21.402,38.018,20.205,38.018,19.009z"/>
		</g>
	</g>
</g>
<g id="Layer_1">
</g>
</svg>
