<?xml version="1.0" encoding="iso-8859-1"?>
<!-- Generator: Adobe Illustrator 18.0.0, SVG Export Plug-In . SVG Version: 6.00 Build 0)  -->
<!DOCTYPE svg PUBLIC "-//W3C//DTD SVG 1.1//EN" "http://www.w3.org/Graphics/SVG/1.1/DTD/svg11.dtd">
<svg version="1.1" xmlns="http://www.w3.org/2000/svg" xmlns:xlink="http://www.w3.org/1999/xlink" x="0px" y="0px"
	 viewBox="0 0 38.018 38.017" style="enable-background:new 0 0 38.018 38.017;" xml:space="preserve">
<g id="Layer_190">
	<g id="Layer_191">
		<g>
			<path style="fill:#C60505;" d="M38.018,19.009c0-2.133-0.357-4.262-1.061-6.274c-0.679-1.941-1.677-3.769-2.939-5.392
				c-1.253-1.61-2.765-3.017-4.46-4.15c-1.719-1.148-3.625-2.014-5.622-2.548c-2.079-0.557-4.251-0.753-6.396-0.589
				c-2.103,0.161-4.174,0.673-6.107,1.515C9.553,2.388,7.811,3.512,6.288,4.884C4.772,6.25,3.476,7.861,2.468,9.637
				c-1.028,1.81-1.754,3.788-2.139,5.833c-0.399,2.122-0.435,4.314-0.107,6.448c0.317,2.064,0.978,4.072,1.95,5.921
				c0.951,1.809,2.195,3.462,3.669,4.878c1.476,1.418,3.179,2.596,5.027,3.474c1.896,0.899,3.94,1.479,6.027,1.71
				c2.143,0.237,4.327,0.112,6.428-0.375c2.02-0.469,3.958-1.273,5.718-2.369c1.732-1.078,3.289-2.437,4.593-4.006
				c1.312-1.578,2.367-3.368,3.108-5.283c0.766-1.979,1.191-4.083,1.264-6.202C38.014,19.447,38.018,19.228,38.018,19.009z"/>
			<path style="fill:#FFFFFF;" d="M32.976,6.116H5.043c-2.2,2.382-3.799,5.327-4.555,8.595h37.041
				C36.773,11.443,35.175,8.497,32.976,6.116z"/>
			<path style="fill:#FFFFFF;" d="M37.529,23.305H0.488c0.755,3.268,2.353,6.213,4.554,8.595h27.935
				C35.176,29.518,36.774,26.574,37.529,23.305z"/>
			<path style="fill:#0053D8;" d="M8.042,3.482C6.166,4.809,4.534,6.476,3.247,8.38c-1.306,1.933-2.25,4.104-2.77,6.379
				c-0.541,2.366-0.622,4.836-0.244,7.233c0.365,2.318,1.167,4.563,2.351,6.59c1.16,1.985,2.682,3.756,4.468,5.203
				c0.321,0.26,0.651,0.51,0.989,0.749l23.29-15.526L8.042,3.482z"/>
			<polygon style="fill:#FFFFFF;" points="12.192,16.902 10.717,12.363 9.242,16.902 4.469,16.902 8.331,19.707 6.856,24.246 
				10.717,21.441 14.578,24.246 13.104,19.707 16.965,16.902 			"/>
		</g>
	</g>
</g>
<g id="Layer_1">
</g>
</svg>
