<?xml version="1.0" encoding="iso-8859-1"?>
<!-- Generator: Adobe Illustrator 18.0.0, SVG Export Plug-In . SVG Version: 6.00 Build 0)  -->
<!DOCTYPE svg PUBLIC "-//W3C//DTD SVG 1.1//EN" "http://www.w3.org/Graphics/SVG/1.1/DTD/svg11.dtd">
<svg version="1.1" xmlns="http://www.w3.org/2000/svg" xmlns:xlink="http://www.w3.org/1999/xlink" x="0px" y="0px"
	 viewBox="0 0 38.018 38.017" style="enable-background:new 0 0 38.018 38.017;" xml:space="preserve">
<g id="Layer_192">
	<g id="Layer_193">
		<g>
			<path style="fill:#006600;" d="M38.018,19.009c0-2.132-0.356-4.262-1.06-6.274c-0.679-1.941-1.676-3.769-2.94-5.392
				c-1.253-1.61-2.765-3.017-4.46-4.15c-1.719-1.148-3.625-2.014-5.622-2.548c-2.079-0.557-4.251-0.753-6.396-0.589
				c-2.103,0.161-4.174,0.673-6.107,1.515C9.553,2.388,7.811,3.512,6.288,4.884C4.772,6.25,3.476,7.862,2.468,9.637
				c-1.028,1.81-1.754,3.788-2.139,5.833c-0.399,2.123-0.436,4.314-0.107,6.448c0.317,2.064,0.978,4.072,1.95,5.922
				c0.951,1.809,2.195,3.461,3.669,4.877c1.476,1.418,3.179,2.596,5.027,3.474c1.896,0.9,3.94,1.479,6.027,1.71
				c2.143,0.237,4.327,0.112,6.428-0.375c2.02-0.469,3.958-1.272,5.718-2.369c1.732-1.078,3.289-2.436,4.594-4.005
				c1.312-1.579,2.366-3.369,3.107-5.284c0.766-1.979,1.191-4.083,1.264-6.202C38.014,19.447,38.018,19.228,38.018,19.009z"/>
			<path style="fill:#CC1B1B;" d="M38.018,19.009c0-2.132-0.356-4.262-1.06-6.274c-0.679-1.941-1.676-3.769-2.94-5.392
				c-1.253-1.61-2.765-3.017-4.46-4.15c-1.719-1.148-3.625-2.014-5.622-2.548c-2.241-0.6-4.591-0.781-6.897-0.544
				c-1.526,0.158-3.033,0.501-4.476,1.021v35.772c2.546,0.918,5.283,1.276,7.981,1.062c2.101-0.168,4.17-0.688,6.099-1.534
				c1.876-0.823,3.615-1.953,5.133-3.33c1.513-1.371,2.803-2.986,3.806-4.766c1.021-1.813,1.74-3.795,2.119-5.842
				C37.912,21.338,38.018,20.173,38.018,19.009z"/>
			<g>
				<g>
					<path style="fill:#FFE900;" d="M23.163,18.298c-0.009-0.008-0.017-0.015-0.025-0.022c-0.065-0.673-0.157-1.345-0.331-1.999
						c-0.167-0.626-0.392-1.237-0.671-1.822c0.071-0.052,0.103-0.104,0.078-0.156l-0.104-0.251l-0.005-0.017l-0.003-0.006
						l-0.004-0.009c-0.042-0.083-0.113-0.139-0.299-0.211c-0.017-0.031-0.036-0.063-0.055-0.095c0.053-0.036,0.08-0.07,0.073-0.104
						c-0.001-0.004-0.002-0.009-0.003-0.013c0-0.002-0.027-0.072-0.027-0.072l-0.075-0.193l-0.021-0.061
						c-0.058-0.118-0.201-0.23-0.451-0.347c-1.816-2.586-4.759-4.323-8.116-4.499V8.256h-0.271v0.155
						c-0.192-0.008-0.387-0.008-0.579,0V8.256h-0.27v0.165c-3.354,0.176-6.296,1.908-8.111,4.492
						c-0.073,0.002-0.158,0.005-0.219,0.052c-0.085,0.066-0.13,0.218-0.181,0.311c-0.017,0.062-0.004,0.143,0.022,0.214
						c-0.196,0.32-0.375,0.651-0.536,0.994c-0.015,0.001-0.031,0.004-0.044,0.007c-0.011,0.002-0.021,0.006-0.031,0.009
						c-0.028,0.01-0.052,0.023-0.066,0.041c-0.012,0.011-0.02,0.027-0.024,0.042l-0.086,0.198l-0.005,0.009
						c-0.024,0.057-0.014,0.132,0.024,0.222c-0.424,1.04-0.687,2.162-0.759,3.337c-0.08,0.058-0.082,0.148-0.091,0.238l-0.003,0.176
						c0.002-0.003,0.005-0.008,0.009-0.012c-0.006,0.01-0.009,0.019-0.009,0.027c-0.013,0.048,0.018,0.096,0.072,0.139
						c-0.004,0.107,0,0.214,0.002,0.319c-0.042,0.033-0.073,0.085-0.084,0.137l-0.006,0.282v0.009
						c-0.001,0.052,0.04,0.104,0.117,0.154c0.108,1.432,0.5,2.782,1.12,3.999c-0.068,0.107-0.028,0.167-0.028,0.167l0.083,0.136
						l0.014,0.024c0,0,0.038,0.034,0.113,0.012c0.058,0.105,0.122,0.208,0.181,0.314c0.027,0.045,0.054,0.089,0.082,0.133
						c-0.021,0.024-0.046,0.065-0.041,0.098l0.156,0.259c0.016,0.027,0.041,0.033,0.121,0.004c1.806,2.66,4.793,4.454,8.208,4.632
						v0.165h0.27v-0.155c0.193,0.008,0.387,0.008,0.579,0v0.155h0.271v-0.165c3.056-0.158,5.768-1.612,7.601-3.822
						c0.139,0.016,0.238,0.004,0.278-0.046l0.005-0.006l0.16-0.192l0.031-0.037c0.04-0.074,0.025-0.169-0.037-0.286
						c0.167-0.23,0.324-0.467,0.472-0.711c0.137-0.001,0.242-0.032,0.304-0.102c0.002-0.002,0.01-0.014,0.01-0.014l0.038-0.064
						l0.099-0.166l0.02-0.031c0.003-0.005,0.005-0.01,0.007-0.015c0.046-0.105,0.026-0.24-0.046-0.396
						c0.57-1.148,0.936-2.415,1.055-3.753c0.124-0.062,0.198-0.127,0.198-0.188V19.48c0-0.083-0.05-0.169-0.158-0.259
						c0.001-0.072,0.002-0.143,0.002-0.214c0.095-0.056,0.148-0.11,0.155-0.163c0.001-0.004,0.001-0.298,0.001-0.298
						C23.34,18.454,23.223,18.349,23.163,18.298z M3.566,15.972c0.465,0.434,0.966,0.832,1.466,1.226
						c-0.635,0.144-1.275,0.316-1.88,0.561C3.233,17.143,3.373,16.545,3.566,15.972z M12.005,28.489
						c-2.398-0.14-4.557-1.169-6.151-2.762c1.357,0.323,3.539,0.726,6.151,0.788V28.489z M12.005,25.277
						c-2.408-0.056-4.841-0.385-7.158-1.053c0.815-0.337,1.658-0.561,2.527-0.705c-0.06-0.09-0.117-0.183-0.167-0.278
						c-0.106-0.188-0.216-0.384-0.288-0.587c-0.03-0.067-0.058-0.137-0.085-0.206c-0.002-0.009-0.005-0.016-0.009-0.024
						c-0.817,0.182-1.951,0.51-2.758,0.83c-0.465-0.933-0.782-1.951-0.919-3.026c1.094,0.312,2.187,0.588,3.319,0.713
						c-0.002-0.007-0.003-0.016-0.003-0.024l-0.012-0.101c-0.004-0.041-0.007-0.084-0.01-0.126
						c-0.023-0.181-0.023-0.367-0.023-0.549v-0.417c-1.132-0.134-2.243-0.409-3.35-0.669v-0.046c0-0.017,0-0.031,0-0.048
						c1.029-0.426,2.144-0.654,3.23-0.881c0.041,0.023,0.081,0.045,0.12,0.066v-4.51C6.289,13.577,6.109,13.5,5.9,13.419
						c0.166-0.044,0.354-0.084,0.521-0.115v-1.079c-0.164,0.037-0.381,0.089-0.658,0.158c1.603-1.646,3.797-2.713,6.242-2.856
						V25.277z M13.124,28.489v-1.97c2.538-0.039,4.668-0.395,6.056-0.699C17.596,27.36,15.475,28.352,13.124,28.489z M21.296,22.741
						c-0.753-0.742-1.803-1.528-2.252-1.855c0.982-0.158,1.959-0.331,2.925-0.568C21.852,21.165,21.623,21.978,21.296,22.741z
						 M22.059,19.009c0,0.03,0,0.061-0.001,0.091c-1.069,0.289-2.155,0.506-3.255,0.642v0.399c0,0.153-0.007,0.307-0.016,0.46
						c-0.001,0.009-0.001,0.018-0.002,0.026c0,0.011-0.001,0.022-0.003,0.032c-0.001,0.024-0.002,0.043-0.005,0.062
						c-0.001,0.017-0.002,0.032-0.004,0.048c0,0.004,0,0.006-0.001,0.009c-0.01,0.143-0.031,0.285-0.053,0.427
						c-0.004,0.022-0.007,0.045-0.012,0.067c-0.009,0.053-0.017,0.104-0.028,0.157c-0.021,0.197-0.082,0.387-0.141,0.575
						c-0.065,0.207-0.126,0.417-0.22,0.614c-0.003,0.013-0.009,0.024-0.016,0.036c-0.016,0.04-0.032,0.078-0.05,0.114
						c-0.045,0.107-0.099,0.212-0.152,0.315c-0.002,0.002-0.003,0.003-0.004,0.006c-0.159,0.307-0.346,0.613-0.567,0.879
						c-0.044,0.058-0.089,0.115-0.136,0.17c-0.057,0.075-0.123,0.145-0.187,0.213c-0.005,0.006-0.011,0.013-0.016,0.017
						c0.239,0.117,0.559,0.267,0.908,0.427c-1.643,0.295-3.309,0.459-4.976,0.483V9.528c2.426,0.142,4.606,1.193,6.205,2.818
						c-0.187-0.039-0.366-0.071-0.526-0.099v1.029c0.34,0.058,0.947,0.17,1.569,0.328c0.05,0.071,0.097,0.142,0.143,0.213
						c-0.567,0.134-1.14,0.241-1.712,0.351v1.13c0.767-0.137,1.525-0.295,2.281-0.485c0.441,0.894,0.745,1.867,0.885,2.892
						c-1.026-0.369-2.09-0.623-3.166-0.795v1.213c1.114,0.166,2.2,0.447,3.256,0.841V19.009z"/>
					<path d="M23.16,18.265c-0.091-1.328-0.427-2.609-0.995-3.805c0.073-0.057,0.097-0.114,0.071-0.173l-0.103-0.248l-0.015-0.034
						c-0.046-0.092-0.126-0.15-0.303-0.219c-0.013-0.022-0.026-0.047-0.039-0.069c0.051-0.041,0.071-0.078,0.064-0.121l-0.031-0.083
						c-0.001-0.004-0.099-0.256-0.099-0.256c-0.059-0.124-0.204-0.238-0.456-0.356c-1.888-2.685-4.84-4.324-8.107-4.502V8.233
						h-0.316v0.154c-0.178-0.005-0.356-0.005-0.533,0V8.233H11.98v0.166c-3.263,0.178-6.213,1.812-8.098,4.491
						c-0.079,0.004-0.17,0.01-0.233,0.064c-0.058,0.05-0.079,0.131-0.114,0.196L3.509,13.2c-0.009,0.016-0.014,0.024-0.02,0.035
						c-0.005,0.011-0.011,0.022-0.018,0.034c-0.002,0.009-0.004,0.017-0.005,0.026c0,0.005-0.002,0.01-0.002,0.016
						c-0.001,0.003-0.001,0.006-0.001,0.009c-0.004,0.058,0.011,0.112,0.025,0.168c-0.192,0.315-0.37,0.643-0.526,0.974
						c-0.05,0.007-0.106,0.023-0.141,0.062c-0.002,0.001-0.003,0.002-0.005,0.004c-0.002,0-0.112,0.244-0.112,0.244L2.702,14.78
						c-0.027,0.061-0.02,0.135,0.018,0.231c-0.43,1.058-0.684,2.178-0.756,3.325c-0.082,0.056-0.082,0.163-0.092,0.25l-0.002,0.188
						c0,0.004-0.002,0.045-0.002,0.045c0.016,0.044,0.037,0.077,0.074,0.108c-0.004,0.1,0,0.199,0.001,0.299
						c-0.023,0.023-0.066,0.066-0.085,0.146l-0.004,0.283v0.009c-0.001,0.058,0.038,0.112,0.118,0.167v0.012
						c0.108,1.393,0.484,2.729,1.116,3.974c-0.066,0.112-0.023,0.178-0.023,0.18l0.088,0.146l0.012,0.019
						c0.003,0.001,0.01,0.007,0.023,0.014c0.031,0.013,0.062,0.015,0.096,0.008c0.018,0.032,0.036,0.066,0.055,0.098
						c0.022,0.037,0.043,0.076,0.065,0.112c0.01,0.016,0.019,0.03,0.026,0.045l0.027,0.045c0.023,0.04,0.048,0.077,0.071,0.116
						c-0.021,0.031-0.039,0.07-0.035,0.106l0.159,0.265c0.028,0.052,0.089,0.036,0.133,0.023c1.36,1.996,3.411,3.495,5.724,4.193
						c0.802,0.241,1.633,0.387,2.469,0.433v0.166h0.318v-0.154c0.178,0.006,0.355,0.006,0.533,0v0.154h0.316v-0.167
						c2.939-0.157,5.702-1.55,7.588-3.819c0.089,0.01,0.223,0.022,0.287-0.055l0.005-0.006c0.001-0.002,0.191-0.229,0.191-0.229
						l0.003-0.006c0.041-0.077,0.031-0.171-0.031-0.292c0.161-0.225,0.315-0.456,0.458-0.69c0.138-0.003,0.238-0.039,0.301-0.104
						c0.004,0,0.057-0.087,0.057-0.087c0.002-0.005,0.118-0.198,0.118-0.198c0.075-0.127,0.024-0.299-0.032-0.423
						c0.581-1.172,0.934-2.43,1.052-3.739c0.133-0.068,0.199-0.136,0.199-0.202V19.48c0-0.09-0.053-0.178-0.158-0.271
						c0.001-0.065,0.001-0.126,0.001-0.188c0.097-0.06,0.147-0.115,0.155-0.172c0.002-0.004,0.002-0.306,0.002-0.306
						c0-0.008,0-0.018,0-0.024C23.331,18.441,23.271,18.354,23.16,18.265z M23.109,18.225c0,0-0.124-0.09-0.233-0.153
						c-0.003-0.021-0.004-0.042-0.007-0.063c-0.119-1.392-0.56-2.79-1.245-4.006c0.019,0.007,0.038,0.013,0.056,0.02
						c0.047,0.015,0.095,0.031,0.141,0.049c0.044,0.016,0.085,0.031,0.121,0.047c0.017,0.03,0.032,0.061,0.046,0.092
						c0.047,0.082,0.089,0.168,0.126,0.254l0.012,0.027C22.684,15.666,23.015,16.921,23.109,18.225z M20.89,13.866
						c-0.001-0.003-0.002-0.006-0.005-0.009c-0.013-0.021-0.026-0.041-0.038-0.062c-0.009-0.014-0.018-0.028-0.027-0.041
						l0.011,0.003c0.004,0.002,0.007,0.003,0.011,0.003c0.238,0.072,0.48,0.138,0.716,0.221c0.698,1.227,1.17,2.654,1.268,4.067
						c-0.177-0.096-0.362-0.172-0.547-0.251C22.098,16.402,21.63,15.063,20.89,13.866z M22.229,17.777
						c-0.033-0.013-0.067-0.025-0.103-0.038c-0.023-0.01-0.048-0.02-0.072-0.027c-0.021-0.008-0.042-0.016-0.062-0.024
						c-0.139-0.993-0.431-1.954-0.873-2.857l-0.013-0.026c-0.044-0.088-0.091-0.175-0.135-0.263l-0.009-0.016
						c-0.084-0.157-0.167-0.321-0.269-0.469l-0.008-0.016c-0.052-0.082-0.101-0.16-0.151-0.235l-0.009-0.014
						c-0.031-0.048-0.063-0.097-0.098-0.147c0.08,0.021,0.16,0.041,0.238,0.066c0.027,0.008,0.056,0.015,0.084,0.023
						c0.007,0.01,0.014,0.019,0.02,0.029c0.273,0.417,0.512,0.865,0.71,1.322c0.009,0.017,0.017,0.035,0.024,0.053
						c0.151,0.35,0.292,0.71,0.392,1.078c0.054,0.165,0.102,0.336,0.138,0.506c0.065,0.233,0.114,0.48,0.146,0.722
						c0.017,0.094,0.03,0.188,0.043,0.281C22.223,17.743,22.226,17.759,22.229,17.777z M22.192,14.307
						c0.006,0.014,0.022,0.052-0.047,0.11c-0.043-0.088-0.099-0.176-0.132-0.268c0.015,0.008,0.028,0.016,0.042,0.024
						C22.129,14.214,22.169,14.252,22.192,14.307z M21.731,13.477c0.007,0.011,0.015,0.018,0.02,0.029
						c0.007,0.007,0.011,0.016,0.016,0.023c0,0.003,0.027,0.071,0.027,0.071l0.002,0.01c0.004,0.021-0.018,0.044-0.042,0.064
						c-0.018-0.028-0.033-0.057-0.051-0.084c-0.024-0.045-0.052-0.089-0.079-0.132c-0.029-0.049-0.061-0.098-0.091-0.146
						C21.606,13.358,21.676,13.411,21.731,13.477z M13.148,8.446c3.225,0.177,6.142,1.783,8.023,4.416
						c-0.109-0.048-0.239-0.099-0.395-0.152c-1.846-2.4-4.624-3.871-7.628-4.04V8.446z M13.148,8.716
						c2.967,0.167,5.711,1.609,7.546,3.965c-0.169-0.057-0.341-0.118-0.516-0.159c-0.124-0.035-0.249-0.066-0.374-0.098
						c-1.736-1.905-4.099-3.038-6.656-3.189V8.716z M13.148,9.284c2.523,0.148,4.851,1.256,6.572,3.122
						c-0.126-0.029-0.252-0.056-0.379-0.081c-1.653-1.677-3.85-2.678-6.193-2.819V9.284z M12.877,8.281h0.224v16.976
						c-0.074,0.002-0.148,0.003-0.224,0.003V8.281z M12.298,8.435c0.178-0.005,0.355-0.005,0.533,0v16.824
						c-0.179,0.003-0.357,0.002-0.533-0.001V8.435z M12.028,8.281h0.223v16.978c-0.075-0.002-0.149-0.003-0.223-0.005V8.281z
						 M12.003,25.301h0.033c0.071,0.001,0.142,0.003,0.215,0.004h0.047c0.177,0.003,0.354,0.005,0.533,0.002h0.046
						c0.09,0,0.182,0.003,0.271-0.004c1.813-0.028,3.635-0.207,5.412-0.569c0.002,0,0.009-0.001,0.009-0.001
						c0.024-0.005,0.048-0.009,0.072-0.014c0.004-0.002,0.009-0.003,0.012-0.004c0.451-0.089,0.898-0.19,1.344-0.305
						c0.073,0.063,0.139,0.122,0.199,0.177c-2.911,0.76-5.958,1.051-8.961,0.904c-0.966-0.047-1.93-0.141-2.887-0.28
						c-0.966-0.142-1.911-0.357-2.864-0.563c-0.219-0.058-0.438-0.111-0.655-0.174c-0.041-0.056-0.078-0.111-0.116-0.169
						c0.045-0.018,0.091-0.037,0.137-0.056c2.309,0.665,4.732,0.991,7.131,1.051C11.988,25.301,11.995,25.301,12.003,25.301z
						 M20.211,25.039c-0.263,0.327-0.54,0.647-0.845,0.936l-0.016,0.017c-0.011,0.011-0.021,0.021-0.034,0.034
						c-0.102,0.097-0.205,0.191-0.311,0.284c-0.011,0.012-0.023,0.021-0.037,0.034l-0.007,0.006
						c-0.041,0.036-0.082,0.072-0.127,0.107c-0.137,0.131-0.297,0.244-0.448,0.358l-0.006,0.004
						c-0.028,0.021-0.057,0.042-0.086,0.062c-0.045,0.034-0.088,0.066-0.134,0.098l-0.048,0.035c-0.076,0.05-0.148,0.105-0.228,0.15
						c-0.605,0.415-1.287,0.747-1.978,0.996c-0.019,0.008-0.04,0.015-0.06,0.021c-0.127,0.051-0.261,0.093-0.393,0.132
						c-0.028,0.009-0.057,0.018-0.088,0.026c-0.062,0.021-0.119,0.036-0.173,0.051l-0.01,0.002
						c-0.101,0.033-0.204,0.057-0.307,0.082l-0.156,0.036l-0.015,0.003c-0.012,0.004-0.023,0.007-0.034,0.01
						c-0.012,0.001-0.023,0.004-0.033,0.007c-0.167,0.035-0.335,0.069-0.504,0.094c-0.301,0.056-0.609,0.089-0.914,0.106
						c-0.012,0.001-0.024,0.003-0.036,0.003c-0.013,0.001-0.025,0.002-0.038,0.002v-0.224c2.267-0.137,4.412-1.084,6.043-2.67
						c0.072-0.044,0.12-0.117,0.179-0.177c0.059-0.061,0.146-0.112,0.182-0.192c0.011-0.011,0.021-0.021,0.031-0.033
						c0.04-0.043,0.079-0.088,0.119-0.131l0.071-0.082c0.165-0.191,0.325-0.389,0.472-0.595c0.057,0.052,0.11,0.102,0.162,0.151
						C20.343,24.868,20.278,24.953,20.211,25.039z M20.441,24.816l0.061,0.061c0.015,0.016,0.031,0.03,0.046,0.046
						c0.016,0.013,0.027,0.025,0.04,0.041c0.036,0.036,0.069,0.071,0.102,0.106l0.007,0.008c0.028,0.031,0.057,0.062,0.083,0.096
						c0.006,0.007,0.012,0.013,0.018,0.021c-0.204,0.278-0.424,0.545-0.659,0.796c-0.043,0.049-0.089,0.097-0.136,0.144
						c-0.021,0.022-0.044,0.046-0.068,0.07c-0.248,0.265-0.522,0.505-0.8,0.739c-0.278,0.237-0.566,0.469-0.885,0.652
						c-0.06,0.042-0.119,0.08-0.181,0.117c-0.06,0.04-0.121,0.078-0.182,0.112c-0.025,0.018-0.051,0.033-0.077,0.048
						c-0.012,0.006-0.022,0.014-0.034,0.02c-0.193,0.119-0.395,0.225-0.598,0.326c-0.195,0.098-0.389,0.215-0.599,0.276
						c-0.379,0.167-0.771,0.305-1.168,0.419c-0.405,0.116-0.827,0.229-1.247,0.276c-0.172,0.028-0.345,0.05-0.518,0.068
						c-0.011,0.003-0.021,0.003-0.031,0.003c-0.052,0.007-0.102,0.012-0.152,0.016c-0.006,0.001-0.01,0.001-0.015,0.001
						c-0.043,0.003-0.086,0.008-0.129,0.01c-0.058,0.005-0.114,0.009-0.172,0.012v-0.518c0.497,0,1.018-0.1,1.501-0.205
						c0.012-0.003,0.023-0.006,0.034-0.009c0.012-0.002,0.022-0.005,0.035-0.008l0.015-0.002c0.155-0.037,0.314-0.071,0.466-0.12
						l0.009-0.003c0.128-0.031,0.258-0.069,0.382-0.114c0.114-0.035,0.226-0.08,0.34-0.117c0.691-0.276,1.363-0.583,1.983-0.999
						c0.031-0.02,0.062-0.041,0.094-0.061c0.044-0.03,0.089-0.061,0.134-0.093l0.049-0.033c0.074-0.054,0.149-0.108,0.222-0.163
						l0.006-0.003c0.093-0.069,0.185-0.141,0.275-0.215c0.104-0.081,0.205-0.165,0.303-0.254l0.007-0.006
						c0.007-0.006,0.013-0.011,0.02-0.017l0.019-0.018c0.118-0.101,0.235-0.206,0.344-0.318l0.017-0.017
						C19.782,25.646,20.124,25.238,20.441,24.816z M13.148,28.463v-1.921c2.497-0.041,4.602-0.389,5.954-0.683
						C17.485,27.405,15.375,28.328,13.148,28.463z M19.103,25.534c-0.038,0.008-0.076,0.017-0.115,0.024
						c-0.804,0.194-1.621,0.32-2.44,0.421c-0.835,0.103-1.681,0.218-2.524,0.218c-0.07,0.003-0.142,0.008-0.216,0.009
						c-0.012,0.001-0.023,0.003-0.034,0.003c-0.769,0.025-1.538,0.026-2.308-0.005c-0.006,0-0.01-0.001-0.017-0.001
						c-0.086-0.004-0.178,0-0.263-0.014c-0.119-0.006-0.239-0.011-0.358-0.021c-0.734-0.03-1.479-0.116-2.205-0.227
						c-0.445-0.046-0.903-0.121-1.341-0.219c-0.215-0.037-0.432-0.077-0.645-0.126c-0.015-0.003-0.027-0.006-0.042-0.01
						c-0.183-0.036-0.363-0.082-0.546-0.119c-0.009-0.002-0.017-0.005-0.025-0.007c-0.008-0.001-0.015-0.003-0.023-0.005
						c-0.161-0.037-0.321-0.076-0.48-0.117c-0.23-0.256-0.445-0.524-0.646-0.803c0.017,0.004,0.034,0.009,0.05,0.013
						c0.114,0.033,0.23,0.064,0.346,0.093c0.006,0.002,0.012,0.003,0.018,0.005c0.042,0.01,0.086,0.022,0.131,0.033
						c0.711,0.217,1.455,0.335,2.186,0.46c0.755,0.13,1.514,0.229,2.276,0.295c1.523,0.131,3.046,0.18,4.571,0.091
						c1.928-0.113,3.858-0.394,5.726-0.886c-0.051,0.07-0.102,0.142-0.157,0.209c-0.091,0.12-0.188,0.235-0.287,0.35l-0.068,0.077
						c-0.048,0.054-0.095,0.111-0.148,0.164C19.381,25.475,19.24,25.501,19.103,25.534z M11.98,9.284v0.222
						c-2.36,0.143-4.572,1.157-6.23,2.857l-0.392,0.101C7.08,10.563,9.43,9.434,11.98,9.284z M5.271,12.487l-0.009,0.002
						c-0.301,0.086-0.6,0.177-0.895,0.282c1.835-2.41,4.604-3.886,7.612-4.055v0.519C9.391,9.389,7.009,10.542,5.271,12.487z
						 M11.98,8.446v0.224c-3.05,0.17-5.853,1.675-7.696,4.134c-0.08,0.03-0.152,0.06-0.216,0.089
						c-0.045-0.002-0.085-0.004-0.127-0.004C5.818,10.241,8.745,8.623,11.98,8.446z M3.516,13.287
						c0.006-0.018,0.009-0.027,0.014-0.038c0.001-0.002,0.003-0.004,0.004-0.006c0.003-0.004,0.006-0.007,0.009-0.01
						c0.007-0.008,0.011-0.011,0.016-0.016c0.009-0.006,0.017-0.012,0.028-0.018c0.003-0.002,0.006-0.003,0.01-0.005
						c0.011-0.005,0.023-0.01,0.037-0.015c0.014-0.004,0.028-0.009,0.044-0.011c0.004-0.002,0.01-0.003,0.015-0.004
						c-0.06,0.087-0.113,0.177-0.169,0.265c-0.003-0.018-0.007-0.033-0.008-0.05c-0.002-0.005-0.002-0.011-0.002-0.018
						c-0.002-0.01-0.002-0.02-0.002-0.029C3.51,13.317,3.512,13.3,3.516,13.287z M2.745,14.798l0.003-0.007
						c0.003-0.005,0.006-0.01,0.01-0.013c0.002-0.005,0.006-0.009,0.011-0.011c0.005-0.005,0.009-0.009,0.014-0.011
						c0.009-0.005,0.014-0.008,0.02-0.009c0.007-0.004,0.014-0.007,0.023-0.01c0.004-0.001,0.008-0.003,0.013-0.003
						c-0.007,0.014-0.021,0.037-0.022,0.053c-0.023,0.052-0.045,0.104-0.067,0.157C2.731,14.885,2.729,14.836,2.745,14.798z
						 M2.748,15.073l0.02-0.053c0.031-0.074,0.063-0.148,0.095-0.223l0.004-0.009c0.009-0.021,0.018-0.041,0.027-0.062
						c0.009-0.002,0.012-0.002,0.015-0.002c0.011,0,0.024-0.001,0.035-0.001c0.046-0.002,0.1,0.001,0.171,0.007
						c0.006,0.001,0.013,0.002,0.021,0.002c-0.485,1.08-0.788,2.233-0.888,3.411c-0.074,0.041-0.141,0.083-0.198,0.125
						c-0.011,0.007-0.021,0.015-0.027,0.021c-0.002,0.003-0.005,0.005-0.007,0.005C2.09,17.182,2.336,16.1,2.748,15.073z
						 M4.025,16.346c-0.164-0.139-0.305-0.264-0.43-0.381c0.004-0.058,0.044-0.13,0.063-0.184c0.025,0.023,0.052,0.049,0.079,0.072
						c0.483,0.451,1.011,0.864,1.533,1.268c-0.077,0.017-0.154,0.033-0.231,0.051C4.653,16.869,4.312,16.591,4.025,16.346z
						 M4.98,17.186c-0.383,0.088-0.713,0.175-0.978,0.259l-0.088,0.028c-0.245,0.077-0.498,0.156-0.731,0.249
						c0.077-0.58,0.21-1.154,0.395-1.707C4.025,16.428,4.501,16.81,4.98,17.186z M3.638,15.697
						c-0.005,0.011-0.008,0.022-0.013,0.033c-0.002,0.006-0.004,0.011-0.005,0.016c-0.025,0.072-0.053,0.146-0.076,0.22
						l-0.006,0.013c-0.19,0.571-0.329,1.164-0.408,1.764c-0.078,0.032-0.156,0.065-0.234,0.097c0.02-0.163,0.042-0.326,0.07-0.488
						c0-0.003,0.001-0.005,0.001-0.006c0.015-0.088,0.025-0.182,0.051-0.267c0.134-0.707,0.356-1.409,0.663-2.061
						c0.023-0.052,0.046-0.101,0.069-0.152c0.002,0,0.053,0.014,0.053,0.014c0.02,0.006,0.038,0.011,0.062,0.017l0.006,0.003
						c0.031,0.009,0.062,0.017,0.093,0.027C3.843,15.179,3.734,15.439,3.638,15.697z M3.636,14.996
						c-0.407,0.911-0.676,1.872-0.791,2.863c-0.078,0.034-0.155,0.068-0.232,0.104c-0.107,0.043-0.21,0.101-0.313,0.152
						c0-0.003,0-0.006,0.001-0.008c0.04-0.471,0.115-0.938,0.219-1.399c0.001-0.008,0.003-0.015,0.005-0.022
						c0.15-0.669,0.375-1.325,0.662-1.947c0.004-0.001,0.006,0,0.011,0.001c0.002,0,0.006,0.001,0.01,0.002
						c0.007,0,0.013,0.002,0.02,0.003c0.085,0,0.181,0.032,0.263,0.052c0.003,0,0.006,0,0.007,0.001
						c0.025,0.005,0.049,0.013,0.075,0.019c0.043,0.01,0.087,0.02,0.133,0.033C3.683,14.899,3.659,14.948,3.636,14.996z
						 M1.944,18.841c-0.001,0.007-0.001,0.014-0.001,0.021c-0.022-0.028-0.031-0.055-0.025-0.079
						c0.001-0.006,0.001-0.01,0.007-0.022l0.01-0.012c0.001-0.003,0.004-0.006,0.008-0.011c0.004-0.004,0.004,0.018,0.004,0.018
						C1.944,18.786,1.944,18.814,1.944,18.841z M1.902,19.663c0.002-0.011,0.002-0.018,0.005-0.024c0-0.003,0-0.006,0.004-0.012
						c0.001-0.003,0.002-0.008,0.008-0.016c0.003-0.005,0.006-0.009,0.011-0.015c0.008-0.01,0.017-0.02,0.026-0.03
						c0.005,0.072,0.009,0.138,0.014,0.2C1.925,19.732,1.902,19.697,1.902,19.663z M2.022,19.817L2.02,19.794
						c-0.01-0.088-0.013-0.176-0.017-0.264c0.009-0.006,0.019-0.013,0.028-0.019l0.008-0.006c0.009-0.006,0.019-0.011,0.029-0.017
						l0.015-0.009c0.046-0.025,0.091-0.051,0.138-0.076c0.054,1.476,0.416,2.891,1.073,4.208c-0.021,0.014-0.039,0.028-0.058,0.045
						c-0.022,0.017-0.042,0.034-0.059,0.052c-0.012,0.01-0.021,0.021-0.03,0.03c-0.01,0.012-0.02,0.021-0.026,0.032
						C2.494,22.533,2.124,21.202,2.022,19.817z M3.05,19.292l0.001,0.032c0.007,0.204,0.02,0.409,0.04,0.609l0.002,0.016
						c0,0.013,0.003,0.026,0.004,0.04c0.003,0.026,0.005,0.052,0.007,0.075c0.006,0.041,0.013,0.083,0.016,0.124
						c0.002,0.014,0.003,0.028,0.005,0.041l0.002,0.016c0.135,1.045,0.441,2.052,0.909,2.995c-0.036,0.014-0.074,0.029-0.113,0.046
						c-0.03,0.012-0.062,0.024-0.09,0.037c-0.655-1.322-0.994-2.745-1.007-4.228c0.036-0.018,0.074-0.034,0.113-0.051l0.013-0.006
						c0.031-0.013,0.063-0.027,0.095-0.04v0.057C3.047,19.134,3.048,19.214,3.05,19.292z M3.788,23.343
						c-0.093,0.04-0.178,0.08-0.253,0.122c-0.061,0.028-0.12,0.063-0.174,0.103c-0.01,0.005-0.02,0.011-0.027,0.018
						c-0.656-1.316-1.016-2.73-1.067-4.206l0.006-0.003c0.078-0.043,0.157-0.085,0.237-0.126c0.029-0.017,0.06-0.032,0.091-0.047
						c0.058-0.03,0.116-0.06,0.177-0.086C2.794,20.6,3.133,22.021,3.788,23.343z M3.223,24.135c0.003-0.003,0.006-0.008,0.01-0.013
						c0.004-0.006,0.007-0.01,0.011-0.015c0.006,0.011,0.012,0.02,0.018,0.03C3.245,24.14,3.232,24.138,3.223,24.135z M3.684,24.839
						c-0.013,0.016-0.02,0.028-0.027,0.043l-0.114-0.189c0-0.023,0.019-0.054,0.036-0.076c0.228-0.259,0.564-0.387,0.875-0.518
						c0.385-0.162,0.773-0.323,1.181-0.422c0.054-0.018,0.11-0.033,0.166-0.049c0.028-0.009,0.058-0.016,0.086-0.023
						c0.217-0.07,0.441-0.12,0.664-0.171c0.102-0.029,0.207-0.049,0.311-0.071c0.121-0.031,0.248-0.06,0.371-0.079
						c-0.009-0.014-0.018-0.029-0.024-0.043c-0.661,0.132-1.317,0.29-1.956,0.508c-0.324,0.111-0.645,0.233-0.96,0.367
						c-0.262,0.111-0.531,0.236-0.728,0.447c-0.021-0.035-0.043-0.069-0.064-0.106l-0.026-0.044
						c-0.031-0.052-0.062-0.104-0.091-0.157C3.365,24.228,3.349,24.2,3.333,24.17l-0.058-0.104c0.018-0.019,0.032-0.042,0.053-0.058
						c0.006-0.007,0.014-0.015,0.021-0.021c0.01-0.011,0.023-0.021,0.034-0.031c0.024-0.024,0.055-0.049,0.083-0.067
						c0.123-0.092,0.282-0.183,0.471-0.267l0.008-0.002c0.003-0.001,0.008-0.003,0.01-0.004c0.953-0.415,1.971-0.687,2.982-0.918
						c-0.007-0.015-0.014-0.029-0.02-0.045c-0.014,0.004-0.026,0.007-0.04,0.009c-0.541,0.137-1.095,0.25-1.623,0.434
						c-0.446,0.133-0.894,0.286-1.32,0.477l-0.008,0.003c-0.003,0.001-0.006,0.002-0.008,0.004c-0.182,0.08-0.351,0.176-0.51,0.293
						c-0.017,0.013-0.033,0.026-0.05,0.039c-0.008,0.009-0.018,0.017-0.025,0.024c-0.03,0.027-0.053,0.052-0.072,0.072
						c-0.011,0.014-0.022,0.027-0.033,0.04l-0.005,0.006c-0.003,0.002-0.005,0.004-0.005,0.007c-0.01,0.012-0.017,0.023-0.024,0.032
						c-0.003,0.002-0.004,0.005-0.007,0.008l-0.079-0.133c-0.002-0.001-0.026-0.043,0.018-0.123l0.011-0.017
						c0.019-0.028,0.045-0.058,0.072-0.087c0.018-0.015,0.036-0.032,0.057-0.049c0.016-0.013,0.031-0.025,0.051-0.038l0.03-0.023
						c0.013-0.008,0.026-0.018,0.04-0.026c0.013-0.01,0.029-0.018,0.046-0.028c0.039-0.026,0.082-0.052,0.125-0.071
						c0.08-0.044,0.173-0.088,0.272-0.131l0.022-0.011c0.073-0.031,0.151-0.062,0.224-0.091l0.025-0.01
						c0.841-0.331,1.963-0.649,2.733-0.817c-0.003-0.009-0.006-0.016-0.01-0.024c-0.002-0.007-0.005-0.015-0.008-0.021
						c-0.774,0.171-1.897,0.489-2.738,0.82c-0.464-0.933-0.768-1.929-0.902-2.963c1.086,0.309,2.17,0.582,3.294,0.705
						c-0.002-0.008-0.002-0.016-0.002-0.024c-0.003-0.007-0.004-0.016-0.004-0.024c-1.123-0.127-2.211-0.394-3.295-0.709
						c-0.003-0.01-0.003-0.019-0.004-0.03c-0.012-0.068-0.017-0.139-0.025-0.208c0.164,0.046,0.313,0.089,0.413,0.117l0.012,0.003
						c0.95,0.263,1.897,0.487,2.877,0.601c-0.002-0.017-0.003-0.033-0.004-0.049c-0.975-0.113-1.917-0.336-2.86-0.599L3.567,20.04
						c-0.103-0.029-0.259-0.073-0.43-0.127c-0.002-0.013-0.004-0.024-0.004-0.037c-0.003-0.01-0.003-0.021-0.003-0.029
						c-0.022-0.163-0.025-0.327-0.03-0.491c0.545,0.15,1.098,0.268,1.651,0.381c0.553,0.112,1.108,0.219,1.669,0.283v-0.048
						c-0.551-0.064-1.096-0.168-1.639-0.278c-0.565-0.113-1.13-0.229-1.684-0.389c-0.003-0.072-0.004-0.146-0.006-0.22
						c0.078,0.018,0.16,0.038,0.246,0.059l0.053,0.013c0.929,0.229,2.239,0.497,3.029,0.592v-0.048
						c-0.79-0.094-2.093-0.362-3.017-0.589l-0.055-0.014c-0.09-0.023-0.176-0.043-0.256-0.062v-0.026c0-0.011,0-0.021,0.002-0.031
						c1.021-0.421,2.124-0.646,3.201-0.872c0.043,0.023,0.085,0.046,0.125,0.067v-0.055C6.404,18.11,6.387,18.1,6.367,18.09
						c0.01-0.002,0.021-0.004,0.028-0.006c0.009-0.002,0.018-0.004,0.025-0.005v-0.049c-0.039,0.008-0.08,0.017-0.125,0.027
						l-0.062,0.014c-0.542,0.112-1.081,0.237-1.617,0.373C4.084,18.58,3.578,18.76,3.061,18.94
						c-0.043,0.019-0.087,0.037-0.128,0.056L2.92,19c-0.044,0.019-0.087,0.038-0.129,0.058l-0.009,0.006
						c-0.068,0.03-0.135,0.062-0.203,0.097c-0.109,0.059-0.22,0.114-0.329,0.174l-0.02,0.01c-0.004,0.002-0.008,0.005-0.013,0.008
						c-0.053,0.029-0.105,0.058-0.159,0.087l-0.015,0.01c-0.009,0.005-0.018,0.01-0.026,0.015l-0.009,0.006
						c-0.014,0.01-0.028,0.019-0.041,0.029c-0.007,0.004-0.011,0.007-0.015,0.01c-0.002,0.002-0.003,0.003-0.006,0.005
						c-0.008,0.007-0.016,0.012-0.025,0.021c-0.007,0.007-0.011,0.013-0.018,0.019l0.003-0.175c0.012-0.047,0.033-0.08,0.059-0.108
						c0.009-0.007,0.014-0.013,0.019-0.017c0.057-0.054,0.13-0.093,0.214-0.139l0.062-0.033c0.035-0.021,0.089-0.047,0.145-0.074
						l0.025-0.014c0.016-0.006,0.032-0.014,0.047-0.022c0.001,0,0.01-0.004,0.01-0.004l0.018-0.009
						c0.005-0.003,0.01-0.005,0.015-0.007l0.009-0.006c0.011-0.005,0.022-0.009,0.031-0.014c0.007-0.003,0.009-0.004,0.011-0.006
						c0.012-0.005,0.024-0.011,0.037-0.017l0.025-0.013c0.015-0.007,0.03-0.013,0.045-0.021c0.004,0,0.007-0.003,0.011-0.004
						c0.004-0.002,0.009-0.004,0.014-0.006c0.003-0.001,0.006-0.003,0.009-0.004c0.004-0.003,0.01-0.006,0.016-0.008
						c0.027-0.014,0.056-0.024,0.084-0.036c0.018-0.007,0.036-0.014,0.054-0.021c0.021-0.008,0.043-0.021,0.064-0.024l0.02-0.009
						c0.017-0.005,0.031-0.012,0.047-0.018l0.088-0.033c0.338-0.13,0.702-0.249,1.055-0.363l0.149-0.049
						c0.643-0.211,1.308-0.349,1.973-0.468l0.097-0.019c0.022-0.004,0.044-0.008,0.063-0.013v-0.048
						c-0.022,0.005-0.047,0.01-0.072,0.014l-0.097,0.018c-0.667,0.115-1.335,0.259-1.978,0.469l-0.15,0.05
						c-0.353,0.114-0.718,0.233-1.056,0.364l-0.034,0.013c-0.013,0.004-0.024,0.009-0.037,0.014L2.98,18.702
						c-0.017,0.006-0.031,0.013-0.047,0.018l-0.022,0.01c-0.029,0.01-0.058,0.021-0.085,0.033c-0.012,0.004-0.023,0.01-0.033,0.014
						l-0.015,0.006c-0.057,0.023-0.11,0.046-0.164,0.07l-0.026,0.014c-0.014,0.006-0.025,0.011-0.038,0.018l-0.007,0.003
						c-0.011,0.005-0.022,0.011-0.034,0.016c-0.008,0.005-0.016,0.01-0.024,0.013l-0.026,0.014c-0.017,0.007-0.03,0.015-0.047,0.022
						l-0.026,0.014c-0.057,0.027-0.11,0.055-0.151,0.078c-0.005,0.001-0.008,0.003-0.008,0.004l-0.048,0.025
						c-0.045,0.023-0.098,0.047-0.138,0.079c-0.017,0.011-0.031,0.022-0.048,0.034C1.99,19.127,1.99,19.069,1.99,19.009v-0.043
						c0-0.016,0-0.033,0-0.05c0-0.071,0.003-0.145,0.005-0.233c0.043-0.045,0.099-0.083,0.15-0.116
						c0.004-0.004,0.018-0.012,0.033-0.023l0.014-0.008c0.01-0.007,0.021-0.014,0.03-0.021c0.006-0.004,0.012-0.008,0.018-0.012
						l0.008-0.007c0.002-0.002,0.005-0.004,0.008-0.006l0.022-0.015c0.005-0.003,0.011-0.006,0.014-0.009
						c0.003-0.002,0.007-0.004,0.009-0.006c0.009-0.006,0.018-0.011,0.026-0.017c0.02-0.012,0.04-0.024,0.059-0.036
						c0.009-0.006,0.019-0.012,0.032-0.018c0.009-0.004,0.017-0.01,0.025-0.015c0.013-0.007,0.024-0.014,0.036-0.02
						c0.015-0.009,0.028-0.017,0.043-0.023c0.026-0.015,0.052-0.028,0.079-0.042c0.023-0.011,0.05-0.023,0.074-0.035l0.008-0.004
						c0.036-0.017,0.075-0.035,0.116-0.053l0.046-0.02c0.004-0.002,0.009-0.004,0.014-0.006c0.246-0.106,0.502-0.196,0.758-0.274
						c0.084-0.031,0.17-0.055,0.254-0.082L3.9,17.81c0.039-0.014,0.078-0.025,0.116-0.038l0.081-0.024
						c0.757-0.24,1.544-0.39,2.323-0.532v-0.049c-0.784,0.145-1.576,0.294-2.337,0.535l-0.08,0.026
						c-0.04,0.012-0.079,0.024-0.118,0.036l-0.026,0.008c-0.032,0.012-0.064,0.021-0.097,0.03c-0.165,0.055-0.331,0.106-0.494,0.166
						c-0.01,0.003-0.018,0.007-0.026,0.011c-0.058,0.021-0.116,0.042-0.175,0.065l-0.02,0.008C2.974,18.078,2.9,18.107,2.829,18.14
						c-0.05,0.02-0.099,0.043-0.148,0.063c-0.055,0.027-0.108,0.054-0.16,0.08c-0.008,0.004-0.017,0.008-0.024,0.013
						c-0.024,0.011-0.048,0.023-0.07,0.037c-0.01,0.005-0.018,0.009-0.02,0.013c-0.016,0.006-0.03,0.014-0.043,0.022l-0.009,0.005
						C2.32,18.395,2.3,18.408,2.279,18.42c-0.005,0.002-0.014,0.008-0.025,0.017l-0.017,0.01c-0.003,0.003-0.006,0.004-0.01,0.006
						l-0.014,0.011c-0.006,0.004-0.011,0.008-0.017,0.012c-0.012,0.007-0.021,0.014-0.031,0.019l-0.013,0.01
						c-0.019,0.013-0.034,0.023-0.036,0.024c-0.059,0.039-0.119,0.086-0.162,0.126c-0.003,0.003-0.005,0.005-0.008,0.008
						c-0.01,0.01-0.02,0.019-0.028,0.028l0.003-0.101c0.004-0.07,0.006-0.149,0.059-0.201c0.003-0.004,0.023-0.022,0.023-0.022
						c0.014-0.013,0.029-0.025,0.049-0.039c0.059-0.048,0.125-0.088,0.19-0.126l0.039-0.021c0.004-0.002,0.008-0.005,0.012-0.007
						c0.176-0.099,0.363-0.181,0.549-0.259l0.033-0.015c0.006-0.002,0.01-0.004,0.015-0.006c0.084-0.039,0.171-0.071,0.257-0.107
						c0.009-0.003,0.018-0.007,0.025-0.011c0.242-0.096,0.503-0.178,0.754-0.257l0.09-0.027c0.273-0.086,0.612-0.177,1.011-0.267
						l0.012-0.003c0.09-0.021,0.181-0.04,0.27-0.06l0.011-0.003l0.061-0.014c0.106-0.024,0.215-0.04,0.321-0.067
						c0.278-0.056,0.53-0.104,0.719-0.138v-0.048c-0.008,0.002-0.017,0.003-0.026,0.005C6.129,16.945,5.866,17.006,5.6,17.05
						c-0.088,0.021-0.178,0.038-0.267,0.058C4.767,16.666,4.2,16.22,3.676,15.732c0.086-0.235,0.176-0.476,0.291-0.698
						c0.013-0.031,0.027-0.062,0.043-0.094c0.086,0.029,0.173,0.059,0.259,0.085l0.08,0.028c0.04,0.015,0.081,0.026,0.12,0.043
						c0.663,0.244,1.306,0.559,1.952,0.843v-0.053c-0.613-0.271-1.224-0.57-1.852-0.803c-0.046-0.019-0.094-0.038-0.142-0.053
						c-0.02-0.008-0.041-0.015-0.062-0.023L4.283,14.98c-0.082-0.032-0.168-0.058-0.252-0.083c-0.007-0.003-0.015-0.005-0.021-0.007
						c-0.001,0-0.007-0.002-0.007-0.002c-0.04-0.013-0.08-0.024-0.122-0.037c-0.002-0.001-0.006-0.002-0.011-0.003
						c-0.018-0.006-0.036-0.011-0.056-0.016L3.773,14.82l-0.027-0.008c-0.007-0.001-0.012-0.004-0.02-0.005
						C3.549,14.759,3.358,14.7,3.173,14.69l-0.017-0.003c-0.068-0.012-0.144-0.015-0.214-0.012c-0.013,0-0.025,0.001-0.035,0.002
						c-0.012,0-0.023,0.001-0.033,0.003c-0.003,0.001-0.009,0.001-0.009,0.001c-0.008,0.002-0.015,0.003-0.018,0.003
						c-0.005,0.001-0.009,0.003-0.014,0.003L2.81,14.694c-0.007,0.003-0.015,0.005-0.021,0.008l0.058-0.134l0.01-0.012
						c0.021-0.024,0.057-0.037,0.087-0.042c0.003-0.001,0.007-0.003,0.011-0.003l0.029-0.004c0.012-0.002,0.026-0.003,0.042-0.003
						c0.014-0.003,0.028-0.003,0.043-0.003c0.152-0.005,0.318,0.027,0.466,0.063l0.019,0.003c0.074,0.017,0.148,0.035,0.223,0.056
						l0.062,0.018c0.086,0.024,0.173,0.049,0.261,0.075c0.018,0.007,0.037,0.013,0.055,0.019l0.009,0.002
						c0.025,0.013,0.056,0.018,0.082,0.028c0.058,0.018,0.114,0.037,0.171,0.058l0.032,0.012c0.021,0.007,0.039,0.014,0.06,0.02
						c0.085,0.031,0.171,0.062,0.255,0.097l0.028,0.013c0.551,0.219,1.09,0.474,1.632,0.712v-0.052
						c-0.009-0.004-0.018-0.008-0.028-0.013c-0.124-0.042-0.245-0.107-0.365-0.161c-0.33-0.129-0.66-0.278-0.981-0.429
						c-0.08-0.033-0.158-0.07-0.238-0.102L4.78,14.909c-0.024-0.01-0.049-0.019-0.074-0.028c-0.057-0.023-0.117-0.045-0.184-0.069
						c-0.02-0.008-0.039-0.014-0.06-0.021L4.43,14.778c-0.083-0.031-0.169-0.061-0.254-0.086L4.169,14.69
						c-0.106-0.035-0.212-0.065-0.318-0.095l-0.062-0.018c-0.076-0.018-0.151-0.039-0.228-0.055l-0.017-0.004
						c-0.058-0.013-0.115-0.026-0.174-0.034c-0.109-0.02-0.238-0.048-0.349-0.028c0.144-0.31,0.31-0.614,0.488-0.911l0.025-0.044
						c0.068-0.112,0.142-0.227,0.218-0.344c0.445-0.057,0.887,0.11,1.303,0.246c0.466,0.152,0.922,0.333,1.365,0.539v-0.052
						c-0.424-0.204-0.864-0.371-1.31-0.519c-0.424-0.141-0.868-0.302-1.322-0.265c-0.005,0-0.01,0-0.014,0l-0.037,0.004
						c-0.003,0-0.007,0.001-0.011,0.002c-0.015,0.001-0.03,0.004-0.044,0.007c-0.03,0.01-0.062,0.014-0.093,0.026
						c0.04-0.074,0.063-0.155,0.149-0.188c0.105-0.038,0.221-0.024,0.328-0.019h0.007c0.05,0.005,0.098,0.009,0.144,0.014
						C4.31,12.957,4.4,12.973,4.49,12.992l0.069,0.016c0.079,0.045,0.175,0.054,0.262,0.072c0.118,0.024,0.232,0.067,0.347,0.104
						c0.243,0.08,0.485,0.163,0.723,0.257l0.007,0.003c0.211,0.082,0.392,0.16,0.523,0.22v-0.053
						c-0.115-0.052-0.267-0.117-0.444-0.188c0.146-0.035,0.303-0.068,0.444-0.095V13.28c-0.166,0.03-0.353,0.07-0.519,0.114
						c-0.11-0.044-0.212-0.081-0.308-0.114c0.113-0.035,0.228-0.066,0.344-0.095c0.005-0.001,0.011-0.003,0.017-0.004
						c0.154-0.037,0.311-0.067,0.467-0.1v-0.049c-0.301,0.068-0.608,0.12-0.9,0.221c-0.292-0.096-0.579-0.202-0.877-0.274
						c0.565-0.226,1.183-0.345,1.777-0.464v-0.049c-0.12,0.023-0.24,0.055-0.361,0.075c-0.5,0.109-1.024,0.214-1.495,0.418
						c-0.113-0.026-0.228-0.049-0.343-0.055c-0.018-0.002-0.035-0.003-0.053-0.005c0.022-0.009,0.045-0.018,0.067-0.028
						c0.347-0.131,0.697-0.245,1.054-0.342l0.476-0.122l0.007-0.002c0.272-0.067,0.485-0.12,0.647-0.157V12.2
						c-0.15,0.034-0.34,0.081-0.583,0.142c1.644-1.658,3.821-2.646,6.142-2.787v15.698c-2.374-0.06-4.772-0.381-7.059-1.032
						c0.796-0.327,1.622-0.538,2.469-0.68c-0.005-0.006-0.011-0.013-0.014-0.021c-0.005-0.008-0.011-0.015-0.014-0.022
						c-0.866,0.143-1.705,0.366-2.515,0.702c-0.003,0.001-0.006,0.002-0.009,0.003c-0.052,0.021-0.104,0.042-0.154,0.063
						l-0.017,0.007c-0.074,0.036-0.151,0.068-0.228,0.103c-0.007,0.003-0.013,0.006-0.018,0.009l-0.025,0.012
						c-0.074,0.035-0.145,0.068-0.209,0.103c-0.025,0.012-0.049,0.024-0.073,0.037c-0.006,0.003-0.011,0.006-0.016,0.009
						l-0.018,0.009c-0.025,0.015-0.051,0.028-0.074,0.041c-0.001,0.002-0.012,0.009-0.012,0.009
						c-0.007,0.003-0.014,0.007-0.02,0.011l-0.006,0.002c-0.007,0.005-0.013,0.01-0.02,0.012c-0.005,0.005-0.009,0.008-0.014,0.009
						c-0.006,0.005-0.013,0.01-0.018,0.013l-0.021,0.014c-0.08,0.051-0.14,0.097-0.179,0.138c-0.002,0.002-0.004,0.005-0.007,0.006
						c-0.005,0.006-0.01,0.012-0.016,0.018L3.69,24.831C3.688,24.834,3.686,24.837,3.684,24.839z M3.697,24.95
						c-0.011-0.022,0.002-0.05,0.013-0.068c0.016,0.023,0.032,0.046,0.048,0.069C3.72,24.962,3.704,24.962,3.697,24.95z
						 M11.98,29.571c-3.258-0.179-6.301-1.893-8.146-4.596c-0.033-0.043-0.062-0.088-0.092-0.133c0.038-0.04,0.098-0.086,0.18-0.141
						c0.06,0.094,0.122,0.186,0.187,0.274c0.038,0.055,0.077,0.109,0.118,0.162c0.073,0.104,0.151,0.207,0.232,0.306
						c0.014,0.017,0.028,0.036,0.045,0.055c0.168,0.217,0.353,0.423,0.542,0.62c0.002,0.002,0.004,0.005,0.006,0.007
						c0.349,0.365,0.724,0.734,1.135,1.03c0.136,0.108,0.276,0.214,0.42,0.311c0.03,0.023,0.062,0.046,0.095,0.066
						c0.033,0.024,0.065,0.046,0.101,0.067c0.041,0.029,0.084,0.058,0.128,0.085c0.002,0.003,0.005,0.003,0.008,0.006
						c0.074,0.05,0.15,0.103,0.231,0.145c0.754,0.477,1.58,0.817,2.427,1.09c0.021,0.007,0.044,0.014,0.066,0.019
						c0.752,0.233,1.534,0.347,2.317,0.403V29.571z M11.98,29.3c-0.11-0.006-0.223-0.012-0.333-0.024
						c-0.332-0.024-0.669-0.071-0.994-0.14c-0.225-0.033-0.451-0.089-0.668-0.15c-0.109-0.026-0.218-0.058-0.325-0.091
						c-0.49-0.132-0.974-0.325-1.431-0.543c-0.007-0.002-0.015-0.006-0.022-0.01c-0.128-0.059-0.255-0.122-0.38-0.188
						c-0.201-0.095-0.397-0.213-0.585-0.329c-0.04-0.02-0.078-0.047-0.114-0.071c-0.097-0.058-0.191-0.119-0.284-0.184
						c-0.03-0.018-0.06-0.039-0.089-0.06c-0.012-0.006-0.021-0.013-0.031-0.021c-0.016-0.011-0.032-0.021-0.049-0.033
						c-0.012-0.008-0.024-0.016-0.036-0.025c-0.047-0.033-0.094-0.066-0.141-0.101c-0.012-0.01-0.025-0.018-0.038-0.028
						c-0.062-0.047-0.126-0.094-0.188-0.143c-0.007-0.005-0.015-0.011-0.022-0.018c-0.048-0.036-0.095-0.073-0.141-0.111
						c-0.015-0.01-0.028-0.022-0.04-0.032c-0.183-0.146-0.36-0.301-0.531-0.462c-0.023-0.019-0.046-0.042-0.068-0.064
						c-0.197-0.183-0.385-0.378-0.563-0.579c-0.058-0.05-0.105-0.116-0.153-0.175c-0.068-0.076-0.134-0.154-0.197-0.234
						c-0.034-0.04-0.063-0.077-0.091-0.113c-0.004-0.004-0.007-0.009-0.009-0.012c-0.1-0.124-0.197-0.252-0.287-0.384
						c-0.005-0.006-0.009-0.012-0.012-0.017c-0.012-0.016-0.023-0.032-0.034-0.049c-0.055-0.076-0.107-0.154-0.159-0.232
						c0.002-0.001,0.005-0.002,0.007-0.003c0.001-0.002,0.003-0.004,0.006-0.004c0.008-0.007,0.011-0.009,0.015-0.011l0.007-0.003
						c0.003-0.001,0.005-0.003,0.008-0.005c0.004-0.002,0.009-0.005,0.013-0.008l0.013-0.008c0.023-0.013,0.047-0.025,0.072-0.04
						l0.019-0.01c0.004-0.002,0.009-0.005,0.015-0.008c0.023-0.013,0.047-0.025,0.072-0.037c0.067-0.035,0.138-0.07,0.215-0.105
						c0.043,0.065,0.089,0.132,0.138,0.201c0.002,0.005,0.006,0.01,0.009,0.014l0.01,0.013c0.048,0.068,0.098,0.135,0.147,0.201
						c0.103,0.149,0.222,0.29,0.338,0.428c0.011,0.014,0.022,0.026,0.032,0.038c0.108,0.125,0.217,0.249,0.33,0.37l0.061,0.063
						c0.114,0.12,0.231,0.238,0.352,0.352c0.004,0.004,0.01,0.008,0.014,0.011c0.266,0.257,0.551,0.492,0.846,0.715
						c0.325,0.211,0.634,0.447,0.97,0.643c0.335,0.196,0.685,0.367,1.039,0.523l0.01,0.005c0.026,0.011,0.053,0.022,0.079,0.033
						l0.018,0.007c0.033,0.015,0.068,0.029,0.102,0.042l0.08,0.031c0.764,0.321,1.597,0.509,2.418,0.607l0.012,0.001
						c0.045,0.005,0.09,0.011,0.134,0.016h0.015c0.135,0.017,0.271,0.024,0.406,0.033V29.3z M11.98,28.735
						c-0.134-0.008-0.267-0.019-0.401-0.032l-0.014-0.001c-0.044-0.004-0.089-0.01-0.134-0.015l-0.012-0.002
						c-0.826-0.093-1.631-0.307-2.406-0.603l-0.079-0.031c-0.034-0.014-0.067-0.028-0.102-0.042l-0.018-0.008
						c-0.026-0.011-0.054-0.021-0.078-0.034l-0.009-0.003c-0.708-0.309-1.37-0.695-1.991-1.153l-0.007-0.006
						c-0.295-0.222-0.579-0.459-0.846-0.714c-0.06-0.033-0.102-0.091-0.146-0.14c-0.069-0.075-0.145-0.146-0.216-0.22L5.46,25.669
						c-0.113-0.121-0.222-0.245-0.329-0.371c-0.01-0.011-0.02-0.022-0.029-0.035c-0.108-0.124-0.212-0.256-0.31-0.389
						c-0.011-0.013-0.019-0.024-0.028-0.038c-0.05-0.066-0.1-0.134-0.146-0.2l-0.019-0.025c-0.047-0.066-0.092-0.133-0.134-0.195
						c0.065-0.029,0.133-0.059,0.202-0.091c0.028,0.044,0.06,0.087,0.089,0.129c0.019,0.024,0.035,0.051,0.055,0.075
						c0.163,0.229,0.336,0.451,0.519,0.667c0.024,0.026,0.046,0.053,0.07,0.08c0.012,0.015,0.023,0.028,0.036,0.041
						c0.018,0.02,0.034,0.039,0.053,0.06c0.002,0.002,0.003,0.003,0.005,0.005c0.113,0.125,0.229,0.248,0.344,0.363
						c0.001,0.001,0.003,0.003,0.004,0.005c1.646,1.643,3.825,2.622,6.139,2.762V28.735z M11.98,28.463
						c-2.274-0.139-4.417-1.093-6.047-2.694c1.371,0.322,3.506,0.708,6.047,0.769V28.463z M12.251,29.737h-0.223v-3.197
						c0.074,0.001,0.146,0.003,0.223,0.004V29.737z M12.831,29.582c-0.178,0.008-0.357,0.008-0.533,0v-3.039
						c0.177,0.002,0.355,0.005,0.533,0.002V29.582z M13.101,29.737h-0.224v-3.191c0.075,0,0.149-0.001,0.224-0.003V29.737z
						 M13.123,26.494c-0.081,0.003-0.162,0.003-0.246,0.003h-0.046c-0.178,0.002-0.356,0.001-0.533-0.002h-0.047
						c-0.077-0.001-0.151-0.003-0.227-0.005h-0.019c-2.596-0.061-4.771-0.46-6.139-0.785C5.78,25.619,5.694,25.53,5.61,25.439
						c-0.012-0.012-0.023-0.024-0.034-0.035c0.483,0.116,0.969,0.229,1.457,0.322c0.494,0.094,0.991,0.164,1.486,0.251
						c0.005,0.001,0.012,0.001,0.018,0.003c0.966,0.104,1.924,0.229,2.896,0.269c0.01,0,0.019,0.001,0.029,0.002
						c0.397,0.016,0.794,0.025,1.19,0.025h0.017c0.361,0,0.724-0.016,1.085-0.021c0.43-0.023,0.858-0.044,1.286-0.074
						c0.365-0.048,0.733-0.069,1.099-0.107c0.383-0.043,0.764-0.096,1.144-0.154c0.731-0.112,1.456-0.254,2.177-0.419
						c-0.097,0.104-0.194,0.203-0.292,0.296C17.817,26.094,15.675,26.456,13.123,26.494z M20.714,25.75l-0.007,0.008
						c-1.878,2.265-4.632,3.652-7.56,3.812v-0.225c0.078-0.002,0.156-0.008,0.233-0.015c0.029-0.001,0.058-0.004,0.086-0.008
						c0.396-0.03,0.79-0.093,1.179-0.173c0.02-0.003,0.037-0.007,0.056-0.012c0.398-0.077,0.794-0.193,1.178-0.324
						c0.01-0.003,0.018-0.006,0.026-0.01c0.019-0.006,0.038-0.013,0.056-0.019c0.019-0.006,0.037-0.012,0.056-0.02
						c0.145-0.05,0.287-0.105,0.428-0.163c0.009-0.002,0.017-0.005,0.025-0.01c0.131-0.053,0.262-0.107,0.389-0.17
						c0.196-0.089,0.392-0.184,0.581-0.288c0.042-0.021,0.085-0.044,0.125-0.068c0.007-0.002,0.013-0.006,0.02-0.011
						c0.038-0.02,0.075-0.041,0.113-0.063c0.381-0.201,0.734-0.452,1.079-0.71c0.342-0.255,0.673-0.527,0.974-0.83
						c0.011-0.008,0.019-0.017,0.027-0.023c0.375-0.377,0.736-0.766,1.053-1.193c0.009,0.01,0.017,0.02,0.022,0.029
						c0.008,0.01,0.015,0.019,0.02,0.027c0.003,0.003,0.005,0.005,0.005,0.008c0.012,0.016,0.021,0.03,0.03,0.043
						c0.021,0.027,0.035,0.058,0.053,0.087c0,0.002,0.001,0.004,0.003,0.006c-0.006,0.008-0.012,0.016-0.017,0.023
						c-0.01,0.014-0.02,0.026-0.03,0.039c-0.008,0.012-0.018,0.024-0.027,0.035c-0.003,0.002-0.005,0.007-0.008,0.009l-0.005,0.007
						C20.821,25.616,20.769,25.684,20.714,25.75z M20.985,25.485c0.008,0.021,0.015,0.04,0.02,0.057
						c-0.019-0.001-0.037-0.002-0.059-0.003C20.959,25.52,20.972,25.504,20.985,25.485z M21.01,25.664
						c-0.001,0.006-0.003,0.011-0.005,0.017c-0.005,0.009-0.01,0.018-0.016,0.025c-0.032,0.04-0.106,0.055-0.217,0.046
						c0.046-0.056,0.092-0.114,0.137-0.171c0.011,0.001,0.022,0.003,0.03,0.003c0.023,0.001,0.047,0.003,0.07,0.004
						C21.019,25.619,21.017,25.643,21.01,25.664z M21.982,24.217c0,0.013-0.002,0.026-0.004,0.039
						c-0.001,0.004-0.001,0.007-0.002,0.01c-0.003,0.012-0.005,0.024-0.01,0.032c0,0.004-0.038,0.067-0.038,0.067l-0.008,0.01
						c-0.048,0.056-0.13,0.086-0.242,0.094c0.092-0.153,0.18-0.308,0.261-0.463c0.02,0.047,0.039,0.101,0.04,0.153
						c0.002,0.016,0.003,0.028,0.003,0.044V24.217z M23.124,19.559c-0.002,0.062-0.006,0.126-0.012,0.188l-0.003,0.046
						c-0.003,0.05-0.007,0.098-0.013,0.147l-0.004,0.054c-0.118,1.279-0.464,2.509-1.027,3.658c0-0.012-0.024-0.046-0.029-0.056
						c-0.01-0.019-0.021-0.037-0.031-0.057c-0.014-0.021-0.028-0.043-0.043-0.065c-0.011-0.017-0.024-0.032-0.035-0.05
						c0.389-0.813,0.68-1.692,0.825-2.581c0.099-0.48,0.152-0.987,0.157-1.477c0.075,0.042,0.15,0.087,0.217,0.142
						C23.126,19.525,23.126,19.543,23.124,19.559z M21.123,20.537c0.271-0.066,0.545-0.123,0.817-0.188
						c-0.115,0.811-0.334,1.601-0.653,2.349c-0.729-0.714-1.736-1.473-2.183-1.8C19.705,20.802,20.712,20.634,21.123,20.537z
						 M19.05,20.86c-0.104-0.075-0.219-0.162-0.263-0.195c1.071-0.17,2.136-0.355,3.19-0.609c-0.009,0.081-0.018,0.162-0.029,0.242
						C20.99,20.534,20.023,20.702,19.05,20.86z M21.989,20.336l0.004-0.017c0.013-0.101,0.024-0.193,0.033-0.278
						c0.002-0.005,0.002-0.01,0.002-0.015l0.004-0.035c0.021-0.188,0.033-0.38,0.041-0.575c0.001-0.006,0.001-0.011,0.001-0.017
						l0.001-0.032c0.004-0.104,0.006-0.188,0.006-0.268v-0.031c0.001-0.021,0.001-0.039,0.001-0.06v-0.011l0.017,0.006
						c0.053,0.022,0.104,0.04,0.154,0.061c0.019,0.007,0.033,0.013,0.047,0.019c0.005,1.303-0.273,2.635-0.809,3.822
						c-0.055-0.058-0.11-0.115-0.167-0.171C21.65,21.972,21.875,21.165,21.989,20.336z M21.728,22.454
						c0.394-1.07,0.624-2.207,0.624-3.351c0.048,0.02,0.095,0.04,0.14,0.06c0.006,0.002,0.011,0.003,0.016,0.007
						c0.071,0.029,0.143,0.062,0.212,0.097c0.029,0.014,0.057,0.027,0.082,0.041c0.022,0.011,0.042,0.02,0.062,0.033
						c0,0.022,0,0.046-0.003,0.069c-0.049,1.369-0.38,2.729-0.966,3.969c-0.014-0.018-0.026-0.036-0.041-0.054
						c-0.04-0.054-0.081-0.108-0.126-0.158c-0.063-0.077-0.133-0.149-0.199-0.225C21.599,22.783,21.665,22.619,21.728,22.454z
						 M23.148,19.911c0.004-0.038,0.007-0.076,0.01-0.114l0.003-0.047c0.002-0.031,0.005-0.062,0.006-0.092
						c0.003-0.037,0.005-0.072,0.006-0.11c0.013,0.011,0.019,0.018,0.025,0.025C23.33,19.716,23.313,19.821,23.148,19.911z
						 M23.293,18.841c-0.003,0.026-0.025,0.068-0.107,0.123c0-0.036,0-0.071,0-0.107l-0.003-0.146
						c-0.001-0.022-0.001-0.045-0.002-0.068c0.012,0.012,0.022,0.023,0.034,0.035c0.035,0.039,0.061,0.077,0.07,0.111
						c0.004,0.006,0.005,0.012,0.007,0.017c0,0.005,0.001,0.01,0.002,0.017L23.293,18.841z M23.294,18.54v0.163
						c-0.007-0.01-0.013-0.018-0.02-0.028c-0.027-0.041-0.068-0.073-0.105-0.106l-0.033-0.027c-0.003-0.003-0.005-0.004-0.008-0.006
						c-0.282-0.22-0.627-0.355-0.958-0.483c-0.364-0.142-0.737-0.263-1.112-0.372c-0.74-0.216-1.495-0.371-2.255-0.498v0.049
						c0.014,0.002,0.028,0.005,0.043,0.008c0.156,0,0.306,0.052,0.457,0.08c0.184,0.034,0.367,0.069,0.55,0.108
						c0.37,0.079,0.738,0.169,1.103,0.272c0.363,0.104,0.724,0.223,1.079,0.353c0.332,0.122,0.667,0.253,0.964,0.45
						c0.023,0.015,0.048,0.03,0.068,0.047c0.006,0.003,0.067,0.05,0.065,0.05c0.001,0.041,0.003,0.076,0.004,0.112l0.003,0.147
						c0.001,0.049,0.001,0.099,0.001,0.148v0.042c0,0.042-0.001,0.082-0.001,0.122c-0.016-0.012-0.032-0.024-0.05-0.035
						c-0.029-0.02-0.059-0.041-0.09-0.059c-0.026-0.018-0.054-0.033-0.082-0.048l-0.013-0.008c-0.07-0.037-0.149-0.077-0.24-0.121
						l-0.007-0.002c-1.208-0.56-2.54-0.889-3.854-1.086v0.049c1.389,0.209,2.808,0.557,4.065,1.194l0.013,0.009
						c0.091,0.045,0.178,0.104,0.256,0.166l0.009,0.007c0.098,0.085,0.148,0.166,0.148,0.242v0.139
						c-0.035-0.055-0.081-0.095-0.128-0.139l-0.019-0.016c-0.006-0.005-0.012-0.009-0.019-0.015
						c-0.072-0.047-0.142-0.096-0.218-0.138c-0.004-0.002-0.009-0.004-0.013-0.007c-0.181-0.088-0.36-0.177-0.547-0.252
						l-0.033-0.014c-0.005-0.001-0.009-0.004-0.014-0.006c-0.011-0.004-0.022-0.009-0.034-0.013
						c-0.052-0.022-0.103-0.04-0.155-0.061l-0.049-0.019c-1.049-0.402-2.154-0.677-3.264-0.844v0.05
						c1.106,0.166,2.183,0.443,3.231,0.832v0.029c0,0.024,0,0.047-0.001,0.072c-1.062,0.286-2.139,0.502-3.23,0.635v0.049
						c1.091-0.139,2.168-0.349,3.23-0.634c-0.001,0.073-0.003,0.153-0.005,0.248c-0.43,0.114-0.861,0.223-1.296,0.315
						c-0.221,0.047-0.443,0.088-0.665,0.129c-0.215,0.04-0.43,0.09-0.648,0.106c-0.129,0.021-0.259,0.039-0.389,0.056
						c-0.039,0.007-0.077,0.011-0.11,0.015c-0.039,0.006-0.079,0.008-0.117,0.016v0.047c1.089-0.137,2.163-0.348,3.223-0.632
						c0,0.01,0,0.021-0.002,0.032c-0.001,0.083-0.007,0.166-0.015,0.249c-0.005,0.098-0.017,0.195-0.025,0.293
						c-0.331,0.081-0.664,0.165-0.998,0.229c-0.197,0.049-0.399,0.077-0.598,0.117c-0.005,0-0.01,0-0.014,0.001
						c-0.529,0.088-1.058,0.183-1.588,0.265c0,0.004,0,0.008-0.001,0.011c0,0.012-0.001,0.022-0.003,0.034
						c-0.001,0.023-0.002,0.043-0.005,0.06c0.026,0.021,0.057,0.042,0.057,0.042c0.026,0.018,0.077,0.055,0.149,0.106
						c0.016,0.011,0.031,0.024,0.048,0.035c0.003,0.001,0.005,0.003,0.008,0.005c0.427,0.312,1.479,1.101,2.228,1.836
						c0.004,0.004,0.008,0.008,0.012,0.012c0.069,0.068,0.136,0.134,0.192,0.195l0.012,0.012c0.008,0.009,0.016,0.017,0.024,0.025
						c0.146,0.155,0.267,0.303,0.365,0.438c0.003,0.004,0.006,0.009,0.009,0.013c0.007,0.011,0.015,0.022,0.021,0.032
						c0.111,0.164,0.283,0.428,0.182,0.632l-0.056,0.092c0-0.008,0-0.015,0-0.021c-0.002-0.01-0.002-0.019-0.003-0.028
						c0-0.002,0-0.007-0.002-0.011c-0.003-0.017-0.006-0.037-0.01-0.057c-0.008-0.025-0.015-0.047-0.021-0.067
						c-0.009-0.021-0.015-0.04-0.023-0.06c-0.004-0.005-0.005-0.009-0.006-0.013l-0.021-0.043c-0.135-0.303-0.372-0.549-0.601-0.783
						c-0.263-0.27-0.542-0.522-0.826-0.77c-0.563-0.49-1.154-0.946-1.764-1.378c-0.003,0.018-0.004,0.035-0.007,0.053
						c0.617,0.442,1.219,0.909,1.793,1.407c0.272,0.236,0.536,0.482,0.791,0.737c0.23,0.23,0.458,0.481,0.586,0.785
						c-0.222,0.422-0.474,0.824-0.75,1.212c-0.003-0.004-0.005-0.009-0.008-0.014c-0.003-0.005-0.006-0.011-0.011-0.016
						c-0.027-0.042-0.055-0.084-0.086-0.124c-0.122-0.176-0.288-0.33-0.442-0.476l-0.009-0.008c-0.085-0.08-0.169-0.162-0.258-0.236
						l-0.005-0.006c-0.334-0.294-0.676-0.579-1.023-0.857l-0.115-0.094c-0.297-0.238-0.592-0.479-0.888-0.719
						c-0.001,0.003-0.002,0.005-0.003,0.008c-0.003,0.012-0.008,0.024-0.015,0.036c0.29,0.24,0.586,0.474,0.876,0.713l0.114,0.092
						c0.345,0.279,0.688,0.562,1.019,0.856l0.007,0.005c0.023,0.021,0.045,0.04,0.066,0.062c0.066,0.059,0.129,0.118,0.189,0.175
						l0.01,0.009c0.033,0.029,0.064,0.061,0.093,0.091c0.17,0.165,0.357,0.347,0.463,0.561c0.007,0.012,0.014,0.023,0.018,0.035
						c0.044,0.094,0.052,0.169,0.023,0.224l-0.117,0.142c0-0.026-0.002-0.054-0.01-0.078c-0.011-0.038-0.035-0.076-0.044-0.113
						c-0.006-0.011-0.011-0.021-0.016-0.031c-0.006-0.008-0.01-0.016-0.015-0.023c-0.002-0.003-0.004-0.008-0.006-0.012
						c-0.009-0.013-0.017-0.027-0.026-0.043c-0.022-0.035-0.052-0.073-0.088-0.12c-0.001-0.003-0.003-0.004-0.004-0.006
						c-0.008-0.011-0.022-0.026-0.022-0.026c-0.002-0.002-0.004-0.004-0.005-0.007c-0.004-0.005-0.009-0.011-0.014-0.016
						c-0.013-0.015-0.025-0.03-0.04-0.047c-0.014-0.017-0.028-0.032-0.044-0.049l-0.007-0.009c-0.046-0.051-0.093-0.103-0.143-0.148
						c-0.014-0.015-0.029-0.031-0.045-0.047l-0.067-0.065l-0.016-0.015c-0.005-0.006-0.012-0.012-0.019-0.018
						c-0.05-0.048-0.102-0.098-0.159-0.148c-0.008-0.008-0.013-0.012-0.017-0.017c-0.002-0.001-0.005-0.004-0.007-0.008
						c-0.004-0.003-0.007-0.004-0.01-0.008c-0.058-0.053-0.12-0.107-0.189-0.168c-0.012-0.01-0.023-0.02-0.034-0.029
						c-0.003-0.003-0.007-0.006-0.01-0.007c-0.256-0.222-0.516-0.441-0.78-0.653l-0.081-0.066c-0.312-0.257-0.628-0.507-0.942-0.76
						c-0.007,0.014-0.015,0.028-0.021,0.042c0.312,0.256,0.625,0.503,0.934,0.755l0.081,0.066c0.253,0.207,0.507,0.415,0.754,0.63
						c-0.458,0.116-0.92,0.224-1.384,0.312c-0.451-0.201-0.842-0.388-1.092-0.509l-0.022-0.009
						c-0.012-0.006-0.024-0.012-0.034-0.018c-0.002-0.002-0.005-0.002-0.008-0.003l-0.017-0.008
						c-0.011,0.014-0.021,0.026-0.031,0.037l0.025,0.012c0.002,0.002,0.005,0.003,0.008,0.003c0.012,0.008,0.025,0.014,0.037,0.02
						l0.021,0.01c0.047,0.023,0.1,0.048,0.156,0.075c0.295,0.126,0.582,0.274,0.875,0.404c-0.124,0.024-0.251,0.049-0.382,0.072
						c-0.343-0.156-0.657-0.304-0.896-0.42c-0.005,0.006-0.011,0.012-0.017,0.017c-0.005,0.007-0.011,0.014-0.017,0.02
						c0.227,0.108,0.521,0.248,0.845,0.397c-1.607,0.286-3.238,0.444-4.872,0.469V9.554c2.085,0.127,4.056,0.938,5.624,2.302
						c0.011,0.009,0.021,0.017,0.031,0.026c0.154,0.135,0.306,0.277,0.454,0.425c-0.125-0.024-0.277-0.054-0.454-0.084v0.048
						c0.326,0.058,0.651,0.123,0.975,0.196c0.003,0.001,0.004,0.001,0.008,0.002c0.488,0.117,0.991,0.254,1.444,0.474
						c0.017,0.007,0.029,0.014,0.044,0.021c0.215,0.104,0.346,0.208,0.395,0.312l0.041,0.112c-0.06-0.057-0.14-0.112-0.235-0.162
						c-0.004-0.003-0.08-0.043-0.08-0.043c-0.802-0.392-1.722-0.567-2.592-0.713v0.048c0.865,0.143,1.775,0.322,2.57,0.708
						l0.031,0.016c0.014,0.008,0.025,0.014,0.037,0.021c0.099,0.151,0.191,0.305,0.284,0.46c0.005,0.006,0.009,0.014,0.012,0.021
						c0.003,0.005,0.007,0.011,0.01,0.016c-0.166-0.06-0.335-0.111-0.504-0.162l-0.035-0.011c-0.205-0.061-0.409-0.129-0.616-0.183
						l-0.016-0.006c-0.584-0.164-1.178-0.289-1.773-0.394v0.048c0.586,0.102,1.169,0.227,1.742,0.387l0.018,0.006
						c0.211,0.059,0.421,0.123,0.632,0.188l0.034,0.011c0.188,0.056,0.38,0.109,0.561,0.183c0.106,0.036,0.232,0.093,0.286,0.197
						l0.058,0.142c-0.04-0.031-0.087-0.055-0.135-0.074c-0.005-0.003-0.01-0.005-0.016-0.007c0-0.001-0.013-0.008-0.013-0.008
						c-0.124-0.053-0.254-0.096-0.382-0.137c-0.002-0.001-0.006-0.002-0.009-0.003c-0.237-0.083-0.481-0.149-0.723-0.221
						c-0.003-0.002-0.006-0.003-0.009-0.005l-0.068-0.019l-0.009-0.003c-0.005-0.001-0.011-0.002-0.017-0.004
						c-0.145-0.046-0.295-0.076-0.44-0.12c-0.6-0.15-1.184-0.258-1.512-0.313V13.3c0.34,0.059,0.942,0.169,1.555,0.326
						c0.043,0.061,0.082,0.119,0.119,0.176c-0.555,0.13-1.114,0.236-1.674,0.34v0.05c0.568-0.107,1.138-0.214,1.7-0.347
						c0.046,0.067,0.089,0.136,0.134,0.208c-0.126,0.038-0.263,0.066-0.392,0.088c-0.135,0.03-0.27,0.058-0.404,0.087l-0.055,0.01
						c-0.129,0.026-0.259,0.05-0.388,0.076c-0.005,0-0.009,0.001-0.013,0.002c-0.188,0.038-0.375,0.072-0.562,0.108
						c-0.008,0.001-0.014,0.003-0.021,0.004v0.049c0.246-0.046,0.492-0.094,0.738-0.142c0.006,0,0.012-0.002,0.018-0.002
						c0.078-0.017,0.157-0.033,0.236-0.048l0.056-0.011c0.115-0.024,0.231-0.05,0.348-0.073c0.003,0,0.006-0.001,0.007-0.002
						c0.134-0.029,0.27-0.055,0.402-0.091c0.019-0.004,0.036-0.009,0.054-0.013c0.09,0.145,0.17,0.293,0.253,0.441
						c-0.001,0-0.17,0.041-0.17,0.041c-0.518,0.127-1.037,0.245-1.562,0.34l-0.06,0.012c-0.119,0.023-0.229,0.042-0.32,0.058v0.049
						c0.001,0,0.004,0,0.008,0c0.023-0.005,0.049-0.01,0.075-0.015c0.008-0.001,0.016-0.003,0.022-0.004
						c0.074-0.014,0.149-0.026,0.224-0.041c0.354-0.08,0.715-0.125,1.065-0.217c0.188-0.042,0.373-0.09,0.56-0.135l0.181-0.045
						c0.038,0.071,0.075,0.144,0.112,0.218c-0.744,0.184-1.491,0.344-2.247,0.476v0.049c0.763-0.134,1.518-0.295,2.269-0.482
						c0.438,0.895,0.729,1.847,0.867,2.829c-1.016-0.367-2.07-0.612-3.136-0.784v0.049c1.068,0.17,2.125,0.421,3.145,0.788
						c0.004,0.002,0.009,0.003,0.013,0.004c0.099,0.036,0.19,0.07,0.274,0.104c0.005,0.002,0.01,0.003,0.013,0.005
						c0.013,0.006,0.025,0.011,0.038,0.017c0.22,0.089,0.398,0.172,0.545,0.253c0,0,0.166,0.096,0.329,0.221
						c0.083,0.074,0.128,0.141,0.135,0.2C23.295,18.532,23.295,18.537,23.294,18.54z"/>
				</g>
				<g>
					<g>
						<path style="fill:#B72020;" d="M6.421,20.141c0,1.36,0.415,2.711,1.245,3.795c0.781,1.019,1.884,1.773,3.111,2.146
							c2.371,0.723,5.017-0.041,6.608-1.947c0.743-0.891,1.23-1.994,1.362-3.148c0.086-0.751,0.055-1.516,0.055-2.271
							c0-0.773,0-1.546,0-2.319c0-1.514,0-3.027,0-4.54H6.421C6.421,11.856,6.421,14.777,6.421,20.141z"/>
						<path style="fill:#FFFFFF;" d="M8.985,20.141c0,1.237,0.581,2.422,1.64,3.087c1.098,0.69,2.509,0.753,3.666,0.173
							c1.236-0.62,1.947-1.891,1.947-3.26V14.42H8.985V20.141z"/>
						<path style="fill:#FFFFFF;" d="M6.303,20.141c0,1.367,0.406,2.728,1.232,3.824c0.773,1.024,1.862,1.79,3.08,2.188
							c1.224,0.401,2.563,0.43,3.8,0.065c1.097-0.324,2.101-0.948,2.877-1.789c1.079-1.17,1.629-2.702,1.629-4.288v-8.404H6.303
							V20.141z M6.54,11.975h12.143v8.166c0,1.355-0.416,2.699-1.256,3.77c-0.794,1.013-1.914,1.75-3.152,2.097
							c-2.382,0.666-5.008-0.184-6.512-2.155C6.949,22.785,6.54,21.48,6.54,20.141V11.975z"/>
						<g>
							<path d="M6.517,20.141c0,1.097,0.265,2.189,0.82,3.138c0.499,0.854,1.217,1.569,2.061,2.082
								c1.652,1.003,3.701,1.181,5.498,0.464c1.899-0.758,3.314-2.426,3.697-4.441c0.077-0.409,0.114-0.825,0.114-1.242v-8.19H6.517
								V20.141z M6.565,11.998h12.095v8.143c0,1.353-0.417,2.696-1.257,3.765c-0.796,1.01-1.918,1.743-3.156,2.085
								c-2.384,0.656-5.007-0.21-6.493-2.193c-0.792-1.057-1.188-2.34-1.188-3.656V11.998z"/>
							<path d="M6.278,20.141c0,1.369,0.406,2.73,1.23,3.829c0.77,1.026,1.86,1.796,3.077,2.199
								c1.224,0.406,2.564,0.441,3.803,0.081c1.099-0.318,2.106-0.936,2.889-1.771c1.104-1.178,1.668-2.731,1.668-4.339v-8.428
								H6.278V20.141z M6.325,11.76h12.572v8.381c0,1.37-0.41,2.732-1.242,3.828c-0.777,1.024-1.874,1.785-3.096,2.176
								c-2.358,0.755-5.006,0.053-6.663-1.79c-1.042-1.159-1.571-2.661-1.571-4.214V11.76z"/>
						</g>
					</g>
					<g>
						<path style="fill:#FFE900;" d="M13.536,14.094h-0.053l-0.09-0.681h0.018c0.093,0,0.093-0.143,0-0.143h0.075
							c0.093,0,0.093-0.143,0-0.143h-0.111v-0.344l0.08-0.079v-0.207h-0.107v0.108h-0.111v-0.108h-0.114v0.108h-0.111v-0.108h-0.107
							v0.207l0.079,0.079v0.344h-0.176v-0.692l0.079-0.08V12.15h-0.107v0.107h-0.11V12.15h-0.112v0.107h-0.111V12.15h-0.106v0.206
							l0.079,0.08v0.692H12.24v-0.344l0.079-0.079v-0.207h-0.106v0.108h-0.111v-0.108h-0.115v0.108h-0.11v-0.108h-0.107v0.207
							l0.08,0.079v0.344h-0.111c-0.093,0-0.093,0.143,0,0.143h0.071c-0.093,0-0.093,0.143,0,0.143h0.022l-0.089,0.681h-0.054
							c-0.093,0-0.093,0.143,0,0.143h1.849C13.628,14.237,13.628,14.094,13.536,14.094z"/>
						<path d="M13.536,14.082h-0.043l-0.087-0.657c0.076,0,0.118-0.092,0.064-0.143h0.017c0.108,0,0.108-0.167,0-0.167h-0.099
							v-0.326l0.079-0.079v-0.224h-0.131v0.107h-0.087v-0.107h-0.14v0.107h-0.087v-0.107h-0.131v0.224l0.08,0.079v0.326h-0.153
							V12.44l0.079-0.079v-0.223h-0.131v0.107h-0.088v-0.107h-0.134v0.107h-0.088v-0.107h-0.132v0.223l0.08,0.079v0.676h-0.153
							v-0.326l0.08-0.079v-0.224H12.2v0.107h-0.086v-0.107h-0.14v0.107h-0.087v-0.107h-0.131v0.224l0.079,0.079v0.326h-0.099
							c-0.108,0-0.108,0.167,0,0.167h0.013c-0.055,0.051-0.013,0.143,0.059,0.143h0.009l-0.087,0.657h-0.043
							c-0.108,0-0.108,0.167,0,0.167h1.849C13.644,14.249,13.645,14.082,13.536,14.082z M12.915,12.511h0.084v0.106h0.134v-0.106
							h0.092v0.106h0.136v-0.106h0.082v0.182h-0.527V12.511z M12.933,12.718h0.493l-0.056,0.055h-0.382L12.933,12.718z
							 M13.363,12.796v0.319h-0.368v-0.319H13.363z M12.351,12.161h0.082v0.108h0.136v-0.108h0.087v0.108h0.136v-0.108h0.083v0.183
							h-0.524V12.161z M12.367,12.369h0.49l-0.056,0.055h-0.381L12.367,12.369z M12.794,12.448v0.668H12.43v-0.668H12.794z
							 M11.781,12.511h0.082v0.106h0.136v-0.106h0.092v0.106h0.134v-0.106h0.084v0.182h-0.527V12.511z M11.798,12.718h0.493
							l-0.057,0.055h-0.381L11.798,12.718z M12.229,12.796v0.319H11.86v-0.319H12.229z M11.737,13.259c-0.078,0-0.077-0.119,0-0.119
							h1.749c0.076,0,0.078,0.119,0,0.119H11.737z M11.809,13.402c-0.079,0-0.077-0.119,0-0.119h1.603c0.076,0,0.078,0.119,0,0.119
							H11.809z M11.84,13.425h1.543l0.087,0.657h-0.395c-0.004-0.245-0.17-0.655-0.464-0.655c-0.294,0-0.459,0.41-0.463,0.655
							h-0.395L11.84,13.425z M12.611,13.614c-0.108,0-0.281,0.214-0.286,0.469h-0.152c0.004-0.23,0.16-0.632,0.438-0.632
							c0.278,0,0.437,0.4,0.439,0.632h-0.153C12.893,13.827,12.72,13.614,12.611,13.614z M12.874,14.082h-0.524
							c0.003-0.141,0.078-0.445,0.261-0.445C12.795,13.637,12.871,13.941,12.874,14.082z M13.536,14.226h-1.849
							c-0.077,0-0.077-0.12,0-0.12h1.849C13.613,14.106,13.613,14.226,13.536,14.226z"/>
						<path d="M13.179,12.859c-0.02,0-0.039,0.019-0.039,0.04v0.143h0.079v-0.143C13.219,12.877,13.201,12.859,13.179,12.859z"/>
						<path d="M12.045,12.859c-0.023,0-0.04,0.019-0.04,0.04v0.143h0.079v-0.143C12.084,12.877,12.066,12.859,12.045,12.859z"/>
						<path d="M12.614,12.615c-0.025,0.001-0.042,0.019-0.042,0.04v0.142h0.078v-0.142C12.65,12.633,12.635,12.616,12.614,12.615z"
							/>
					</g>
					<g>
						<path style="fill:#FFE900;" d="M8.675,14.094H8.622l-0.09-0.681H8.55c0.093,0,0.093-0.143,0-0.143h0.076
							c0.091,0,0.091-0.143,0-0.143H8.514v-0.344l0.08-0.079v-0.207H8.486v0.108H8.375v-0.108H8.261v0.108H8.149v-0.108H8.043v0.207
							l0.079,0.079v0.344H7.945v-0.692l0.079-0.08V12.15H7.918v0.107H7.806V12.15h-0.11v0.107H7.584V12.15H7.477v0.206l0.079,0.08
							v0.692H7.38v-0.344l0.079-0.079v-0.207H7.352v0.108h-0.11v-0.108H7.125v0.108h-0.11v-0.108H6.907v0.207l0.08,0.079v0.344
							H6.876c-0.093,0-0.092,0.143,0,0.143h0.071c-0.092,0-0.092,0.143,0,0.143h0.022L6.88,14.094H6.827
							c-0.093,0-0.094,0.143,0,0.143h1.848C8.768,14.237,8.768,14.094,8.675,14.094z"/>
						<path d="M8.675,14.082H8.632l-0.087-0.657c0.076,0,0.12-0.092,0.063-0.143h0.018c0.107,0,0.107-0.167,0-0.167h-0.1v-0.326
							l0.079-0.079v-0.224H8.475v0.107H8.387v-0.107H8.248v0.107H8.162v-0.107H8.03v0.224l0.08,0.079v0.326H7.957V12.44l0.079-0.079
							v-0.223H7.905v0.107H7.818v-0.107H7.684v0.107H7.596v-0.107H7.464v0.223l0.081,0.079v0.676H7.391v-0.326l0.08-0.079v-0.224
							H7.34v0.107H7.253v-0.107h-0.14v0.107H7.025v-0.107h-0.13v0.224l0.079,0.079v0.326H6.876c-0.108,0-0.108,0.167,0,0.167h0.013
							c-0.054,0.051-0.015,0.143,0.059,0.143h0.009l-0.087,0.657H6.827c-0.109,0-0.108,0.167,0,0.167h1.848
							C8.783,14.249,8.783,14.082,8.675,14.082z M8.054,12.511h0.084v0.106h0.135v-0.106h0.091v0.106h0.136v-0.106h0.083v0.182
							H8.054V12.511z M8.071,12.718h0.493l-0.056,0.055H8.128L8.071,12.718z M8.503,12.796v0.319H8.135v-0.319H8.503z M7.489,12.161
							h0.083v0.108h0.135v-0.108h0.086v0.108h0.136v-0.108h0.084v0.183H7.489V12.161z M7.506,12.369h0.49l-0.056,0.055h-0.38
							L7.506,12.369z M7.933,12.448v0.668H7.568v-0.668H7.933z M6.92,12.511h0.083v0.106h0.135v-0.106H7.23v0.106h0.134v-0.106
							h0.084v0.182H6.92V12.511z M6.937,12.718H7.43l-0.056,0.055H6.992L6.937,12.718z M7.367,12.796v0.319H6.999v-0.319H7.367z
							 M6.876,13.259c-0.078,0-0.076-0.119,0-0.119h1.75c0.076,0,0.077,0.119,0,0.119H6.876z M6.947,13.402
							c-0.077,0-0.077-0.119,0-0.119H8.55c0.077,0,0.079,0.119,0,0.119H6.947z M6.98,13.425h1.542l0.087,0.657H8.214
							c-0.004-0.246-0.17-0.655-0.464-0.655c-0.294,0-0.459,0.41-0.463,0.655H6.893L6.98,13.425z M7.75,13.614
							c-0.107,0-0.281,0.214-0.286,0.469H7.312c0.004-0.23,0.16-0.632,0.438-0.632c0.279,0,0.437,0.4,0.441,0.632H8.036
							C8.031,13.827,7.859,13.614,7.75,13.614z M8.013,14.082H7.489c0.003-0.141,0.078-0.445,0.261-0.445
							C7.934,13.637,8.011,13.94,8.013,14.082z M8.675,14.226H6.827c-0.078,0-0.078-0.12,0-0.12h1.848
							C8.753,14.106,8.751,14.226,8.675,14.226z"/>
						<path d="M8.317,12.859c-0.021,0-0.038,0.019-0.038,0.04v0.143h0.079v-0.143C8.358,12.877,8.34,12.859,8.317,12.859z"/>
						<path d="M7.184,12.859c-0.022,0-0.04,0.019-0.04,0.04v0.143h0.079v-0.143C7.223,12.877,7.204,12.859,7.184,12.859z"/>
						<path d="M7.753,12.615c-0.025,0.001-0.042,0.019-0.042,0.04v0.142H7.79v-0.142C7.79,12.633,7.775,12.616,7.753,12.615z"/>
					</g>
					<g>
						<path style="fill:#FFE900;" d="M8.675,19.038H8.622l-0.09-0.68H8.55c0.093,0,0.094-0.143,0-0.143h0.076
							c0.091,0,0.091-0.143,0-0.143H8.514v-0.344l0.08-0.078v-0.207H8.486v0.107H8.375v-0.107H8.261v0.107H8.149v-0.107H8.043v0.207
							l0.079,0.078v0.344H7.945V17.38l0.079-0.08v-0.205H7.918v0.106H7.806v-0.106h-0.11v0.106H7.584v-0.106H7.477V17.3l0.079,0.08
							v0.692H7.38v-0.344l0.079-0.078v-0.207H7.352v0.107h-0.11v-0.107H7.125v0.107h-0.11v-0.107H6.907v0.207l0.08,0.078v0.344
							H6.876c-0.093,0-0.092,0.143,0,0.143h0.071c-0.092,0-0.092,0.143,0,0.143h0.022l-0.089,0.68H6.827
							c-0.093,0-0.094,0.143,0,0.143h1.848C8.768,19.182,8.768,19.038,8.675,19.038z"/>
						<path d="M8.675,19.028H8.632L8.545,18.37c0.077,0,0.119-0.093,0.063-0.144h0.018c0.107,0,0.107-0.166,0-0.166h-0.1v-0.327
							l0.079-0.079v-0.223H8.475v0.107H8.387v-0.107H8.248v0.107H8.162v-0.107H8.03v0.223l0.08,0.079v0.327H7.957v-0.676l0.079-0.08
							v-0.223H7.905v0.108H7.818v-0.108H7.684v0.108H7.596v-0.108H7.464v0.223l0.081,0.08v0.676H7.391v-0.327l0.08-0.079v-0.223
							H7.34v0.107H7.253v-0.107h-0.14v0.107H7.025v-0.107h-0.13v0.223l0.079,0.079v0.327H6.876c-0.108,0-0.108,0.166,0,0.166h0.013
							c-0.054,0.052-0.015,0.144,0.059,0.144h0.009l-0.087,0.657H6.827c-0.108,0-0.109,0.166,0,0.166h1.848
							C8.783,19.194,8.783,19.028,8.675,19.028z M8.054,17.455h0.084v0.107h0.135v-0.107h0.091v0.107h0.136v-0.107h0.083v0.182
							H8.054V17.455z M8.071,17.662h0.493l-0.056,0.056H8.128L8.071,17.662z M8.503,17.742v0.319H8.135v-0.319H8.503z M7.489,17.107
							h0.083v0.108h0.135v-0.108h0.086v0.108h0.136v-0.108h0.084v0.183H7.489V17.107z M7.506,17.313h0.49l-0.056,0.056h-0.38
							L7.506,17.313z M7.933,17.392v0.669H7.568v-0.669H7.933z M6.92,17.455h0.083v0.107h0.135v-0.107H7.23v0.107h0.134v-0.107
							h0.084v0.182H6.92V17.455z M6.937,17.662H7.43l-0.056,0.056H6.992L6.937,17.662z M7.367,17.742v0.319H6.999v-0.319H7.367z
							 M6.876,18.203c-0.078,0-0.076-0.119,0-0.119h1.75c0.076,0,0.078,0.119,0,0.119H6.876z M6.947,18.346
							c-0.078,0-0.076-0.119,0-0.119H8.55c0.077,0,0.079,0.119,0,0.119H6.947z M6.98,18.37h1.542l0.087,0.657H8.214
							c-0.004-0.246-0.17-0.655-0.464-0.655c-0.294,0-0.459,0.41-0.463,0.655H6.893L6.98,18.37z M7.75,18.559
							c-0.107,0-0.281,0.213-0.286,0.469H7.312c0.004-0.23,0.16-0.632,0.438-0.632c0.279,0,0.437,0.399,0.441,0.632H8.036
							C8.031,18.772,7.859,18.559,7.75,18.559z M8.013,19.028H7.489c0.003-0.142,0.078-0.445,0.261-0.445
							C7.934,18.582,8.011,18.885,8.013,19.028z M8.675,19.17H6.827c-0.078,0-0.078-0.119,0-0.119h1.848
							C8.752,19.051,8.752,19.17,8.675,19.17z"/>
						<path d="M8.317,17.803c-0.021,0-0.038,0.019-0.038,0.041v0.143h0.079v-0.143C8.358,17.822,8.34,17.803,8.317,17.803z"/>
						<path d="M7.184,17.803c-0.022,0-0.04,0.019-0.04,0.041v0.143h0.079v-0.143C7.223,17.822,7.204,17.803,7.184,17.803z"/>
						<path d="M7.753,17.56c-0.025,0.001-0.042,0.017-0.042,0.038v0.143H7.79v-0.143C7.79,17.577,7.775,17.561,7.753,17.56z"/>
					</g>
					<g>
						<path style="fill:#FFE900;" d="M10.185,23.224l-0.038,0.038l-0.545-0.418l0.014-0.013c0.064-0.066-0.036-0.166-0.102-0.102
							l0.053-0.052c0.064-0.066-0.035-0.167-0.101-0.102l-0.079,0.078l-0.243-0.242l0.001-0.113l-0.145-0.146L8.923,22.23
							l0.076,0.076L8.92,22.383l-0.076-0.075L8.763,22.39l0.076,0.075L8.76,22.543l-0.076-0.075l-0.075,0.075l0.146,0.146h0.111
							l0.243,0.244l-0.125,0.125l-0.489-0.49v-0.113L8.35,22.31l-0.075,0.075L8.35,22.46l-0.079,0.079l-0.076-0.075l-0.078,0.078
							l0.076,0.076l-0.079,0.078l-0.075-0.075l-0.076,0.075l0.146,0.146l0.112,0.001l0.49,0.489l-0.125,0.124l-0.242-0.242v-0.112
							l-0.147-0.146L8.12,23.032l0.076,0.076l-0.079,0.078L8.042,23.11L7.96,23.192l0.076,0.076l-0.078,0.078L7.882,23.27
							l-0.076,0.076l0.147,0.146l0.112-0.001l0.243,0.243l-0.079,0.078c-0.064,0.065,0.036,0.167,0.102,0.102l0.051-0.051
							c-0.066,0.065,0.036,0.167,0.101,0.102l0.016-0.016l0.417,0.544l-0.037,0.038c-0.065,0.065,0.035,0.166,0.101,0.101
							l1.308-1.307C10.349,23.259,10.249,23.159,10.185,23.224z"/>
						<path d="M10.176,23.216l-0.03,0.03l-0.526-0.403c0.055-0.055,0.019-0.149-0.057-0.146l0.013-0.013
							c0.076-0.075-0.041-0.193-0.118-0.117l-0.07,0.07l-0.231-0.232v-0.111l-0.157-0.158L8.906,22.23l0.075,0.075l-0.062,0.062
							l-0.075-0.075L8.746,22.39l0.075,0.075L8.76,22.527l-0.075-0.076l-0.093,0.093l0.157,0.158l0.112-0.001l0.231,0.231
							l-0.108,0.109l-0.477-0.478l-0.001-0.112l-0.157-0.158l-0.092,0.093l0.076,0.076l-0.062,0.062l-0.076-0.075L8.1,22.542
							l0.075,0.076L8.113,22.68l-0.075-0.075l-0.094,0.092l0.158,0.158h0.112l0.477,0.477L8.585,23.44l-0.231-0.23l0.001-0.112
							l-0.158-0.158l-0.093,0.094l0.075,0.075l-0.061,0.062l-0.075-0.076l-0.099,0.099l0.076,0.075l-0.062,0.062l-0.075-0.076
							L7.79,23.346l0.157,0.157h0.111l0.232,0.232l-0.07,0.07c-0.076,0.075,0.042,0.194,0.118,0.117l0.009-0.009
							c0,0.073,0.091,0.111,0.143,0.06l0.006-0.006l0.403,0.525l-0.03,0.03c-0.077,0.076,0.042,0.195,0.118,0.118l1.307-1.307
							C10.37,23.258,10.252,23.139,10.176,23.216z M8.626,22.543l0.059-0.059l0.075,0.076l0.096-0.096L8.779,22.39l0.064-0.064
							l0.075,0.075l0.097-0.096L8.94,22.23l0.06-0.059l0.129,0.128l-0.374,0.373L8.626,22.543z M8.784,22.678l0.349-0.35v0.079
							l-0.271,0.271H8.784z M8.884,22.689l0.261-0.26l0.226,0.226l-0.261,0.261L8.884,22.689z M7.98,22.697l0.059-0.059l0.075,0.076
							l0.096-0.096l-0.075-0.076l0.061-0.062l0.076,0.076l0.096-0.096L8.29,22.385l0.059-0.06l0.129,0.129l-0.37,0.371L7.98,22.697z
							 M8.215,22.831L8.137,22.83l0.347-0.346v0.077L8.215,22.831z M8.236,22.842l0.259-0.258l0.473,0.474L8.71,23.315L8.236,22.842
							z M7.823,23.346l0.059-0.059l0.075,0.075l0.096-0.096l-0.075-0.075l0.064-0.064l0.075,0.076l0.096-0.096l-0.076-0.075
							l0.059-0.059l0.129,0.129l-0.373,0.372L7.823,23.346z M7.982,23.48l0.349-0.349v0.078L8.06,23.48H7.982z M8.081,23.493
							l0.262-0.261l0.225,0.225l-0.261,0.262L8.081,23.493z M8.321,23.906c-0.055,0.055-0.14-0.029-0.085-0.084l1.238-1.237
							c0.054-0.054,0.138,0.029,0.084,0.084L8.321,23.906z M8.473,23.956c-0.055,0.054-0.139-0.029-0.084-0.084l1.133-1.134
							c0.024-0.023,0.062-0.023,0.085,0c0.022,0.023,0.022,0.062-0.001,0.084L8.473,23.956z M8.512,23.95l1.091-1.09l0.526,0.403
							L9.85,23.542c-0.176-0.171-0.583-0.344-0.791-0.136c-0.208,0.208-0.035,0.614,0.136,0.791l-0.279,0.278L8.512,23.95z
							 M9.191,23.538c-0.076,0.076-0.048,0.35,0.129,0.534L9.211,24.18c-0.16-0.166-0.332-0.56-0.136-0.757
							c0.197-0.197,0.591-0.025,0.758,0.136l-0.109,0.109C9.539,23.492,9.268,23.462,9.191,23.538z M9.707,23.684l-0.369,0.37
							c-0.099-0.101-0.261-0.37-0.13-0.498C9.336,23.425,9.606,23.586,9.707,23.684z M10.276,23.318L8.97,24.624
							c-0.055,0.055-0.14-0.029-0.085-0.084l1.308-1.308C10.247,23.179,10.332,23.263,10.276,23.318z"/>
						<path d="M9.058,22.603c-0.015,0.016-0.015,0.041,0.001,0.057l0.101,0.101l0.057-0.056l-0.102-0.102
							C9.099,22.587,9.073,22.587,9.058,22.603z"/>
						<path d="M8.256,23.406c-0.016,0.016-0.016,0.041,0,0.057l0.102,0.101l0.056-0.056l-0.102-0.101
							C8.297,23.391,8.271,23.391,8.256,23.406z"/>
						<path d="M8.485,22.83c-0.017,0.018-0.017,0.042-0.002,0.057l0.102,0.101l0.056-0.055L8.54,22.831
							C8.525,22.817,8.502,22.817,8.485,22.83z"/>
					</g>
					<g>
						<path style="fill:#FFE900;" d="M18.398,14.094h-0.054l-0.09-0.681h0.022c0.092,0,0.092-0.143,0-0.143h0.071
							c0.093,0,0.093-0.143,0-0.143h-0.111v-0.344l0.08-0.079v-0.207h-0.107v0.108h-0.111v-0.108h-0.115v0.108h-0.111v-0.108h-0.106
							v0.207l0.079,0.079v0.344h-0.176v-0.692l0.079-0.08V12.15h-0.106v0.107h-0.112V12.15h-0.111v0.107h-0.111V12.15h-0.106v0.206
							l0.079,0.08v0.692h-0.176v-0.344l0.078-0.079v-0.207h-0.106v0.108h-0.111v-0.108h-0.115v0.108h-0.111v-0.108H16.63v0.207
							l0.08,0.079v0.344h-0.112c-0.092,0-0.092,0.143,0,0.143h0.075c-0.092,0-0.092,0.143,0,0.143h0.019l-0.09,0.681h-0.054
							c-0.092,0-0.092,0.143,0,0.143h1.85C18.49,14.237,18.489,14.094,18.398,14.094z"/>
						<path d="M18.398,14.082h-0.044l-0.087-0.657h0.01c0.071,0,0.113-0.092,0.058-0.143h0.014c0.108,0,0.108-0.167,0-0.167h-0.099
							v-0.326l0.078-0.079v-0.224h-0.13v0.107H18.11v-0.107h-0.14v0.107h-0.087v-0.107h-0.132v0.224l0.08,0.079v0.326h-0.153V12.44
							l0.08-0.079v-0.223h-0.131v0.107H17.54v-0.107h-0.135v0.107h-0.087v-0.107h-0.131v0.223l0.079,0.079v0.676h-0.153v-0.326
							l0.08-0.079v-0.224h-0.132v0.107h-0.087v-0.107h-0.139v0.107h-0.088v-0.107h-0.13v0.224l0.079,0.079v0.326h-0.1
							c-0.108,0-0.107,0.167,0,0.167h0.018c-0.039,0.035-0.03,0.098,0.011,0.128c0.024,0.017,0.05,0.001,0.047,0.031
							c-0.007,0.07-0.017,0.141-0.025,0.211c-0.019,0.143-0.037,0.286-0.056,0.43h-0.044c-0.107,0-0.107,0.167,0,0.167h1.85
							C18.505,14.249,18.506,14.082,18.398,14.082z M17.775,12.511h0.084v0.106h0.135v-0.106h0.091v0.106h0.136v-0.106h0.083v0.182
							h-0.528V12.511z M17.793,12.718h0.494l-0.056,0.055H17.85L17.793,12.718z M18.225,12.796v0.319h-0.369v-0.319H18.225z
							 M17.21,12.161h0.085v0.108h0.135v-0.108h0.087v0.108h0.135v-0.108h0.083v0.183H17.21V12.161z M17.228,12.369h0.489
							l-0.054,0.055h-0.38L17.228,12.369z M17.655,12.448v0.668H17.29v-0.668H17.655z M16.642,12.511h0.083v0.106h0.135v-0.106
							h0.092v0.106h0.135v-0.106h0.084v0.182h-0.528V12.511z M16.659,12.718h0.493l-0.057,0.055h-0.381L16.659,12.718z
							 M17.089,12.796v0.319h-0.368v-0.319H17.089z M16.598,13.259c-0.077,0-0.076-0.119,0-0.119h1.75c0.077,0,0.078,0.119,0,0.119
							H16.598z M16.673,13.283h1.604c0.076,0,0.078,0.119,0,0.119h-1.604C16.595,13.402,16.597,13.283,16.673,13.283z
							 M16.702,13.425h1.542l0.087,0.657h-0.395c-0.004-0.245-0.17-0.655-0.463-0.655c-0.294,0-0.46,0.409-0.464,0.655h-0.395
							L16.702,13.425z M17.474,13.614c-0.109,0-0.281,0.214-0.286,0.469h-0.154c0.004-0.231,0.161-0.632,0.441-0.632
							c0.278,0,0.434,0.401,0.438,0.632h-0.153C17.755,13.827,17.581,13.614,17.474,13.614z M17.734,14.082H17.21
							c0.003-0.142,0.08-0.445,0.264-0.445C17.656,13.637,17.732,13.942,17.734,14.082z M18.398,14.226h-1.85
							c-0.075,0-0.077-0.12,0-0.12h1.85C18.476,14.106,18.474,14.226,18.398,14.226z"/>
						<path d="M16.905,12.859c-0.021,0-0.04,0.019-0.04,0.04v0.143h0.08v-0.143C16.945,12.877,16.927,12.859,16.905,12.859z"/>
						<path d="M18.04,12.859c-0.021,0-0.039,0.019-0.039,0.04v0.143h0.079v-0.143C18.08,12.877,18.063,12.859,18.04,12.859z"/>
						<path d="M17.476,12.615c-0.026,0.001-0.042,0.019-0.042,0.04v0.142h0.079v-0.142C17.513,12.633,17.496,12.616,17.476,12.615z"
							/>
					</g>
					<g>
						<path style="fill:#FFE900;" d="M18.398,19.038h-0.054l-0.09-0.68h0.022c0.092,0,0.093-0.143,0-0.143h0.071
							c0.093,0,0.093-0.143,0-0.143h-0.111v-0.344l0.08-0.078v-0.207h-0.107v0.107h-0.111v-0.107h-0.115v0.107h-0.111v-0.107h-0.106
							v0.207l0.079,0.078v0.344h-0.176V17.38l0.079-0.08v-0.205h-0.106v0.106h-0.112v-0.106h-0.111v0.106h-0.111v-0.106h-0.106V17.3
							l0.079,0.08v0.692h-0.176v-0.344l0.078-0.078v-0.207h-0.106v0.107h-0.111v-0.107h-0.115v0.107h-0.111v-0.107H16.63v0.207
							l0.08,0.078v0.344h-0.112c-0.092,0-0.092,0.143,0,0.143h0.075c-0.092,0-0.092,0.143,0,0.143h0.019l-0.09,0.68h-0.054
							c-0.092,0-0.092,0.143,0,0.143h1.85C18.49,19.182,18.489,19.038,18.398,19.038z"/>
						<path d="M18.398,19.028h-0.044l-0.087-0.657h0.01c0.072,0,0.112-0.092,0.058-0.144h0.014c0.108,0,0.108-0.166,0-0.166h-0.099
							v-0.327l0.078-0.079v-0.223h-0.13v0.107H18.11v-0.107h-0.14v0.107h-0.087v-0.107h-0.132v0.223l0.08,0.079v0.327h-0.153v-0.676
							l0.08-0.08v-0.223h-0.131v0.108H17.54v-0.108h-0.135v0.108h-0.087v-0.108h-0.131v0.223l0.079,0.08v0.676h-0.153v-0.327
							l0.08-0.079v-0.223h-0.132v0.107h-0.087v-0.107h-0.139v0.107h-0.088v-0.107h-0.13v0.223l0.079,0.079v0.327h-0.1
							c-0.108,0-0.108,0.166,0,0.166h0.018c-0.038,0.036-0.031,0.099,0.011,0.128c0.024,0.017,0.05,0.001,0.047,0.031
							c-0.007,0.07-0.017,0.141-0.025,0.211c-0.019,0.144-0.037,0.287-0.056,0.431h-0.044c-0.107,0-0.107,0.166,0,0.166h1.85
							C18.505,19.194,18.505,19.028,18.398,19.028z M17.775,17.455h0.084v0.107h0.135v-0.107h0.091v0.107h0.136v-0.107h0.083v0.182
							h-0.528V17.455z M17.793,17.662h0.494l-0.056,0.056H17.85L17.793,17.662z M18.225,17.742v0.319h-0.369v-0.319H18.225z
							 M17.21,17.107h0.085v0.108h0.135v-0.108h0.087v0.108h0.135v-0.108h0.083v0.183H17.21V17.107z M17.228,17.313h0.489
							l-0.054,0.056h-0.38L17.228,17.313z M17.655,17.392v0.669H17.29v-0.669H17.655z M16.642,17.455h0.083v0.107h0.135v-0.107
							h0.092v0.107h0.135v-0.107h0.084v0.182h-0.528V17.455z M16.659,17.662h0.493l-0.057,0.056h-0.381L16.659,17.662z
							 M17.089,17.742v0.319h-0.368v-0.319H17.089z M16.598,18.203c-0.078,0-0.076-0.119,0-0.119h1.75c0.076,0,0.078,0.119,0,0.119
							H16.598z M16.673,18.227h1.604c0.076,0,0.078,0.119,0,0.119h-1.604C16.595,18.346,16.597,18.227,16.673,18.227z M16.702,18.37
							h1.542l0.087,0.657h-0.395c-0.004-0.245-0.169-0.655-0.463-0.655c-0.294,0-0.46,0.409-0.464,0.655h-0.395L16.702,18.37z
							 M17.474,18.559c-0.109,0-0.281,0.213-0.286,0.469h-0.154c0.004-0.232,0.161-0.632,0.441-0.632c0.278,0,0.434,0.4,0.438,0.632
							h-0.153C17.755,18.772,17.581,18.559,17.474,18.559z M17.734,19.028H17.21c0.003-0.142,0.08-0.445,0.264-0.445
							C17.656,18.582,17.732,18.887,17.734,19.028z M18.398,19.17h-1.85c-0.076,0-0.076-0.119,0-0.119h1.85
							C18.475,19.051,18.475,19.17,18.398,19.17z"/>
						<path d="M16.905,17.803c-0.021,0-0.04,0.019-0.04,0.041v0.143h0.08v-0.143C16.945,17.822,16.927,17.803,16.905,17.803z"/>
						<path d="M18.04,17.803c-0.021,0-0.039,0.019-0.039,0.041v0.143h0.079v-0.143C18.08,17.822,18.063,17.803,18.04,17.803z"/>
						<path d="M17.476,17.56c-0.026,0.001-0.042,0.017-0.042,0.038v0.143h0.079v-0.143C17.513,17.577,17.496,17.561,17.476,17.56z"
							/>
					</g>
					<g>
						<path style="fill:#FFE900;" d="M17.266,23.346l-0.078-0.078l0.076-0.076l-0.082-0.082l-0.075,0.076l-0.08-0.078l0.077-0.076
							l-0.075-0.075l-0.147,0.146v0.112l-0.243,0.242l-0.125-0.124l0.49-0.489l0.112-0.001l0.146-0.146l-0.075-0.075l-0.076,0.075
							l-0.079-0.078l0.076-0.076l-0.079-0.078l-0.075,0.075l-0.079-0.079l0.075-0.075l-0.075-0.075l-0.146,0.145v0.113l-0.489,0.49
							l-0.125-0.125l0.243-0.244h0.111l0.146-0.146l-0.076-0.075l-0.075,0.075l-0.08-0.078l0.077-0.075l-0.082-0.082l-0.075,0.075
							l-0.079-0.077l0.076-0.076l-0.076-0.076l-0.145,0.146v0.113l-0.243,0.242l-0.078-0.078c-0.065-0.066-0.166,0.036-0.101,0.102
							l0.053,0.052c-0.066-0.064-0.166,0.037-0.101,0.102l0.012,0.013l-0.543,0.418l-0.039-0.038
							c-0.065-0.065-0.165,0.036-0.101,0.102l1.308,1.307c0.064,0.066,0.166-0.036,0.101-0.101l-0.037-0.038l0.417-0.544
							l0.016,0.016c0.066,0.066,0.165-0.036,0.101-0.102l0.051,0.051c0.065,0.065,0.167-0.035,0.102-0.102l-0.079-0.078l0.243-0.243
							l0.112,0.001l0.146-0.146l-0.076-0.076L17.266,23.346z"/>
						<path d="M17.266,23.329l-0.062-0.062l0.075-0.075l-0.098-0.099l-0.075,0.076l-0.062-0.062l0.075-0.075l-0.094-0.094
							l-0.157,0.158l0.001,0.112l-0.231,0.23l-0.108-0.108l0.478-0.477h0.113l0.158-0.158l-0.093-0.092l-0.077,0.075l-0.062-0.062
							l0.076-0.076l-0.095-0.095l-0.076,0.075l-0.062-0.062l0.076-0.076l-0.092-0.093l-0.158,0.158v0.112l-0.477,0.478l-0.108-0.109
							l0.231-0.231l0.111,0.001l0.158-0.158l-0.093-0.093l-0.075,0.076l-0.062-0.062l0.075-0.075l-0.099-0.099l-0.075,0.075
							l-0.062-0.062l0.076-0.075l-0.093-0.093l-0.157,0.158v0.111l-0.231,0.232l-0.069-0.07c-0.077-0.077-0.194,0.042-0.118,0.117
							l0.012,0.013c-0.052-0.002-0.091,0.048-0.082,0.098c0.005,0.028,0.034,0.036,0.011,0.055
							c-0.055,0.046-0.111,0.088-0.167,0.132c-0.114,0.088-0.229,0.177-0.344,0.265l-0.03-0.03
							c-0.077-0.077-0.194,0.042-0.117,0.118l1.306,1.307c0.077,0.076,0.196-0.042,0.119-0.118l-0.031-0.03l0.404-0.525l0.006,0.006
							c0.051,0.051,0.145,0.016,0.142-0.06l0.01,0.009c0.074,0.076,0.195-0.04,0.118-0.117l-0.07-0.07l0.231-0.232h0.112
							l0.157-0.157l-0.093-0.093L17.266,23.329z M16.874,22.326l0.059,0.06l-0.076,0.076l0.096,0.096l0.076-0.076l0.062,0.062
							l-0.076,0.076l0.095,0.096l0.077-0.076l0.058,0.059l-0.129,0.129l-0.37-0.371L16.874,22.326z M16.74,22.485l0.346,0.346
							l-0.076,0.001l-0.27-0.27V22.485z M16.729,22.584l0.258,0.258l-0.473,0.473l-0.258-0.257L16.729,22.584z M16.225,22.171
							l0.059,0.059l-0.075,0.075l0.096,0.096l0.075-0.075l0.065,0.064l-0.076,0.075l0.096,0.096l0.075-0.076l0.059,0.059
							l-0.129,0.129l-0.372-0.373L16.225,22.171z M16.092,22.328l0.348,0.35h-0.078l-0.27-0.271V22.328z M16.079,22.429l0.261,0.26
							l-0.226,0.226l-0.261-0.261L16.079,22.429z M16.339,24.54c0.054,0.055-0.03,0.139-0.085,0.084l-1.307-1.307
							c-0.055-0.055,0.029-0.139,0.084-0.085L16.339,24.54z M16.033,23.538c-0.077-0.076-0.35-0.047-0.533,0.13l-0.109-0.109
							c0.166-0.161,0.561-0.333,0.758-0.136c0.196,0.197,0.024,0.591-0.136,0.757l-0.108-0.107
							C16.081,23.888,16.109,23.615,16.033,23.538z M15.887,24.054l-0.371-0.37c0.102-0.099,0.37-0.258,0.5-0.128
							C16.146,23.685,15.984,23.952,15.887,24.054z M16.308,24.476l-0.278-0.278c0.17-0.177,0.344-0.583,0.136-0.791
							c-0.208-0.208-0.614-0.036-0.791,0.136l-0.279-0.279l0.526-0.403l1.09,1.09L16.308,24.476z M16.835,23.956
							c-0.022,0.023-0.06,0.022-0.084,0l-1.134-1.134c-0.056-0.054,0.03-0.138,0.085-0.084l1.133,1.134
							C16.858,23.896,16.858,23.933,16.835,23.956z M16.986,23.822c0.055,0.055-0.029,0.139-0.084,0.084l-1.237-1.237
							c-0.023-0.024-0.024-0.061-0.001-0.084c0.024-0.024,0.061-0.024,0.086,0L16.986,23.822z M16.917,23.718l-0.261-0.262
							l0.226-0.225l0.261,0.261L16.917,23.718z M17.164,23.48l-0.271-0.271v-0.078l0.349,0.349H17.164z M17.272,23.474l-0.373-0.372
							l0.128-0.129l0.06,0.059l-0.075,0.075l0.096,0.096l0.075-0.076l0.064,0.064l-0.076,0.075l0.096,0.096l0.075-0.075l0.059,0.059
							L17.272,23.474z"/>
						<path d="M16.109,22.603l-0.101,0.102l0.057,0.056l0.101-0.101C16.201,22.622,16.146,22.567,16.109,22.603z"/>
						<path d="M16.912,23.407l-0.102,0.101l0.056,0.056l0.102-0.101C17.004,23.425,16.948,23.369,16.912,23.407z"/>
						<path d="M16.684,22.831l-0.101,0.102l0.056,0.055l0.101-0.101c0.016-0.015,0.016-0.038,0-0.056
							C16.722,22.817,16.698,22.817,16.684,22.831z"/>
					</g>
					<g>
						<path style="fill:#00287A;" d="M11.832,16.563c0,0.549,0.585,0.858,1.072,0.685c0.338-0.12,0.483-0.395,0.487-0.739
							c0.006-0.393,0-0.786,0-1.179h-1.559C11.832,15.33,11.832,15.878,11.832,16.563z"/>
						<path style="fill:#FFFFFF;" d="M12.172,15.618c-0.185,0-0.185,0.286,0,0.286C12.356,15.904,12.356,15.618,12.172,15.618z"/>
						<path style="fill:#FFFFFF;" d="M13.052,15.618c-0.184,0-0.184,0.286,0,0.286C13.236,15.904,13.236,15.618,13.052,15.618z"/>
						<path style="fill:#FFFFFF;" d="M12.172,16.499c-0.185,0-0.185,0.285,0,0.285C12.356,16.785,12.356,16.499,12.172,16.499z"/>
						<path style="fill:#FFFFFF;" d="M13.052,16.499c-0.184,0-0.184,0.285,0,0.285C13.236,16.785,13.236,16.499,13.052,16.499z"/>
						<path style="fill:#FFFFFF;" d="M12.612,16.059c-0.184,0-0.184,0.285,0,0.285C12.796,16.344,12.796,16.059,12.612,16.059z"/>
					</g>
					<g>
						<path style="fill:#00287A;" d="M11.832,19.325c0,0.549,0.585,0.859,1.072,0.686c0.338-0.121,0.483-0.396,0.487-0.739
							c0.006-0.393,0-0.786,0-1.179h-1.559C11.832,18.092,11.832,18.64,11.832,19.325z"/>
						<path style="fill:#FFFFFF;" d="M12.172,18.38c-0.185,0-0.185,0.286,0,0.286C12.356,18.666,12.356,18.38,12.172,18.38z"/>
						<path style="fill:#FFFFFF;" d="M13.052,18.38c-0.184,0-0.184,0.286,0,0.286C13.236,18.666,13.236,18.38,13.052,18.38z"/>
						<path style="fill:#FFFFFF;" d="M12.172,19.261c-0.185,0-0.185,0.286,0,0.286C12.356,19.547,12.356,19.261,12.172,19.261z"/>
						<path style="fill:#FFFFFF;" d="M13.052,19.261c-0.184,0-0.184,0.286,0,0.286C13.236,19.547,13.236,19.261,13.052,19.261z"/>
						<path style="fill:#FFFFFF;" d="M12.612,18.821c-0.184,0-0.184,0.285,0,0.285C12.796,19.106,12.796,18.821,12.612,18.821z"/>
					</g>
					<g>
						<path style="fill:#00287A;" d="M9.642,19.325c0,0.549,0.585,0.859,1.072,0.686c0.338-0.12,0.482-0.395,0.487-0.739
							c0.006-0.393,0.001-0.786,0.001-1.179H9.642C9.642,18.092,9.642,18.64,9.642,19.325z"/>
						<path style="fill:#FFFFFF;" d="M9.981,18.38c-0.185,0-0.184,0.286,0,0.286C10.164,18.666,10.165,18.38,9.981,18.38z"/>
						<path style="fill:#FFFFFF;" d="M10.862,18.38c-0.184,0-0.184,0.286,0,0.286C11.046,18.666,11.046,18.38,10.862,18.38z"/>
						<path style="fill:#FFFFFF;" d="M9.981,19.261c-0.184,0-0.184,0.286,0,0.286C10.164,19.547,10.165,19.261,9.981,19.261z"/>
						<path style="fill:#FFFFFF;" d="M10.862,19.261c-0.184,0-0.184,0.286,0,0.286C11.046,19.547,11.046,19.261,10.862,19.261z"/>
						<path style="fill:#FFFFFF;" d="M10.421,18.821c-0.184,0-0.184,0.285,0,0.285C10.606,19.106,10.606,18.821,10.421,18.821z"/>
					</g>
					<g>
						<path style="fill:#00287A;" d="M11.832,22.086c0,0.549,0.585,0.859,1.072,0.686c0.338-0.12,0.483-0.395,0.487-0.739
							c0.006-0.393,0-0.786,0-1.179h-1.559C11.832,20.854,11.832,21.401,11.832,22.086z"/>
						<path style="fill:#FFFFFF;" d="M12.172,21.141c-0.185,0-0.185,0.286,0,0.286C12.356,21.427,12.356,21.141,12.172,21.141z"/>
						<path style="fill:#FFFFFF;" d="M13.052,21.141c-0.184,0-0.184,0.286,0,0.286C13.236,21.427,13.236,21.141,13.052,21.141z"/>
						<path style="fill:#FFFFFF;" d="M12.172,22.023c-0.185,0-0.185,0.285,0,0.285C12.356,22.308,12.356,22.023,12.172,22.023z"/>
						<path style="fill:#FFFFFF;" d="M13.052,22.023c-0.184,0-0.184,0.285,0,0.285C13.236,22.308,13.236,22.023,13.052,22.023z"/>
						<path style="fill:#FFFFFF;" d="M12.612,21.581c-0.184,0-0.184,0.286,0,0.286C12.796,21.868,12.796,21.581,12.612,21.581z"/>
					</g>
					<g>
						<path style="fill:#00287A;" d="M14.023,19.325c0,0.549,0.585,0.859,1.072,0.686c0.338-0.121,0.482-0.396,0.487-0.739
							c0.006-0.393,0-0.786,0-1.179h-1.56C14.023,18.092,14.023,18.64,14.023,19.325z"/>
						<path style="fill:#FFFFFF;" d="M15.242,18.38c-0.184,0-0.184,0.286,0,0.286C15.427,18.666,15.427,18.38,15.242,18.38z"/>
						<path style="fill:#FFFFFF;" d="M14.361,18.38c-0.185,0-0.184,0.286,0,0.286C14.546,18.666,14.546,18.38,14.361,18.38z"/>
						<path style="fill:#FFFFFF;" d="M15.242,19.261c-0.184,0-0.184,0.286,0,0.286C15.427,19.547,15.427,19.261,15.242,19.261z"/>
						<path style="fill:#FFFFFF;" d="M14.361,19.261c-0.185,0-0.184,0.286,0,0.286C14.546,19.547,14.546,19.261,14.361,19.261z"/>
						<path style="fill:#FFFFFF;" d="M14.803,18.821c-0.185,0-0.185,0.285,0,0.285C14.986,19.106,14.986,18.821,14.803,18.821z"/>
					</g>
				</g>
			</g>
		</g>
	</g>
</g>
<g id="Layer_1">
</g>
</svg>
