<?xml version="1.0" encoding="iso-8859-1"?>
<!-- Generator: Adobe Illustrator 18.0.0, SVG Export Plug-In . SVG Version: 6.00 Build 0)  -->
<!DOCTYPE svg PUBLIC "-//W3C//DTD SVG 1.1//EN" "http://www.w3.org/Graphics/SVG/1.1/DTD/svg11.dtd">
<svg version="1.1" xmlns="http://www.w3.org/2000/svg" xmlns:xlink="http://www.w3.org/1999/xlink" x="0px" y="0px"
	 viewBox="0 0 38.018 38.018" style="enable-background:new 0 0 38.018 38.018;" xml:space="preserve">
<g id="Layer_522">
	<g id="Layer_523">
		<g>
			<path style="fill:#052977;" d="M38.018,19.009c0-2.132-0.357-4.261-1.061-6.274c-0.679-1.941-1.676-3.769-2.939-5.392
				c-1.253-1.61-2.765-3.016-4.46-4.15c-1.719-1.148-3.625-2.014-5.622-2.548c-2.079-0.557-4.251-0.753-6.396-0.589
				c-2.103,0.161-4.174,0.673-6.107,1.514C9.553,2.388,7.811,3.512,6.288,4.884c-1.517,1.367-2.812,2.978-3.82,4.753
				c-1.028,1.81-1.754,3.788-2.139,5.833c-0.399,2.123-0.435,4.313-0.107,6.448c0.317,2.065,0.978,4.073,1.95,5.922
				c0.951,1.809,2.195,3.461,3.669,4.877c1.476,1.417,3.179,2.596,5.027,3.473c1.896,0.9,3.94,1.479,6.027,1.71
				c2.143,0.237,4.327,0.112,6.428-0.375c2.02-0.469,3.958-1.272,5.718-2.368c1.732-1.079,3.289-2.437,4.594-4.006
				c1.312-1.579,2.366-3.369,3.107-5.284c0.766-1.978,1.191-4.083,1.264-6.202C38.014,19.446,38.018,19.228,38.018,19.009z"/>
			<path style="fill:#931530;" d="M38.018,19.009c0-2.132-0.357-4.261-1.061-6.274c-0.679-1.941-1.676-3.769-2.939-5.392
				c-1.253-1.61-2.765-3.016-4.46-4.15c-1.719-1.148-3.625-2.014-5.622-2.548c-2.196-0.588-4.498-0.775-6.761-0.558
				c-2.609,0.25-5.156,1.046-7.442,2.328C9.23,2.697,8.739,3.002,8.264,3.328V34.69c2.14,1.469,4.577,2.491,7.126,2.983
				c2.356,0.455,4.8,0.459,7.158,0.016c2.045-0.385,4.023-1.111,5.833-2.138c1.775-1.008,3.386-2.304,4.753-3.821
				c1.372-1.522,2.496-3.265,3.313-5.144c0.841-1.933,1.354-4.005,1.514-6.107C37.998,19.989,38.018,19.499,38.018,19.009z"/>
			<path style="fill:#EDC932;" d="M19.009,0c-3.987,0-7.687,1.229-10.744,3.327V34.69c2.14,1.469,4.577,2.491,7.125,2.983
				c2.643,0.51,5.394,0.454,8.013-0.167c2.268-0.537,4.429-1.497,6.35-2.815V3.327C26.696,1.229,22.996,0,19.009,0z"/>
		</g>
	</g>
</g>
<g id="Layer_1">
</g>
</svg>
