<?xml version="1.0" encoding="iso-8859-1"?>
<!-- Generator: Adobe Illustrator 18.0.0, SVG Export Plug-In . SVG Version: 6.00 Build 0)  -->
<!DOCTYPE svg PUBLIC "-//W3C//DTD SVG 1.1//EN" "http://www.w3.org/Graphics/SVG/1.1/DTD/svg11.dtd">
<svg version="1.1" xmlns="http://www.w3.org/2000/svg" xmlns:xlink="http://www.w3.org/1999/xlink" x="0px" y="0px"
	 viewBox="0 0 38.018 38.017" style="enable-background:new 0 0 38.018 38.017;" xml:space="preserve">
<g id="Layer_178">
	<g id="Layer_179">
		<g>
			<path style="fill:#FFFFFF;" d="M38.018,19.009c0-2.133-0.356-4.262-1.06-6.274c-0.68-1.941-1.677-3.769-2.939-5.392
				c-1.254-1.61-2.766-3.017-4.461-4.15c-1.719-1.148-3.625-2.014-5.621-2.548c-2.08-0.557-4.252-0.753-6.397-0.589
				c-2.103,0.161-4.174,0.673-6.106,1.515C9.554,2.388,7.811,3.512,6.288,4.884C4.772,6.25,3.476,7.861,2.468,9.637
				c-1.027,1.81-1.754,3.788-2.139,5.833c-0.399,2.122-0.436,4.314-0.107,6.448c0.317,2.064,0.979,4.072,1.951,5.921
				c0.95,1.809,2.194,3.462,3.668,4.878c1.476,1.418,3.18,2.596,5.027,3.474c1.896,0.899,3.941,1.479,6.027,1.71
				c2.143,0.237,4.327,0.112,6.428-0.375c2.02-0.469,3.959-1.273,5.719-2.369c1.732-1.078,3.288-2.437,4.593-4.006
				c1.312-1.578,2.366-3.369,3.108-5.283c0.766-1.979,1.191-4.083,1.264-6.202C38.014,19.447,38.018,19.228,38.018,19.009z"/>
			<path style="fill:#0A45C9;" d="M38.018,19.009c0-2.535-0.497-4.953-1.397-7.164H1.398c-1.072,2.635-1.535,5.503-1.361,8.341
				c0.126,2.052,0.586,4.08,1.361,5.984H36.62C37.521,23.96,38.018,21.542,38.018,19.009z"/>
			<path style="fill:#D32020;" d="M36.62,26.17H1.398c0.824,2.024,2,3.9,3.459,5.526c1.453,1.62,3.184,2.989,5.096,4.027
				c1.955,1.062,4.096,1.774,6.299,2.095c2.274,0.33,4.608,0.249,6.852-0.244c2.158-0.474,4.229-1.329,6.093-2.515
				c1.835-1.167,3.466-2.649,4.804-4.362C35.075,29.319,35.96,27.791,36.62,26.17z"/>
		</g>
	</g>
</g>
<g id="Layer_1">
</g>
</svg>
