<?xml version="1.0" encoding="utf-8"?>
<!-- Generator: Adobe Illustrator 23.0.2, SVG Export Plug-In . SVG Version: 6.00 Build 0)  -->
<svg version="1.1" id="Layer_1" xmlns="http://www.w3.org/2000/svg" xmlns:xlink="http://www.w3.org/1999/xlink" x="0px" y="0px"
	 width="38.018px" height="38.017px" viewBox="0 0 38.018 38.017" style="enable-background:new 0 0 38.018 38.017;"
	 xml:space="preserve">
<style type="text/css">
	.st0{fill:#00A1DE;}
	.st1{fill:#FAD201;}
	.st2{fill:#20603D;}
	.st3{fill:#E5BE01;}
</style>
<g>
	<path class="st0" d="M38.018,19.009H0C0,8.508,8.509-0.001,19.009-0.001C29.507-0.001,38.018,8.508,38.018,19.009z"/>
	<path class="st1" d="M38.018,19.009c0,3.461-0.925,6.707-2.545,9.504H2.545C0.925,25.716,0,22.47,0,19.009H38.018z"/>
	<path class="st2" d="M35.473,28.513c-3.286,5.683-9.428,9.505-16.464,9.505c-7.036,0-13.178-3.822-16.464-9.505H35.473z"/>
	<g>
		<g>
			<path class="st3" d="M26.688,11.58c-0.13,0.1-0.275,0.184-0.429,0.247l-0.001-0.004c-0.213,0.088-0.445,0.139-0.689,0.143
				l-0.013,0c-0.017,0.001-0.034,0.001-0.051,0l-0.013,0c-0.244-0.005-0.476-0.055-0.689-0.143l-0.001,0.004
				c-0.154-0.064-0.299-0.147-0.429-0.247l-1.907,3.8l2.336-3.551l-0.858,4.158l1.338-4.037l0.248,4.246l0.248-4.246l1.338,4.037
				l-0.858-4.158l2.336,3.551L26.688,11.58z"/>
			<path class="st3" d="M26.689,11.579l3.177,2.826l-2.826-3.177C26.939,11.36,26.821,11.478,26.689,11.579z"/>
			<path class="st3" d="M24.373,8.561l-3.177-2.826l2.826,3.177C24.123,8.78,24.241,8.663,24.373,8.561z"/>
			<path class="st3" d="M24.803,8.314l-2.337-3.553l1.907,3.8C24.504,8.461,24.648,8.378,24.803,8.314z"/>
			<path class="st3" d="M27.04,8.912l2.826-3.177l-3.177,2.826C26.821,8.663,26.939,8.78,27.04,8.912z"/>
			<path class="st3" d="M25.492,8.171l0.013-0.001c0.017,0,0.034,0,0.051,0l0.013,0.001c0.244,0.005,0.476,0.056,0.689,0.143
				l0.859-4.165l-1.338,4.037L25.531,3.94l-0.248,4.246l-1.338-4.037l0.859,4.165C25.016,8.226,25.248,8.175,25.492,8.171z"/>
			<path class="st3" d="M26.688,8.561l1.908-3.8l-2.338,3.553C26.413,8.378,26.558,8.461,26.688,8.561z"/>
			<path class="st3" d="M24.022,8.912l-3.8-1.907l3.553,2.338C23.838,9.188,23.921,9.043,24.022,8.912z"/>
			<path class="st3" d="M23.774,10.798l-3.553,2.338l3.8-1.907C23.921,11.097,23.838,10.953,23.774,10.798z"/>
			<path class="st3" d="M24.022,11.228l-2.826,3.177l3.177-2.826C24.241,11.478,24.123,11.36,24.022,11.228z"/>
			<path class="st3" d="M23.774,10.798c-0.086-0.208-0.136-0.435-0.143-0.674h-0.003l0-0.018l0.001-0.036l-0.001-0.054h0.003
				c0.007-0.239,0.057-0.466,0.143-0.674l-4.165-0.859l4.037,1.339L19.4,10.07l4.246,0.248l-4.037,1.339L23.774,10.798z"/>
			<path class="st3" d="M27.413,10.318l4.246-0.248l-4.246-0.248l4.037-1.339l-4.161,0.858l3.551-2.337l-3.8,1.907
				c0.1,0.131,0.183,0.275,0.247,0.43l-0.002,0c0.086,0.208,0.136,0.435,0.143,0.674h0.002l-0.001,0.054l0,0.036l0,0.018h-0.002
				c-0.006,0.239-0.057,0.466-0.143,0.674l0.002,0.001c-0.064,0.155-0.147,0.299-0.247,0.43l3.8,1.907l-3.551-2.337l4.161,0.859
				L27.413,10.318z"/>
		</g>
		<path class="st3" d="M27.284,10.068c0,0.969-0.786,1.755-1.755,1.755c-0.969,0-1.755-0.786-1.755-1.755
			c0-0.969,0.786-1.755,1.755-1.755C26.499,8.313,27.284,9.099,27.284,10.068z"/>
	</g>
</g>
</svg>
