<?xml version="1.0" encoding="UTF-8"?>
<svg xmlns="http://www.w3.org/2000/svg" xmlns:xlink="http://www.w3.org/1999/xlink" version="1.1" viewBox="0 0 18 18">
  <defs>
    <style>
      .cls-1 {
        fill: url(#linear-gradient-2);
      }

      .cls-2 {
        fill: url(#linear-gradient);
      }

      .cls-3 {
        fill: #fff;
      }
    </style>
    <linearGradient id="linear-gradient" x1="50.6" y1="47.3" x2="3.8" y2="4.4" gradientUnits="userSpaceOnUse">
      <stop offset=".2" stop-color="#d89d3a"/>
      <stop offset=".3" stop-color="#a46b28"/>
      <stop offset=".5" stop-color="#8e5723"/>
      <stop offset=".5" stop-color="#f4f3b8"/>
      <stop offset=".6" stop-color="#f7ed9a"/>
      <stop offset=".7" stop-color="#d5b767"/>
      <stop offset=".8" stop-color="#a76f29"/>
      <stop offset=".8" stop-color="#d0ab5b"/>
      <stop offset="1" stop-color="#e0c77d"/>
    </linearGradient>
    <linearGradient id="linear-gradient-2" x1="0" y1="9.1" x2="17.5" y2="9.1" xlink:href="#linear-gradient"/>
  </defs>
  <!-- Generator: Adobe Illustrator 28.7.1, SVG Export Plug-In . SVG Version: 1.2.0 Build 142)  -->
  <g>
    <g id="Layer_1">
      <g>
        <path class="cls-2" d="M7.5,15.3c1.7,0,3.3-.6,4.6-1.6l4.1,4.1,1.3-1.3-4.1-4.1c1-1.3,1.6-2.9,1.6-4.6C15,3.7,11.6.3,7.5.3S0,3.7,0,7.8s3.3,7.5,7.4,7.5ZM7.5,2.2c3.1,0,5.6,2.5,5.6,5.6s-2.5,5.6-5.6,5.6S1.9,10.9,1.9,7.8,4.4,2.2,7.5,2.2Z"/>
        <path class="cls-1" d="M7.5.5c4,0,7.2,3.3,7.2,7.3,0,1.6-.5,3.2-1.5,4.5v.2c-.1,0,0,.2,0,.2l3.9,4-1,1-3.9-4-.2-.2h-.2c-1.3,1.1-2.8,1.7-4.4,1.7C3.5,15.1.3,11.8.3,7.8S3.5.5,7.5.5M7.5,13.7c3.2,0,5.8-2.6,5.8-5.9S10.7,1.9,7.5,1.9,1.7,4.6,1.7,7.8s2.6,5.9,5.8,5.9M7.5.3C3.4.3,0,3.7,0,7.8s3.3,7.5,7.4,7.5c1.7,0,3.3-.6,4.6-1.6l4.1,4.1,1.3-1.3-4.1-4.1c1-1.3,1.6-2.9,1.6-4.6C15,3.7,11.6.3,7.5.3h0ZM7.5,13.4c-3.1,0-5.6-2.5-5.6-5.6S4.4,2.2,7.5,2.2s5.6,2.5,5.6,5.6-2.5,5.6-5.6,5.6h0Z"/>
      </g>
      <path class="cls-3" d="M8.2,6.3c.3.4.5.9.5,1.5h1.7c0-.6,0-1.1-.3-1.6-.2-.5-.4-1-.7-1.4-1.3-1.6-3.5-1.6-4.8,0l1.2,1.5c.6-.8,1.8-.8,2.4,0Z"/>
    </g>
  </g>
</svg>