<?xml version="1.0" encoding="iso-8859-1"?>
<!-- Generator: Adobe Illustrator 18.0.0, SVG Export Plug-In . SVG Version: 6.00 Build 0)  -->
<!DOCTYPE svg PUBLIC "-//W3C//DTD SVG 1.1//EN" "http://www.w3.org/Graphics/SVG/1.1/DTD/svg11.dtd">
<svg version="1.1" xmlns="http://www.w3.org/2000/svg" xmlns:xlink="http://www.w3.org/1999/xlink" x="0px" y="0px"
	 viewBox="0 0 38.018 38.017" style="enable-background:new 0 0 38.018 38.017;" xml:space="preserve">
<g id="Layer_123">
	<g id="Layer_126">
		<path style="fill:#FFFFFF;" d="M38.018,19.009c0-2.133-0.356-4.262-1.061-6.274c-0.679-1.941-1.676-3.769-2.939-5.392
			c-1.253-1.609-2.765-3.017-4.46-4.15c-1.719-1.148-3.625-2.014-5.622-2.548c-2.079-0.556-4.251-0.753-6.397-0.589
			c-2.102,0.161-4.174,0.674-6.107,1.515C9.553,2.388,7.811,3.513,6.288,4.884c-1.517,1.367-2.812,2.977-3.82,4.753
			c-1.028,1.81-1.754,3.788-2.139,5.833c-0.399,2.123-0.436,4.313-0.107,6.448c0.317,2.064,0.978,4.073,1.95,5.921
			c0.951,1.81,2.195,3.462,3.669,4.878c1.476,1.418,3.179,2.597,5.027,3.474c1.897,0.9,3.941,1.479,6.027,1.711
			c2.143,0.236,4.327,0.111,6.428-0.376c2.02-0.469,3.958-1.272,5.718-2.368c1.732-1.078,3.289-2.438,4.594-4.006
			c1.312-1.579,2.366-3.369,3.108-5.284c0.766-1.977,1.191-4.083,1.264-6.202C38.014,19.447,38.018,19.228,38.018,19.009z"/>
	</g>
	<g id="Layer_125">
		<path style="fill:#CE2E3A;" d="M38.018,19.009c0-2.133-0.356-4.262-1.061-6.274c-0.679-1.941-1.676-3.769-2.939-5.392
			c-1.253-1.609-2.765-3.017-4.46-4.15c-1.719-1.148-3.625-2.014-5.622-2.548c-2.079-0.556-4.251-0.753-6.397-0.589
			c-2.102,0.161-4.174,0.674-6.107,1.515C9.553,2.388,7.811,3.513,6.288,4.884c-1.517,1.367-2.812,2.977-3.82,4.753
			c-1.028,1.81-1.754,3.788-2.139,5.833c-0.231,1.229-0.339,2.479-0.326,3.728h38.012C38.016,19.135,38.018,19.072,38.018,19.009z"
			/>
	</g>
	<g id="Layer_124">
		<g>
			<polygon style="fill:#FFFFFF;" points="14.88,13.308 14.507,12.16 14.134,13.308 12.928,13.308 13.904,14.017 13.531,15.164 
				14.507,14.455 15.484,15.164 15.11,14.017 16.087,13.308 			"/>
			<polygon style="fill:#FFFFFF;" points="19.634,13.308 19.262,12.161 18.889,13.308 17.684,13.308 18.659,14.017 18.286,15.163 
				19.262,14.454 20.236,15.163 19.864,14.017 20.84,13.308 			"/>
			<path style="fill:#FFFFFF;" d="M15.498,3.782c-2.388-0.829-5.136-0.313-7.047,1.345c-1.844,1.598-2.772,4.092-2.397,6.506
				c0.387,2.492,2.089,4.641,4.436,5.57c1.595,0.632,3.388,0.676,5.009,0.113c-2.1-0.081-4.077-1.163-5.283-2.883
				c-1.226-1.75-1.553-4.036-0.866-6.061c0.666-1.965,2.245-3.553,4.207-4.228C14.181,3.929,14.838,3.807,15.498,3.782z"/>
			<polygon style="fill:#FFFFFF;" points="21.104,8.786 20.731,7.638 20.359,8.786 19.151,8.786 20.128,9.495 19.755,10.643 
				20.731,9.933 21.707,10.643 21.334,9.495 22.311,8.786 			"/>
			<polygon style="fill:#FFFFFF;" points="13.41,8.786 13.038,7.64 12.665,8.786 11.46,8.786 12.435,9.495 12.063,10.642 
				13.038,9.933 14.013,10.642 13.641,9.495 14.616,8.786 			"/>
			<polygon style="fill:#FFFFFF;" points="17.257,5.991 16.884,4.845 16.512,5.991 15.306,5.991 16.281,6.7 15.909,7.847 
				16.884,7.138 17.86,7.847 17.487,6.7 18.463,5.991 			"/>
		</g>
	</g>
</g>
<g id="Layer_1">
</g>
</svg>
