<?xml version="1.0" encoding="UTF-8"?>
<svg xmlns="http://www.w3.org/2000/svg" version="1.1" viewBox="0 0 25 25">
  <defs>
    <style>
      .cls-1 {
        fill: #fff;
      }
    </style>
  </defs>
  <!-- Generator: Adobe Illustrator 28.7.1, SVG Export Plug-In . SVG Version: 1.2.0 Build 142)  -->
  <g>
    <g id="Layer_1">
      <path class="cls-1" d="M14.9,14.3c-1.4-3.7.6-7.6,3-10.7.2.8.6,1.4.6,1.4-1,1-1.1,2.7-.2,3.9.9,1.2,4.3,2.2,5.7,2.6,0-1.4,0-5-1-6.2-.8-1-2.1-1.4-3.3-1-.3-.5-.4-1-.5-1.5.9-.1,1.9-.2,2.9-.2v-1.5c-8.7.1-13.9,4.6-15.5,10.1-2.6-.6-5.2.8-6.2,3.4-1.6,4.1,2.1,8.3,6.3,7.3-1.1-3.2.2-6.8,3.2-8.4-.5-.7-1.1-1.3-1.9-1.7,1-3.5,3.8-6.7,8.1-8.2-2.2,3-3.9,6.9-2.9,10.6-3.7,0-6.3,3.7-5.1,7.2,1.6,4.8,8.4,5.1,10.2.3,1.1-2.9-.4-6.2-3.4-7.2Z"/>
    </g>
  </g>
</svg>