<svg width="25" height="25" viewBox="0 0 25 25" fill="none" xmlns="http://www.w3.org/2000/svg">
<g clip-path="url(#clip0_1670_21523)">
<path d="M5.19668 19.3134C5.06969 19.3134 4.97308 19.3134 4.87647 19.3134C4.08951 19.3139 3.3031 19.3177 2.51614 19.315C1.85075 19.3118 1.50177 18.9535 1.50177 18.2858C1.50231 14.4323 1.50286 10.5794 1.5034 6.72584C1.5034 6.03483 1.83827 5.69719 2.53188 5.69394C3.30961 5.69068 4.08734 5.69285 4.86508 5.69231C4.96277 5.69231 5.06046 5.69231 5.18257 5.69231C5.188 5.57071 5.1956 5.47463 5.19614 5.37855C5.19723 4.54641 5.1956 3.71426 5.19668 2.88211C5.19886 1.76986 5.95868 1.00122 7.06476 1.00122C11.0169 0.999593 14.9691 0.999593 18.9213 1.00122C20.0474 1.00122 20.8002 1.76226 20.8029 2.89622C20.8051 3.71914 20.8029 4.54261 20.8035 5.36553C20.8035 5.46324 20.8035 5.56094 20.8035 5.69665C21.4347 5.69665 22.0382 5.69665 22.6422 5.69665C22.9679 5.69665 23.2935 5.68579 23.6186 5.69882C24.1434 5.71999 24.4853 6.075 24.4973 6.60425C24.5054 6.96577 24.5 7.32784 24.5 7.6899C24.5 11.2177 24.4995 14.7455 24.5 18.2728C24.5 18.9687 24.1483 19.3172 23.4449 19.3156C22.6764 19.3139 21.9074 19.3139 21.1389 19.3134C21.0406 19.3134 20.9424 19.3134 20.804 19.3134C20.804 19.4317 20.804 19.5278 20.804 19.6233C20.804 20.4463 20.8051 21.2697 20.804 22.0927C20.8018 23.2467 20.0539 23.999 18.9077 23.9996C14.9734 24.0001 11.0397 24.0001 7.10547 23.9996C5.94457 23.9996 5.19723 23.2451 5.19723 22.0769C5.19723 21.2638 5.19723 20.4501 5.19723 19.6369C5.19723 19.5397 5.19668 19.4426 5.19668 19.3134ZM3.20215 7.3946V17.6176H9.18522V7.3946H3.20215ZM16.8084 17.6192C16.9235 17.6252 17.0125 17.6339 17.1015 17.6344C18.9272 17.6355 20.7535 17.6323 22.5793 17.641C22.8023 17.642 22.8197 17.546 22.8197 17.363C22.8154 14.1354 22.8175 10.9072 22.8175 7.67959C22.8175 7.58514 22.8099 7.49068 22.8056 7.3984H16.8084V17.6192ZM15.9889 7.39678H10.0216V17.6182H15.9889V7.39678Z" fill="white"/>
<path d="M11.8709 15C11.8247 15 11.7861 14.9857 11.7553 14.9571C11.7245 14.9238 11.7091 14.8857 11.7091 14.8429C11.7091 14.8238 11.7142 14.8024 11.7245 14.7786L13.5048 11.0786H11.1927C11.1413 11.0786 11.0951 11.0619 11.0539 11.0286C11.018 10.9905 11 10.9452 11 10.8929V10.1786C11 10.1262 11.018 10.0833 11.0539 10.05C11.0951 10.0167 11.1413 10 11.1927 10H14.7996C14.8613 10 14.9101 10.0167 14.946 10.05C14.982 10.0833 15 10.1262 15 10.1786V10.8143C15 10.8857 14.9923 10.9452 14.9769 10.9929C14.9615 11.0405 14.9409 11.0881 14.9152 11.1357L13.1349 14.8286C13.1195 14.8571 13.0912 14.8929 13.0501 14.9357C13.009 14.9786 12.9473 15 12.8651 15H11.8709Z" fill="white"/>
<path d="M18.8709 15C18.8247 15 18.7861 14.9857 18.7553 14.9571C18.7245 14.9238 18.7091 14.8857 18.7091 14.8429C18.7091 14.8238 18.7142 14.8024 18.7245 14.7786L20.5048 11.0786H18.1927C18.1413 11.0786 18.0951 11.0619 18.0539 11.0286C18.018 10.9905 18 10.9452 18 10.8929V10.1786C18 10.1262 18.018 10.0833 18.0539 10.05C18.0951 10.0167 18.1413 10 18.1927 10H21.7996C21.8613 10 21.9101 10.0167 21.946 10.05C21.982 10.0833 22 10.1262 22 10.1786V10.8143C22 10.8857 21.9923 10.9452 21.9769 10.9929C21.9615 11.0405 21.9409 11.0881 21.9152 11.1357L20.1349 14.8286C20.1195 14.8571 20.0912 14.8929 20.0501 14.9357C20.009 14.9786 19.9473 15 19.8651 15H18.8709Z" fill="white"/>
<path d="M4.87091 15C4.82466 15 4.78613 14.9857 4.7553 14.9571C4.72447 14.9238 4.70906 14.8857 4.70906 14.8429C4.70906 14.8238 4.71419 14.8024 4.72447 14.7786L6.50482 11.0786H4.19268C4.1413 11.0786 4.09505 11.0619 4.05395 11.0286C4.01798 10.9905 4 10.9452 4 10.8929V10.1786C4 10.1262 4.01798 10.0833 4.05395 10.05C4.09505 10.0167 4.1413 10 4.19268 10H7.79961C7.86127 10 7.91008 10.0167 7.94605 10.05C7.98202 10.0833 8 10.1262 8 10.1786V10.8143C8 10.8857 7.99229 10.9452 7.97688 10.9929C7.96146 11.0405 7.94091 11.0881 7.91522 11.1357L6.13487 14.8286C6.11946 14.8571 6.0912 14.8929 6.0501 14.9357C6.00899 14.9786 5.94733 15 5.86512 15H4.87091Z" fill="white"/>
</g>
<defs>
<clipPath id="clip0_1670_21523">
<rect width="25" height="25" fill="white"/>
</clipPath>
</defs>
</svg>
