<?xml version="1.0" encoding="UTF-8"?>
<svg xmlns="http://www.w3.org/2000/svg" xmlns:xlink="http://www.w3.org/1999/xlink" version="1.1" viewBox="0 0 21 20">
  <defs>
    <style>
      .cls-1 {
        fill: url(#linear-gradient-2);
      }

      .cls-2 {
        fill: url(#linear-gradient);
      }
    </style>
    <linearGradient id="linear-gradient" x1="0" y1="-4.4" x2="84.4" y2="115.8" gradientUnits="userSpaceOnUse">
      <stop offset=".2" stop-color="#d89d3a"/>
      <stop offset=".3" stop-color="#a46b28"/>
      <stop offset=".5" stop-color="#8e5723"/>
      <stop offset=".5" stop-color="#f4f3b8"/>
      <stop offset=".6" stop-color="#f7ed9a"/>
      <stop offset=".7" stop-color="#d5b767"/>
      <stop offset=".8" stop-color="#a76f29"/>
      <stop offset=".8" stop-color="#d0ab5b"/>
      <stop offset="1" stop-color="#e0c77d"/>
    </linearGradient>
    <linearGradient id="linear-gradient-2" x1=".4" y1="9.7" x2="20.7" y2="9.7" xlink:href="#linear-gradient"/>
  </defs>
  <!-- Generator: Adobe Illustrator 28.7.1, SVG Export Plug-In . SVG Version: 1.2.0 Build 142)  -->
  <g>
    <g id="Layer_1">
      <g>
        <path class="cls-2" d="M9.7.6c.4-.7,1.4-.7,1.8,0l2.5,4.7c.1.3.4.5.7.5l5.3.9c.8.1,1.1,1.1.5,1.7l-3.7,3.8c-.2.2-.3.5-.3.8l.8,5.2c.1.8-.7,1.4-1.4,1l-4.8-2.3c-.3-.1-.6-.1-.9,0l-4.8,2.3c-.7.4-1.5-.2-1.4-1l.8-5.2c0-.3,0-.6-.3-.8l-3.7-3.8c-.6-.6-.2-1.5.5-1.7l5.3-.9c.3,0,.6-.2.7-.5L9.7.6Z"/>
        <path class="cls-1" d="M10.6.3c.3,0,.5.1.7.4l2.5,4.7c.2.3.5.6.9.6l5.3.9c.3,0,.5.2.6.5,0,.3,0,.6-.2.8l-3.7,3.8c-.3.3-.4.7-.3,1.1l.8,5.2c0,.2,0,.4-.2.6-.1.2-.4.3-.6.3s-.2,0-.3,0l-4.8-2.3c-.2,0-.4-.1-.5-.1s-.4,0-.5.1l-4.8,2.3c-.1,0-.2,0-.3,0-.2,0-.4,0-.6-.3-.1-.2-.2-.4-.2-.6l.8-5.2c0-.4,0-.8-.3-1.1l-3.7-3.8c-.2-.2-.3-.5-.2-.8s.3-.5.6-.5l5.3-.9c.4,0,.7-.3.9-.6L9.9.7c.1-.2.4-.4.7-.4M10.6,0c-.3,0-.7.2-.9.5l-2.5,4.7c-.1.3-.4.5-.7.5l-5.3.9c-.8.1-1.1,1.1-.5,1.7l3.7,3.8c.2.2.3.5.3.8l-.8,5.2c0,.6.4,1.1,1,1.1s.3,0,.4-.1l4.8-2.3c.1,0,.3-.1.4-.1s.3,0,.4.1l4.8,2.3c.1,0,.3.1.4.1.6,0,1.1-.5,1-1.1l-.8-5.2c0-.3,0-.6.3-.8l3.7-3.8c.6-.6.2-1.5-.5-1.7l-5.3-.9c-.3,0-.6-.2-.7-.5L11.4.6c-.2-.4-.5-.5-.9-.5h0Z"/>
      </g>
    </g>
  </g>
</svg>