<?xml version="1.0" encoding="iso-8859-1"?>
<!-- Generator: Adobe Illustrator 18.0.0, SVG Export Plug-In . SVG Version: 6.00 Build 0)  -->
<!DOCTYPE svg PUBLIC "-//W3C//DTD SVG 1.1//EN" "http://www.w3.org/Graphics/SVG/1.1/DTD/svg11.dtd">
<svg version="1.1" xmlns="http://www.w3.org/2000/svg" xmlns:xlink="http://www.w3.org/1999/xlink" x="0px" y="0px"
	 viewBox="0 0 38.017 38.017" style="enable-background:new 0 0 38.017 38.017;" xml:space="preserve">
<g id="Layer_113">
	<g id="Layer_115">
		<g>
			<path style="fill:#FFFFFF;" d="M38.017,19.008c0-2.132-0.356-4.261-1.06-6.274c-0.679-1.941-1.676-3.769-2.939-5.392
				c-1.253-1.61-2.765-3.017-4.46-4.149c-1.719-1.148-3.625-2.014-5.622-2.549c-2.079-0.557-4.252-0.752-6.397-0.588
				c-2.102,0.16-4.174,0.672-6.107,1.514C9.553,2.387,7.81,3.511,6.288,4.883C4.771,6.25,3.476,7.861,2.467,9.636
				c-1.028,1.811-1.753,3.788-2.138,5.834c-0.4,2.121-0.436,4.312-0.108,6.447c0.317,2.064,0.979,4.072,1.95,5.922
				c0.951,1.809,2.195,3.461,3.669,4.877c1.476,1.418,3.179,2.596,5.028,3.474c1.896,0.899,3.94,1.479,6.027,1.71
				c2.143,0.237,4.327,0.112,6.428-0.375c2.02-0.469,3.958-1.274,5.718-2.369c1.732-1.078,3.289-2.435,4.593-4.006
				c1.312-1.578,2.367-3.369,3.108-5.283c0.766-1.978,1.191-4.082,1.264-6.202C38.013,19.446,38.017,19.227,38.017,19.008z"/>
			<path style="fill:#2446B2;" d="M38.017,19.008c0-2.222-0.382-4.355-1.083-6.337H1.083c-0.956,2.705-1.283,5.619-0.964,8.469
				c0.226,2.023,0.781,4.009,1.638,5.856h34.504C37.387,24.568,38.017,21.862,38.017,19.008z"/>
			<path style="fill:#CE2532;" d="M36.261,26.997H1.757c0.927,1.999,2.205,3.831,3.755,5.396c1.551,1.564,3.372,2.856,5.361,3.801
				c2.046,0.97,4.263,1.566,6.519,1.756c2.306,0.194,4.645-0.029,6.869-0.668c2.135-0.612,4.157-1.605,5.95-2.916
				c1.773-1.295,3.319-2.898,4.55-4.717C35.331,28.806,35.833,27.919,36.261,26.997z"/>
		</g>
	</g>
	<g id="Layer_114">
		<g>
			<path style="fill:#D32A37;" d="M7.556,6.237c0.096,1.541,0.203,3.081,0.305,4.622c0.098,1.476,0.127,2.991,0.564,4.418
				c0.379,1.236,1.034,2.391,1.954,3.307c0.903,0.898,2.038,1.536,3.25,1.915c1.272-0.398,2.458-1.081,3.38-2.05
				c0.943-0.99,1.586-2.23,1.929-3.55c0.359-1.38,0.372-2.828,0.471-4.243c0.103-1.473,0.191-2.946,0.291-4.419
				c-2.391-1.288-5.285-1.61-7.954-1.277C10.292,5.14,8.852,5.543,7.556,6.237z"/>
			<path style="fill:#005DA8;" d="M11.453,5.006c-1.205,0.181-2.4,0.508-3.503,1.032c0.098,1.543,0.195,3.085,0.301,4.627
				c0.053,0.765,0.105,1.529,0.165,2.293c0.058,0.74,0.169,1.471,0.386,2.183c0.347,1.141,0.94,2.207,1.769,3.068
				c0.841,0.872,1.91,1.495,3.058,1.87c1.236-0.404,2.381-1.101,3.249-2.076c0.884-0.992,1.476-2.236,1.75-3.533
				c0.141-0.665,0.203-1.344,0.253-2.019c0.052-0.7,0.101-1.4,0.15-2.101c0.101-1.435,0.197-2.87,0.291-4.305
				C16.914,4.896,14.073,4.613,11.453,5.006z"/>
			<path style="fill:#FFFFFF;" d="M15.29,16.947c-0.216,0-0.433,0.037-0.626,0.137c-0.196,0.101-0.38,0.211-0.597,0.262
				c-0.405,0.098-0.857,0.061-1.23-0.129c-0.187-0.094-0.358-0.205-0.567-0.246c-0.201-0.041-0.417-0.042-0.615,0.018
				c-0.208,0.061-0.383,0.196-0.583,0.277c-0.217,0.087-0.452,0.123-0.686,0.123c0.366,0.473,0.79,0.889,1.269,1.244
				c0.625,0.424,1.262,0.782,1.973,1.027c0.358-0.124,0.754-0.26,1.076-0.464c0.278-0.164,0.587-0.354,0.892-0.561
				c0.111-0.059,0.202-0.149,0.296-0.231c0.121-0.105,0.242-0.21,0.357-0.321c0.223-0.216,0.431-0.448,0.621-0.694
				c-0.281-0.001-0.562-0.057-0.816-0.183C15.811,17.084,15.571,16.947,15.29,16.947z"/>
			<path style="fill:#FFFFFF;" d="M15.908,16.256c-0.228-0.124-0.475-0.191-0.734-0.179c-0.286,0.016-0.508,0.148-0.759,0.269
				c-0.459,0.222-1.037,0.246-1.504,0.033c-0.246-0.112-0.455-0.26-0.729-0.297c-0.284-0.039-0.543,0.017-0.793,0.148
				c-0.255,0.133-0.493,0.246-0.783,0.276c-0.283,0.03-0.573-0.001-0.844-0.086c0.099,0.185,0.206,0.364,0.319,0.536
				c0.305,0.059,0.627,0.034,0.91-0.097c0.288-0.134,0.535-0.289,0.859-0.315c0.32-0.026,0.637,0.035,0.923,0.182
				c0.146,0.074,0.286,0.161,0.445,0.207c0.158,0.045,0.324,0.059,0.487,0.051c0.319-0.014,0.553-0.158,0.835-0.287
				c0.263-0.121,0.558-0.174,0.846-0.152c0.309,0.022,0.556,0.148,0.827,0.286c0.299,0.153,0.637,0.189,0.966,0.126
				c0.114-0.172,0.22-0.352,0.319-0.536C16.954,16.593,16.401,16.527,15.908,16.256z"/>
			<path style="fill:#FFFFFF;" d="M14.996,12.671L13.629,9.91l-1.367,2.762l-0.905-1.234l-2.31,3.084
				c0.111,0.469,0.26,0.918,0.444,1.343c0.282,0.163,0.605,0.255,0.932,0.245c0.155-0.004,0.309-0.031,0.455-0.081
				c0.165-0.056,0.311-0.149,0.47-0.22c0.309-0.137,0.645-0.167,0.977-0.107c0.16,0.029,0.312,0.082,0.455,0.156
				c0.154,0.081,0.302,0.174,0.472,0.219c0.314,0.08,0.67,0.062,0.964-0.079c0.145-0.069,0.28-0.159,0.43-0.218
				c0.166-0.064,0.344-0.096,0.521-0.106c0.356-0.018,0.656,0.08,0.966,0.247c0.304,0.163,0.622,0.23,0.965,0.18
				c0.235-0.034,0.462-0.118,0.668-0.236c0.184-0.425,0.333-0.874,0.443-1.343l-2.309-3.084L14.996,12.671z"/>
			<polygon style="fill:#FFDE00;" points="15.447,5.914 15.331,5.564 15.215,5.914 14.852,5.839 15.098,6.116 14.852,6.392 
				15.215,6.318 15.331,6.668 15.447,6.318 15.809,6.392 15.564,6.116 15.809,5.839 			"/>
			<polygon style="fill:#FFDE00;" points="13.745,8.193 13.629,7.842 13.512,8.193 13.15,8.119 13.396,8.394 13.15,8.671 
				13.512,8.596 13.629,8.947 13.745,8.596 14.107,8.671 13.862,8.394 14.107,8.119 			"/>
			<polygon style="fill:#FFDE00;" points="12.043,5.914 11.926,5.564 11.81,5.914 11.447,5.839 11.694,6.116 11.447,6.392 
				11.81,6.318 11.926,6.668 12.042,6.318 12.405,6.392 12.159,6.116 12.405,5.839 			"/>
		</g>
	</g>
</g>
<g id="Layer_1">
</g>
</svg>
