<?xml version="1.0" encoding="iso-8859-1"?>
<!-- Generator: Adobe Illustrator 18.0.0, SVG Export Plug-In . SVG Version: 6.00 Build 0)  -->
<!DOCTYPE svg PUBLIC "-//W3C//DTD SVG 1.1//EN" "http://www.w3.org/Graphics/SVG/1.1/DTD/svg11.dtd">
<svg version="1.1" xmlns="http://www.w3.org/2000/svg" xmlns:xlink="http://www.w3.org/1999/xlink" x="0px" y="0px"
	 viewBox="0 0 38.018 38.016" style="enable-background:new 0 0 38.018 38.016;" xml:space="preserve">
<g id="Layer_79">
	<g id="Layer_80">
		<g>
			<path style="fill:#006AA7;" d="M38.017,19.008c0-2.132-0.356-4.262-1.06-6.274c-0.679-1.941-1.677-3.768-2.94-5.392
				c-1.252-1.609-2.764-3.017-4.46-4.149c-1.719-1.148-3.624-2.014-5.621-2.549c-2.079-0.556-4.252-0.752-6.397-0.588
				c-2.102,0.16-4.174,0.673-6.106,1.514C9.553,2.387,7.81,3.511,6.289,4.883C4.771,6.25,3.476,7.861,2.467,9.636
				c-1.027,1.81-1.753,3.788-2.138,5.833c-0.4,2.123-0.435,4.314-0.107,6.448c0.316,2.065,0.978,4.073,1.95,5.922
				c0.95,1.809,2.194,3.461,3.668,4.877c1.475,1.418,3.179,2.597,5.027,3.474c1.897,0.9,3.941,1.479,6.027,1.71
				c2.144,0.237,4.327,0.112,6.429-0.375c2.019-0.469,3.958-1.272,5.718-2.368c1.732-1.079,3.288-2.437,4.593-4.006
				c1.312-1.579,2.367-3.369,3.107-5.284c0.766-1.977,1.192-4.082,1.265-6.202C38.013,19.446,38.017,19.227,38.017,19.008z"/>
			<path style="fill:#FECC00;" d="M37.53,23.303c0.65-2.814,0.65-5.777,0-8.591H16.84V0.123c-3.166,0.359-6.095,1.496-8.594,3.216
				v11.373H0.488c-0.65,2.814-0.65,5.776,0,8.591h7.759v11.374c2.499,1.719,5.428,2.855,8.594,3.216v-14.59H37.53z"/>
		</g>
	</g>
</g>
<g id="Layer_1">
</g>
</svg>
