<?xml version="1.0" encoding="iso-8859-1"?>
<!-- Generator: Adobe Illustrator 18.0.0, SVG Export Plug-In . SVG Version: 6.00 Build 0)  -->
<!DOCTYPE svg PUBLIC "-//W3C//DTD SVG 1.1//EN" "http://www.w3.org/Graphics/SVG/1.1/DTD/svg11.dtd">
<svg version="1.1" xmlns="http://www.w3.org/2000/svg" xmlns:xlink="http://www.w3.org/1999/xlink" x="0px" y="0px"
	 viewBox="0 0 38.018 38.017" style="enable-background:new 0 0 38.018 38.017;" xml:space="preserve">
<g id="Layer_69">
	<g id="Layer_70">
		<g>
			<path style="fill:#C41A23;" d="M38.018,19.008c0-2.132-0.357-4.261-1.061-6.274c-0.679-1.941-1.676-3.769-2.939-5.392
				c-1.253-1.609-2.765-3.017-4.46-4.149c-1.719-1.148-3.625-2.014-5.622-2.549c-2.079-0.556-4.251-0.752-6.396-0.588
				c-2.103,0.16-4.174,0.673-6.107,1.514C9.553,2.387,7.811,3.512,6.288,4.883C4.772,6.25,3.476,7.861,2.468,9.636
				c-1.028,1.811-1.754,3.788-2.139,5.834c-0.399,2.122-0.435,4.312-0.107,6.447c0.317,2.065,0.979,4.073,1.95,5.922
				c0.951,1.809,2.195,3.461,3.669,4.877c1.476,1.418,3.179,2.597,5.027,3.474c1.896,0.9,3.94,1.479,6.027,1.711
				c2.143,0.236,4.327,0.111,6.428-0.376c2.019-0.469,3.958-1.272,5.718-2.368c1.732-1.078,3.289-2.437,4.594-4.006
				c1.312-1.579,2.366-3.369,3.107-5.284c0.766-1.977,1.191-4.082,1.264-6.202C38.014,19.446,38.018,19.227,38.018,19.008z"/>
			<path style="fill:#FFFFFF;" d="M38.018,19.008c0-5.715-2.522-10.841-6.515-14.325H6.516c-1.782,1.556-3.272,3.442-4.367,5.54
				c-1.124,2.153-1.826,4.519-2.06,6.937c-0.238,2.475,0.005,4.994,0.728,7.374c0.692,2.282,1.821,4.427,3.305,6.294
				c0.72,0.905,1.523,1.744,2.394,2.505h24.989C35.495,29.848,38.018,24.723,38.018,19.008z"/>
			<path style="fill:#1E1E5B;" d="M38.018,19.008c0-2.534-0.498-4.952-1.397-7.163H1.398c-1.072,2.635-1.535,5.502-1.361,8.341
				c0.126,2.052,0.586,4.08,1.361,5.984H36.62C37.52,23.959,38.018,21.542,38.018,19.008z"/>
		</g>
	</g>
</g>
<g id="Layer_1">
</g>
</svg>
