<?xml version="1.0" encoding="iso-8859-1"?>
<!-- Generator: Adobe Illustrator 18.0.0, SVG Export Plug-In . SVG Version: 6.00 Build 0)  -->
<!DOCTYPE svg PUBLIC "-//W3C//DTD SVG 1.1//EN" "http://www.w3.org/Graphics/SVG/1.1/DTD/svg11.dtd">
<svg version="1.1" xmlns="http://www.w3.org/2000/svg" xmlns:xlink="http://www.w3.org/1999/xlink" x="0px" y="0px"
	 viewBox="0 0 38.018 38.019" style="enable-background:new 0 0 38.018 38.019;" xml:space="preserve">
<g id="Layer_71">
	<g id="Layer_72">
		<g>
			<path style="fill:#2AA3D8;" d="M38.018,19.01c0-3.902-1.176-7.528-3.192-10.546L3.192,29.554
				c1.267,1.896,2.874,3.562,4.725,4.893c1.874,1.349,3.991,2.352,6.224,2.941c2.249,0.595,4.606,0.769,6.919,0.521
				c2.088-0.224,4.135-0.797,6.035-1.69c1.852-0.872,3.559-2.045,5.039-3.458c1.479-1.411,2.728-3.06,3.685-4.865
				c0.977-1.845,1.645-3.851,1.97-5.913C37.942,21,38.018,20.004,38.018,19.01z"/>
			<path style="fill:#5EAD40;" d="M19.009,0c-2.132,0-4.262,0.357-6.274,1.061C10.793,1.738,8.966,2.736,7.343,4
				C5.734,5.254,4.326,6.765,3.193,8.461c-1.149,1.719-2.015,3.625-2.549,5.621c-0.588,2.198-0.774,4.501-0.557,6.766
				c0.251,2.615,1.051,5.169,2.338,7.459c0.239,0.426,0.495,0.842,0.766,1.248L34.826,8.464C31.417,3.361,25.606,0,19.009,0z"/>
			<path style="fill:#F2CD33;" d="M28.478,2.523L0.151,21.406c0.759,6.031,4.343,11.184,9.386,14.088l28.331-18.887
				C37.108,10.576,33.522,5.426,28.478,2.523z"/>
			<path d="M30.946,4.217L0.759,24.341c1.1,3.769,3.335,7.054,6.31,9.459l30.188-20.126C36.158,9.906,33.922,6.621,30.946,4.217z"/>
		</g>
	</g>
</g>
<g id="Layer_1">
</g>
</svg>
