<?xml version="1.0" encoding="iso-8859-1"?>
<!-- Generator: Adobe Illustrator 18.0.0, SVG Export Plug-In . SVG Version: 6.00 Build 0)  -->
<!DOCTYPE svg PUBLIC "-//W3C//DTD SVG 1.1//EN" "http://www.w3.org/Graphics/SVG/1.1/DTD/svg11.dtd">
<svg version="1.1" xmlns="http://www.w3.org/2000/svg" xmlns:xlink="http://www.w3.org/1999/xlink" x="0px" y="0px"
	 viewBox="0 0 38.018 38.017" style="enable-background:new 0 0 38.018 38.017;" xml:space="preserve">
<g id="Layer_38">
	<g id="Layer_39">
		<g>
			<g>
				<path style="fill:#BF0404;" d="M38.018,19.009c0-2.132-0.356-4.261-1.061-6.274c-0.679-1.941-1.676-3.769-2.939-5.392
					c-1.253-1.609-2.765-3.017-4.46-4.149c-1.719-1.148-3.625-2.014-5.622-2.549c-2.079-0.556-4.251-0.752-6.397-0.588
					c-2.102,0.16-4.174,0.673-6.107,1.514C9.553,2.388,7.811,3.513,6.288,4.884c-1.517,1.367-2.812,2.977-3.82,4.753
					c-1.028,1.811-1.754,3.788-2.139,5.834c-0.399,2.122-0.436,4.312-0.107,6.447c0.317,2.064,0.978,4.073,1.95,5.922
					c0.951,1.809,2.195,3.461,3.669,4.877c1.476,1.418,3.179,2.597,5.027,3.474c1.897,0.9,3.941,1.479,6.027,1.711
					c2.143,0.236,4.327,0.111,6.428-0.376c2.02-0.469,3.958-1.272,5.718-2.368c1.732-1.078,3.289-2.436,4.594-4.006
					c1.312-1.579,2.366-3.369,3.108-5.284c0.766-1.977,1.191-4.082,1.264-6.202C38.014,19.446,38.018,19.228,38.018,19.009z"/>
				<path d="M19.009,0C14.192,0,9.793,1.794,6.443,4.748h25.133C28.226,1.794,23.827,0,19.009,0z"/>
				<path style="fill:#F9DB2B;" d="M31.575,4.748H6.443C4.241,6.69,2.493,9.132,1.377,11.898h35.264
					C35.525,9.132,33.776,6.69,31.575,4.748z"/>
				<path d="M38.017,19.047H0.001c0.005,2.53,0.505,4.943,1.407,7.149H36.61C37.512,23.99,38.012,21.577,38.017,19.047z"/>
				<path style="fill:#F9DB2B;" d="M36.61,26.196H1.408c1.133,2.771,2.899,5.215,5.121,7.149h24.96
					C33.711,31.411,35.478,28.967,36.61,26.196z"/>
			</g>
			<g>
				<path style="fill:#FFFFFF;" d="M23.284,13.849c-1.972-1.636-4.778-1.991-7.098-0.912c-1.093,0.509-2.045,1.31-2.722,2.308
					c-0.703,1.036-1.101,2.271-1.148,3.522c-0.093,2.4,1.155,4.7,3.198,5.959c2.152,1.325,4.974,1.291,7.103-0.069
					c2.022-1.293,3.231-3.663,3.078-6.06C25.578,16.768,24.695,15.02,23.284,13.849z"/>
				<g>
					<path style="fill:#FFFFFF;" d="M18.122,14.458c-0.171,0-0.171,0.266,0,0.266S18.293,14.458,18.122,14.458z"/>
					<path style="fill:#FFFFFF;" d="M21.165,18.829c-0.385-0.123-0.784-0.22-1.145-0.403c-0.247-0.125-0.666-0.411-0.95-0.236
						c-0.197,0.122-0.084,0.418,0.044,0.546c0.124,0.124,0.313,0.181,0.466,0.261c0.171,0.091,0.278,0.234,0.404,0.377
						c0.009,0.008,0.016,0.016,0.023,0.023c0.043,0.048,0.085,0.09,0.121,0.126c0.155-0.015,0.34-0.019,0.484,0.05
						c0,0-0.104-0.183-0.312-0.313c0,0,0.38,0,0.785,0.157c0,0-0.136-0.27-0.323-0.436c0.029,0.009,0.506,0.166,0.899,0.396
						C21.645,19.355,21.432,19.054,21.165,18.829z"/>
				</g>
				<g>
					<path style="fill:#A8A8A8;" d="M18.255,15.545c-0.39,0.433-0.714,0.935-0.912,1.483c-0.105,0.289-0.174,0.596-0.172,0.903
						c0.001,0.268,0.05,0.598,0.239,0.803c0.025-0.143,0.025-0.342,0.025-0.342c0.062,0.106,0.191,0.134,0.191,0.134
						c0.003-0.137-0.034-0.294-0.034-0.294c0.073,0.052,0.227,0.046,0.227,0.046c-0.071-0.067-0.122-0.236-0.122-0.236
						c0.12,0.046,0.29,0.031,0.29,0.031c-0.079-0.154-0.085-0.273-0.085-0.273c0.143,0.04,0.264,0,0.264,0
						c-0.593-0.608,0.146-2.227,0.146-2.227L18.255,15.545z"/>
					<path style="fill:#A8A8A8;" d="M21.122,18.553c-0.686-0.291-1.35-0.625-2.029-0.933c-0.115-0.053-0.304-0.18-0.437-0.145
						c-0.144,0.038-0.198,0.241-0.223,0.367c-0.062,0.316,0.002,0.674,0.146,0.959c0.287,0.563,0.888,0.691,1.43,0.892
						c0.599,0.22,1.075,0.777,1.371,1.325c0.037,0.067,0.071,0.137,0.104,0.207c0.021-0.06,0.032-0.116,0.032-0.172
						c0.011-0.175-0.091-0.334-0.193-0.468c-0.122-0.16-0.259-0.309-0.407-0.445c-0.29-0.265-0.644-0.453-0.909-0.744
						c-0.008-0.008-0.015-0.016-0.022-0.022c-0.118-0.135-0.217-0.274-0.377-0.362c-0.154-0.085-0.345-0.142-0.477-0.261
						c-0.134-0.121-0.259-0.413-0.078-0.55c0.264-0.198,0.7,0.087,0.935,0.208c0.372,0.192,0.781,0.293,1.179,0.42
						c0.005,0.001-0.205-0.221-0.205-0.221c0.189,0.074,0.401,0.102,0.604,0.12C21.412,18.686,21.267,18.614,21.122,18.553z"/>
					<path style="fill:#A8A8A8;" d="M18.685,19.346c-0.21,0.64,0.028,0.854,0.028,0.854c0.439-0.229,0.646-0.051,0.646-0.051
						l0.062-0.046C19.095,19.892,18.685,19.346,18.685,19.346z"/>
					<path style="fill:#A8A8A8;" d="M18.804,14.013c0.048,0.158,0.023,0.339-0.017,0.495c-0.045,0.177-0.151,0.273-0.302,0.361
						c-0.14,0.081-0.245,0.26-0.053,0.358c0.151,0.078,0.32-0.016,0.428-0.123c0.197-0.196,0.339-0.489,0.224-0.764
						C19.028,14.209,18.924,14.092,18.804,14.013z"/>
				</g>
				<g>
					<path style="fill:#BF0404;" d="M22.551,19.356c-0.331-0.271-0.714-0.476-1.108-0.64c-0.129-0.017-0.334-0.049-0.483-0.107
						l0.21,0.222c0.262,0.224,0.475,0.524,0.491,0.547c-0.393-0.23-0.87-0.388-0.899-0.396c0.188,0.166,0.323,0.436,0.323,0.436
						c-0.405-0.157-0.785-0.157-0.785-0.157c0.208,0.131,0.312,0.313,0.312,0.313c-0.145-0.068-0.329-0.065-0.484-0.05
						c0.253,0.256,0.582,0.42,0.843,0.668c0.217,0.207,0.566,0.535,0.546,0.863c0.056,0.144,0.092,0.349,0.002,0.565
						c0.307-0.167,0.376-0.601,0.342-0.911c0.214,0.644-0.05,1.325-0.633,1.665c0,0,0.03,0.057,0.144,0.076
						c-0.018,0.02-0.174,0.202-0.114,0.203c0.2,0.004,0.392-0.121,0.555-0.223c-0.06,0.062-0.161,0.14-0.168,0.232
						c-0.006,0.076,0.083,0.049,0.125,0.032c0.126-0.052,0.255-0.136,0.358-0.225c-0.046,0.053-0.428,0.511-0.395,0.557
						c0.071,0.105,0.558-0.273,0.607-0.315c0.335-0.285,0.573-0.671,0.727-1.08c0.157-0.415,0.282-0.889,0.157-1.328
						C23.117,19.921,22.854,19.603,22.551,19.356z"/>
					<path style="fill:#BF0404;" d="M19.659,13.306l-0.425,0.65c0.134,0.13,0.198,0.279,0.216,0.431l0.682-0.168
						C20.132,14.219,20.116,13.723,19.659,13.306z"/>
					<path style="fill:#BF0404;" d="M17.784,13.917c0.114-0.116,0.274-0.224,0.476-0.265l0.058-0.854
						c-0.608-0.002-0.956,0.308-0.956,0.308L17.784,13.917z"/>
					<path style="fill:#BF0404;" d="M17.914,15.282c-0.076-0.052-0.172-0.141-0.172-0.141c-0.118,0.091-0.341,0.366-0.212,0.519
						C17.725,15.891,18.243,15.499,17.914,15.282z"/>
				</g>
				<path style="fill:#F9DB2B;" d="M18.26,13.652c0.339-0.072,0.731,0.064,0.975,0.304l0.425-0.65
					c-0.355-0.323-0.862-0.506-1.342-0.508L18.26,13.652z"/>
				<path d="M21.576,18.749c0.005-0.003,0.009-0.01,0.01-0.017c0.01-0.055-0.348-0.161-0.393-0.178
					c-0.28-0.102-0.553-0.234-0.826-0.355c-0.316-0.141-0.63-0.283-0.939-0.435c-0.154-0.077-0.312-0.15-0.465-0.228
					c-0.103-0.053-0.253-0.138-0.363-0.059c-0.079-0.281-0.086-0.578-0.078-0.869c0.008-0.291,0.045-0.589,0.191-0.847
					c0.13-0.227,0.349-0.383,0.503-0.592c0.159-0.215,0.263-0.49,0.236-0.761c0.004-0.001,0.686-0.169,0.686-0.169
					c0.112-0.036-0.158-0.569-0.181-0.607c-0.174-0.288-0.44-0.505-0.741-0.648c-0.562-0.27-1.369-0.33-1.87,0.104
					c-0.007,0.007-0.009,0.019-0.004,0.028l0.423,0.811c0.001,0.002,0.003,0.003,0.005,0.006c-0.191,0.203-0.255,0.492-0.123,0.746
					c-0.187,0.033-0.366,0.101-0.544,0.164c-0.121,0.044-0.42,0.131-0.452,0.28c0.194-0.101,1.016-0.195,1.016-0.195l0.006,0.086
					c-0.311,0.044-0.622,0.106-0.926,0.188c0.177,0.037,0.894-0.064,0.894-0.064c-0.102,0.101-0.192,0.23-0.202,0.377
					c-0.011,0.145,0.081,0.273,0.23,0.289c-0.511,0.499-0.961,1.114-1.118,1.823c-0.159,0.714,0.064,1.448,0.591,1.958
					c0.022-0.033,0.065-0.065,0.065-0.065c0.696,0.781,1.2,0.859,1.2,0.859c0.149,0.196,0.333,0.33,0.511,0.438
					c0.033,0.38,0.051,0.737-0.004,1.115c-0.375-0.059-0.757-0.066-1.136-0.079c-0.344-0.011-0.723-0.017-1.04,0.134
					c-0.49,0.231-0.539,0.867-0.438,1.334c0.148-0.418,0.281-0.585,0.281-0.585c0.016,0.372,0.209,0.513,0.209,0.513
					c-0.026-0.548,0.126-0.737,0.126-0.737c0.009,0.134,0.049,0.281,0.098,0.405c0.012,0.03,0.044,0.122,0.092,0.107
					c0.073-0.021,0.112-0.254,0.14-0.315c0.055-0.123,0.131-0.241,0.229-0.335c0.117-0.111,0.263-0.135,0.419-0.134
					c0.334,0.004,0.663,0.073,0.997,0.077c0.009,0.63,0.178,1.246,0.166,1.879c0,0-1.379-0.123-1.649,0.38
					c0.188-0.006,0.376,0.001,0.564-0.003c0.056-0.002,0.355-0.021,0.296,0.083c-0.125,0.219-0.411,0.429-0.244,0.711
					c0.274-0.317,0.663-0.523,1.057-0.65c0.226-0.074,0.46-0.128,0.696-0.156c0.226-0.027,0.525-0.062,0.736,0.042
					c0,0-0.096-0.418-1.037-0.406c-0.06-0.322-0.101-0.648-0.12-0.975c-0.01-0.166-0.017-0.332-0.018-0.498
					c-0.001-0.14-0.012-0.293,0.051-0.422c0.215-0.007,0.434-0.018,0.649-0.004c0.176,0.012,0.375,0.067,0.499-0.097
					c0.206-0.271-0.082-0.538-0.215-0.768c-0.073-0.129-0.287-0.456-0.16-0.603c0.092-0.106,0.368-0.055,0.487-0.041
					c0.216,0.023,0.427,0.074,0.64,0.114c0.036,0.059,0.068,0.118,0.101,0.179c0.021,0.042,0.075,0.102,0.075,0.151
					c0.026,0.063,0.061-0.063,0.062-0.074c0.03,0.123,0.04,0.281-0.028,0.448c-0.004,0.009-0.002,0.018,0.005,0.025
					c0.008,0.006,0.018,0.008,0.027,0.004c0.002-0.003,0.298-0.162,0.353-0.62c0.007,0.002,0.012,0.004,0.018,0.005
					c0.001,0.002,0.001,0.005,0.001,0.006c0.035,0.376-0.064,0.753-0.322,1.035c-0.038,0.041-0.391,0.28-0.372,0.319
					c0.002,0.002,0.03,0.053,0.121,0.078c-0.025,0.029-0.182,0.188-0.091,0.211c0.157,0.039,0.337-0.087,0.468-0.156
					c-0.044,0.058-0.087,0.124-0.083,0.165c0.022,0.143,0.319-0.048,0.364-0.077c-0.086,0.105-0.168,0.213-0.242,0.326
					c-0.076,0.116-0.003,0.136,0.099,0.101c0.255-0.085,0.475-0.257,0.66-0.446c0.379-0.39,0.618-0.907,0.733-1.434
					c0.122-0.561,0.015-1.086-0.366-1.522C22.524,19.231,22.052,18.961,21.576,18.749z M20.109,14.201l-0.639,0.157
					c-0.023-0.154-0.094-0.29-0.206-0.405l0.4-0.612C20.041,13.696,20.099,14.11,20.109,14.201z M18.338,12.82
					c0.461,0.008,0.945,0.183,1.292,0.489l-0.399,0.61c-0.246-0.224-0.614-0.355-0.945-0.296L18.338,12.82z M17.391,13.112
					c0.067-0.054,0.388-0.284,0.902-0.292l-0.055,0.812c-0.204,0.047-0.353,0.154-0.448,0.245L17.391,13.112z M18.255,14.591
					c0,0.172-0.266,0.172-0.266,0C17.989,14.42,18.255,14.42,18.255,14.591z M17.536,15.664c-0.111-0.106,0.028-0.386,0.206-0.523
					c0.096,0.088,0.328,0.181,0.288,0.345C17.985,15.674,17.684,15.805,17.536,15.664z M18.167,17.8c0,0-0.121,0.04-0.264,0
					c0,0,0.006,0.119,0.085,0.273c0,0-0.17,0.015-0.29-0.031c0,0,0.051,0.169,0.122,0.236c0,0-0.154,0.006-0.227-0.046
					c0,0,0.037,0.157,0.034,0.294c0,0-0.129-0.028-0.191-0.134c0,0,0,0.199-0.025,0.342c-0.18-0.195-0.231-0.505-0.238-0.76
					c-0.009-0.31,0.056-0.617,0.157-0.908c0.196-0.564,0.527-1.079,0.926-1.522l0.058,0.027
					C18.313,15.572,17.574,17.191,18.167,17.8z M18.327,15.096c0-0.206,0.284-0.265,0.388-0.417
					c0.118-0.175,0.149-0.466,0.089-0.666c0.318,0.207,0.4,0.581,0.21,0.904c-0.085,0.143-0.213,0.283-0.379,0.326
					C18.528,15.271,18.327,15.239,18.327,15.096z M18.713,20.199c0,0-0.238-0.214-0.028-0.854c0,0,0.41,0.546,0.735,0.757
					l-0.062,0.046C19.359,20.148,19.152,19.971,18.713,20.199z M19.868,21.996c-0.115,0.118-0.367,0.045-0.505,0.018
					c-0.054-0.135-0.041-0.285-0.043-0.428c-0.001-0.174,0-0.349,0.006-0.522c0.162,0.114,0.322,0.241,0.437,0.406
					C19.843,21.586,19.995,21.865,19.868,21.996z M21.48,21.163c-0.164-0.34-0.375-0.66-0.643-0.928
					c-0.146-0.146-0.306-0.283-0.477-0.396c-0.176-0.114-0.37-0.18-0.567-0.243l-0.075-0.024c-0.405-0.13-0.823-0.299-1.058-0.677
					c-0.126-0.202-0.191-0.438-0.215-0.674c-0.019-0.198-0.021-0.432,0.088-0.608c0.143-0.226,0.39-0.05,0.57,0.038
					c0.253,0.123,0.505,0.249,0.76,0.367c0.501,0.232,1.005,0.458,1.518,0.663c-0.104-0.015-0.205-0.034-0.306-0.062
					c-0.016-0.004-0.173-0.041-0.132,0.001l0.149,0.158c-0.001,0-0.02-0.006-0.02-0.006l-0.021-0.007
					c-0.374-0.122-0.761-0.224-1.113-0.404c-0.245-0.127-0.583-0.351-0.865-0.203c-0.242,0.126-0.124,0.462,0.037,0.604
					c0.128,0.113,0.306,0.171,0.456,0.249c0.173,0.091,0.275,0.229,0.4,0.374c0.002,0.001,0.023,0.023,0.023,0.023
					c0.045,0.047,0.086,0.09,0.122,0.127c0.26,0.251,0.584,0.422,0.847,0.671C21.2,20.439,21.568,20.794,21.48,21.163z
					 M20.746,18.998c0.133,0.116,0.24,0.289,0.289,0.375c-0.215-0.076-0.464-0.142-0.693-0.136
					c-0.068,0.002-0.086,0.018-0.024,0.061c0.09,0.062,0.169,0.14,0.234,0.228c-0.062-0.018-0.136-0.028-0.222-0.03
					c-0.066-0.004-0.132-0.002-0.194,0.003c-0.034-0.033-0.073-0.073-0.114-0.118l-0.021-0.023c-0.094-0.106-0.174-0.227-0.291-0.31
					c-0.148-0.104-0.325-0.163-0.48-0.255c-0.12-0.07-0.22-0.178-0.243-0.318c-0.021-0.139,0.043-0.269,0.186-0.299
					c0.294-0.063,0.575,0.151,0.825,0.27c0.334,0.156,0.69,0.256,1.039,0.367l0.116,0.037c0.024,0.021,0.047,0.041,0.069,0.061
					c0.081,0.079,0.162,0.158,0.234,0.245c0.043,0.049,0.082,0.1,0.122,0.149c-0.385-0.209-0.806-0.343-0.81-0.346
					c-0.011-0.002-0.022,0.001-0.027,0.012C20.736,18.979,20.738,18.99,20.746,18.998z M23.231,20.95
					c-0.294,1.623-1.31,2.044-1.475,2.057c0.018-0.049,0.125-0.206,0.389-0.524c0.008-0.008,0.008-0.022-0.001-0.03
					c-0.01-0.008-0.021-0.008-0.03-0.001c-0.055,0.047-0.36,0.308-0.446,0.226c-0.007-0.066,0.194-0.228,0.163-0.262
					c-0.021-0.029-0.185,0.075-0.206,0.087c-0.11,0.062-0.237,0.127-0.365,0.127c0.019-0.043,0.147-0.149,0.135-0.189
					c-0.008-0.025-0.106-0.04-0.132-0.062c0.267-0.161,0.487-0.401,0.601-0.694c0.114-0.294,0.154-0.691,0.018-0.984
					c-0.009-0.025-0.046-0.016-0.043,0.01c0.005,0.044,0.008,0.088,0.009,0.133c0.002,0.102-0.008,0.204-0.033,0.303
					c-0.04,0.158-0.121,0.31-0.249,0.414c0.061-0.201,0.023-0.383-0.024-0.508c0.02-0.33-0.326-0.661-0.544-0.868
					c-0.134-0.127-0.278-0.242-0.428-0.35c-0.131-0.096-0.279-0.173-0.39-0.291c0.138-0.009,0.296-0.01,0.424,0.052
					c0.009,0.003,0.019,0.002,0.025-0.006c0.053-0.05-0.223-0.282-0.249-0.303c0.13,0.008,0.408,0.04,0.697,0.151
					c0.007,0.003,0.014,0.002,0.019,0c0.003-0.002,0.005-0.003,0.007-0.006c0.002-0.001,0.003-0.004,0.005-0.007
					c0.002-0.006,0.001-0.011-0.002-0.017c-0.006-0.014-0.013-0.028-0.021-0.041c-0.004-0.007-0.008-0.013-0.012-0.021
					c-0.006-0.011-0.014-0.022-0.021-0.037c-0.042-0.068-0.085-0.137-0.137-0.197c-0.008-0.013-0.017-0.023-0.027-0.034
					c-0.012-0.015-0.024-0.029-0.037-0.043c0.161,0.058,0.502,0.188,0.799,0.363c0.027,0.005,0.038-0.006,0.031-0.033
					c-0.001-0.001-0.034-0.047-0.09-0.117c-0.039-0.055-0.085-0.107-0.13-0.157c-0.021-0.024-0.044-0.049-0.067-0.075
					c-0.034-0.04-0.075-0.074-0.112-0.111c-0.02-0.019-0.04-0.039-0.062-0.058c-0.006-0.006-0.014-0.012-0.021-0.018
					c-0.002-0.003-0.004-0.005-0.007-0.006c-0.002-0.005-0.002-0.006-0.005-0.008l-0.146-0.155c0.131,0.04,0.283,0.064,0.397,0.079
					C22.204,19.06,23.444,19.77,23.231,20.95z"/>
			</g>
		</g>
	</g>
</g>
<g id="Layer_1">
</g>
</svg>
