<?xml version="1.0" encoding="iso-8859-1"?>
<!-- Generator: Adobe Illustrator 18.0.0, SVG Export Plug-In . SVG Version: 6.00 Build 0)  -->
<!DOCTYPE svg PUBLIC "-//W3C//DTD SVG 1.1//EN" "http://www.w3.org/Graphics/SVG/1.1/DTD/svg11.dtd">
<svg version="1.1" xmlns="http://www.w3.org/2000/svg" xmlns:xlink="http://www.w3.org/1999/xlink" x="0px" y="0px"
	 viewBox="0 0 38.017 38.017" style="enable-background:new 0 0 38.017 38.017;" xml:space="preserve">
<g id="Layer_24">
	<g id="Layer_30">
		<path style="fill:#FFFFFF;" d="M38.017,19.008c0-2.132-0.356-4.261-1.06-6.275c-0.679-1.941-1.676-3.768-2.939-5.392
			c-1.253-1.609-2.765-3.017-4.46-4.149c-1.719-1.148-3.625-2.014-5.622-2.549c-2.079-0.556-4.252-0.752-6.397-0.588
			c-2.102,0.16-4.174,0.673-6.107,1.514C9.553,2.387,7.81,3.512,6.288,4.883C4.771,6.25,3.476,7.861,2.467,9.636
			c-1.028,1.811-1.753,3.788-2.138,5.834c-0.4,2.122-0.436,4.312-0.108,6.447c0.317,2.064,0.979,4.073,1.95,5.922
			c0.951,1.809,2.195,3.461,3.669,4.877c1.476,1.418,3.179,2.597,5.028,3.474c1.896,0.9,3.94,1.479,6.027,1.711
			c2.143,0.236,4.327,0.111,6.428-0.376c2.02-0.469,3.958-1.272,5.718-2.368c1.732-1.078,3.289-2.436,4.593-4.006
			c1.312-1.579,2.367-3.369,3.108-5.284c0.766-1.978,1.191-4.082,1.264-6.202C38.013,19.446,38.017,19.227,38.017,19.008z"/>
	</g>
	<g id="Layer_29">
		<path style="fill:#0E377A;" d="M17.671,7.256H33.95c-1.379-1.751-3.061-3.253-4.964-4.43H17.671V7.256z"/>
	</g>
	<g id="Layer_28">
		<path style="fill:#0E377A;" d="M17.671,16.116h20.127c-0.235-1.546-0.658-3.03-1.243-4.43H17.671V16.116z"/>
	</g>
	<g id="Layer_27">
		<path style="fill:#0E377A;" d="M37.955,20.544H0.062c0.123,1.535,0.429,3.019,0.895,4.43h36.104
			C37.527,23.563,37.832,22.079,37.955,20.544z"/>
	</g>
	<g id="Layer_26">
		<path style="fill:#0E377A;" d="M34.924,29.404H3.094c1.1,1.68,2.457,3.175,4.019,4.429h23.793
			C32.467,32.579,33.824,31.083,34.924,29.404z"/>
	</g>
	<g id="Layer_25">
		<g>
			<path style="fill:#F7D33E;" d="M12.84,11.779l0.065-0.034c2.051-0.85,1.285-1.734,2.694-1.717
				c-1.323-0.671-1.273,0.511-3.068,0.538l1.744-2.519l-2.688,1.865l0.02-0.089c0.21-0.51,0.356-1.061,0.309-1.616
				c-0.023-0.272-0.114-0.554-0.058-0.826c0.048-0.233,0.195-0.432,0.357-0.601l0.014-0.017c-0.046,0.014-0.102,0.035-0.102,0.035
				c-0.221,0.089-0.435,0.218-0.574,0.417c-0.152,0.218-0.195,0.486-0.271,0.736c-0.15,0.496-0.416,0.95-0.776,1.324l-0.55-3.018
				L9.372,9.472c-0.85-2.051-1.769-1.34-1.752-2.749C6.949,8.045,8.131,7.996,8.157,9.79L5.639,8.047l1.858,2.683
				C5.445,9.879,5.3,11.037,4.315,10.028c0.46,1.409,1.261,0.538,2.549,1.789L3.85,12.365l3.232,0.588l-0.074,0.032
				c-2.051,0.851-1.285,1.733-2.694,1.717c1.323,0.671,1.273-0.511,3.067-0.537l-1.744,2.519l2.7-1.869l-0.028,0.074
				c-0.85,2.051,0.318,2.134-0.691,3.118c1.409-0.46,0.539-1.26,1.789-2.548l0.547,3.013l0.586-3.226l0.035,0.067
				c0.85,2.051,1.734,1.284,1.716,2.693c0.671-1.322-0.511-1.272-0.537-3.067l2.518,1.744l-1.869-2.7l0.074,0.028
				c2.051,0.85,2.134-0.318,3.119,0.69c-0.461-1.408-1.261-0.538-2.549-1.788l3.014-0.549L12.84,11.779z M8.067,13.176l0.014-0.021
				c0.003,0.009,0.007,0.017,0.011,0.024L8.067,13.176z"/>
			<path d="M14.516,10.578c0.233-0.314,0.387-0.522,1.049-0.522h0.034l0.064,0.002l0.006-0.025l-0.05-0.026
				c0.002-0.005-0.012-0.005-0.012-0.005c-0.239-0.121-0.502-0.224-0.775-0.208c-0.27,0.017-0.505,0.159-0.732,0.293
				c-0.464,0.271-0.973,0.434-1.512,0.448l1.71-2.471l0.048-0.069l-0.019-0.019L11.634,9.84c0.219-0.531,0.371-1.106,0.319-1.685
				c-0.024-0.273-0.119-0.557-0.039-0.829c0.067-0.231,0.232-0.419,0.4-0.584l0.046-0.044l-0.013-0.023l-0.062,0.02
				c-0.237,0.077-0.477,0.181-0.657,0.36c-0.19,0.189-0.267,0.444-0.335,0.696c-0.073,0.268-0.147,0.534-0.276,0.781
				c-0.13,0.249-0.301,0.477-0.494,0.681L9.97,6.172H9.944L9.358,9.393C9.152,8.898,8.877,8.421,8.479,8.055
				C8.273,7.866,8.003,7.733,7.834,7.506C7.669,7.285,7.646,6.996,7.648,6.728V6.659L7.623,6.653l-0.028,0.06L7.592,6.718
				c-0.119,0.236-0.22,0.496-0.207,0.765c0.013,0.262,0.148,0.489,0.277,0.71c0.282,0.485,0.451,0.976,0.466,1.541l-2.54-1.758
				L5.569,7.995l1.865,2.693c-0.516-0.213-1.072-0.359-1.634-0.322c-0.28,0.019-0.57,0.118-0.85,0.052
				c-0.246-0.058-0.442-0.233-0.614-0.409L4.291,9.962L4.269,9.976l0.02,0.06c0.077,0.236,0.179,0.475,0.355,0.654
				c0.191,0.195,0.452,0.271,0.708,0.341c0.27,0.072,0.537,0.149,0.785,0.28c0.245,0.129,0.468,0.298,0.669,0.487l-3.041,0.553
				v0.027l3.225,0.585c-0.499,0.207-0.982,0.483-1.35,0.887c-0.185,0.204-0.316,0.47-0.54,0.636
				c-0.214,0.158-0.491,0.188-0.75,0.188H4.251l-0.006,0.024l0.051,0.024v0.008h0.013c0.234,0.12,0.493,0.219,0.76,0.207
				c0.269-0.013,0.504-0.149,0.729-0.283c0.47-0.276,0.979-0.445,1.528-0.46l-1.758,2.541l0.018,0.019l2.694-1.865
				c-0.217,0.526-0.371,1.095-0.321,1.67c0.024,0.275,0.12,0.561,0.043,0.835c-0.065,0.234-0.231,0.426-0.401,0.593l-0.048,0.047
				l0.013,0.021l0.06-0.021c0.004,0.004,0.008-0.002,0.008-0.002c0.236-0.078,0.474-0.182,0.652-0.359
				c0.189-0.188,0.267-0.444,0.334-0.696c0.073-0.268,0.147-0.534,0.277-0.781c0.13-0.249,0.3-0.476,0.493-0.68l0.553,3.043H9.97
				l0.586-3.225c0.211,0.509,0.493,1,0.909,1.37c0.207,0.184,0.477,0.315,0.635,0.549c0.148,0.22,0.168,0.496,0.165,0.754v0.066
				l0.025,0.005l0.023-0.053h0.008v-0.013c0.119-0.236,0.219-0.496,0.206-0.765c-0.012-0.262-0.146-0.49-0.274-0.711
				c-0.284-0.483-0.453-0.978-0.467-1.542l2.54,1.759l0.019-0.019l-1.863-2.691c0.517,0.212,1.072,0.358,1.634,0.321
				c0.281-0.019,0.573-0.119,0.854-0.051c0.243,0.06,0.438,0.233,0.608,0.408l0.044,0.046l0.022-0.013l-0.019-0.061
				c0.003-0.004-0.002-0.008-0.002-0.008c-0.078-0.235-0.181-0.474-0.359-0.652c-0.189-0.189-0.445-0.267-0.696-0.335
				c-0.268-0.072-0.535-0.147-0.783-0.276c-0.249-0.13-0.476-0.3-0.679-0.493l3.043-0.552v-0.027l-3.221-0.585
				C13.955,11.337,14.279,10.899,14.516,10.578z M14.472,10.542l0.01,0.008l-0.015-0.003c-0.235,0.317-0.558,0.751-1.574,1.171
				l-0.066,0.029l-0.883-0.16c0.623-0.162,1.218-0.428,1.754-0.785c0.499-0.332,1.047-0.939,1.708-0.798
				C14.849,10.034,14.697,10.239,14.472,10.542z M14.16,10.115c0.17-0.099,0.342-0.2,0.536-0.243
				c0.203-0.045,0.412-0.011,0.605,0.058c-0.303-0.031-0.585,0.092-0.833,0.254c-0.28,0.184-0.538,0.398-0.817,0.584
				c-0.538,0.358-1.137,0.618-1.763,0.776l0.657-0.95C13.362,10.581,13.802,10.324,14.16,10.115z M12.513,10.541l-0.022,0.033
				l-0.654,0.941c-0.083-0.187-0.194-0.359-0.332-0.512c-0.007-0.011-0.015-0.019-0.026-0.03c-0.015-0.017-0.029-0.033-0.045-0.048
				l0.067-0.067c0.003,0,0.043-0.043,0.043-0.043l0.273-0.271l0.024-0.025l2.23-2.229L12.513,10.541z M14.032,8.25l-2.246,2.244
				l-0.025,0.026l-0.226,0.225l-0.026,0.028l-0.114,0.112c-0.172-0.168-0.375-0.307-0.591-0.402L14.032,8.25z M11.862,7.889
				c0.057,0.391,0.135,0.926-0.285,1.943l-0.015,0.057l-0.748,0.519c0.369-0.632,0.617-1.329,0.729-2.047
				c0.083-0.532,0.094-1.19,0.597-1.519C11.769,7.257,11.806,7.511,11.862,7.889z M11.337,7.807
				c0.108-0.408,0.189-0.711,0.678-0.945c-0.454,0.365-0.454,1.014-0.536,1.539c-0.11,0.711-0.37,1.4-0.737,2.019l-0.206-1.136
				C11.104,8.696,11.233,8.203,11.337,7.807z M9.986,6.575l0.49,2.695l0.002,0.018l0.21,1.147c-0.191-0.073-0.392-0.117-0.601-0.132
				c-0.006,0-0.013,0-0.019-0.001H10.05c-0.022-0.001-0.043-0.001-0.064-0.002V6.575z M9.929,6.575V10.3
				c-0.242,0.004-0.478,0.048-0.701,0.133L9.929,6.575z M7.596,6.912c0.012,0.241,0.069,0.486,0.228,0.675
				c0.179,0.211,0.437,0.343,0.638,0.53c0.386,0.359,0.648,0.83,0.848,1.312l0.031,0.058L9.18,10.38
				c-0.175-0.673-0.47-1.324-0.876-1.889C7.972,8.032,7.466,7.534,7.596,6.912z M7.709,8.164C7.497,7.8,7.341,7.532,7.521,7.023
				C7.489,7.326,7.615,7.608,7.777,7.856C7.96,8.136,8.175,8.394,8.36,8.672c0.357,0.537,0.617,1.136,0.775,1.76L8.186,9.776
				C8.174,8.959,7.916,8.519,7.709,8.164z M8.134,9.808l0.975,0.676c-0.187,0.082-0.359,0.194-0.512,0.331
				c-0.01,0.006-0.017,0.014-0.025,0.02l-0.02,0.02c-0.012,0.011-0.023,0.021-0.034,0.031l-0.072-0.07l-0.038-0.04l-0.271-0.271
				l-0.023-0.021c0-0.002-2.234-2.233-2.234-2.233L8.134,9.808z M5.842,8.29l2.246,2.246l0.026,0.025l0.222,0.222l0.038,0.04
				l0.104,0.102c-0.167,0.171-0.306,0.374-0.402,0.59L5.842,8.29z M5.136,10.496c0.105,0,0.21-0.015,0.332-0.032l0.011-0.001
				c0.681-0.103,1.314,0.022,1.945,0.284l0.062,0.019l0.515,0.743c-0.628-0.368-1.327-0.618-2.046-0.73
				c-0.533-0.083-1.191-0.093-1.521-0.595C4.681,10.404,4.89,10.496,5.136,10.496z M5.397,10.984
				c-0.408-0.106-0.71-0.186-0.944-0.68c0.277,0.348,0.672,0.406,1.201,0.485l0.013,0.002c0.608,0.091,1.364,0.204,2.343,0.788
				l-1.134,0.206C6.291,11.223,5.798,11.091,5.397,10.984z M8.026,11.636c-0.086,0.222-0.133,0.463-0.133,0.7H4.165L8.026,11.636z
				 M4.165,12.394h3.728c0.003,0.241,0.048,0.477,0.134,0.703L4.165,12.394z M5.444,14.185c0.235-0.317,0.558-0.752,1.578-1.175
				l0.065-0.03l0.882,0.161c-0.672,0.177-1.324,0.471-1.888,0.879c-0.457,0.332-0.956,0.839-1.576,0.706
				C5.066,14.696,5.218,14.49,5.444,14.185z M5.758,14.612c-0.161,0.094-0.324,0.191-0.505,0.238
				c-0.211,0.055-0.431,0.023-0.634-0.048c0.459,0.048,0.835-0.252,1.182-0.51l0.011-0.008c0.495-0.365,1.11-0.818,2.213-1.098
				l-0.658,0.95C6.55,14.151,6.111,14.407,5.758,14.612z M7.4,14.188l0.021-0.032l0.654-0.943c0.083,0.188,0.195,0.36,0.332,0.513
				c0.008,0.012,0.017,0.02,0.026,0.03c0,0,0.036,0.039,0.044,0.048L5.841,16.44L7.4,14.188z M5.881,16.48l2.24-2.24l0.028-0.028
				c0,0,0.229-0.228,0.229-0.228c0.003-0.004,0.036-0.036,0.036-0.036l0.004-0.004l0.101-0.101c0.174,0.17,0.372,0.306,0.59,0.402
				L5.881,16.48z M8.053,16.846L8.04,16.848l0.012-0.01c-0.057-0.391-0.135-0.925,0.284-1.938l0.035-0.075l0.73-0.505
				c-0.368,0.629-0.618,1.328-0.731,2.048c-0.083,0.532-0.093,1.191-0.597,1.521C8.145,17.472,8.108,17.219,8.053,16.846z
				 M8.576,16.928c-0.108,0.405-0.189,0.706-0.676,0.938c0.453-0.364,0.453-1.012,0.535-1.537c0.111-0.71,0.37-1.399,0.737-2.017
				l0.207,1.134C8.81,16.034,8.681,16.527,8.576,16.928z M9.929,18.156l-0.49-2.699L9.432,15.42l-0.205-1.126
				c0.191,0.073,0.392,0.117,0.6,0.131c0.005,0,0.011,0,0.016,0.001c0.007,0,0.015,0,0.022,0c0.021,0.002,0.042,0.002,0.064,0.002
				V18.156z M9.943,14.372c-0.032,0-0.064-0.002-0.096-0.002c-0.015-0.002-0.028-0.004-0.04-0.004
				c-0.208-0.016-0.409-0.064-0.598-0.14c-0.007-0.002-0.021-0.007-0.021-0.007l-0.009-0.003l-0.007-0.005
				c-0.232-0.1-0.447-0.244-0.623-0.418l-0.022-0.023c-0.022-0.022-0.045-0.048-0.066-0.07c0,0-0.019-0.021-0.025-0.028
				c-0.136-0.156-0.245-0.332-0.329-0.526l-0.006-0.014l-0.004-0.008l-0.001-0.008C8,12.879,7.951,12.633,7.949,12.38v-0.03
				c0-0.032,0.002-0.064,0.002-0.096c0.002-0.016,0.003-0.028,0.003-0.04c0.016-0.208,0.063-0.409,0.14-0.6l0.002-0.006
				c0,0,0.008-0.021,0.011-0.027c0.102-0.234,0.247-0.449,0.42-0.625l0.023-0.021c0.022-0.022,0.047-0.046,0.07-0.066l0.01-0.009
				c0.007-0.005,0.013-0.011,0.019-0.017c0.156-0.135,0.331-0.244,0.523-0.327L9.17,10.501l0.011,0.011
				c0.007-0.003,0.014-0.006,0.016-0.008c0.004,0,0.007-0.001,0.012-0.002c0.234-0.095,0.482-0.144,0.734-0.146h0.03
				c0.032,0,0.063,0.001,0.095,0.001c0.006,0.002,0.012,0.003,0.018,0.002c0.007,0.003,0.015,0.004,0.021,0.003
				c0.196,0.015,0.411,0.052,0.59,0.136l0.008,0.004c0.015,0.005,0.023,0.008,0.032,0.011c0.096,0.071,0.223,0.108,0.324,0.175
				c0.109,0.072,0.211,0.155,0.304,0.247l0.007,0.008c0.005,0.005,0.009,0.009,0.014,0.014c0.024,0.023,0.046,0.048,0.067,0.07
				l0.008,0.01c0.006,0.007,0.011,0.014,0.017,0.019c0.134,0.154,0.244,0.329,0.326,0.517l0.002,0.012
				c0.005,0.01,0.008,0.017,0.011,0.02c0,0.005,0.001,0.008,0.002,0.013c0.095,0.234,0.144,0.481,0.145,0.733v0.03
				c0,0.032-0.001,0.064-0.001,0.096c-0.002,0.014-0.004,0.026-0.004,0.039c-0.016,0.209-0.063,0.411-0.141,0.604
				c-0.003,0.007-0.006,0.015-0.008,0.022l-0.007,0.01c-0.098,0.229-0.242,0.444-0.418,0.62c-0.023,0.026-0.049,0.05-0.075,0.073
				l-0.017,0.016c-0.01,0.009-0.021,0.018-0.03,0.026c-0.157,0.134-0.332,0.243-0.522,0.325l-0.006,0.003
				c-0.004,0.002-0.009,0.004-0.013,0.006l-0.005,0.003c-0.005,0-0.009,0.002-0.012,0.003c-0.234,0.095-0.48,0.144-0.733,0.146
				H9.943z M9.986,18.156v-3.728c0.244-0.003,0.479-0.048,0.702-0.134L9.986,18.156z M12.318,17.815
				c-0.013-0.241-0.07-0.486-0.23-0.674c-0.18-0.21-0.438-0.341-0.639-0.529c-0.385-0.359-0.646-0.827-0.846-1.31l-0.029-0.069
				l0.16-0.883c0.176,0.673,0.469,1.325,0.877,1.89C11.942,16.698,12.448,17.195,12.318,17.815z M12.205,16.564
				c0.21,0.362,0.367,0.632,0.188,1.14c0.031-0.302-0.096-0.583-0.257-0.83c-0.183-0.28-0.398-0.537-0.583-0.815
				c-0.357-0.538-0.618-1.138-0.776-1.763l0.95,0.657C11.739,15.771,11.998,16.21,12.205,16.564z M10.805,14.246
				c0.184-0.081,0.356-0.192,0.512-0.33l0.007-0.006c0.008-0.008,0.017-0.016,0.023-0.022c0.017-0.014,0.033-0.029,0.048-0.044
				l0.073,0.072l0.308,0.309l0.028,0.028l2.229,2.227L10.805,14.246z M14.072,16.44l-2.533-2.532l-0.105-0.105
				c0.171-0.175,0.307-0.373,0.403-0.591L14.072,16.44z M14.778,14.234c-0.19,0-0.377,0.045-0.566,0.066
				c-0.198,0.021-0.397,0.022-0.595,0c-0.39-0.044-0.767-0.165-1.128-0.314l-0.061-0.019l-0.515-0.744
				c0.627,0.367,1.326,0.616,2.043,0.729c0.533,0.084,1.193,0.093,1.522,0.596C15.232,14.326,15.024,14.234,14.778,14.234z
				 M14.522,13.746c0.405,0.108,0.706,0.189,0.938,0.677c-0.366-0.453-1.015-0.453-1.542-0.535c-0.71-0.111-1.399-0.37-2.016-0.737
				l1.135-0.206C13.625,13.511,14.119,13.64,14.522,13.746z M13.015,12.891l-1.129,0.206c0.074-0.192,0.118-0.394,0.132-0.602
				c0-0.006,0-0.012,0.001-0.018c0.001-0.028,0.001-0.056,0.002-0.083h3.728L13.015,12.891z M15.749,12.336h-3.728
				c-0.003-0.242-0.049-0.479-0.135-0.702L15.749,12.336z"/>
			<g>
				<path d="M10.83,13.137c0.047,0.064,0.077,0.105,0.099,0.135c-0.027,0.004-0.052,0.008-0.077,0.012
					c-0.154-0.001-0.297-0.065-0.441-0.111c-0.157-0.051-0.295,0.002-0.454,0.002c-0.14,0-0.276-0.055-0.415-0.015
					c-0.158,0.047-0.312,0.123-0.481,0.124c-0.024-0.004-0.05-0.008-0.077-0.012c0.022-0.029,0.052-0.07,0.099-0.135
					c-0.149,0.112-0.186,0.168-0.205,0.298c0.049-0.086,0.058-0.099,0.1-0.156c0.157,0.067,0.307,0.151,0.46,0.227
					c0.168,0.084,0.331,0.114,0.518,0.114c0.169,0,0.326-0.02,0.479-0.095c0.167-0.081,0.328-0.174,0.498-0.247
					c0.042,0.058,0.051,0.07,0.1,0.156C11.016,13.305,10.979,13.249,10.83,13.137z M9.957,13.472c-0.29,0-0.435-0.058-0.611-0.114
					c0.412-0.032,0.809-0.032,1.222,0C10.391,13.414,10.247,13.472,9.957,13.472z"/>
				<path d="M9.957,13.788c-0.093,0-0.334,0.056,0,0.056C10.291,13.843,10.05,13.788,9.957,13.788z"/>
				<path d="M10.811,11.633c-0.297,0-0.483,0.037-0.502,0.26v0.019c0.105-0.096,0.156-0.142,0.22-0.164
					c-0.039,0.118,0.092,0.262,0.207,0.312c-0.204-0.001-0.297-0.223-0.371-0.111c-0.085,0.113,0.403,0.189,0.445,0.185
					c0.103-0.011,0.205-0.068,0.285-0.132c0.011-0.009,0.121-0.106,0.119-0.107c-0.019-0.013-0.087,0.056-0.103,0.065
					c0.032-0.059,0.019-0.117-0.012-0.164c0.106,0.052,0.176,0.116,0.252,0.116C11.239,11.855,11.109,11.633,10.811,11.633z
					 M11.069,11.984c-0.053,0.028-0.109,0.05-0.176,0.062c0.082-0.065,0.127-0.22,0.043-0.309c0.041,0.008,0.078,0.02,0.111,0.033
					C11.081,11.827,11.11,11.908,11.069,11.984z"/>
				<path d="M10.479,11.374c-0.068,0.043-0.318,0.179-0.307,0.283c0.007,0.067,0.122-0.039,0.134-0.051
					c0.057-0.053,0.132-0.09,0.205-0.115c0.158-0.057,0.333-0.059,0.497-0.024c0.091,0.02,0.174,0.058,0.257,0.098
					c0.068,0.032,0.138,0.06,0.197-0.007c-0.123-0.123-0.303-0.197-0.465-0.249c-0.073-0.023-0.149-0.044-0.225-0.049
					C10.661,11.253,10.568,11.318,10.479,11.374z"/>
				<path d="M10.48,12.794c-0.121-0.057-0.076-0.255-0.226-0.288c0,0.074,0.056,0.056,0.074,0.167c0,0.093-0.168,0.093-0.205,0
					c0.052,0.209-0.386,0.209-0.334,0c-0.037,0.093-0.204,0.093-0.204,0c0.018-0.111,0.074-0.093,0.074-0.167
					c-0.122,0.026-0.114,0.164-0.177,0.246c-0.04,0.053-0.104,0.06-0.161,0.083c-0.073,0.029-0.077,0.086-0.126,0.136
					c0.1-0.08,0.234-0.111,0.358-0.125c0.068-0.008,0.136-0.008,0.201,0.017c0.068,0.026,0.126,0.071,0.203,0.071
					c0.133,0,0.236-0.101,0.375-0.091c0.134,0.01,0.28,0.042,0.387,0.128c-0.034-0.034-0.04-0.08-0.081-0.11
					C10.591,12.827,10.532,12.818,10.48,12.794z"/>
				<path d="M9.102,11.633c-0.106,0-0.208,0.032-0.297,0.089c-0.086,0.056-0.149,0.144-0.241,0.189c0.077,0,0.147-0.064,0.253-0.117
					c-0.031,0.047-0.045,0.106-0.013,0.166c-0.017-0.01-0.083-0.079-0.103-0.066c-0.002,0.002,0.096,0.091,0.107,0.1
					c0.096,0.072,0.205,0.14,0.329,0.142c0.037,0.001,0.493-0.078,0.412-0.187c-0.074-0.111-0.167,0.11-0.371,0.111
					c0.114-0.05,0.246-0.194,0.208-0.312c0.064,0.022,0.115,0.068,0.219,0.163v-0.019C9.583,11.638,9.3,11.633,9.102,11.633z
					 M8.845,11.984c-0.042-0.076-0.012-0.157,0.022-0.213c0.033-0.014,0.07-0.025,0.11-0.032c-0.084,0.088-0.04,0.242,0.043,0.308
					C8.954,12.034,8.898,12.013,8.845,11.984z"/>
				<path d="M9.255,11.279c-0.134-0.053-0.293,0.013-0.42,0.059c-0.138,0.05-0.277,0.115-0.382,0.221
					c0.082,0.093,0.196,0.002,0.282-0.034c0.122-0.051,0.253-0.077,0.386-0.077c0.13,0,0.263,0.023,0.379,0.086
					c0.057,0.03,0.15,0.15,0.217,0.143c0.098-0.01-0.145-0.199-0.161-0.211C9.464,11.4,9.362,11.32,9.255,11.279z"/>
			</g>
		</g>
	</g>
</g>
<g id="Layer_1">
</g>
</svg>
