<?xml version="1.0" encoding="iso-8859-1"?>
<!-- Generator: Adobe Illustrator 18.0.0, SVG Export Plug-In . SVG Version: 6.00 Build 0)  -->
<!DOCTYPE svg PUBLIC "-//W3C//DTD SVG 1.1//EN" "http://www.w3.org/Graphics/SVG/1.1/DTD/svg11.dtd">
<svg version="1.1" xmlns="http://www.w3.org/2000/svg" xmlns:xlink="http://www.w3.org/1999/xlink" x="0px" y="0px"
	 viewBox="0 0 38.017 38.017" style="enable-background:new 0 0 38.017 38.017;" xml:space="preserve">
<g id="Layer_24">
	<g id="Layer_25">
		<g>
			<path style="fill:#FFF9EC;" d="M38.017,19.009c0-2.132-0.356-4.261-1.06-6.274c-0.679-1.941-1.676-3.769-2.939-5.392
				c-1.253-1.61-2.765-3.017-4.46-4.15c-1.719-1.148-3.625-2.014-5.622-2.548c-2.079-0.556-4.251-0.752-6.397-0.588
				c-2.102,0.161-4.174,0.673-6.107,1.514C9.553,2.388,7.81,3.512,6.288,4.884C4.771,6.251,3.476,7.861,2.468,9.637
				c-1.028,1.81-1.753,3.788-2.138,5.833c-0.4,2.122-0.436,4.313-0.107,6.448c0.317,2.064,0.978,4.073,1.95,5.921
				c0.951,1.809,2.195,3.461,3.668,4.877c1.476,1.418,3.179,2.596,5.028,3.474c1.896,0.9,3.94,1.479,6.027,1.71
				c2.143,0.237,4.327,0.112,6.428-0.375c2.02-0.469,3.958-1.273,5.718-2.369c1.732-1.078,3.289-2.436,4.593-4.006
				c1.312-1.579,2.367-3.369,3.108-5.284c0.766-1.978,1.191-4.082,1.264-6.202C38.013,19.446,38.017,19.228,38.017,19.009z"/>
			<g>
				<path style="fill:#A3243A;" d="M19.009,0c-2.067,0-4.057,0.331-5.92,0.941h11.84C23.066,0.331,21.076,0,19.009,0z"/>
				<path style="fill:#A3243A;" d="M30.983,4.246H7.035C5.842,5.215,4.768,6.326,3.84,7.553h30.338
					C33.25,6.326,32.176,5.215,30.983,4.246z"/>
				<path style="fill:#A3243A;" d="M36.186,10.858H1.832c-0.5,1.053-0.906,2.158-1.208,3.306h36.769
					C37.092,13.017,36.686,11.911,36.186,10.858z"/>
				<path style="fill:#A3243A;" d="M38.017,19.009c0-0.519-0.022-1.031-0.062-1.538H0.063c-0.088,1.1-0.081,2.206,0.02,3.305h37.852
					C37.988,20.193,38.017,19.605,38.017,19.009z"/>
				<path style="fill:#A3243A;" d="M37.331,24.082H0.686c0.317,1.149,0.74,2.255,1.257,3.306h34.131
					C36.591,26.336,37.014,25.231,37.331,24.082z"/>
				<path style="fill:#A3243A;" d="M34.002,30.693H4.016c0.962,1.232,2.072,2.343,3.304,3.305h23.377
					C31.93,33.037,33.04,31.926,34.002,30.693z"/>
				<path style="fill:#A3243A;" d="M13.838,37.305c2.81,0.792,5.8,0.925,8.669,0.391c0.563-0.104,1.122-0.235,1.673-0.391H13.838z"
					/>
			</g>
			<g>
				<path style="fill:#183A77;" d="M26.497,1.533c-2.532-1.086-5.293-1.604-8.046-1.525c-2.122,0.061-4.23,0.478-6.213,1.234
					c-1.919,0.732-3.715,1.778-5.3,3.083c-1.575,1.297-2.94,2.846-4.027,4.573c-1.104,1.754-1.917,3.688-2.395,5.704
					c-0.479,2.017-0.622,4.11-0.431,6.173h26.414V1.533z"/>
				<g>
					<path style="fill:#FFF9EC;" d="M8.851,2.94C8.83,2.954,8.807,2.967,8.786,2.981l0.103,0.077L8.851,2.94z"/>
					<path style="fill:#FFF9EC;" d="M11.784,1.709l0.691,0.516l-0.265,0.833l0.692-0.515l0.691,0.515L13.33,2.224l0.69-0.516h-0.853
						L12.939,0.99C12.911,1,12.885,1.009,12.857,1.018l-0.219,0.69H11.784z"/>
					<g>
						<path style="fill:#FFF9EC;" d="M14.634,0.507c-0.051,0.012-0.102,0.025-0.153,0.037l-0.032,0.101L14.634,0.507z"/>
						<path style="fill:#FFF9EC;" d="M15.717,0.285c-0.099,0.017-0.197,0.036-0.295,0.055l0.41,0.305L15.717,0.285z"/>
					</g>
					<polygon style="fill:#FFF9EC;" points="17.873,1.709 17.609,0.876 17.344,1.709 16.49,1.709 17.181,2.224 16.917,3.057 
						17.609,2.543 18.3,3.057 18.035,2.224 18.727,1.709 					"/>
					<path style="fill:#FFF9EC;" d="M19.846,0.129l0.69,0.515l-0.189-0.597c-0.328-0.023-0.658-0.037-0.99-0.043l-0.203,0.64
						L19.846,0.129z"/>
					<polygon style="fill:#FFF9EC;" points="22.578,1.709 22.314,0.876 22.05,1.709 21.195,1.709 21.888,2.224 21.622,3.057 
						22.314,2.543 23.006,3.057 22.741,2.224 23.432,1.709 					"/>
					<polygon style="fill:#FFF9EC;" points="23.879,0.631 23.865,0.627 23.86,0.645 					"/>
					<path style="fill:#FFF9EC;" d="M4.008,7.334C3.939,7.422,3.87,7.511,3.803,7.601l0.379,0.283L4.008,7.334z"/>
					<path style="fill:#FFF9EC;" d="M6.246,4.922C6.162,4.999,6.078,5.077,5.995,5.155L6.42,5.471L6.246,4.922z"/>
					<polygon style="fill:#FFF9EC;" points="8.462,6.535 8.197,5.701 7.932,6.535 7.079,6.535 7.77,7.051 7.506,7.884 8.197,7.369 
						8.889,7.884 8.625,7.051 9.316,6.535 					"/>
					<polygon style="fill:#FFF9EC;" points="10.699,4.122 10.435,3.288 10.171,4.122 9.316,4.122 10.007,4.637 9.743,5.471 
						10.435,4.956 11.126,5.471 10.862,4.637 11.553,4.122 					"/>
					<polygon style="fill:#FFF9EC;" points="13.168,6.535 12.903,5.701 12.638,6.535 11.784,6.535 12.475,7.051 12.211,7.884 
						12.903,7.369 13.594,7.884 13.33,7.051 14.021,6.535 					"/>
					<polygon style="fill:#FFF9EC;" points="15.405,4.122 15.14,3.288 14.876,4.122 14.021,4.122 14.713,4.637 14.449,5.471 
						15.14,4.956 15.831,5.471 15.567,4.637 16.258,4.122 					"/>
					<polygon style="fill:#FFF9EC;" points="17.873,6.535 17.609,5.701 17.344,6.535 16.49,6.535 17.181,7.051 16.917,7.884 
						17.609,7.369 18.3,7.884 18.035,7.051 18.727,6.535 					"/>
					<polygon style="fill:#FFF9EC;" points="20.111,4.122 19.846,3.288 19.582,4.122 18.727,4.122 19.419,4.637 19.154,5.471 
						19.846,4.956 20.536,5.471 20.273,4.637 20.964,4.122 					"/>
					<polygon style="fill:#FFF9EC;" points="22.578,6.535 22.314,5.701 22.05,6.535 21.195,6.535 21.888,7.051 21.622,7.884 
						22.314,7.369 23.006,7.884 22.741,7.051 23.432,6.535 					"/>
					<polygon style="fill:#FFF9EC;" points="24.816,4.122 24.551,3.288 24.287,4.122 23.432,4.122 24.124,4.637 23.86,5.471 
						24.551,4.956 25.243,5.471 24.978,4.637 25.67,4.122 					"/>
					<polygon style="fill:#FFF9EC;" points="3.756,11.361 3.491,10.527 3.228,11.361 2.373,11.361 3.064,11.877 2.8,12.71 
						3.491,12.195 4.182,12.71 3.918,11.877 4.61,11.361 					"/>
					<polygon style="fill:#FFF9EC;" points="5.993,8.948 5.729,8.114 5.465,8.948 4.61,8.948 5.301,9.463 5.037,10.298 5.729,9.781 
						6.42,10.298 6.156,9.463 6.847,8.948 					"/>
					<polygon style="fill:#FFF9EC;" points="8.462,11.361 8.197,10.527 7.932,11.361 7.079,11.361 7.77,11.877 7.506,12.71 
						8.197,12.195 8.889,12.71 8.625,11.877 9.316,11.361 					"/>
					<polygon style="fill:#FFF9EC;" points="10.699,8.948 10.435,8.114 10.171,8.948 9.316,8.948 10.007,9.463 9.743,10.298 
						10.435,9.781 11.126,10.298 10.862,9.463 11.553,8.948 					"/>
					<polygon style="fill:#FFF9EC;" points="13.168,11.361 12.903,10.527 12.638,11.361 11.784,11.361 12.475,11.877 12.211,12.71 
						12.903,12.195 13.594,12.71 13.33,11.877 14.021,11.361 					"/>
					<polygon style="fill:#FFF9EC;" points="15.405,8.948 15.14,8.114 14.876,8.948 14.021,8.948 14.713,9.463 14.449,10.298 
						15.14,9.781 15.831,10.298 15.567,9.463 16.258,8.948 					"/>
					<polygon style="fill:#FFF9EC;" points="17.873,11.361 17.609,10.527 17.344,11.361 16.49,11.361 17.181,11.877 16.917,12.71 
						17.609,12.195 18.3,12.71 18.035,11.877 18.727,11.361 					"/>
					<polygon style="fill:#FFF9EC;" points="20.111,8.948 19.846,8.114 19.582,8.948 18.727,8.948 19.419,9.463 19.154,10.298 
						19.846,9.781 20.536,10.298 20.273,9.463 20.964,8.948 					"/>
					<polygon style="fill:#FFF9EC;" points="22.578,11.361 22.314,10.527 22.05,11.361 21.195,11.361 21.888,11.877 21.622,12.71 
						22.314,12.195 23.006,12.71 22.741,11.877 23.432,11.361 					"/>
					<polygon style="fill:#FFF9EC;" points="24.816,8.948 24.551,8.114 24.287,8.948 23.432,8.948 24.124,9.463 23.86,10.298 
						24.551,9.781 25.243,10.298 24.978,9.463 25.67,8.948 					"/>
					<path style="fill:#FFF9EC;" d="M0.448,15.124l0.691-0.516l0.691,0.516L1.567,14.29l0.691-0.516H1.403l-0.264-0.833
						l-0.264,0.833H0.731c-0.042,0.146-0.082,0.292-0.12,0.44l0.102,0.076L0.448,15.124z"/>
					<polygon style="fill:#FFF9EC;" points="6.109,13.774 5.844,12.941 5.581,13.774 4.726,13.774 5.417,14.29 5.153,15.124 
						5.844,14.608 6.535,15.124 6.272,14.29 6.964,13.774 					"/>
					<polygon style="fill:#FFF9EC;" points="10.815,13.774 10.55,12.941 10.286,13.774 9.432,13.774 10.123,14.29 9.859,15.124 
						10.55,14.608 11.241,15.124 10.977,14.29 11.669,13.774 					"/>
					<polygon style="fill:#FFF9EC;" points="15.52,13.774 15.256,12.941 14.991,13.774 14.137,13.774 14.829,14.29 14.565,15.124 
						15.256,14.608 15.947,15.124 15.683,14.29 16.374,13.774 					"/>
					<polygon style="fill:#FFF9EC;" points="20.225,13.774 19.961,12.941 19.697,13.774 18.843,13.774 19.534,14.29 19.27,15.124 
						19.961,14.608 20.653,15.124 20.389,14.29 21.08,13.774 					"/>
					<polygon style="fill:#FFF9EC;" points="24.932,13.774 24.667,12.941 24.403,13.774 23.549,13.774 24.24,14.29 23.976,15.124 
						24.667,14.608 25.359,15.124 25.094,14.29 25.785,13.774 					"/>
					<polygon style="fill:#FFF9EC;" points="3.639,16.188 3.375,15.354 3.112,16.188 2.257,16.188 2.948,16.703 2.685,17.537 
						3.375,17.022 4.067,17.537 3.803,16.703 4.495,16.188 					"/>
					<polygon style="fill:#FFF9EC;" points="8.346,16.188 8.081,15.354 7.817,16.188 6.964,16.188 7.655,16.703 7.391,17.537 
						8.081,17.022 8.773,17.537 8.509,16.703 9.2,16.188 					"/>
					<polygon style="fill:#FFF9EC;" points="13.052,16.188 12.786,15.354 12.522,16.188 11.668,16.188 12.359,16.703 12.095,17.537 
						12.786,17.022 13.477,17.537 13.213,16.703 13.905,16.188 					"/>
					<polygon style="fill:#FFF9EC;" points="17.757,16.188 17.492,15.354 17.228,16.188 16.373,16.188 17.066,16.703 16.801,17.537 
						17.492,17.022 18.184,17.537 17.92,16.703 18.611,16.188 					"/>
					<polygon style="fill:#FFF9EC;" points="22.462,16.188 22.198,15.354 21.933,16.188 21.079,16.188 21.772,16.703 21.507,17.537 
						22.198,17.022 22.889,17.537 22.625,16.703 23.317,16.188 					"/>
					<path style="fill:#FFF9EC;" d="M0.332,19.949l0.691-0.515l0.691,0.515L1.45,19.115l0.691-0.515H1.287l-0.264-0.833
						l-0.264,0.833H0.006c0,0.024,0,0.05-0.001,0.074l0.592,0.44L0.332,19.949z"/>
					<polygon style="fill:#FFF9EC;" points="5.993,18.601 5.729,17.767 5.465,18.601 4.61,18.601 5.301,19.115 5.037,19.949 
						5.729,19.434 6.42,19.949 6.156,19.115 6.847,18.601 					"/>
					<polygon style="fill:#FFF9EC;" points="10.699,18.601 10.435,17.767 10.171,18.601 9.316,18.601 10.007,19.115 9.743,19.949 
						10.435,19.434 11.126,19.949 10.862,19.115 11.553,18.601 					"/>
					<polygon style="fill:#FFF9EC;" points="15.405,18.601 15.14,17.767 14.876,18.601 14.021,18.601 14.713,19.115 14.449,19.949 
						15.14,19.434 15.831,19.949 15.567,19.115 16.258,18.601 					"/>
					<polygon style="fill:#FFF9EC;" points="20.111,18.601 19.846,17.767 19.582,18.601 18.727,18.601 19.419,19.115 19.154,19.949 
						19.846,19.434 20.536,19.949 20.273,19.115 20.964,18.601 					"/>
					<polygon style="fill:#FFF9EC;" points="24.816,18.601 24.551,17.767 24.287,18.601 23.432,18.601 24.124,19.115 23.86,19.949 
						24.551,19.434 25.243,19.949 24.978,19.115 25.67,18.601 					"/>
				</g>
			</g>
		</g>
	</g>
</g>
<g id="Layer_1">
</g>
</svg>
