<?xml version="1.0" encoding="iso-8859-1"?>
<!-- Generator: Adobe Illustrator 18.0.0, SVG Export Plug-In . SVG Version: 6.00 Build 0)  -->
<!DOCTYPE svg PUBLIC "-//W3C//DTD SVG 1.1//EN" "http://www.w3.org/Graphics/SVG/1.1/DTD/svg11.dtd">
<svg version="1.1" xmlns="http://www.w3.org/2000/svg" xmlns:xlink="http://www.w3.org/1999/xlink" x="0px" y="0px"
	 viewBox="0 0 38.017 38.017" style="enable-background:new 0 0 38.017 38.017;" xml:space="preserve">
<g id="Layer_12">
	<g id="Layer_13">
		<g>
			<path style="fill:#FFCD00;" d="M38.017,19.008c0-2.132-0.356-4.261-1.06-6.274c-0.679-1.941-1.676-3.769-2.939-5.392
				c-1.253-1.609-2.765-3.017-4.46-4.149c-1.719-1.148-3.625-2.014-5.622-2.549c-2.079-0.556-4.251-0.752-6.397-0.588
				c-2.102,0.16-4.174,0.673-6.107,1.514C9.553,2.387,7.81,3.512,6.288,4.883C4.771,6.25,3.476,7.861,2.468,9.636
				c-1.028,1.81-1.753,3.788-2.138,5.834c-0.4,2.122-0.436,4.313-0.107,6.447c0.317,2.065,0.978,4.073,1.95,5.922
				c0.951,1.809,2.195,3.461,3.668,4.877c1.476,1.418,3.179,2.597,5.028,3.474c1.896,0.9,3.94,1.479,6.027,1.711
				c2.143,0.236,4.327,0.111,6.428-0.376c2.02-0.469,3.958-1.272,5.718-2.368c1.732-1.078,3.289-2.437,4.593-4.006
				c1.312-1.579,2.367-3.369,3.108-5.284c0.766-1.978,1.191-4.082,1.264-6.202C38.013,19.446,38.017,19.227,38.017,19.008z"/>
			<path style="fill:#001F80;" d="M38.017,19.008c0-2.469-0.471-4.827-1.328-6.991H1.327c-1.004,2.537-1.444,5.283-1.3,8.007
				c0.111,2.112,0.576,4.202,1.375,6.161c0.775,1.899,1.86,3.669,3.199,5.223c1.332,1.547,2.913,2.877,4.664,3.925
				c1.782,1.066,3.738,1.836,5.77,2.268c2.111,0.449,4.299,0.535,6.44,0.258c2.077-0.269,4.106-0.885,5.982-1.816
				c1.831-0.91,3.512-2.117,4.962-3.56c1.449-1.442,2.664-3.118,3.583-4.944c0.94-1.87,1.565-3.895,1.845-5.969
				C37.96,20.72,38.017,19.864,38.017,19.008z"/>
			<path style="fill:#AA182D;" d="M36.691,25.997H1.327c0.803,2.029,1.958,3.914,3.398,5.553c1.433,1.631,3.145,3.015,5.042,4.072
				c1.937,1.08,4.062,1.815,6.253,2.16c2.266,0.358,4.597,0.306,6.844-0.157c2.163-0.445,4.242-1.273,6.12-2.434
				c1.846-1.141,3.494-2.598,4.852-4.289C35.026,29.422,35.992,27.764,36.691,25.997z"/>
			<g>
				<polygon style="fill:#FFFFFF;" points="13.639,15.177 12.527,15.819 11.573,14.959 11.839,16.216 10.727,16.858 12.004,16.992 
					12.271,18.248 12.793,17.076 14.07,17.209 13.116,16.35 				"/>
				<polygon style="fill:#FFFFFF;" points="30.402,18.279 29.211,18.76 28.385,17.777 28.475,19.057 27.285,19.538 28.531,19.849 
					28.621,21.13 29.301,20.04 30.547,20.351 29.721,19.368 				"/>
				<polygon style="fill:#FFFFFF;" points="26.444,14.959 25.49,15.819 24.378,15.177 24.901,16.35 23.947,17.209 25.223,17.076 
					25.746,18.248 26.013,16.992 27.29,16.858 26.177,16.216 				"/>
				<polygon style="fill:#FFFFFF;" points="31.702,22.796 31.263,21.589 30.909,22.825 29.625,22.87 30.691,23.587 30.337,24.822 
					31.348,24.031 32.413,24.748 31.974,23.541 32.985,22.751 				"/>
				<polygon style="fill:#FFFFFF;" points="21.769,14.465 21.591,13.194 20.988,14.328 19.723,14.105 20.615,15.028 20.012,16.162 
					21.167,15.599 22.059,16.523 21.88,15.251 23.034,14.688 				"/>
				<polygon style="fill:#FFFFFF;" points="9.631,17.777 8.805,18.76 7.615,18.279 8.295,19.368 7.47,20.351 8.716,20.04 
					9.396,21.13 9.486,19.849 10.732,19.538 9.542,19.057 				"/>
				<polygon style="fill:#FFFFFF;" points="17.029,14.328 16.427,13.194 16.248,14.465 14.983,14.688 16.137,15.251 15.958,16.523 
					16.85,15.599 18.004,16.162 17.402,15.028 18.294,14.105 				"/>
				<polygon style="fill:#FFFFFF;" points="7.108,22.825 6.754,21.589 6.315,22.796 5.031,22.751 6.043,23.541 5.604,24.748 
					6.668,24.031 7.68,24.822 7.326,23.587 8.391,22.87 				"/>
			</g>
		</g>
	</g>
</g>
<g id="Layer_1">
</g>
</svg>
