<?xml version="1.0" encoding="iso-8859-1"?>
<!-- Generator: Adobe Illustrator 18.0.0, SVG Export Plug-In . SVG Version: 6.00 Build 0)  -->
<!DOCTYPE svg PUBLIC "-//W3C//DTD SVG 1.1//EN" "http://www.w3.org/Graphics/SVG/1.1/DTD/svg11.dtd">
<svg version="1.1" xmlns="http://www.w3.org/2000/svg" xmlns:xlink="http://www.w3.org/1999/xlink" x="0px" y="0px"
	 viewBox="0 0 38.018 38.017" style="enable-background:new 0 0 38.018 38.017;" xml:space="preserve">
<g id="Layer_4">
	<g id="Layer_5">
		<g>
			<path style="fill:#008B00;" d="M38.018,19.008c0-2.132-0.356-4.261-1.06-6.275c-0.679-1.941-1.676-3.768-2.94-5.392
				c-1.253-1.609-2.765-3.017-4.46-4.149c-1.719-1.148-3.625-2.014-5.622-2.549c-2.079-0.556-4.251-0.752-6.396-0.588
				c-2.103,0.16-4.174,0.673-6.107,1.514C9.553,2.387,7.811,3.512,6.288,4.883C4.772,6.25,3.476,7.861,2.468,9.636
				c-1.028,1.811-1.754,3.788-2.139,5.834c-0.399,2.122-0.436,4.312-0.107,6.447c0.317,2.064,0.978,4.073,1.95,5.922
				c0.951,1.809,2.195,3.461,3.669,4.877c1.476,1.418,3.179,2.597,5.027,3.474c1.896,0.9,3.94,1.479,6.027,1.711
				c2.143,0.236,4.327,0.111,6.428-0.376c2.02-0.469,3.958-1.272,5.718-2.368c1.732-1.078,3.289-2.436,4.594-4.006
				c1.312-1.579,2.366-3.369,3.107-5.284c0.766-1.978,1.191-4.082,1.264-6.202C38.014,19.446,38.018,19.227,38.018,19.008z"/>
			<g>
				<g>
					<path style="fill:#FF1A06;" d="M15.925,17.703v20.063c2.82,0.461,5.738,0.283,8.479-0.526c1.048-0.31,2.069-0.712,3.048-1.198
						V17.703H15.925z"/>
					<path style="fill:#FF7E00;" d="M27.452,36.041c1.983-0.985,3.79-2.319,5.318-3.922c1.53-1.605,2.778-3.478,3.666-5.511
						c0.916-2.097,1.443-4.357,1.557-6.642c0.038-0.754,0.029-1.51-0.021-2.264H27.452V36.041z"/>
					<path d="M23.61,17.703v19.752c2.876-0.715,5.493-2.085,7.685-3.943V17.703H23.61z"/>
				</g>
				<g>
					<path style="fill:#FF7E00;" d="M33.618,7.063c0.035-0.171-0.215-0.01-0.272,0.017c-0.27,0.122-0.556,0.203-0.844,0.269
						c-0.566,0.13-1.153,0.191-1.707,0.374c-0.277,0.091-0.554,0.188-0.835,0.271c-0.286,0.084-0.593,0.051-0.889,0.048
						c-0.302-0.003-0.601-0.001-0.903,0.01c-0.247,0.01-0.518,0.013-0.738,0.14c-0.155-0.212-0.259-0.525-0.023-0.725
						c0.082-0.069,0.169-0.072,0.27-0.073c0.066-0.001,0.221,0.011,0.255-0.065c0,0,0.142-0.009,0.157,0.196
						c0.197-0.045,0.292-0.289,0.129-0.426c-0.161-0.135-0.404-0.183-0.609-0.172c-0.16-0.179-0.437-0.233-0.665-0.253
						c-0.245-0.022-0.503,0.006-0.725,0.119c-0.442,0.228-0.684,0.758-0.793,1.22c-0.559-0.148-1.123-0.252-1.691-0.356
						c-0.568-0.103-1.099-0.29-1.626-0.525c-0.253-0.113-0.505-0.23-0.761-0.338c-0.113-0.047-0.229-0.098-0.351-0.119
						c-0.206-0.038-0.022,0.188,0.038,0.252c0.177,0.189,0.348,0.382,0.528,0.566c-0.782-0.441-1.631-0.744-2.445-1.117
						c-0.176-0.08-0.33-0.203-0.508-0.28C18.39,6,18.548,6.391,18.59,6.467c0.196,0.354,0.567,0.644,0.883,0.887
						c-0.309-0.094-0.625-0.2-0.901-0.37c-0.267-0.165-0.482-0.393-0.739-0.57c-0.105-0.072-0.123-0.035-0.108,0.073
						c0.012,0.086,0.033,0.172,0.065,0.253c0.105,0.277,0.31,0.498,0.532,0.688c-0.177-0.099-0.347-0.212-0.505-0.338
						c-0.064-0.052-0.205-0.188-0.297-0.165c-0.06,0.015-0.027,0.142-0.014,0.178c0.031,0.087,0.088,0.164,0.148,0.232
						c0.144,0.166,0.325,0.3,0.506,0.424c-0.154-0.045-0.312-0.102-0.44-0.204c-0.033-0.027-0.25-0.236-0.28-0.152
						c-0.031,0.088,0.03,0.215,0.073,0.286c0.085,0.138,0.215,0.235,0.346,0.325c0.53,0.363,1.155,0.579,1.783,0.699
						c-0.054,0.005-0.445,0.013-0.405,0.114c0.055,0.136,0.284,0.197,0.407,0.215c0.43,0.063,0.927,0.077,1.343-0.061
						c-0.287,0.13-0.603,0.231-0.919,0.258c-0.043,0.003-0.343,0.018-0.255,0.106c0.086,0.086,0.223,0.137,0.336,0.172
						c0.29,0.089,0.601,0.078,0.898,0.046c0.352-0.037,0.697-0.117,1.033-0.225c-0.291,0.129-0.604,0.275-0.919,0.333
						c-0.068,0.013-0.139,0.02-0.208,0.026c-0.032,0.004-0.147-0.004-0.168,0.031c-0.032,0.057,0.138,0.123,0.174,0.139
						c0.279,0.122,0.604,0.118,0.901,0.093c0.321-0.026,0.638-0.096,0.944-0.191c-0.056,0.113-0.293,0.16-0.399,0.194
						c-0.134,0.044-0.337,0.07-0.448,0.164c-0.059,0.051,0.121,0.14,0.151,0.154c0.144,0.064,0.298,0.1,0.457,0.101
						c0.347,0.003,0.68-0.123,0.975-0.298c-0.149,0.098-0.298,0.194-0.458,0.271c-0.029,0.015-0.187,0.077-0.158,0.127
						c0.025,0.045,0.134,0.051,0.177,0.057c0.364,0.051,0.734-0.07,1.065-0.214c-0.105,0.053-0.207,0.108-0.308,0.165
						c-0.071,0.04-0.164,0.079-0.22,0.141c-0.073,0.08,0.259,0.081,0.295,0.08c0.443-0.011,0.833-0.248,1.214-0.449
						c-0.193,0.105-0.384,0.218-0.562,0.346c-0.057,0.04-0.281,0.192-0.141,0.254c0.178,0.077,0.411-0.005,0.59-0.043
						c0.283-0.06,0.562-0.149,0.822-0.276c-0.174,0.09-0.353,0.183-0.506,0.306c-0.163,0.132-0.048,0.236,0.105,0.307
						c0.31,0.143,0.702,0.117,1.003-0.035l-0.062,0.297l0.205-0.231c-0.069,0.15-0.126,0.307-0.158,0.469
						c-0.034,0.176-0.079,0.36-0.097,0.538c-0.018,0.166,0.163-0.038,0.202-0.08c0.119-0.126,0.174-0.271,0.188-0.442
						c-0.013,0.201-0.055,0.393-0.094,0.589c-0.022,0.108-0.018,0.24,0.12,0.142c-0.021,0.233-0.172,0.419-0.404,0.468
						c-0.258,0.053-0.588,0.051-0.644,0.382c0,0-0.056,0.15-0.025,0.271l0.14-0.164c0.208,0.065,0.485-0.059,0.65-0.184
						c-0.118,0.101-0.261,0.302-0.121,0.445c0,0-0.065,0.229,0.177,0.301c-0.01-0.008-0.113-0.097-0.054-0.206
						c0.24,0.031,0.375-0.218,0.377-0.426c0,0.173,0.074,0.357,0.229,0.445c0,0,0.022,0.184,0.227,0.223
						c0,0-0.094-0.118-0.081-0.237c0.069-0.062,0.142-0.144,0.15-0.242c0.01-0.112-0.046-0.234-0.09-0.334l0.117-0.089
						c0,0-0.003,0.072,0.02,0.114c0,0-0.095,0.199,0.127,0.359c0,0-0.038-0.095,0-0.212c0,0,0.203,0.102,0.406-0.187
						c0,0-0.134,0.27,0,0.426c0,0-0.046,0.292,0.206,0.306c0,0-0.069-0.088-0.034-0.21c0.248-0.074,0.248-0.366,0.214-0.579
						c0.154-0.133,0.14,0.104,0.218,0.179c0.071,0.066,0.209,0.007,0.263,0.077c0.039,0.052,0.003,0.15-0.029,0.197
						c0.359-0.007,0.378-0.642,0.008-0.658c0.014-0.241,0.34-0.043,0.421,0.046c0.048-0.217-0.164-0.31-0.341-0.302
						c-0.057,0.003-0.123-0.001-0.176-0.026c-0.08-0.039-0.041-0.196-0.041-0.269c0.108,0.068,0.222,0.127,0.346,0.159
						c0.076,0.02,0.192,0.063,0.133-0.052c-0.064-0.125-0.163-0.227-0.244-0.339c-0.041-0.057-0.203-0.296-0.122-0.365
						c0.046-0.039,0.154,0.079,0.186,0.104c0.04,0.031,0.281,0.216,0.326,0.116c0.019-0.039-0.152-0.131-0.178-0.148
						c-0.118-0.075-0.215-0.229-0.248-0.363c0.169,0.165,0.388,0.298,0.623,0.341c0.071,0.013,0.156,0.005,0.12-0.089
						c-0.037-0.097-0.132-0.162-0.208-0.225c0.195,0.146,0.401,0.299,0.639,0.369c0.12,0.035,0.353,0.105,0.456-0.001
						c0.125-0.128-0.163-0.262-0.245-0.303c-0.208-0.104-0.398-0.23-0.522-0.434c0.391,0.244,0.849,0.497,1.318,0.522
						c0.117,0.006,0.375,0.001,0.234-0.169c-0.138-0.167-0.337-0.295-0.514-0.416c0.233,0.155,0.575,0.173,0.837,0.087
						c0.071-0.024,0.233-0.103,0.107-0.171c-0.079-0.043-0.172-0.056-0.259-0.074c0,0,0.776,0.027,0.792-0.12
						c-0.059-0.104-0.241-0.14-0.347-0.163c-0.161-0.037-0.326-0.053-0.487-0.093c0.495,0.11,1.059,0.126,1.536-0.067
						c0.064-0.025,0.695-0.302,0.593-0.382c0.663-0.043,1.339-0.218,1.938-0.526c-0.455-0.788-0.965-1.54-1.524-2.251
						c-0.269,0.103-0.538,0.204-0.806,0.307C33.334,7.457,33.571,7.288,33.618,7.063z M26.736,11.668
						c0.002-0.023,0.003-0.044,0.004-0.066C26.739,11.624,26.738,11.647,26.736,11.668z M28.091,12.728
						c-0.073,0.036-0.177,0-0.256,0.004c-0.1,0.004-0.203,0.021-0.29,0.073c-0.083-0.036-0.287-0.093-0.312-0.195
						c-0.039-0.165-0.004-0.372,0.001-0.541c0.057,0.077,0.123,0.172,0.208,0.221c0.141,0.08,0.002-0.358-0.013-0.398
						c0,0,0.09-0.79,0.062-1.191c0.135,0.287,0.302,0.559,0.427,0.851c0.11,0.255,0.219,0.58,0.094,0.85
						c0.054-0.035,0.098-0.083,0.133-0.138C28.152,12.386,28.223,12.662,28.091,12.728z"/>
					<path d="M27.566,10.133c-0.088-0.077-0.17-0.162-0.227-0.265c-0.031-0.055-0.055-0.114-0.071-0.175
						c-0.007-0.028-0.065-0.057-0.056-0.007c0.035,0.153,0.116,0.292,0.229,0.402c0.107,0.104,0.237,0.193,0.314,0.325
						c0.029,0.05,0.037,0.146,0.076,0.186c0.031,0.03,0.024-0.084,0.021-0.093C27.805,10.352,27.685,10.238,27.566,10.133z"/>
					<path d="M26.939,6.812c-0.119-0.006-0.314,0.047-0.393,0.145c-0.035,0.045,0.146,0.066,0.18,0.075
						c0.122,0.033,0.417,0.128,0.417-0.09C27.14,6.891,27.116,6.821,26.939,6.812z M27.072,6.99
						c-0.114,0.115-0.314-0.017-0.44-0.032c0.102-0.061,0.421-0.188,0.459-0.002C27.091,6.958,27.088,6.974,27.072,6.99z"/>
					<g>
						<path d="M31.657,9.545c-0.038-0.007-0.423-0.109-0.436-0.062c-0.004,0.014,0.005,0.028,0.019,0.032
							c0.659,0.171,1.354,0.2,2.031,0.153c0.692-0.048,1.38-0.203,2.019-0.476c-0.009-0.015-0.018-0.029-0.026-0.044
							C34.138,9.629,32.86,9.738,31.657,9.545z"/>
						<path d="M33.627,7.122c0.021-0.055,0.035-0.17-0.055-0.167C33.513,6.957,33.448,7,33.395,7.025
							c-0.065,0.029-0.133,0.059-0.2,0.086c-0.262,0.107-0.533,0.177-0.81,0.238c-0.564,0.125-1.153,0.189-1.702,0.377
							c-0.244,0.084-0.487,0.188-0.736,0.257c-0.262,0.073-0.557,0.049-0.825,0.046c-0.287-0.003-0.573-0.012-0.86-0.003
							c-0.267,0.009-0.581,0.005-0.823,0.131c-0.09-0.131-0.18-0.289-0.142-0.453c0.03-0.138,0.139-0.275,0.289-0.284L27.6,7.418
							c0.184-0.011,0.303-0.021,0.345-0.064c0.121,0.015,0.061,0.136,0.127,0.191c0.07,0.047,0.195-0.103,0.223-0.15
							c0.065-0.115,0.043-0.228-0.055-0.314c-0.16-0.142-0.413-0.187-0.621-0.182c-0.159-0.167-0.407-0.224-0.628-0.244
							c-0.252-0.024-0.518-0.009-0.75,0.099c-0.467,0.213-0.717,0.756-0.835,1.226c-0.62-0.161-1.253-0.25-1.879-0.384
							c-0.602-0.129-1.167-0.381-1.726-0.632L21.726,6.93c-0.159-0.07-0.317-0.143-0.48-0.206c-0.093-0.036-0.266-0.135-0.359-0.062
							c-0.114,0.096,0.475,0.658,0.538,0.724c-0.387-0.207-0.788-0.384-1.191-0.556c-0.411-0.175-0.849-0.326-1.238-0.546
							c-0.085-0.049-0.167-0.102-0.252-0.15c-0.058-0.033-0.14-0.089-0.211-0.079c-0.166,0.023,0.005,0.373,0.046,0.445
							c0.181,0.323,0.487,0.555,0.768,0.786c-0.344-0.114-0.676-0.244-0.967-0.465c-0.144-0.107-0.287-0.22-0.422-0.338
							c-0.041-0.035-0.183-0.188-0.244-0.135c-0.09,0.071,0.015,0.294,0.043,0.377c0.071,0.209,0.203,0.386,0.356,0.542
							C18.004,7.197,17.9,7.117,17.794,7.04c-0.064-0.045-0.215-0.187-0.302-0.131c-0.099,0.069,0.025,0.273,0.068,0.343
							c0.107,0.173,0.273,0.301,0.435,0.421c-0.127-0.048-0.238-0.125-0.345-0.208c-0.04-0.03-0.172-0.156-0.224-0.09
							c-0.062,0.081,0.013,0.246,0.057,0.319c0.069,0.113,0.172,0.203,0.278,0.281c0.501,0.367,1.109,0.593,1.711,0.728
							c-0.048,0.007-0.296,0.026-0.264,0.12c0.073,0.191,0.326,0.235,0.505,0.252c0.312,0.03,0.636,0.034,0.949,0.003
							c-0.211,0.071-0.439,0.123-0.66,0.145c-0.051,0.005-0.287,0.014-0.229,0.114c0.067,0.107,0.236,0.157,0.349,0.194
							c0.163,0.054,0.332,0.076,0.504,0.08c0.354,0.008,0.705-0.053,1.048-0.135c-0.247,0.097-0.503,0.173-0.767,0.198
							c-0.038,0.004-0.146,0.007-0.152,0.06c-0.011,0.084,0.18,0.15,0.236,0.173c0.52,0.199,1.177,0.069,1.694-0.077
							c-0.184,0.096-0.389,0.148-0.587,0.2c-0.053,0.015-0.118,0.029-0.159,0.069c-0.059,0.059,0.035,0.127,0.079,0.158
							c0.309,0.225,0.755,0.174,1.095,0.057c-0.066,0.035-0.155,0.052-0.204,0.115c-0.06,0.077,0.05,0.108,0.107,0.12
							c0.27,0.054,0.547,0.006,0.807-0.071c-0.032,0.019-0.274,0.139-0.224,0.201c0.071,0.099,0.277,0.06,0.38,0.057
							c0.218-0.006,0.422-0.078,0.618-0.17c-0.077,0.056-0.195,0.116-0.225,0.214c-0.033,0.11,0.117,0.123,0.188,0.123
							c0.316-0.002,0.629-0.083,0.926-0.184c-0.088,0.056-0.213,0.111-0.254,0.214c-0.048,0.118,0.113,0.202,0.198,0.237
							c0.316,0.129,0.677,0.128,0.99-0.007l-0.051,0.245c-0.002,0.012,0.003,0.023,0.015,0.028c0.01,0.006,0.023,0.003,0.03-0.006
							l0.099-0.111c-0.085,0.223-0.118,0.459-0.158,0.692c-0.005,0.028-0.08,0.371,0.049,0.263c0.004-0.003,0.009-0.008,0.016-0.014
							c0.049-0.04,0.179-0.145,0.256-0.274c-0.002,0.008-0.003,0.016-0.005,0.023l-0.013,0.057c-0.018,0.083-0.155,0.481,0.07,0.381
							c-0.045,0.242-0.228,0.372-0.462,0.406c-0.244,0.036-0.53,0.1-0.578,0.389c-0.008,0.023-0.056,0.164-0.026,0.284
							c0.003,0.01,0.011,0.017,0.02,0.019c0.01,0.002,0.02-0.001,0.026-0.008l0.129-0.151c0.167,0.041,0.355-0.027,0.503-0.1
							c-0.068,0.101-0.096,0.24-0.011,0.34c-0.017,0.085,0.002,0.179,0.063,0.242c0.027,0.027,0.06,0.047,0.095,0.063
							c0.032,0.015,0.113-0.009,0.06-0.035c-0.02-0.019-0.08-0.081-0.051-0.156c0.173,0.013,0.314-0.119,0.361-0.277
							c0.027,0.099,0.086,0.213,0.205,0.286c0.011,0.046,0.059,0.195,0.246,0.231c0.029,0.001,0.042-0.03,0.023-0.046
							c-0.016-0.021-0.079-0.112-0.073-0.204c0.191-0.179,0.161-0.356,0.067-0.581l0.061-0.046c0.002,0.021,0.007,0.045,0.016,0.064
							c-0.031,0.09,0.006,0.398,0.156,0.385c0.02-0.001,0.034-0.024,0.023-0.041c-0.007-0.018-0.024-0.083-0.005-0.163
							c0.055,0.015,0.181,0.028,0.317-0.1c-0.022,0.094-0.03,0.219,0.043,0.312c-0.01,0.083,0.007,0.174,0.061,0.239
							c0.028,0.036,0.067,0.061,0.111,0.074c0.017,0.005,0.136,0.01,0.08-0.036c-0.012-0.017-0.051-0.081-0.031-0.169
							c0.246-0.083,0.252-0.37,0.22-0.589c0.106-0.08,0.104,0.067,0.136,0.132c0.055,0.111,0.161,0.106,0.267,0.116
							c0.118,0.011-0.097,0.256,0.081,0.212c0.33-0.08,0.327-0.651-0.021-0.699c0.042-0.161,0.317,0.004,0.37,0.087
							c0.02,0.015,0.034,0.011,0.045-0.011c0.06-0.17-0.116-0.325-0.271-0.339c-0.077-0.008-0.191,0.014-0.259-0.027
							c-0.06-0.037-0.025-0.136-0.025-0.19c0.111,0.065,0.335,0.203,0.472,0.162c0.098-0.029-0.12-0.285-0.145-0.32
							c-0.075-0.106-0.152-0.216-0.196-0.341c-0.031-0.087-0.03-0.164,0.066-0.072l0.011,0.012c0.065,0.069,0.318,0.261,0.411,0.154
							c0.053-0.069-0.104-0.135-0.146-0.157c-0.107-0.058-0.182-0.172-0.236-0.277c0.146,0.121,0.326,0.228,0.515,0.262
							c0.116,0.021,0.26,0.002,0.169-0.146c0.172,0.112,0.358,0.213,0.564,0.243c0.101,0.016,0.27,0.035,0.347-0.051
							c0.114-0.127-0.125-0.251-0.211-0.297c-0.176-0.094-0.354-0.2-0.484-0.354c0.366,0.218,0.764,0.401,1.191,0.448
							c0.087,0.01,0.271,0.039,0.331-0.049c0.089-0.132-0.302-0.383-0.382-0.442c0.19,0.05,0.399,0.064,0.589,0.015
							c0.068-0.018,0.181-0.047,0.211-0.121c0.028-0.071-0.069-0.118-0.121-0.138c0.605-0.006,0.616-0.109,0.62-0.144
							c0-0.004,0-0.008-0.002-0.011c-0.004-0.011-0.036-0.084-0.243-0.147c0.042,0.002,0.083,0.002,0.126,0.002h0.038
							c0.324-0.003,0.646-0.084,0.942-0.21c0.13-0.056,0.447-0.14,0.449-0.319c0.655-0.055,1.324-0.223,1.91-0.524
							c-0.01-0.017-0.019-0.031-0.028-0.047c-0.595,0.305-1.258,0.477-1.924,0.523c-0.233,0-0.466,0.034-0.699,0.045
							c-0.123,0.006-0.246,0.011-0.369,0.017c-0.061,0.003-0.123,0.005-0.184,0.008c-0.024-0.005-0.045-0.002-0.065,0.01
							c-0.014,0.018-0.002,0.044,0.021,0.044c0.428-0.017,0.859-0.022,1.285-0.07c-0.012,0.079-0.149,0.135-0.209,0.168
							c-0.108,0.059-0.221,0.107-0.336,0.15c-0.254,0.094-0.523,0.152-0.793,0.155h-0.038c-0.192,0-0.397-0.004-0.586-0.05
							c-0.048-0.012-0.115-0.037-0.165-0.021c-0.058,0.019,0.042,0.059,0.056,0.062c0.228,0.061,0.606,0.006,0.76,0.217
							c-0.044,0.091-0.302,0.082-0.38,0.087c-0.138,0.009-0.28,0.014-0.417,0c-0.283-0.028-0.563-0.12-0.823-0.233
							c0.006,0.001,0.013,0.001,0.019,0.001c0.139,0.005,0.347,0.046,0.468-0.042c0.069-0.051-0.131-0.114-0.159-0.124
							c-0.349-0.12-0.662-0.358-0.975-0.549c0.429,0.216,0.88,0.395,1.351,0.488c0.191,0.037,0.412,0.081,0.602,0.017
							c0.086-0.029,0.249-0.08,0.286-0.174c0.058-0.141-1.057-0.365-1.174-0.403c-0.466-0.153-0.911-0.375-1.311-0.658
							c0.246,0.128,0.511,0.22,0.785,0.259c0.237,0.033,0.548,0.062,0.764-0.064c0.092,0,0.732,0.008,0.728-0.055
							c-0.004-0.039-0.64,0.003-0.73,0.003c-0.052-0.024-0.43-0.204-0.691-0.372c0.409,0.142,0.849,0.175,1.278,0.197
							c0.057,0.004,0.413,0.014,0.319-0.131c-0.051-0.08-0.177-0.118-0.263-0.146c0.162,0.013,0.441,0.064,0.587-0.029
							c0.088-0.057-0.141-0.171-0.18-0.188c0.26,0.032,0.529,0.024,0.772-0.081c0.121-0.053,0.235-0.127,0.327-0.223
							c0.017-0.017,0.102-0.119,0.032-0.108c-0.292,0.053-0.59,0.035-0.883,0c-0.303-0.035-0.607-0.077-0.9-0.161
							c0.805-0.167,1.554-0.484,2.314-0.783c-0.011-0.015-0.022-0.028-0.034-0.043c-0.261,0.103-0.457,0.18-0.589,0.232
							C33.461,7.374,33.571,7.264,33.627,7.122z M23.246,10.521c-0.189,0-0.287-0.038-0.298-0.046
							c0.028-0.067,0.141-0.088,0.199-0.117c0.103-0.052,0.199-0.116,0.295-0.178c0.027-0.017,0.118-0.057,0.124-0.091
							c0.007-0.04-0.04-0.03-0.059-0.019c-0.095,0.051-0.185,0.105-0.284,0.148c-0.211,0.089-0.438,0.142-0.666,0.139
							c-0.114-0.001-0.228-0.019-0.335-0.059c-0.078-0.028-0.209-0.071-0.248-0.152c-0.004-0.007-0.004-0.01-0.005-0.01
							c0.031-0.048,0.122-0.057,0.173-0.067c0.097-0.019,0.191-0.048,0.286-0.079c0.089-0.029,0.393-0.097,0.404-0.219
							c0.001-0.009-0.003-0.017-0.01-0.022c-0.058-0.044-0.216,0.051-0.276,0.066C22.331,9.87,22.112,9.91,21.891,9.93
							c-0.2,0.02-0.406,0.026-0.607-0.002c-0.137-0.02-0.39-0.059-0.474-0.186c0.133-0.054,0.281-0.025,0.418-0.06
							c0.172-0.042,0.339-0.105,0.504-0.171c0.08-0.031,0.159-0.064,0.239-0.098c0.015-0.007,0.19-0.066,0.12-0.1
							c-0.035-0.018-0.097,0.018-0.129,0.031c-0.086,0.033-0.181,0.053-0.271,0.075c-0.34,0.084-0.691,0.141-1.043,0.139
							c-0.169-0.001-0.339-0.022-0.5-0.074c-0.107-0.033-0.267-0.071-0.329-0.173c0.05-0.042,0.138-0.037,0.198-0.041
							c0.099-0.006,0.198-0.024,0.295-0.044c0.235-0.045,0.467-0.123,0.685-0.222c0.105-0.034,0.255-0.055,0.347-0.114
							c0.031-0.012,0.013-0.062-0.019-0.049c-0.08,0-0.188,0.06-0.263,0.085c-0.112,0.039-0.224,0.07-0.341,0.089
							c-0.226,0.033-0.452,0.025-0.68,0.023c-0.238-0.003-0.659,0.036-0.782-0.229c0.03-0.027,0.217-0.059,0.381-0.071h0.013
							c0.262,0,0.549-0.044,0.799-0.125c0.015-0.005,0.021-0.016,0.017-0.031c-0.009-0.033-0.051-0.014-0.069-0.01
							c-0.081,0.019-0.163,0.038-0.245,0.055c-0.168,0.034-0.34,0.06-0.512,0.06c-0.483-0.094-0.956-0.253-1.394-0.479
							c-0.204-0.105-0.419-0.219-0.586-0.379c-0.099-0.095-0.264-0.274-0.197-0.426c0.114,0.026,0.195,0.132,0.282,0.201
							c0.112,0.091,0.265,0.138,0.4,0.178c0.594,0.243,1.196,0.457,1.797,0.676l0.018-0.049c-0.6-0.219-1.202-0.432-1.792-0.675
							c-0.165-0.11-0.326-0.232-0.463-0.377c-0.056-0.06-0.262-0.309-0.188-0.405c0.053-0.051,0.256,0.134,0.294,0.163
							c0.154,0.123,0.316,0.232,0.488,0.331c0.147,0.112,0.343,0.173,0.514,0.239c0.204,0.08,0.41,0.152,0.616,0.228
							c0.424,0.156,0.848,0.314,1.271,0.475c0.03,0.009,0.052-0.037,0.019-0.049c-0.627-0.255-1.274-0.462-1.903-0.71
							c-0.132-0.052-0.271-0.101-0.396-0.167c-0.132-0.069-0.248-0.195-0.348-0.305c-0.099-0.108-0.183-0.227-0.239-0.362
							c-0.044-0.107-0.122-0.282-0.093-0.401c0.205,0.082,0.364,0.281,0.535,0.416c0.204,0.16,0.42,0.285,0.66,0.384
							c0.242,0.1,0.493,0.17,0.733,0.272c0.395,0.169,0.789,0.338,1.184,0.508c0.03,0.009,0.054-0.034,0.021-0.049L19.484,7.33
							c-0.261-0.2-0.517-0.425-0.729-0.677c-0.024-0.028-0.357-0.503-0.223-0.548c0.107-0.054,0.329,0.167,0.419,0.216
							c0.28,0.155,0.589,0.267,0.884,0.389c0.581,0.242,1.16,0.493,1.71,0.802l0.005,0.004c0.016,0.007,0.141,0.065,0.373,0.156
							c-0.126,0.088-0.255,0.151-0.409,0.156c-0.028,0.001-0.262,0.008-0.197,0.074c0.042,0.038,0.059,0.091,0.108,0.124
							c0.059,0.038,0.128,0.051,0.197,0.054c0.158,0.007,0.314-0.033,0.466-0.073c-0.122,0.105-0.252,0.203-0.396,0.276
							c-0.041,0.021-0.214,0.062-0.119,0.12c0.247,0.149,0.593,0.1,0.859,0.041c-0.149,0.136-0.367,0.321-0.396,0.334
							C22.01,8.789,21.984,8.829,22,8.856c0.021,0.038,0.12,0.027,0.156,0.029c0.154,0.011,0.31,0.016,0.464-0.004l-0.262,0.16
							c-0.02,0.012-0.016,0.043,0.007,0.047c0.022,0.006,0.497,0.113,1.291-0.225c-0.167,0.11-0.338,0.216-0.516,0.31
							c-0.044,0.023-0.299,0.1-0.305,0.151c-0.01,0.059,0.145,0.091,0.184,0.103c0.157,0.05,0.325,0.058,0.488,0.037
							c0.339-0.042,0.67-0.149,0.973-0.306c-0.16,0.123-0.322,0.24-0.432,0.299l-0.014,0.007c-0.069,0.037-0.364,0.137-0.356,0.238
							C23.687,9.777,23.845,9.8,23.9,9.81l-0.056,0.039c-0.012,0.009-0.015,0.024-0.007,0.036c0.011,0.013,0.023,0.015,0.036,0.007
							l0.102-0.07c0.27,0.027,0.545-0.078,0.784-0.191c0.243-0.116,0.47-0.272,0.647-0.476c0.036,0.077,0.086,0.151,0.154,0.221
							c-0.079,0.09-0.146,0.17-0.206,0.242l-1.199,0.685C23.74,10.483,23.432,10.521,23.246,10.521z M22.708,8.154
							c-0.064,0.07-0.123,0.146-0.192,0.213c-0.136,0.051-0.285,0.059-0.429,0.068c-0.155,0.009-0.321,0.007-0.463-0.064
							c0.138-0.055,0.263-0.137,0.379-0.226c0.061-0.048,0.122-0.099,0.18-0.152c0.017-0.017,0.052-0.084-0.002-0.066
							c-0.226,0.059-0.647,0.227-0.803-0.028c-0.002-0.003-0.004-0.006-0.006-0.008c0.236-0.016,0.416-0.047,0.608-0.195
							c0.339,0.131,0.682,0.235,1.043,0.276C22.923,8.048,22.794,8.06,22.708,8.154z M22.809,8.135
							c0.245,0.102,0.521,0.156,0.785,0.107c-0.041,0.04-0.084,0.08-0.122,0.122c-0.046,0.048-0.122,0.076-0.18,0.106l-0.034,0.017
							c-0.17,0.09-0.307,0.228-0.485,0.305c-0.004,0.001-0.006,0.003-0.01,0.004c-0.002,0-0.004,0.001-0.006,0.002
							c-0.191,0.069-0.599,0.036-0.697,0.027c0.149-0.081,0.266-0.215,0.391-0.326c0.07-0.064,0.142-0.127,0.201-0.201
							C22.697,8.24,22.742,8.172,22.809,8.135z M25.384,9.1c-0.165,0.197-0.38,0.349-0.608,0.463
							c-0.241,0.119-0.525,0.238-0.801,0.206c-0.002,0-0.004-0.001-0.006-0.001C23.852,9.754,23.764,9.72,23.734,9.7
							c0.024-0.026,0.146-0.093,0.325-0.189l0.015-0.007c0.213-0.115,0.606-0.431,0.825-0.611c0.003-0.002,0.005-0.005,0.008-0.007
							c0.045-0.036,0.088-0.074,0.133-0.11c0.121-0.109,0.231-0.23,0.329-0.361C25.324,8.584,25.287,8.85,25.384,9.1z
							 M25.917,11.217c-0.158,0-0.34-0.047-0.486-0.104c-0.052-0.019-0.157-0.059-0.157-0.128c0-0.112,0.251-0.228,0.329-0.274
							c0.066-0.039,0.134-0.083,0.205-0.112c0.021-0.009,0.045-0.018,0.062-0.033c0.022-0.02,0.006-0.062-0.025-0.047
							c-0.168,0.082-0.344,0.146-0.522,0.2c-0.19,0.056-0.386,0.102-0.583,0.122c-0.078,0.009-0.263,0.058-0.316-0.024
							c-0.049-0.083,0.284-0.266,0.336-0.297c0.082-0.051,0.165-0.102,0.249-0.149c0.031-0.019,0.176-0.076,0.166-0.119
							c-0.015-0.062-0.189,0.066-0.214,0.078c-0.157,0.081-0.314,0.163-0.477,0.234c-0.246,0.107-0.567,0.2-0.831,0.092
							c0.048-0.05,0.295-0.19,0.525-0.306c0.001-0.001,1.091-0.622,1.091-0.622c-0.056,0.072-0.168,0.182-0.167,0.28
							c0,0.065,0.104,0.066,0.148,0.065c0.238-0.004,0.465-0.119,0.652-0.26c0.321,0.327,0.619,0.812,0.532,1.288
							C26.385,11.125,26.178,11.217,25.917,11.217z M26.656,12.415c-0.017-0.023,0.018-0.175,0.055-0.336l0.013-0.057
							c0.035-0.158,0.032-0.316,0.046-0.477c0.003-0.033,0.021-0.111-0.02-0.129c-0.033-0.014-0.033,0.071-0.034,0.086
							c-0.004,0.118-0.003,0.238-0.037,0.354c-0.048,0.16-0.179,0.28-0.307,0.38c-0.009-0.089,0.031-0.183,0.046-0.27
							c0.02-0.115,0.035-0.233,0.061-0.348c0.023-0.104,0.058-0.206,0.097-0.306c0.014-0.035,0.044-0.079,0.046-0.117
							c0.001-0.024-0.013-0.059-0.038-0.028l-0.14,0.157l0.041-0.201c0.049-0.249-0.006-0.491-0.098-0.701
							c-0.007-0.193,0.051-0.332,0.077-0.387c0.183,0.122,0.369,0.222,0.577,0.292c0.216,0.072,0.328,0.175,0.426,0.378
							c0.014,0.206,0.003,0.412-0.012,0.618c-0.008,0.103-0.016,0.207-0.025,0.311c-0.006,0.064-0.05,0.202-0.023,0.265
							c0.055,0.154,0.098,0.345,0.068,0.383c-0.023-0.007-0.04-0.021-0.057-0.036c-0.007-0.007-0.014-0.013-0.021-0.021
							c-0.002-0.002-0.004-0.004-0.007-0.006c-0.031-0.033-0.074-0.084-0.131-0.161c-0.005-0.008-0.006-0.01-0.008-0.011
							c-0.089-0.124-0.169-0.253-0.169-0.254c-0.007-0.01-0.019-0.015-0.029-0.012c-0.048,0.012-0.043,0.197-0.056,0.24
							c-0.042,0.137-0.122,0.272-0.242,0.353c-0.007,0.004-0.01,0.005-0.011,0.007C26.733,12.389,26.694,12.413,26.656,12.415z
							 M27.523,10.823c0.124,0.245,0.265,0.481,0.372,0.735c0.116,0.275,0.157,0.536,0.095,0.83
							c-0.006,0.011-0.003,0.025,0.006,0.032c0.037,0.029,0.107-0.061,0.128-0.084c0.002,0.043,0.005,0.086,0.008,0.129
							c0.001,0.011,0.001,0.021,0.002,0.03c0,0.003,0,0.006,0.001,0.008c0.003,0.077,0.025,0.16-0.055,0.2
							c-0.098,0.019-0.196-0.006-0.29,0.005c-0.007,0.001-0.014,0.001-0.021,0.002c-0.039,0.005-0.077,0.013-0.115,0.022
							c-0.004,0.002-0.009,0.003-0.014,0.005c-0.007,0.002-0.015,0.004-0.021,0.006c-0.013,0.005-0.025,0.01-0.038,0.016
							c-0.009,0.004-0.017,0.007-0.025,0.012l-0.009,0.005c-0.045-0.018-0.087-0.037-0.128-0.058
							c-0.035-0.016-0.069-0.034-0.104-0.053c-0.018-0.012-0.043-0.021-0.056-0.038c-0.026-0.088-0.011-0.22-0.004-0.31
							c0.001-0.058,0.002-0.115,0.004-0.173c0.044,0.059,0.093,0.125,0.155,0.167c0.004,0.003,0.008,0.006,0.011,0.008
							c0.008,0.005,0.015,0.009,0.021,0.011c0.003,0.001,0.005,0.002,0.007,0.003c0.166,0.055,0.023-0.388,0.004-0.445
							c0.01-0.079,0.018-0.159,0.023-0.239c0.024-0.182,0.031-0.362,0.038-0.539C27.524,11.014,27.525,10.918,27.523,10.823z
							 M27.383,13.043l-0.106,0.078c-0.01,0.008-0.013,0.021-0.008,0.032c0.107,0.168,0.131,0.423-0.054,0.546
							c-0.005,0.005-0.008,0.011-0.009,0.017c-0.008,0.073,0.02,0.146,0.047,0.194c-0.123-0.055-0.14-0.174-0.141-0.18
							c-0.005-0.037-0.07-0.07-0.096-0.091c-0.049-0.038-0.077-0.098-0.098-0.154c-0.018-0.049-0.011-0.197-0.062-0.221
							c-0.035-0.017-0.032,0.081-0.032,0.094c-0.002,0.062-0.026,0.132-0.06,0.186c-0.034,0.057-0.087,0.101-0.148,0.126
							c-0.027,0.011-0.147,0.006-0.159,0.031c-0.029,0.053-0.026,0.104-0.008,0.149c-0.047-0.036-0.072-0.093-0.074-0.152
							c-0.002-0.025,0.023-0.076,0-0.098c-0.186-0.139,0.164-0.4,0.116-0.446c-0.018-0.018-0.235,0.116-0.272,0.13
							c-0.126,0.048-0.25,0.05-0.384,0.05c-0.01-0.004-0.022-0.001-0.028,0.008l-0.102,0.119c-0.005-0.099,0.032-0.199,0.032-0.201
							c0.001-0.002,0.002-0.004,0.002-0.006c0.022-0.267,0.316-0.311,0.529-0.344c0.277-0.042,0.486-0.201,0.517-0.494
							c0.051-0.033,0.249-0.185,0.291-0.528c0.032,0.049,0.079,0.117,0.13,0.188c-0.001,0.01-0.001,0.021-0.001,0.031
							c-0.01,0.171-0.016,0.346-0.002,0.517c0.002,0.012,0.003,0.019,0.005,0.023c0.005,0.008,0.008,0.012,0.011,0.015
							c0.003,0.003,0.005,0.005,0.008,0.007c0.003,0.003,0.005,0.005,0.008,0.007c0.07,0.059,0.167,0.094,0.245,0.131
							c0.003,0.002,0.007,0.003,0.01,0.005C27.374,12.896,27.376,13,27.383,13.043z M28.736,12.614
							c0.168,0.039,0.464-0.018,0.473,0.241c-0.082-0.073-0.194-0.146-0.309-0.127c-0.055,0.009-0.161,0.098-0.109,0.157
							c0.046,0.04,0.119,0.023,0.169,0.062c0.057,0.045,0.084,0.114,0.091,0.185c0.015,0.144-0.043,0.323-0.201,0.36
							c0.038-0.081,0.028-0.23-0.092-0.214c-0.105,0.005-0.193-0.037-0.216-0.146c-0.026-0.127-0.098-0.17-0.209-0.082
							c-0.007,0.007-0.01,0.016-0.008,0.025c0,0.205,0.058,0.471-0.195,0.55c-0.058,0.014-0.022,0.165-0.007,0.2
							c-0.128-0.034-0.133-0.159-0.133-0.268c0.005-0.026-0.023-0.061-0.035-0.082c-0.02-0.034-0.024-0.068-0.023-0.108
							c0.001-0.051,0.011-0.102,0.026-0.149c0.003-0.011,0.055-0.113,0.024-0.109c-0.058,0.009-0.096,0.079-0.135,0.113
							c-0.09,0.078-0.167,0.069-0.277,0.069c-0.007-0.004-0.015-0.004-0.021-0.001c-0.007,0.003-0.013,0.009-0.015,0.016
							c-0.018,0.058-0.021,0.11-0.017,0.15c-0.052-0.054-0.084-0.126-0.08-0.2c0.004-0.068-0.003-0.135,0-0.202
							c0-0.003,0-0.005-0.001-0.008c-0.01-0.036,0.051-0.254,0.116-0.218c0.002,0,0.004-0.001,0.006-0.002
							c0.005-0.003,0.009-0.005,0.013-0.007l0.009-0.004c0.031-0.017,0.068-0.029,0.103-0.038c0.005-0.001,0.01-0.002,0.015-0.003
							c0.048-0.013,0.1-0.017,0.149-0.017c0.071-0.004,0.142,0.005,0.214,0.002c0.006-0.001,0.012-0.001,0.017-0.002
							c0.006,0,0.012-0.002,0.017-0.003c0.004-0.001,0.008-0.003,0.011-0.004c0.149-0.076,0.078-0.345,0.068-0.481
							c0.075-0.12,0.111-0.265,0.128-0.366c0.091,0.213,0.297,0.386,0.347,0.425C28.646,12.441,28.602,12.58,28.736,12.614z
							 M29.113,11.827c0.051,0.037,0.108,0.061,0.159,0.098c-0.117,0.026-0.252-0.085-0.33-0.159l-0.011-0.011
							c-0.054-0.052-0.163-0.104-0.177,0.01c-0.014,0.126,0.091,0.277,0.161,0.372c0.076,0.112,0.166,0.221,0.23,0.34
							c-0.159-0.004-0.326-0.098-0.458-0.181c-0.111-0.088-0.215-0.193-0.29-0.313c-0.02-0.033-0.075-0.236-0.113-0.235
							c-0.014,0.001-0.023,0.012-0.024,0.025c0,0.184-0.066,0.415-0.194,0.549c0.125-0.519-0.226-1.012-0.457-1.444
							c-0.121-0.226-0.185-0.444-0.437-0.554c-0.116-0.051-0.239-0.078-0.352-0.139c-0.12-0.063-0.231-0.146-0.353-0.206
							c-0.014-0.008-0.026-0.006-0.036,0.007c-0.004,0.007-0.081,0.131-0.096,0.333c-0.076-0.147-0.174-0.273-0.272-0.404
							c-0.051-0.068-0.115-0.199-0.214-0.139c-0.128,0.078-0.23,0.159-0.379,0.206c-0.066,0.021-0.14,0.041-0.211,0.039
							c-0.009,0-0.11-0.01-0.109-0.012c-0.002-0.126,0.518-0.6,0.465-0.653c-0.438-0.419-0.144-1.09-0.141-1.097
							c0.014-0.028-0.029-0.052-0.046-0.024c-0.123,0.195-0.266,0.358-0.415,0.495c-0.003,0.003-0.006,0.005-0.011,0.009
							C25,8.741,24.997,8.744,24.993,8.746c-0.003,0.002-0.006,0.006-0.01,0.008c-0.03,0.027-0.062,0.055-0.093,0.078
							c-0.008,0.007-0.016,0.014-0.024,0.018c-0.002,0.001-0.004,0.004-0.006,0.005c-0.272,0.211-0.587,0.365-0.916,0.463
							c-0.325,0.096-0.704,0.17-1.023,0.015c0.099-0.04,1.1-0.566,1.046-0.649c-0.024-0.042-0.42,0.163-0.467,0.184
							c-0.316,0.14-0.711,0.216-1.055,0.181l0.335-0.204c0.189-0.04,0.335-0.225,0.5-0.31l0.034-0.018
							c0.059-0.031,0.108-0.058,0.144-0.079c0.188,0.13,0.514,0.038,0.707-0.029l-0.142,0.175c-0.011,0.022-0.005,0.035,0.018,0.042
							l0.307,0.026c0.035,0,0.037-0.049,0.004-0.053l-0.257-0.021l0.174-0.213c0.008-0.01,0.008-0.023,0.001-0.033
							c-0.008-0.009-0.021-0.013-0.031-0.007c-0.227,0.056-0.501,0.197-0.734,0.08c0.051-0.056,0.158-0.119,0.181-0.187
							c0.021-0.053-0.213-0.016-0.238-0.013c-0.186,0.024-0.394-0.032-0.565-0.098c0.039-0.02,0.251-0.097,0.231-0.165
							c-0.004-0.01-0.013-0.017-0.023-0.018c-0.523-0.063-1.035-0.231-1.512-0.453c-0.446-0.457-0.65-0.716-0.657-0.772
							c0.091-0.042,0.229,0.042,0.312,0.075c0.158,0.062,0.313,0.133,0.469,0.202l0.077,0.034c0.565,0.25,1.135,0.507,1.742,0.636
							c0.315,0.067,0.635,0.106,0.95,0.171c0.316,0.065,0.629,0.171,0.947,0.219c0.001,0.001,0.088,0.017,0.153,0.054
							c0.028,0.017,0.055-0.028,0.025-0.045c-0.044-0.025-0.093-0.041-0.142-0.054c0.116-0.454,0.357-0.985,0.809-1.193
							c0.233-0.108,0.502-0.121,0.754-0.09c0.179,0.023,0.466,0.062,0.567,0.233c0.029,0.033,0.194,0.02,0.236,0.027
							c0.107,0.022,0.215,0.054,0.31,0.107c0.072,0.041,0.149,0.101,0.145,0.193c-0.005,0.096-0.08,0.187-0.168,0.22
							c-0.024-0.169-0.142-0.188-0.175-0.188c-0.059-0.013-0.394-0.142-0.409-0.118c-0.032,0.062,0.289,0.143,0.335,0.154
							c-0.065,0.017-0.189,0.023-0.265,0.028l-0.016,0.001c-0.139,0.008-0.249,0.109-0.305,0.232
							c-0.081,0.18-0.018,0.368,0.079,0.526c-0.069-0.06-0.236-0.172-0.21-0.281c0.009-0.034-0.08-0.022-0.034,0.077
							c0.04,0.084,0.106,0.155,0.175,0.217c0.137,0.124,0.288,0.229,0.422,0.357c0.15,0.146,0.289,0.304,0.418,0.469
							c0.001,0.002,0.002,0.004,0.004,0.005c0.011,0.015,0.021,0.028,0.032,0.042c0.07,0.206,0.098,0.435,0.116,0.65
							c0.004,0.045,0.013,0.365,0.075,0.365c0.066-0.008-0.093-0.829-0.111-0.912c0.392,0.487,0.872,0.873,1.418,1.172
							c0.188,0.24,0.454,0.411,0.647,0.647c-0.173,0.014-0.368-0.067-0.529-0.122c-0.193-0.066-0.371-0.156-0.532-0.283
							c-0.129-0.102-0.267-0.219-0.367-0.35c-0.025-0.034-0.145-0.227-0.198-0.201c-0.011,0.007-0.016,0.021-0.012,0.032
							c0.066,0.182,0.223,0.315,0.349,0.455c0.078,0.087,0.157,0.172,0.236,0.258c0.07,0.075,0.152,0.143,0.205,0.233
							c-0.031,0.106-0.358-0.054-0.418-0.079c-0.274-0.117-0.504-0.291-0.721-0.493c-0.037-0.043-0.155-0.212-0.222-0.208
							c-0.068,0.005,0.029,0.094,0.038,0.104c0.048,0.049,0.097,0.097,0.146,0.143c0.33,0.396,0.546,0.974,0.561,1.016
							C28.881,11.574,29.021,11.76,29.113,11.827z M30.991,11.216c0.091,0.07,0.277,0.183,0.324,0.298
							c0.043,0.104-0.266,0.067-0.305,0.061c-0.462-0.067-0.872-0.264-1.265-0.51c-0.01-0.007-0.022-0.005-0.031,0.003
							c-0.13,0.13,0.715,0.572,0.77,0.664c0.061,0.105-0.164,0.113-0.214,0.112c-0.189-0.004-0.369-0.092-0.527-0.189
							c-0.072-0.045-0.143-0.092-0.212-0.142c-0.036-0.024-0.07-0.054-0.107-0.077c-0.029-0.019-0.058,0.009-0.037,0.037
							c0.042,0.061,0.264,0.17,0.206,0.267c-0.046,0.065-0.237-0.033-0.288-0.056c-0.152-0.066-0.292-0.155-0.411-0.273
							c-0.02-0.056-0.176-0.465-0.422-0.83c0.102,0.082,0.959,0.663,1.038,0.383c0.021-0.065-0.131-0.189-0.166-0.229
							c-0.086-0.093-0.174-0.184-0.259-0.278c0.307,0.274,0.67,0.417,1.067,0.507c0.051,0.012,0.178,0.049,0.215-0.008
							c0.028-0.042-0.071-0.117-0.095-0.142c-0.155-0.156-0.32-0.303-0.475-0.459c0.092,0.047,0.178,0.087,0.26,0.119
							c0.32,0.322,0.688,0.561,0.692,0.562C30.793,11.11,30.927,11.166,30.991,11.216z M31.451,10.892
							c0.225,0.049,0.277,0.096,0.287,0.108c-0.06,0.12-0.259,0.12-0.373,0.123c-0.197,0.005-0.41-0.008-0.579-0.12
							c-0.084-0.08-0.195-0.136-0.287-0.207c-0.111-0.086-0.218-0.176-0.32-0.273c0.087,0.029,0.172,0.051,0.258,0.065
							C31.005,10.862,31.403,10.89,31.451,10.892z M32.439,8.26c0.313,0.041,0.623,0.058,0.938,0.021
							c-0.358,0.389-0.911,0.347-1.382,0.244c-0.04-0.011-0.275-0.096-0.29-0.045c-0.003,0.014,0.005,0.027,0.018,0.031
							c0.012,0.004,0.12,0.035,0.271,0.068c0.289,0.084,0.435,0.167,0.459,0.199c-0.067,0.043-0.173,0.024-0.249,0.025
							c-0.13,0.002-0.261,0.001-0.39-0.016c-0.25-0.033-0.499-0.099-0.739-0.175c-0.031-0.009-0.047,0.039-0.015,0.05
							c0.002,0.001,0.273,0.093,0.464,0.14l0.039,0.01c0.117,0.029,0.233,0.062,0.348,0.103c0.065,0.022,0.336,0.141,0.105,0.159
							c-0.284,0.024-0.593-0.032-0.874-0.071C31,8.985,30.859,8.96,30.721,8.923c-0.123-0.032-0.274-0.064-0.37-0.154
							c-0.023-0.023-0.059,0.012-0.038,0.037c0.162,0.173,0.705,0.441,0.874,0.523c-0.596,0.231-1.313-0.096-1.802-0.427
							c-0.04-0.03-0.045,0.035-0.018,0.059c0.042,0.037,0.086,0.072,0.13,0.107c0.11,0.089,0.226,0.171,0.345,0.248
							C30.08,9.468,30.331,9.6,30.59,9.711c0.264,0.113,0.533,0.197,0.812,0.265c0.14,0.034,0.279,0.067,0.417,0.106
							c0.083,0.023,0.265,0.047,0.323,0.117c0.007,0.085-0.185,0.13-0.243,0.146c-0.164,0.045-0.334,0.026-0.5,0
							c-0.422-0.067-0.83-0.22-1.216-0.399c-0.309-0.144-0.618-0.304-0.905-0.488c-0.045-0.028-0.451-0.31-0.483-0.262
							c-0.033,0.045,0.795,0.534,0.82,0.55c0.234,0.144,0.468,0.288,0.704,0.429c0.226,0.134,0.454,0.281,0.707,0.359
							c-0.294,0.083-0.665,0.011-0.939-0.099c-0.136-0.042-0.283-0.114-0.4-0.194c-0.567-0.312-1.074-0.718-1.464-1.236
							c-0.004-0.006-0.008-0.011-0.012-0.016c0.086,0.015,0.763,0.118,0.665-0.104c-0.005-0.01-0.012-0.019-0.02-0.027
							c0.165,0.021,0.338,0.047,0.504,0.031c0.127-0.011,0.235-0.088,0.09-0.185c0.226,0.046,0.462,0.077,0.69,0.041
							c0.217-0.034,0.112-0.168-0.019-0.246c0.225,0.031,0.461,0.041,0.682-0.017c0.082-0.021,0.188-0.057,0.21-0.15
							c0.02-0.088-0.084-0.128-0.149-0.146c0.155-0.016,0.397-0.046,0.694-0.104c0.003,0.004,0.007,0.008,0.013,0.009
							C31.847,8.185,32.15,8.222,32.439,8.26z M33.137,7.548c-0.43,0.183-0.876,0.326-1.331,0.431
							c-0.228,0.052-0.458,0.094-0.69,0.124C31,8.119,30.885,8.131,30.769,8.141c-0.031,0.002-0.103-0.007-0.122,0.024
							c-0.034,0.057,0.486,0.068,0.265,0.217c-0.149,0.1-0.354,0.091-0.525,0.083C30.263,8.46,30.061,8.49,29.957,8.41
							c-0.065-0.019-0.009,0.054,0.014,0.066c0.065,0.033,0.13,0.066,0.19,0.108c0.17,0.12-0.098,0.123-0.189,0.123
							c-0.295,0-0.582-0.065-0.86-0.157c-0.013-0.004-0.028,0.003-0.033,0.016c-0.005,0.014,0.002,0.028,0.015,0.033
							c0.005,0.002,0.037,0.016,0.091,0.034c0.149,0.058,0.289,0.13,0.298,0.171c0.001,0.002,0.001,0.005-0.004,0.01
							c-0.089,0.084-0.286,0.022-0.393,0.014c-0.12-0.01-0.239-0.023-0.358-0.041c-0.036-0.005-0.092-0.025-0.129-0.014
							c-0.023,0.007-0.05,0.04-0.009,0.046c0.014,0.003,0.033,0.005,0.057,0.009c0.079,0.016,0.166,0.044,0.181,0.078
							c0.037,0.063-0.155,0.069-0.184,0.07c-0.16,0.006-0.323-0.02-0.48-0.05c-0.223-0.285-0.46-0.526-0.707-0.719
							c0.194-0.104,0.439-0.108,0.653-0.122c0.289-0.019,0.579-0.018,0.869-0.015c0.268,0.003,0.555,0.033,0.819-0.005
							c0.262-0.039,0.525-0.159,0.776-0.242c0.252-0.084,0.499-0.161,0.761-0.21c0.284-0.053,0.567-0.111,0.85-0.171
							c0.258-0.055,0.517-0.105,0.769-0.183c0.116-0.037,0.231-0.08,0.343-0.128c0.09-0.039,0.187-0.125,0.287-0.129
							c0.054,0-0.077,0.218-0.09,0.237C33.408,7.371,33.27,7.466,33.137,7.548z"/>
						<path d="M33.54,7.959c-0.127,0.04-0.254,0.077-0.383,0.11c-0.112,0.03-0.24,0.031-0.346,0.083
							c-0.014,0.005-0.02,0.018-0.016,0.032c0.003,0.014,0.019,0.021,0.031,0.018c0.11-0.041,0.231-0.052,0.344-0.082
							c0.131-0.034,0.262-0.072,0.391-0.113c0.253-0.081,0.503-0.175,0.745-0.282c-0.01-0.014-0.021-0.028-0.031-0.043
							C34.036,7.788,33.79,7.879,33.54,7.959z"/>
						<path d="M32.727,8.777c-0.032,0.011-0.387,0.099-0.369,0.148c0.004,0.014,0.02,0.022,0.033,0.017
							c0.018-0.006,1.389-0.447,2.243-0.76c-0.008-0.012-0.017-0.024-0.024-0.036C33.989,8.374,33.356,8.572,32.727,8.777z"/>
					</g>
				</g>
			</g>
		</g>
	</g>
</g>
<g id="Layer_1">
</g>
</svg>
